<svg xmlns="http://www.w3.org/2000/svg" width="70" height="69.995" viewBox="0 0 70 69.995">
  <g id="Grupo_111495" data-name="Grupo 111495" transform="translate(501.945 -982.142)">
    <path id="Trazado_172134" data-name="Trazado 172134" d="M-485.677,1023.016a1.183,1.183,0,0,1-1.086-1.094,3.012,3.012,0,0,1-.014-.614q0-14.215-.013-28.43a4.232,4.232,0,0,1,1.335-3.226c2.117-2.071,4.2-4.172,6.286-6.279a3.98,3.98,0,0,1,2.994-1.231q13.771.022,27.543.009a3.514,3.514,0,0,1,3.837,3.871q0,6.6,0,13.19v.67c.3-.013.389-.221.523-.354,1.633-1.621,3.256-3.251,4.888-4.874a2.33,2.33,0,0,1,3.6,0q1.507,1.489,2.994,3a2.332,2.332,0,0,1-.013,3.6q-5.769,5.78-11.554,11.546a1.363,1.363,0,0,0-.448,1.065c.016,4.579.01,9.158.01,13.737v.585c.288.069.438-.1.606-.2,1.784-1,3.562-2.017,5.347-3.017a3.715,3.715,0,0,1,5.081,1.019,3.731,3.731,0,0,1-.931,5.1q-12.256,9.831-24.51,19.663a9.182,9.182,0,0,1-2.828,1.379h-2.05c-.046-.044-.084-.111-.138-.128q-9.019-2.877-18.04-5.746-3.083-.981-6.167-1.959c-.348-.11-.665-.257-.795.332a3.442,3.442,0,0,1-3.567,2.841c-1.616.009-3.235-.048-4.848.015-1.987.078-3.464-.59-4.2-2.539-.011-.03-.073-.041-.111-.061v-18.18c.05-.039.127-.068.146-.119a3.7,3.7,0,0,1,3.967-2.47c1.638.043,3.279.011,4.919.008a3.508,3.508,0,0,1,3.6,2.383c.091.237.134.386.46.233,1.047-.493,2.114-.942,3.173-1.408a3.934,3.934,0,0,0,.382-.132,11.373,11.373,0,0,1,6.591-.946c1.034.157,2.063.353,3.094.529q10.728,1.831,21.458,3.653a3.688,3.688,0,0,1,3.259,2.869c.089.341.188.385.492.206.9-.531,1.81-1.053,2.736-1.539a.921.921,0,0,0,.556-.951c-.021-4.26-.011-8.52-.016-12.78,0-.168.072-.356-.113-.567-1.178,1.185-2.354,2.349-3.508,3.536a2.98,2.98,0,0,1-1.258.776c-1.557.505-3.113,1.014-4.66,1.547a5.038,5.038,0,0,1-1.672.267q-10.491-.01-20.981,0a4.65,4.65,0,0,1-.614-.015,1.12,1.12,0,0,1-.992-1.186c.022-.742.522-1.127,1.484-1.127q8,0,15.992,0c1.025,0,2.05,0,3.075,0,.273,0,.434-.034.536-.36.551-1.756,1.152-3.5,1.712-5.25a3.011,3.011,0,0,1,.774-1.258q4.917-4.893,9.82-9.8a1.143,1.143,0,0,0,.418-.875c-.015-5.353-.008-10.706-.012-16.06,0-.953-.427-1.391-1.37-1.391q-13.6-.006-27.2-.014c-.509,0-.591.179-.582.627.026,1.3.021,2.6.006,3.9a3.534,3.534,0,0,1-3.659,3.668c-1.253.012-2.508.041-3.758-.013-.636-.028-.773.171-.771.783q.03,13.975.014,27.951C-484.448,1022.47-484.659,1022.749-485.677,1023.016Zm20.927,10.416h2.734c2.506,0,5.011.006,7.517-.005a1.28,1.28,0,0,0,1.353-1.17,1.323,1.323,0,0,0-1.072-1.446c-.132-.034-.263-.073-.4-.1q-4.966-.84-9.932-1.678c-4.406-.75-8.816-1.475-13.213-2.274a10.471,10.471,0,0,0-6.154.382c-1.528.65-3.038,1.342-4.572,1.975a.862.862,0,0,0-.627.948q.037,5.5,0,11c0,.572.081.9.756.85a2.458,2.458,0,0,1,.853.217q5.068,1.613,10.134,3.233c4.4,1.4,8.794,2.8,13.184,4.215a3.515,3.515,0,0,0,3.462-.613c1.607-1.268,3.2-2.555,4.8-3.836q9.9-7.936,19.8-15.873a1.449,1.449,0,0,0,.444-1.93,1.374,1.374,0,0,0-1.924-.38q-4.876,2.747-9.742,5.51-6.6,3.729-13.19,7.457a3.609,3.609,0,0,1-3.987-.108c-1.733-1.09-3.491-2.142-5.206-3.26a3.819,3.819,0,0,0-2.482-.717c-.838.066-1.684.016-2.527.014-1.143,0-1.733-.42-1.726-1.216s.588-1.2,1.74-1.2Q-469.738,1033.43-464.75,1033.432Zm-34.867,2.384q0,3.927,0,7.853c0,1.04.419,1.475,1.431,1.479q2.663.012,5.327,0c.977-.005,1.419-.447,1.42-1.429q.009-7.921,0-15.842c0-.971-.45-1.406-1.437-1.412q-2.629-.014-5.258,0c-1.069,0-1.481.424-1.482,1.5Q-499.621,1031.889-499.617,1035.816Zm58.644-29.822c-.063-.072-.134-.16-.213-.239-.9-.9-1.815-1.791-2.7-2.712-.276-.289-.417-.186-.64.037q-5.159,5.174-10.334,10.332c-.26.259-.314.421-.02.7.887.85,1.754,1.722,2.61,2.6.255.263.411.314.7.023q5.15-5.183,10.322-10.343C-441.133,1006.288-440.987,1006.2-440.973,1005.993Zm-17.112,29.863h-8.368l3.373,2.093a1.062,1.062,0,0,0,1.1.076C-460.723,1037.347-459.486,1036.641-458.085,1035.856Zm18.837-31.506c.118-.1.228-.176.322-.27.341-.335.666-.688,1.02-1.009.26-.236.269-.405,0-.654-.581-.546-1.128-1.126-1.7-1.683-.421-.412-.89-1.161-1.276-1.124-.48.046-.886.76-1.343,1.163-.262.231-.277.388-.013.643.9.87,1.777,1.766,2.664,2.651C-439.473,1004.162-439.367,1004.245-439.247,1004.351Zm4.9-4.875a2.484,2.484,0,0,0-.239-.345c-.9-.9-1.8-1.8-2.691-2.705-.237-.242-.4-.206-.614.021-.341.365-.69.724-1.061,1.059-.249.225-.225.376.007.6.639.613,1.257,1.248,1.884,1.874,1.142,1.141,1.143,1.142,2.293-.033C-434.629,999.8-434.5,999.645-434.348,999.475ZM-478.594,986.5l-3.864,3.838c.76,0,1.666.017,2.571-.005a1.2,1.2,0,0,0,1.286-1.283C-478.573,988.143-478.594,987.236-478.594,986.5Zm24.581,31.691c-.735-.713-1.373-1.318-1.993-1.94-.275-.276-.408-.18-.511.133-.261.794-.516,1.59-.792,2.378-.138.4-.005.53.368.411C-456.018,1018.875-455.1,1018.557-454.013,1018.19Z"/>
    <path id="Trazado_172135" data-name="Trazado 172135" d="M-412.908,1033.419c1.017-.267,1.228-.546,1.228-1.638q0-13.976-.014-27.951c0-.612.135-.811.771-.783,1.251.054,2.505.025,3.758.013a3.534,3.534,0,0,0,3.659-3.668c.015-1.3.02-2.6-.006-3.9-.009-.448.073-.628.582-.627q13.6.024,27.2.014c.942,0,1.369.439,1.37,1.391,0,5.353,0,10.707.012,16.06a1.143,1.143,0,0,1-.418.875q-4.913,4.9-9.82,9.8a3.011,3.011,0,0,0-.774,1.258c-.559,1.753-1.161,3.493-1.712,5.25-.1.325-.263.362-.536.36-1.025-.008-2.05,0-3.075,0q-8,0-15.992,0c-.962,0-1.462.386-1.484,1.127a1.12,1.12,0,0,0,.992,1.186,4.639,4.639,0,0,0,.614.015q10.49,0,20.981,0a5.038,5.038,0,0,0,1.672-.267c1.548-.532,3.1-1.042,4.66-1.547a2.979,2.979,0,0,0,1.258-.776c1.153-1.187,2.329-2.351,3.508-3.536.185.211.113.4.113.567.005,4.26,0,8.52.016,12.78a.921.921,0,0,1-.556.951c-.926.486-1.835,1.008-2.736,1.539-.3.179-.4.135-.492-.206a3.688,3.688,0,0,0-3.259-2.869q-10.733-1.807-21.458-3.653c-1.031-.176-2.06-.372-3.094-.529a11.373,11.373,0,0,0-6.591.946,3.934,3.934,0,0,1-.382.132Zm19.885-26.883q-6.731,0-13.461,0a3.347,3.347,0,0,0-.812.067,1.055,1.055,0,0,0-.859,1.151,1.059,1.059,0,0,0,.938,1.088,3.913,3.913,0,0,0,.748.044q13.461,0,26.923,0a3.575,3.575,0,0,0,.814-.062,1.05,1.05,0,0,0,.858-1.017,1.093,1.093,0,0,0-.742-1.177,2.459,2.459,0,0,0-.945-.1Zm2.872,8.172h4.51c1.777,0,3.554.007,5.331,0a1.177,1.177,0,0,0,1.29-1.123,1.2,1.2,0,0,0-1.291-1.2c-.091,0-.182,0-.273,0H-399.65a2.979,2.979,0,0,0-.545.022,1.162,1.162,0,0,0-.743,1.848,1.368,1.368,0,0,0,1.221.463Q-394.934,1014.7-390.15,1014.708Zm-8.748,9.325q-3.824,0-7.648,0a2.909,2.909,0,0,0-.808.084,1.05,1.05,0,0,0-.8,1.126,1.052,1.052,0,0,0,.865,1.078,3.458,3.458,0,0,0,.814.06q7.614,0,15.228,0a4.091,4.091,0,0,0,.815-.055,1.05,1.05,0,0,0,.9-1.05,1.061,1.061,0,0,0-.837-1.168,3.08,3.08,0,0,0-.81-.076Q-395.04,1024.028-398.9,1024.033Zm-3.446-5.805c-1.479,0-2.959,0-4.439,0-.886,0-1.376.423-1.376,1.152s.5,1.172,1.373,1.174q4.438.011,8.877,0c.847,0,1.391-.476,1.392-1.172s-.523-1.151-1.389-1.154C-399.385,1018.223-400.864,1018.228-402.344,1018.227Zm12.879,0c-1.138,0-2.275-.009-3.412,0a1.162,1.162,0,0,0-1.3,1.167,1.187,1.187,0,0,0,1.266,1.157q3.378.024,6.757,0a1.16,1.16,0,0,0,1.289-1.189c-.007-.715-.476-1.13-1.321-1.137C-387.281,1018.219-388.373,1018.227-389.465,1018.227Zm-16.372-3.525v0c.387,0,.775.016,1.161,0a1.173,1.173,0,0,0,1.164-1.111,1.156,1.156,0,0,0-1.08-1.194,24.418,24.418,0,0,0-2.526,0,1.1,1.1,0,0,0-1.039,1.209,1.1,1.1,0,0,0,1.09,1.09C-406.658,1014.723-406.247,1014.7-405.837,1014.7Z" transform="translate(-72.769 -10.403)" fill="#fffae8"/>
    <path id="Trazado_172136" data-name="Trazado 172136" d="M-407.346,1231.816q-4.988,0-9.977,0c-1.152,0-1.734.4-1.74,1.2s.584,1.213,1.726,1.216c.843,0,1.69.053,2.527-.014a3.819,3.819,0,0,1,2.482.717c1.715,1.118,3.473,2.17,5.206,3.26a3.609,3.609,0,0,0,3.987.108q6.587-3.744,13.19-7.457,4.872-2.754,9.742-5.51a1.374,1.374,0,0,1,1.924.38,1.449,1.449,0,0,1-.444,1.93q-9.9,7.935-19.8,15.873c-1.6,1.28-3.189,2.568-4.8,3.836a3.515,3.515,0,0,1-3.462.613c-4.39-1.42-8.789-2.812-13.184-4.215q-5.067-1.617-10.134-3.233a2.459,2.459,0,0,0-.853-.217c-.674.049-.759-.277-.756-.85q.032-5.5,0-11a.862.862,0,0,1,.627-.948c1.535-.633,3.045-1.325,4.572-1.975a10.471,10.471,0,0,1,6.154-.382c4.4.8,8.807,1.524,13.213,2.274q4.965.845,9.932,1.678c.134.023.265.062.4.1a1.323,1.323,0,0,1,1.072,1.446,1.28,1.28,0,0,1-1.353,1.17c-2.506.011-5.011.005-7.517.005Z" transform="translate(-57.404 -198.385)" fill="#ffd5ba"/>
    <path id="Trazado_172137" data-name="Trazado 172137" d="M-489.2,1234.077q0-3.927,0-7.853c0-1.075.413-1.495,1.482-1.5q2.629-.011,5.258,0c.987.005,1.436.441,1.437,1.412q.01,7.921,0,15.842c0,.983-.443,1.424-1.42,1.429q-2.663.015-5.327,0c-1.013,0-1.43-.439-1.431-1.479Q-489.208,1238-489.2,1234.077Zm4.08-4.692c.182,0,.365.008.547,0a1.17,1.17,0,0,0,1.216-1.128,1.2,1.2,0,0,0-1.169-1.191,7.568,7.568,0,0,0-1.092-.006,1.2,1.2,0,0,0-1.246,1.185,1.165,1.165,0,0,0,1.267,1.141C-485.443,1229.391-485.283,1229.385-485.124,1229.385Zm-.007,9.365c-.159,0-.319-.005-.478,0a1.161,1.161,0,0,0-1.26,1.147,1.21,1.21,0,0,0,1.252,1.179,8.075,8.075,0,0,0,1.092-.007,1.2,1.2,0,0,0,1.163-1.2,1.171,1.171,0,0,0-1.223-1.12C-484.766,1238.743-484.949,1238.751-485.131,1238.75Z" transform="translate(-10.413 -198.261)" fill="#28c65d"/>
    <path id="Trazado_172138" data-name="Trazado 172138" d="M-231.276,1098.708c-.014.205-.16.294-.269.4q-5.163,5.17-10.322,10.343c-.289.291-.445.24-.7-.023-.856-.882-1.723-1.754-2.61-2.6-.294-.282-.24-.443.02-.7q5.177-5.156,10.334-10.332c.223-.223.364-.326.64-.037.881.921,1.8,1.81,2.7,2.712C-231.41,1098.548-231.34,1098.636-231.276,1098.708Z" transform="translate(-209.697 -92.715)" fill="#f5cd6c"/>
    <path id="Trazado_172139" data-name="Trazado 172139" d="M-299.3,1276.168c-1.4.785-2.639,1.49-3.89,2.169a1.062,1.062,0,0,1-1.1-.076l-3.373-2.093Z" transform="translate(-158.789 -240.312)" fill="#d7dbe1"/>
    <path id="Trazado_172140" data-name="Trazado 172140" d="M-172.95,1082.5c-.12-.105-.225-.189-.32-.283-.887-.884-1.763-1.78-2.664-2.651-.264-.255-.25-.412.013-.643.458-.4.864-1.117,1.343-1.163.386-.037.855.712,1.276,1.124.57.557,1.118,1.138,1.7,1.683.265.249.256.418,0,.654-.354.32-.679.674-1.02,1.009C-172.722,1082.321-172.832,1082.4-172.95,1082.5Z" transform="translate(-266.297 -78.147)" fill="#d7dbe1"/>
    <path id="Trazado_172141" data-name="Trazado 172141" d="M-153.319,1062.635c-.152.17-.281.325-.421.469-1.15,1.175-1.151,1.174-2.293.033-.626-.626-1.244-1.261-1.884-1.874-.232-.222-.256-.373-.007-.6.37-.334.72-.693,1.061-1.058.212-.228.377-.263.614-.021.889.909,1.8,1.8,2.691,2.705A2.484,2.484,0,0,1-153.319,1062.635Z" transform="translate(-281.029 -63.159)" fill="#a97350"/>
    <path id="Trazado_172142" data-name="Trazado 172142" d="M-391.408,1005.991c0,.737.02,1.644-.006,2.55a1.2,1.2,0,0,1-1.286,1.283c-.905.023-1.811.005-2.571.005Z" transform="translate(-87.185 -19.492)" fill="#d7dbe1"/>
    <path id="Trazado_172143" data-name="Trazado 172143" d="M-254.554,1170.056c-1.09.367-2.005.685-2.928.981-.374.12-.507-.015-.368-.411.276-.789.531-1.585.792-2.378.1-.313.236-.408.511-.133C-255.927,1168.738-255.289,1169.342-254.554,1170.056Z" transform="translate(-199.458 -151.866)" fill="#a97350"/>
    <path id="Trazado_172144" data-name="Trazado 172144" d="M-371.747,1058.718h13.461a2.46,2.46,0,0,1,.945.1,1.093,1.093,0,0,1,.742,1.177,1.05,1.05,0,0,1-.858,1.017,3.575,3.575,0,0,1-.814.062q-13.461,0-26.923,0a3.913,3.913,0,0,1-.748-.044,1.059,1.059,0,0,1-.938-1.088,1.055,1.055,0,0,1,.859-1.151,3.35,3.35,0,0,1,.812-.067Q-378.477,1058.715-371.747,1058.718Z" transform="translate(-94.045 -62.585)"/>
    <path id="Trazado_172145" data-name="Trazado 172145" d="M-337.653,1093.033q-4.784,0-9.568,0a1.368,1.368,0,0,1-1.221-.463,1.162,1.162,0,0,1,.743-1.848,2.968,2.968,0,0,1,.545-.022h19.067c.091,0,.182,0,.273,0a1.2,1.2,0,0,1,1.291,1.2,1.177,1.177,0,0,1-1.29,1.123c-1.777.011-3.554,0-5.331,0Z" transform="translate(-125.266 -88.728)"/>
    <path id="Trazado_172146" data-name="Trazado 172146" d="M-377.627,1154.5q3.858,0,7.716,0a3.08,3.08,0,0,1,.81.076,1.061,1.061,0,0,1,.837,1.168,1.05,1.05,0,0,1-.9,1.05,4.091,4.091,0,0,1-.815.055q-7.614,0-15.228,0a3.458,3.458,0,0,1-.814-.06,1.052,1.052,0,0,1-.865-1.078,1.05,1.05,0,0,1,.8-1.126,2.909,2.909,0,0,1,.808-.084Q-381.451,1154.5-377.627,1154.5Z" transform="translate(-94.04 -140.872)"/>
    <path id="Trazado_172147" data-name="Trazado 172147" d="M-381.081,1122.719c1.48,0,2.959,0,4.439,0,.866,0,1.391.448,1.389,1.154s-.546,1.17-1.392,1.172q-4.438.01-8.877,0c-.872,0-1.373-.447-1.373-1.174s.49-1.148,1.376-1.152C-384.04,1122.714-382.561,1122.719-381.081,1122.719Z" transform="translate(-94.031 -114.894)"/>
    <path id="Trazado_172148" data-name="Trazado 172148" d="M-305.668,1122.709c1.092,0,2.184-.008,3.276,0,.844.008,1.314.423,1.321,1.137a1.16,1.16,0,0,1-1.289,1.189q-3.378.02-6.757,0a1.187,1.187,0,0,1-1.266-1.157,1.162,1.162,0,0,1,1.3-1.167C-307.943,1122.7-306.805,1122.709-305.668,1122.709Z" transform="translate(-156.566 -114.885)"/>
    <path id="Trazado_172149" data-name="Trazado 172149" d="M-384.572,1092.97c-.41,0-.821.021-1.229-.005a1.1,1.1,0,0,1-1.09-1.09,1.1,1.1,0,0,1,1.039-1.209,24.419,24.419,0,0,1,2.526,0,1.156,1.156,0,0,1,1.08,1.194,1.173,1.173,0,0,1-1.164,1.111c-.386.02-.774,0-1.161,0Z" transform="translate(-94.034 -88.67)"/>
    <path id="Trazado_172150" data-name="Trazado 172150" d="M-474.675,1239.781c-.159,0-.319.006-.478,0a1.165,1.165,0,0,1-1.267-1.141,1.2,1.2,0,0,1,1.246-1.185,7.568,7.568,0,0,1,1.092.006,1.2,1.2,0,0,1,1.169,1.191,1.17,1.17,0,0,1-1.216,1.128C-474.31,1239.788-474.493,1239.78-474.675,1239.781Z" transform="translate(-20.862 -208.657)"/>
    <path id="Trazado_172151" data-name="Trazado 172151" d="M-474.68,1301.517c.182,0,.365-.007.547,0a1.171,1.171,0,0,1,1.223,1.12,1.2,1.2,0,0,1-1.163,1.2,8.075,8.075,0,0,1-1.092.007,1.21,1.21,0,0,1-1.252-1.179,1.161,1.161,0,0,1,1.26-1.147C-475,1301.512-474.84,1301.517-474.68,1301.517Z" transform="translate(-20.864 -261.028)"/>
  </g>
</svg>
