<svg xmlns="http://www.w3.org/2000/svg" width="66.358" height="80" viewBox="0 0 66.358 80">
  <g id="Grupo_111398" data-name="Grupo 111398" transform="translate(480.816 -1808.077)">
    <path id="Trazado_171757" data-name="Trazado 171757" d="M-415.452,1808.077a2.411,2.411,0,0,1,.994,2.241q-.033,32.176-.019,64.353a2.445,2.445,0,0,1-.222,1.442,1.447,1.447,0,0,1-1.141.721c-.311.02-.624.024-.936.024q-17.065,0-34.131-.017c-.707,0-.9.185-.84.862a15.169,15.169,0,0,1,.009,2.029,1.512,1.512,0,0,1-1.547,1.608c-.449.024-.492.2-.495.562a17.236,17.236,0,0,1-.07,2.572,4.174,4.174,0,0,1-4.1,3.583q-8.318.035-16.636,0a4.175,4.175,0,0,1-4.169-4.178c-.016-.676-.021-1.354,0-2.03.012-.362-.093-.476-.474-.506a1.472,1.472,0,0,1-1.566-1.646,16.491,16.491,0,0,1,.362-5.115,7.993,7.993,0,0,1,7.792-5.493c.707-.01.874-.105.668-.847-.739-2.65-1.51-5.3-2.061-7.991a7.763,7.763,0,0,1,5.483-9.1c.6-.181.735-.42.734-1.009q-.028-19.993-.028-39.986a1.976,1.976,0,0,1,1.142-2.081Zm-2.149,34.457q0-15.305.012-30.611c0-.553-.086-.738-.7-.738q-22.843.032-45.685.005c-.545,0-.742.076-.741.7q.033,19.171.006,38.342c0,.517.105.742.655.9a7.932,7.932,0,0,1,5.5,9.261c-.594,2.631-1.327,5.232-2.034,7.837-.172.633-.175.872.626.869a7.8,7.8,0,0,1,7.166,4.043,1.076,1.076,0,0,0,1.1.6q16.634-.02,33.268.007c.677,0,.85-.146.849-.839Q-417.623,1857.722-417.6,1842.534Zm-48.7,35.7c3.59,0,7.179-.012,10.769.012.553,0,.689-.159.69-.7.009-3.179-1.952-5.3-5.127-5.342q-6.281-.081-12.564,0c-3.277.038-5.168,2.073-5.154,5.351,0,.547.15.7.695.691C-473.428,1878.225-469.865,1878.237-466.3,1878.237Zm-.1-9.165c.7,0,1.27-.016,1.842.006a.553.553,0,0,0,.665-.473c.758-2.941,1.613-5.86,2.28-8.821a4.63,4.63,0,0,0-1.962-5,4.741,4.741,0,0,0-5.356-.08,4.717,4.717,0,0,0-2.037,5.022c.585,2.4,1.236,4.775,1.865,7.159.185.7.187,1.615.64,2.035C-467.958,1869.388-467.018,1869-466.4,1869.072Zm.158,12.291c-2.4,0-4.791-.012-7.187.007-.719.006-1.7-.328-2.084.147-.361.448-.123,1.392-.118,2.117.006.9.4,1.3,1.272,1.305q8.085.011,16.171,0a1.134,1.134,0,0,0,1.28-1.242c.025-.52-.031-1.045.016-1.561.054-.594-.113-.8-.757-.79C-460.51,1881.385-463.375,1881.363-466.239,1881.363Z" transform="translate(0 0)" fill="#030303"/>
    <path id="Trazado_171758" data-name="Trazado 171758" d="M-356.607,1854.313q0,15.188.018,30.376c0,.694-.171.841-.849.839q-16.634-.035-33.268-.007a1.077,1.077,0,0,1-1.1-.6,7.8,7.8,0,0,0-7.166-4.043c-.8,0-.8-.237-.626-.869.707-2.6,1.44-5.206,2.034-7.837a7.932,7.932,0,0,0-5.5-9.261c-.55-.157-.655-.383-.655-.9q.021-19.17-.006-38.342c0-.621.2-.7.741-.7q22.842.022,45.685-.005c.617,0,.7.185.7.738Q-356.62,1839.008-356.607,1854.313Zm-17.318,11.735c-2.446,0-4.892-.007-7.338,0a3.527,3.527,0,0,0-3.8,3.794q-.011,3.005,0,6.01a3.569,3.569,0,0,0,3.792,3.823q7.338.016,14.676,0a3.563,3.563,0,0,0,3.8-3.817q.021-3.005,0-6.01a3.527,3.527,0,0,0-3.792-3.8C-369.033,1866.042-371.479,1866.049-373.925,1866.049Zm-5.845-8.314H-365c1.449,0,2.173-.506,2.2-1.528.027-1.05-.728-1.6-2.2-1.6h-29.53a6.381,6.381,0,0,0-.78.023,1.548,1.548,0,0,0-1.42,1.579,1.539,1.539,0,0,0,1.424,1.493,7.5,7.5,0,0,0,.858.03Q-387.113,1857.736-379.769,1857.735Zm.469-14.171h-14.374c-.26,0-.522-.009-.781.012a1.493,1.493,0,0,0-1.434,1.381,1.489,1.489,0,0,0,1.206,1.661,3.951,3.951,0,0,0,.852.069q14.491.005,28.982,0a3.5,3.5,0,0,0,.925-.1,1.5,1.5,0,0,0,1.049-1.893c-.206-.757-.787-1.126-1.817-1.126Q-372,1843.561-379.3,1843.564Zm3.477-11.065h-6.554c-1.638,0-3.277-.012-4.915.009a1.527,1.527,0,0,0-1.52,1.214,1.586,1.586,0,0,0,.875,1.744,2.424,2.424,0,0,0,1.069.16q7.646,0,15.292,0c2.341,0,4.681.007,7.022,0a1.561,1.561,0,0,0,1.721-1.351c.149-1.01-.588-1.767-1.755-1.769Q-370.205,1832.491-375.823,1832.5Zm-20.072,1.6a1.511,1.511,0,0,0,1.56,1.5,1.579,1.579,0,0,0,1.543-1.549,1.615,1.615,0,0,0-1.635-1.545A1.519,1.519,0,0,0-395.895,1834.1Z" transform="translate(-60.995 -11.779)" fill="#fffae8"/>
    <path id="Trazado_171759" data-name="Trazado 171759" d="M-454.442,2121.087c-3.564,0-7.127-.012-10.691.012-.545,0-.692-.144-.695-.691-.014-3.278,1.877-5.313,5.154-5.351q6.281-.073,12.564,0c3.176.041,5.136,2.163,5.127,5.342,0,.541-.137.7-.69.7C-447.262,2121.075-450.852,2121.087-454.442,2121.087Z" transform="translate(-11.859 -242.851)" fill="#a27b1c"/>
    <path id="Trazado_171760" data-name="Trazado 171760" d="M-429.557,2042.768c-.621-.069-1.56.316-2.063-.149-.453-.42-.456-1.334-.64-2.035-.629-2.385-1.279-4.764-1.865-7.159a4.717,4.717,0,0,1,2.037-5.022,4.741,4.741,0,0,1,5.356.08,4.63,4.63,0,0,1,1.962,5c-.667,2.961-1.522,5.88-2.28,8.821a.553.553,0,0,1-.665.473C-428.287,2042.751-428.86,2042.768-429.557,2042.768Z" transform="translate(-36.84 -173.695)" fill="#ffecb3"/>
    <path id="Trazado_171761" data-name="Trazado 171761" d="M-446.89,2158.667c2.864,0,5.729.022,8.593-.017.643-.009.811.2.757.79-.047.516.009,1.041-.016,1.561a1.134,1.134,0,0,1-1.28,1.242q-8.086.012-16.171,0c-.877,0-1.266-.409-1.272-1.305,0-.726-.243-1.669.118-2.117.382-.475,1.365-.141,2.084-.147C-451.681,2158.655-449.285,2158.667-446.89,2158.667Z" transform="translate(-19.35 -277.304)" fill="#28c65d"/>
    <path id="Trazado_171762" data-name="Trazado 171762" d="M-303.234,2029.286c2.446,0,4.892-.007,7.338,0a3.527,3.527,0,0,1,3.792,3.8q.021,3.005,0,6.01a3.563,3.563,0,0,1-3.8,3.817q-7.338.015-14.676,0a3.569,3.569,0,0,1-3.792-3.823q-.01-3,0-6.01a3.527,3.527,0,0,1,3.8-3.795C-308.126,2029.279-305.68,2029.286-303.234,2029.286Zm.01,10.508c2.392,0,4.785-.015,7.177.01.611.006.833-.217.827-.819-.02-1.924-.023-3.848,0-5.772.008-.609-.21-.812-.819-.809q-7.177.028-14.354,0c-.713,0-.88.269-.868.921.033,1.846.037,3.693,0,5.538-.015.712.215.96.938.949C-307.957,2039.772-305.59,2039.794-303.224,2039.794Z" transform="translate(-131.685 -175.017)" fill="#030303"/>
    <path id="Trazado_171763" data-name="Trazado 171763" d="M-353.3,1977.63q-7.343,0-14.687,0a7.5,7.5,0,0,1-.858-.03,1.539,1.539,0,0,1-1.424-1.493,1.548,1.548,0,0,1,1.42-1.579,6.381,6.381,0,0,1,.78-.023h29.53c1.475,0,2.231.549,2.2,1.6-.027,1.022-.75,1.528-2.2,1.528Z" transform="translate(-87.462 -131.674)" fill="#030303"/>
    <path id="Trazado_171764" data-name="Trazado 171764" d="M-349.637,1921.61q7.3,0,14.608,0c1.03,0,1.611.369,1.817,1.126a1.5,1.5,0,0,1-1.049,1.893,3.519,3.519,0,0,1-.925.1q-14.491.008-28.982,0a3.936,3.936,0,0,1-.852-.07,1.489,1.489,0,0,1-1.206-1.661,1.493,1.493,0,0,1,1.434-1.381c.259-.021.521-.012.781-.012Z" transform="translate(-90.658 -89.825)" fill="#030303"/>
    <path id="Trazado_171765" data-name="Trazado 171765" d="M-319.443,1868.611q5.617,0,11.234,0c1.167,0,1.9.759,1.755,1.769a1.561,1.561,0,0,1-1.721,1.351c-2.341.011-4.681,0-7.022,0q-7.646,0-15.292,0a2.424,2.424,0,0,1-1.069-.16,1.586,1.586,0,0,1-.875-1.744,1.527,1.527,0,0,1,1.52-1.214c1.638-.021,3.277-.009,4.915-.009Z" transform="translate(-117.375 -47.892)" fill="#030303"/>
    <path id="Trazado_171766" data-name="Trazado 171766" d="M-366.229,1870.252a1.519,1.519,0,0,1,1.469-1.591,1.615,1.615,0,0,1,1.635,1.545,1.579,1.579,0,0,1-1.543,1.549A1.511,1.511,0,0,1-366.229,1870.252Z" transform="translate(-90.66 -47.933)" fill="#030303"/>
    <path id="Trazado_171767" data-name="Trazado 171767" d="M-291.417,2051.6c-2.366,0-4.733-.022-7.1.014-.723.011-.953-.237-.938-.949.039-1.845.034-3.692,0-5.538-.012-.653.155-.925.868-.921q7.177.039,14.354,0c.609,0,.827.2.819.809-.025,1.924-.022,3.849,0,5.773.006.6-.216.825-.827.819C-286.632,2051.587-289.025,2051.6-291.417,2051.6Z" transform="translate(-143.492 -186.824)" fill="#43a047"/>
  </g>
</svg>
