<svg xmlns="http://www.w3.org/2000/svg" width="61.26" height="70" viewBox="0 0 61.26 70">
  <g id="Grupo_111496" data-name="Grupo 111496" transform="translate(1423.763 -760.236)">
    <path id="Trazado_172152" data-name="Trazado 172152" d="M-1413.5,760.236h1.23c.2.245.525.17.773.314a2.984,2.984,0,0,1,1.605,2.79c0,.436.148.785.636.792.4.006.6-.276.626-.664.011-.135.006-.272.013-.408a2.9,2.9,0,0,1,1.663-2.539c.15-.081.364-.07.425-.285h2.871a3.337,3.337,0,0,1,1.9,1.512.663.663,0,0,0,.736.412q4.675-.015,9.35,0c.848,0,1.124.232,1.314,1.058a1.129,1.129,0,0,1-1.307,1c-3.007-.017-6.015.006-9.022-.02-.525,0-.679.118-.676.664q.037,7.348.006,14.7c0,.529.125.677.667.674q7.552-.033,15.1,0c.6,0,.688-.19.685-.727-.021-4.625-.012-9.251-.012-13.876,0-1.408,0-1.408-1.4-1.418-.909-.006-1.155-.2-1.357-1.089a1.169,1.169,0,0,1,1.349-.971c.408.023.819.01,1.229,0,.167,0,.36.067.46-.173a3.42,3.42,0,0,1,2.03-1.742h2.6c.2.246.524.172.772.316a2.975,2.975,0,0,1,1.6,2.793c-.007.437.157.782.643.786.405,0,.592-.28.618-.669.007-.113,0-.227.01-.34a2.894,2.894,0,0,1,1.739-2.627c.132-.065.321-.064.363-.259h1.5a3.431,3.431,0,0,1,1.9,1.52.785.785,0,0,0,.662.463,4.125,4.125,0,0,1,3.544,4.139q.06,5.877,0,11.755a4.123,4.123,0,0,1-3.434,4.093,1.031,1.031,0,0,0-.818.555,2.777,2.777,0,0,1-2.956,1.4,2.816,2.816,0,0,1-2.364-2.006,4.15,4.15,0,0,1-.144-1.146c-.025-.378-.171-.674-.6-.685-.469-.012-.626.3-.656.7-.01.136,0,.273-.014.41a2.887,2.887,0,0,1-2.778,2.752c-.568.024-1.139.014-1.708-.006a2.333,2.333,0,0,1-2.122-1.161c-.406-.818-.992-.757-1.67-.755-.356,0-.437.064-.394.456a2.853,2.853,0,0,1-1.864,3.2c-.5.17-.716.372-.589.891a1.094,1.094,0,0,1,.015.408c-.095.647.208.767.805.765,6.287-.022,12.574-.013,18.861-.013,1.754,0,3.508-.009,5.262.005a1.2,1.2,0,0,1,1.318,1.319q.021,2.119,0,4.237a1.212,1.212,0,0,1-1.281,1.292c-.523.018-1.048.018-1.572,0-.3-.011-.445.039-.443.4.015,2.552.011,5.1,0,7.655,0,.29.085.406.388.394.5-.02,1-.013,1.5,0,.968.018,1.4.459,1.406,1.441.007,1.207,0,2.415,0,3.622,0,1.461-.343,1.8-1.817,1.8h-2.768c3.471,2.848,5.02,6.332,4.452,10.686-.126.968-.386,1.205-1.359,1.235-.68-.312-.772-.861-.68-1.537a8.984,8.984,0,0,0-9.053-10.383q-5.877-.006-11.753,0c-.611,0-1.417-.2-1.779.107-.4.337-.013,1.148-.011,1.753a1.375,1.375,0,0,1,.008.2c-.086.577.17.7.723.7,4.328-.024,8.656-.047,12.983,0a5.966,5.966,0,0,1,5.49,3.334,5.918,5.918,0,0,1-.3,6.347,6.125,6.125,0,0,1-5.439,2.845c-4.146.007-8.291,0-12.437.006-.249,0-.559-.121-.675.269a7.072,7.072,0,0,1-1.431,2.484h.628c4.692,0,9.385.011,14.077,0a8.8,8.8,0,0,0,6.908-3.163,1.2,1.2,0,0,1,1.618-.378c.534.728.535,1.057-.07,1.74a10.949,10.949,0,0,1-8.551,3.855q-24.191.005-48.382,0c-.137,0-.274.006-.41,0a1.209,1.209,0,0,1-1.212-1.224q-.033-2.221,0-4.442a1.167,1.167,0,0,1,1.171-1.179,8.3,8.3,0,0,1,1.433,0c.6.07.7-.173.692-.719-.034-1.913,0-3.827-.02-5.74-.007-.65.289-1.5-.131-1.893-.329-.311-1.166-.086-1.777-.1a1.238,1.238,0,0,1-1.376-1.4q-.013-2.016,0-4.032a1.249,1.249,0,0,1,1.431-1.416c1.013-.006,2.027,0,3.186,0-.337-.285-.561-.463-.771-.655a10.727,10.727,0,0,1-3.62-10.517,10.938,10.938,0,0,1,10.948-8.934c4.556-.019,9.111,0,13.667,0,1.481,0,1.474,0,1.444-1.516,0-.241-.061-.329-.3-.42a2.926,2.926,0,0,1-2.175-3.4c.008-.141.127-.29-.13-.367a1.765,1.765,0,0,0-1.791.607,2.789,2.789,0,0,1-2.276,1.3c-.364.018-.729.013-1.093.013-2.192,0-3.206-.933-3.392-3.116a1.584,1.584,0,0,0-.053-.335.563.563,0,0,0-.618-.427.535.535,0,0,0-.54.434,3.151,3.151,0,0,0-.057.54,2.97,2.97,0,0,1-2.241,2.838,2.96,2.96,0,0,1-3.3-1.493.638.638,0,0,0-.479-.4,4.175,4.175,0,0,1-3.706-4.478q-.008-5.536,0-11.071a4.222,4.222,0,0,1,3.631-4.5c.165-.035.361.027.46-.2A3.44,3.44,0,0,1-1413.5,760.236Zm20.336,25.914c-.569,0-1.14.024-1.708-.008-.427-.024-.58.079-.6.554-.175,3.617-.378,7.232-.589,10.846-.293,5.024-.6,10.048-.9,15.072-.2,3.433-.392,6.867-.607,10.3a6.891,6.891,0,0,0,.054,1.7,4.515,4.515,0,0,0,4.889,3.547,4.481,4.481,0,0,0,3.961-4.488q-.433-7.434-.881-14.867-.643-10.98-1.268-21.961c-.028-.505-.149-.751-.71-.7C-1392.068,786.188-1392.617,786.151-1393.164,786.15Zm-12.544,6.628c2.369,0,4.739-.03,7.107.019.684.014.869-.206.828-.837a6.221,6.221,0,0,1,.077-1.362c.071-.451-.053-.585-.518-.583-4.92.017-9.841-.033-14.761.028a9.006,9.006,0,0,0-8.536,10.876,9.031,9.031,0,0,0,8.831,7.153c4.328.029,8.656.008,12.984.009.934,0,.933,0,1-.9.027-.386.03-.777.1-1.157.1-.572-.1-.719-.678-.716-4.305.026-8.611.012-12.916.016a8.054,8.054,0,0,1-1.832-.17,6.283,6.283,0,0,1-4.892-6.586,6.273,6.273,0,0,1,6.246-5.782C-1410.356,792.761-1408.032,792.779-1405.708,792.778Zm.027,2.055c-2.254,0-4.508,0-6.762,0a4.8,4.8,0,0,0-1.544.224,4.189,4.189,0,0,0-2.856,4.516,4.2,4.2,0,0,0,4.373,3.682c4.485.016,8.971-.013,13.456.02.89.006.5-.613.592-.98.141-.537-.3-.38-.551-.381-3.484-.008-6.967,0-10.451-.009a3.026,3.026,0,0,1-.809-.077.926.926,0,0,1-.71-1.091.919.919,0,0,1,.888-.878,5.5,5.5,0,0,1,.614-.015h10.246c.969,0,.93,0,1.014-.991.047-.558-.161-.614-.636-.612-3.529.019-7.058.01-10.587.01-.182,0-.365.009-.546-.005a1.009,1.009,0,0,1-1.008-.993,1.02,1.02,0,0,1,1.017-1.057c.181-.014.364,0,.546,0,3.62,0,7.241-.012,10.861.008.9,0,.421-.669.536-1.021.158-.484-.286-.339-.51-.34C-1400.9,794.83-1403.291,794.834-1405.681,794.834Zm25.629,20.108v-.005c-2.1,0-4.191-.013-6.286.016-.26,0-.78-.329-.768.382.016.959-.006.96.829.96h8.336c.547,0,1.095-.023,1.639.012a1.007,1.007,0,0,1,.991,1.08.993.993,0,0,1-1.03.964c-.182.011-.364,0-.547,0h-9.088c-.914,0-.878,0-.889.941-.006.544.17.671.7.667,3.1-.026,6.2-.013,9.292-.012a5.171,5.171,0,0,1,.682.019.932.932,0,0,1,.874.9.966.966,0,0,1-.663,1.069,1.864,1.864,0,0,1-.74.079q-4.68,0-9.361.005c-.195,0-.524-.1-.56.089a2.905,2.905,0,0,0,.047,1.076c.064.33.376.176.573.176q6.149.014,12.3.007a4.564,4.564,0,0,0,1.345-.2,4.2,4.2,0,0,0,2.972-4.445,4.191,4.191,0,0,0-4.155-3.774C-1375.724,814.913-1377.888,814.942-1380.052,814.942Zm2.094-16.69q-4.748,0-9.5,0c-.318,0-.764-.117-.61.467.113.427-.357,1.149.66,1.137,3.211-.037,6.422-.014,9.633-.013a4.756,4.756,0,0,1,.682.025.905.905,0,0,1,.8.737.973.973,0,0,1-.385,1.085,1.538,1.538,0,0,1-.979.217q-4.817,0-9.633,0c-.246,0-.695-.16-.552.379.1.367-.3.985.593.981q9.428-.041,18.856,0c.66,0,.508-.37.537-.736.033-.419-.01-.663-.555-.644-1.251.045-2.5.019-3.757.013-.857,0-1.329-.373-1.339-1.026s.442-1.034,1.305-1.038c1.253-.005,2.507-.047,3.757.015.824.04.543-.5.582-.892.044-.434.047-.739-.6-.73C-1371.626,798.276-1374.792,798.253-1377.958,798.251Zm1.363-8.228c-3.8,0-7.6.007-11.406-.01-.469,0-.656.086-.566.6a6.119,6.119,0,0,1,.078,1.429c-.037.6.167.753.77.75,7.012-.024,14.025-.014,21.037-.017.679,0,1.591.235,1.977-.109.443-.395.075-1.328.151-2.02.058-.519-.127-.639-.635-.636C-1368.991,790.034-1372.793,790.024-1376.6,790.024Zm.48,15.3c-3.644,0-7.288.011-10.932-.012-.517,0-.7.128-.615.644a5.321,5.321,0,0,1,.09,1.292c-.071.751.27.854.935.852,6.65-.025,13.3-.014,19.95-.017.68,0,1.589.235,1.979-.108.449-.394.079-1.327.154-2.019.055-.507-.109-.648-.629-.645C-1368.828,805.331-1372.472,805.32-1376.115,805.32Zm-21.8,22.863a6.329,6.329,0,0,1-1.318-2.172c-.146-.489-.39-.6-.865-.6q-10.444.022-20.888.01a2.955,2.955,0,0,1-.341,0c-.3-.035-.393.1-.385.39q.026.989,0,1.979c-.007.287.07.436.379.39a.47.47,0,0,1,.068,0Zm-12.381-18.05q-4.612,0-9.223,0c-.7,0-1.67-.251-2.04.107-.463.448-.085,1.417-.153,2.157-.036.392.111.491.493.491q10.862-.016,21.725,0c.326,0,.5-.049.495-.435a11.4,11.4,0,0,1,.115-1.7c.08-.538-.121-.63-.618-.627C-1403.1,810.143-1406.694,810.132-1410.292,810.132Zm30.6-37.85q0-4.1,0-8.2c0-1.76-.039-1.8-1.8-1.8-1.107,0-1.364.256-1.364,1.363q0,8.3,0,16.606c0,1.862.041,1.9,1.922,1.889,1.009-.007,1.243-.236,1.244-1.251Q-1379.69,776.588-1379.693,772.283Zm-26.88-.085v8c0,1.977,0,1.977,1.98,1.951.89-.012,1.183-.3,1.187-1.189.007-1.572,0-3.143,0-4.715q0-6.355,0-12.711c0-.937-.3-1.235-1.211-1.242-.2,0-.41,0-.615,0-1.125,0-1.34.219-1.34,1.369Q-1406.575,767.926-1406.573,772.2Zm32.251,0q0,4.271,0,8.541a4.078,4.078,0,0,0,.032.681.8.8,0,0,0,.79.714.8.8,0,0,0,.9-.578,2.519,2.519,0,0,0,.084-.739q.007-8.609,0-17.219a2.3,2.3,0,0,0-.071-.672.819.819,0,0,0-.935-.624.808.808,0,0,0-.769.742,5.261,5.261,0,0,0-.027.681Q-1374.323,767.962-1374.322,772.2Zm-37.622,0q0-3.451,0-6.9c0-.706.01-1.413-.012-2.118a.825.825,0,0,0-.854-.878.869.869,0,0,0-.924.821,2.577,2.577,0,0,0-.014.477q0,8.61,0,17.219a2.534,2.534,0,0,0,.083.739.8.8,0,0,0,.9.578.8.8,0,0,0,.789-.714,4.12,4.12,0,0,0,.032-.681Q-1411.943,776.468-1411.944,772.2Zm3.021,46.157q-4.406,0-8.813,0c-.2,0-.53-.031-.577.063a2.4,2.4,0,0,0-.069,1.33c.038.37.408.192.62.192q8.676.016,17.353.009c.961,0,.917,0,1.022-.956.065-.589-.155-.653-.655-.649C-1403,818.365-1405.963,818.354-1408.923,818.354Zm30.906-23.521c-3.209,0-6.417-.006-9.626.011-.234,0-.757-.254-.626.359.082.382-.294,1.011.629,1.006q9.591-.052,19.183,0c.555,0,.629-.191.608-.66-.02-.433.034-.738-.611-.729C-1371.646,794.858-1374.832,794.835-1378.018,794.834Zm9.329-22.6q0-2.8,0-5.6a2.236,2.236,0,0,0-1.213-2.2c-.359-.184-.578-.213-.577.32q.016,7.477,0,14.953c0,.56.234.481.564.31a2.252,2.252,0,0,0,1.231-2.189Q-1368.693,775.032-1368.688,772.232Zm-47.1-.037q0-3.653,0-7.307c0-.644-.134-.72-.7-.389a2.125,2.125,0,0,0-1.08,1.933q-.019,5.8,0,11.608a2.1,2.1,0,0,0,1.108,1.914c.594.34.667.3.668-.384Q-1415.79,775.883-1415.793,772.2Zm7.03,42.741c-3.049,0-6.1.018-9.147-.015-.628-.007-.493.357-.493.7s-.133.694.493.691q9.079-.037,18.158,0c.824,0,.489-.574.578-.937.134-.55-.284-.432-.578-.432Q-1404.258,814.934-1408.763,814.937Zm-.23,7.077c-2.937,0-5.873.017-8.809-.015-.549-.006-.636.182-.614.659.02.442-.009.729.623.726q8.775-.044,17.55,0c.844,0,.578-.548.65-.947.116-.641-.39-.413-.66-.414C-1403.165,822.008-1406.079,822.013-1408.993,822.013Zm.382-49.794c0-1.844-.033-3.689.015-5.531.021-.816-.523-.44-.862-.523-.472-.115-.454.191-.453.509,0,3.688.01,7.376-.007,11.063,0,.46.135.6.584.542.358-.046.754.137.738-.529C-1408.64,775.908-1408.611,774.063-1408.611,772.219Zm30.957-.024c0,1.844.011,3.688-.009,5.531,0,.439.1.627.572.554.348-.054.752.155.747-.518q-.044-5.565,0-11.131c.005-.8-.539-.37-.847-.46-.45-.132-.465.159-.463.493C-1377.65,768.507-1377.654,770.351-1377.654,772.2Zm-15.409,10.076c-1.229,0-2.458,0-3.687,0-.777,0-1.183.333-1.175.924.008.571.383.879,1.137.882q3.653.012,7.306,0c.755,0,1.131-.309,1.141-.878.011-.589-.4-.923-1.172-.927C-1390.7,782.266-1391.88,782.271-1393.063,782.271Z" fill="#030303"/>
    <path id="Trazado_172153" data-name="Trazado 172153" d="M-1276.107,902.009c.547,0,1.1.038,1.639-.01.56-.049.681.2.71.7q.618,10.981,1.268,21.961.435,7.434.881,14.867a4.481,4.481,0,0,1-3.961,4.488,4.515,4.515,0,0,1-4.889-3.547,6.891,6.891,0,0,1-.054-1.7c.215-3.432.4-6.866.607-10.3.3-5.024.606-10.047.9-15.072.211-3.615.414-7.23.589-10.846.023-.474.177-.578.6-.554C-1277.248,902.032-1276.677,902.008-1276.107,902.009Z" transform="translate(-117.057 -115.858)" fill="#c99a28"/>
    <path id="Trazado_172154" data-name="Trazado 172154" d="M-1290.172,776.122l2.688-.093c.2.885.448,1.083,1.357,1.089,1.4.01,1.4.01,1.4,1.418,0,4.625-.009,9.251.012,13.876,0,.537-.083.73-.685.727q-7.552-.042-15.1,0c-.542,0-.669-.145-.667-.674q.029-7.348-.006-14.7c0-.546.151-.668.676-.664,3.007.026,6.015,0,9.022.02A1.129,1.129,0,0,0-1290.172,776.122Zm-5.744,4.409c.956,0,1.911.01,2.866,0a1.012,1.012,0,0,0,1.119-1.017,1.022,1.022,0,0,0-1.118-1.027q-2.8-.021-5.6,0a1.018,1.018,0,0,0-1.147,1.06c.018.607.435.977,1.146.985C-1297.736,780.54-1296.826,780.532-1295.916,780.531Z" transform="translate(-100.19 -12.908)" fill="#e5d090"/>
    <path id="Trazado_172155" data-name="Trazado 172155" d="M-1396.572,925.981c-2.324,0-4.647-.017-6.971,0a6.273,6.273,0,0,0-6.246,5.782,6.283,6.283,0,0,0,4.892,6.586,8.057,8.057,0,0,0,1.832.17c4.305,0,8.611.01,12.916-.016.578,0,.777.144.678.716-.065.38-.068.771-.1,1.157-.063.9-.062.9-1,.9-4.328,0-8.656.02-12.984-.009a9.031,9.031,0,0,1-8.831-7.153,9.006,9.006,0,0,1,8.536-10.876c4.92-.061,9.84-.011,14.761-.028.465,0,.589.133.518.584a6.222,6.222,0,0,0-.077,1.362c.041.631-.144.851-.828.837C-1391.833,925.951-1394.2,925.981-1396.572,925.981Z" transform="translate(-9.137 -133.203)" fill="#43a047"/>
    <path id="Trazado_172156" data-name="Trazado 172156" d="M-1205.591,1044.994a10.281,10.281,0,0,1-1.12,2.584,1.2,1.2,0,0,0-1.618.378,8.8,8.8,0,0,1-6.908,3.163c-4.692.015-9.384,0-14.077,0h-.629a7.073,7.073,0,0,0,1.431-2.484c.115-.39.426-.269.675-.269,4.146-.006,8.291,0,12.437-.006a6.125,6.125,0,0,0,5.44-2.845,5.918,5.918,0,0,0,.3-6.347,5.967,5.967,0,0,0-5.491-3.334c-4.327-.05-8.656-.027-12.983,0-.553,0-.81-.118-.723-.695a1.359,1.359,0,0,0-.008-.2c0-.605-.385-1.417.011-1.753.362-.308,1.168-.107,1.779-.107q5.877-.006,11.753,0a8.984,8.984,0,0,1,9.053,10.383C-1206.362,1044.133-1206.27,1044.682-1205.591,1044.994Z" transform="translate(-158.411 -222.941)" fill="#28c65d"/>
    <path id="Trazado_172157" data-name="Trazado 172157" d="M-1374.932,949.549c2.391,0,4.781,0,7.172.006.224,0,.668-.144.51.34-.115.353.367,1.026-.536,1.021-3.62-.02-7.241-.008-10.861-.008-.182,0-.365-.01-.546,0a1.02,1.02,0,0,0-1.017,1.057,1.009,1.009,0,0,0,1.008.993c.181.014.364.005.546.005,3.529,0,7.058.009,10.587-.01.474,0,.683.053.636.611-.084.987-.044.991-1.014.991h-10.246a5.5,5.5,0,0,0-.614.015.919.919,0,0,0-.888.877.926.926,0,0,0,.71,1.091,3.029,3.029,0,0,0,.809.077c3.484,0,6.967,0,10.451.009.248,0,.693-.157.551.381-.1.367.3.986-.592.98-4.485-.033-8.971,0-13.456-.02a4.2,4.2,0,0,1-4.373-3.682,4.189,4.189,0,0,1,2.856-4.516,4.8,4.8,0,0,1,1.544-.224C-1379.44,949.552-1377.186,949.549-1374.932,949.549Z" transform="translate(-30.749 -154.715)" fill="#fdfdfd"/>
    <path id="Trazado_172158" data-name="Trazado 172158" d="M-1216.066,1059.39c2.164,0,4.328-.029,6.491.008a4.191,4.191,0,0,1,4.155,3.774,4.2,4.2,0,0,1-2.972,4.446,4.565,4.565,0,0,1-1.345.2q-6.149,0-12.3-.007c-.2,0-.509.154-.573-.177a2.91,2.91,0,0,1-.047-1.076c.037-.189.366-.089.561-.089q4.68-.008,9.361-.005a1.866,1.866,0,0,0,.74-.079.966.966,0,0,0,.663-1.069.931.931,0,0,0-.874-.9,5.181,5.181,0,0,0-.682-.019c-3.1,0-6.195-.013-9.292.012-.526,0-.7-.123-.7-.667.011-.941-.026-.941.889-.941h9.088c.182,0,.365.007.546,0a.993.993,0,0,0,1.03-.964,1.007,1.007,0,0,0-.991-1.08c-.545-.034-1.093-.011-1.639-.011h-8.336c-.836,0-.814,0-.829-.96-.011-.711.509-.378.768-.382,2.095-.029,4.191-.016,6.286-.016Z" transform="translate(-163.986 -244.449)" fill="#fdfdfd"/>
    <path id="Trazado_172159" data-name="Trazado 172159" d="M-1218.4,968.244c3.166,0,6.332.023,9.5-.018.645-.008.642.3.6.73-.04.389.241.932-.582.892-1.249-.061-2.5-.02-3.757-.015-.863,0-1.316.371-1.305,1.038s.482,1.022,1.339,1.026c1.253.006,2.506.032,3.757-.013.545-.019.588.225.555.644-.029.366.123.739-.537.736q-9.428-.038-18.856,0c-.889,0-.5-.614-.593-.981-.143-.539.306-.378.552-.379q4.817-.013,9.633,0a1.538,1.538,0,0,0,.979-.217.973.973,0,0,0,.385-1.085.905.905,0,0,0-.8-.737,4.765,4.765,0,0,0-.682-.025c-3.211,0-6.422-.024-9.633.013-1.017.012-.547-.71-.66-1.137-.154-.584.292-.467.61-.467Q-1223.145,968.241-1218.4,968.244Z" transform="translate(-159.561 -169.991)" fill="#fdfdfd"/>
    <path id="Trazado_172160" data-name="Trazado 172160" d="M-1219.242,923.228c3.8,0,7.6.01,11.406-.012.507,0,.692.116.635.636-.077.692.292,1.626-.151,2.02-.385.344-1.3.109-1.977.109-7.012,0-14.025-.007-21.037.017-.6,0-.807-.155-.77-.75a6.12,6.12,0,0,0-.078-1.429c-.09-.513.1-.6.566-.6C-1226.846,923.235-1223.044,923.228-1219.242,923.228Z" transform="translate(-157.353 -133.204)" fill="#43a047"/>
    <path id="Trazado_172161" data-name="Trazado 172161" d="M-1214.7,1006.949c3.644,0,7.288.011,10.932-.013.519,0,.684.138.629.645-.075.693.294,1.625-.154,2.019-.39.343-1.3.107-1.979.108-6.65,0-13.3-.008-19.95.017-.665,0-1.005-.1-.935-.852a5.321,5.321,0,0,0-.09-1.292c-.08-.516.1-.648.615-.644C-1221.986,1006.96-1218.342,1006.949-1214.7,1006.949Z" transform="translate(-161.417 -201.629)" fill="#43a047"/>
    <path id="Trazado_172162" data-name="Trazado 172162" d="M-1388.722,1119.767h-23.35a.47.47,0,0,0-.068,0c-.309.046-.386-.1-.379-.39q.025-.989,0-1.979c-.008-.293.083-.425.385-.39a2.942,2.942,0,0,0,.341,0q10.444,0,20.888-.01c.475,0,.719.107.865.6A6.329,6.329,0,0,0-1388.722,1119.767Z" transform="translate(-9.189 -291.585)" fill="#28c65d"/>
    <path id="Trazado_172163" data-name="Trazado 172163" d="M-1401.465,1032.977c3.6,0,7.2.01,10.794-.011.5,0,.7.089.618.627a11.452,11.452,0,0,0-.115,1.7c0,.386-.169.436-.495.435q-10.862-.01-21.725,0c-.382,0-.529-.1-.493-.491.068-.74-.31-1.709.153-2.157.369-.357,1.337-.106,2.04-.107Q-1406.076,1032.973-1401.465,1032.977Z" transform="translate(-8.828 -222.845)" fill="#28c65d"/>
    <path id="Trazado_172164" data-name="Trazado 172164" d="M-1196.715,781.455q0,4.305,0,8.61c0,1.016-.235,1.245-1.244,1.251-1.882.013-1.922-.027-1.922-1.889q0-8.3,0-16.606c0-1.106.258-1.361,1.364-1.363,1.764,0,1.8.036,1.8,1.8Q-1196.715,777.354-1196.715,781.455Z" transform="translate(-182.979 -9.172)" fill="#a27b1c"/>
    <path id="Trazado_172165" data-name="Trazado 172165" d="M-1329.675,781.367q0-4.271,0-8.542c0-1.151.215-1.367,1.34-1.369.2,0,.41,0,.615,0,.913.008,1.211.305,1.211,1.242q0,6.355,0,12.711c0,1.572.005,3.144,0,4.715,0,.893-.3,1.178-1.187,1.189-1.98.026-1.98.026-1.98-1.951Z" transform="translate(-76.898 -9.169)" fill="#7b5d14"/>
    <path id="Trazado_172166" data-name="Trazado 172166" d="M-1153.144,781.406q0-4.236,0-8.473a5.26,5.26,0,0,1,.027-.681.808.808,0,0,1,.769-.742.819.819,0,0,1,.935.624,2.3,2.3,0,0,1,.071.672q.005,8.609,0,17.219a2.519,2.519,0,0,1-.084.739.8.8,0,0,1-.9.578.8.8,0,0,1-.79-.714,4.078,4.078,0,0,1-.032-.681Q-1153.146,785.677-1153.144,781.406Z" transform="translate(-221.178 -9.208)" fill="#a27b1c"/>
    <path id="Trazado_172167" data-name="Trazado 172167" d="M-1367.162,781.426q0,4.271,0,8.541a4.133,4.133,0,0,1-.032.681.8.8,0,0,1-.789.714.8.8,0,0,1-.9-.578,2.534,2.534,0,0,1-.083-.739q-.006-8.61,0-17.219a2.576,2.576,0,0,1,.014-.477.869.869,0,0,1,.924-.821.825.825,0,0,1,.854.878c.022.705.011,1.412.012,2.118Q-1367.161,777.976-1367.162,781.426Z" transform="translate(-44.782 -9.229)" fill="#a27b1c"/>
    <path id="Trazado_172168" data-name="Trazado 172168" d="M-1385.118,1078.309c2.961,0,5.921.01,8.881-.01.5,0,.72.06.655.649-.105.951-.061.956-1.022.956q-8.676,0-17.353-.009c-.212,0-.582.178-.62-.192a2.4,2.4,0,0,1,.069-1.33c.046-.094.377-.062.577-.063Q-1389.524,1078.307-1385.118,1078.309Z" transform="translate(-23.806 -259.955)" fill="#fdfdfd"/>
    <path id="Trazado_172169" data-name="Trazado 172169" d="M-1219.327,949.432c3.186,0,6.372.023,9.557-.018.645-.008.591.3.611.729.021.469-.052.661-.608.66q-9.591-.035-19.183,0c-.923,0-.548-.624-.629-1.006-.131-.613.392-.358.626-.359C-1225.745,949.425-1222.536,949.431-1219.327,949.432Z" transform="translate(-158.69 -154.597)" fill="#fdfdfd"/>
    <path id="Trazado_172170" data-name="Trazado 172170" d="M-1130.33,790.489q0,2.8,0,5.6a2.251,2.251,0,0,1-1.231,2.189c-.329.171-.565.25-.564-.31q.024-7.476,0-14.953c0-.533.218-.5.577-.32a2.236,2.236,0,0,1,1.213,2.2Q-1130.331,787.689-1130.33,790.489Z" transform="translate(-238.358 -18.256)" fill="#c99a28"/>
    <path id="Trazado_172171" data-name="Trazado 172171" d="M-1388.132,790.411q0,3.687,0,7.375c0,.683-.073.725-.668.384a2.1,2.1,0,0,1-1.108-1.914q-.021-5.8,0-11.608a2.125,2.125,0,0,1,1.08-1.933c.562-.33.7-.254.7.389Q-1388.129,786.758-1388.132,790.411Z" transform="translate(-27.661 -18.216)" fill="#c99a28"/>
    <path id="Trazado_172172" data-name="Trazado 172172" d="M-1384.842,1059.58q4.505,0,9.011,0c.294,0,.712-.118.578.432-.089.363.246.94-.578.937q-9.079-.034-18.158,0c-.626,0-.493-.352-.493-.691s-.135-.7.493-.7C-1390.941,1059.6-1387.892,1059.58-1384.842,1059.58Z" transform="translate(-23.921 -244.644)" fill="#fdfdfd"/>
    <path id="Trazado_172173" data-name="Trazado 172173" d="M-1385.087,1098.248c2.914,0,5.827-.005,8.741.009.27,0,.776-.227.66.414-.072.4.194.952-.65.947q-8.775-.05-17.55,0c-.632,0-.6-.284-.623-.726-.022-.477.065-.664.614-.659C-1390.96,1098.265-1388.024,1098.248-1385.087,1098.248Z" transform="translate(-23.906 -276.235)" fill="#fdfdfd"/>
    <path id="Trazado_172174" data-name="Trazado 172174" d="M-1346.672,798.635c0,1.844-.029,3.689.015,5.531.016.666-.379.483-.738.529-.45.058-.587-.083-.584-.542.017-3.688.01-7.376.007-11.063,0-.318-.019-.624.453-.509.339.083.883-.293.862.523C-1346.706,794.947-1346.672,796.791-1346.672,798.635Z" transform="translate(-61.938 -26.416)" fill="#c99a28"/>
    <path id="Trazado_172175" data-name="Trazado 172175" d="M-1171.42,798.589c0-1.844,0-3.688,0-5.531,0-.334.013-.624.464-.493.308.09.852-.336.847.46q-.036,5.565,0,11.131c.005.674-.4.465-.747.518-.472.073-.576-.115-.572-.554C-1171.409,802.277-1171.42,800.433-1171.42,798.589Z" transform="translate(-206.234 -26.394)" fill="#c99a28"/>
    <path id="Trazado_172176" data-name="Trazado 172176" d="M-1277.474,880.84c1.183,0,2.367-.005,3.55,0,.772,0,1.183.338,1.172.927-.011.569-.387.876-1.141.878q-3.653.012-7.306,0c-.754,0-1.129-.311-1.137-.882-.009-.591.4-.919,1.175-.924C-1279.932,880.835-1278.7,880.84-1277.474,880.84Z" transform="translate(-115.589 -98.569)" fill="#a27b1c"/>
    <path id="Trazado_172177" data-name="Trazado 172177" d="M-1289.721,791.473c-.91,0-1.82.008-2.73,0-.711-.008-1.129-.378-1.146-.985a1.018,1.018,0,0,1,1.147-1.06q2.8-.018,5.6,0a1.022,1.022,0,0,1,1.118,1.027,1.012,1.012,0,0,1-1.119,1.017C-1287.81,791.483-1288.766,791.473-1289.721,791.473Z" transform="translate(-106.384 -23.849)" fill="#030303"/>
  </g>
</svg>
