<svg xmlns="http://www.w3.org/2000/svg" width="60.157" height="70" viewBox="0 0 60.157 70">
  <g id="Grupo_111493" data-name="Grupo 111493" transform="translate(529.019 -1722.437)">
    <path id="Trazado_172113" data-name="Trazado 172113" d="M-475.436,1722.437a10.508,10.508,0,0,1,1.738,1.583q2.079,2.075,4.145,4.163c1,1.009.9,1.807-.225,2.63a11.941,11.941,0,0,0-5.037,12.1c.42,2.989,1.677,5.746,2.6,8.6a100.632,100.632,0,0,1,2.989,10.757,15.455,15.455,0,0,1-3.859,13.9,41.392,41.392,0,0,1-9.209,7.544c-3.8,2.422-7.825,4.437-11.748,6.636-.753.422-1.47.909-2.226,1.326a4.973,4.973,0,0,1-5.205.049c-4.112-2.469-8.44-4.551-12.537-7.044a43.778,43.778,0,0,1-10.816-8.566,15.931,15.931,0,0,1-4.113-8.817,21.29,21.29,0,0,1,.7-6.962c1.063-4.659,2.709-9.139,4.224-13.66a16.728,16.728,0,0,0,1.049-7.161,11.817,11.817,0,0,0-5.073-8.665c-1.214-.876-1.3-1.639-.235-2.713q2.5-2.519,5.014-5.032a10.235,10.235,0,0,1,.819-.668h.82c.024.035.041.091.073.1q5.778,1.925,11.556,3.85a1.364,1.364,0,0,0,1.039-.026c1.044-.443,2.1-.848,3.152-1.281,2.149-.887,4.342-1.666,6.453-2.645h.82c.022.036.036.092.068.105,3.2,1.28,6.4,2.552,9.6,3.841a1.3,1.3,0,0,0,.976.013c1.933-.658,3.882-1.27,5.808-1.949s3.92-1.227,5.822-2.01Zm-50.776,43.112a11.572,11.572,0,0,0,.159,2.191,14,14,0,0,0,3.609,6.848,42.64,42.64,0,0,0,10.1,7.83c3.966,2.4,8.169,4.382,12.119,6.815a2.449,2.449,0,0,0,2.656-.041c.9-.527,1.788-1.084,2.7-1.591,4.093-2.27,8.279-4.377,12.182-6.977a32.563,32.563,0,0,0,8.386-7.438,11.867,11.867,0,0,0,2.547-8.745,43.55,43.55,0,0,0-1.443-6.655c-1.079-3.827-2.513-7.54-3.667-11.341-1.955-6.442-.927-12.184,4.176-16.895.281-.26.175-.378-.027-.579-1.05-1.043-2.105-2.082-3.125-3.155a.768.768,0,0,0-.945-.2c-3.57,1.209-7.149,2.394-10.719,3.6a2.546,2.546,0,0,1-1.909-.041c-3-1.237-6.026-2.419-9.035-3.637a1.162,1.162,0,0,0-.965,0c-3.029,1.23-6.071,2.425-9.1,3.659a2.4,2.4,0,0,1-1.781.053c-3.61-1.226-7.229-2.427-10.839-3.653a.724.724,0,0,0-.886.2q-1.536,1.6-3.13,3.149c-.282.274-.289.423.022.676a11.769,11.769,0,0,1,1.913,2.037,15.071,15.071,0,0,1,2.443,13.836c-.944,3.386-2.189,6.688-3.243,10.045A41.954,41.954,0,0,0-526.212,1765.549Z" transform="translate(0 0)"/>
    <path id="Trazado_172114" data-name="Trazado 172114" d="M-513.653,1778.96a41.957,41.957,0,0,1,2.205-10.013c1.054-3.357,2.3-6.658,3.243-10.045a15.071,15.071,0,0,0-2.443-13.836,11.762,11.762,0,0,0-1.914-2.037c-.311-.253-.3-.4-.022-.676q1.59-1.55,3.13-3.149a.724.724,0,0,1,.886-.2c3.61,1.226,7.229,2.427,10.839,3.653a2.4,2.4,0,0,0,1.781-.053c3.027-1.233,6.07-2.429,9.1-3.659a1.161,1.161,0,0,1,.965,0c3.009,1.218,6.033,2.4,9.035,3.637a2.546,2.546,0,0,0,1.909.041c3.57-1.211,7.149-2.4,10.719-3.6a.768.768,0,0,1,.945.2c1.019,1.073,2.075,2.111,3.125,3.155.2.2.308.319.027.579-5.1,4.711-6.13,10.453-4.175,16.895,1.154,3.8,2.588,7.514,3.667,11.341a43.539,43.539,0,0,1,1.443,6.655,11.866,11.866,0,0,1-2.547,8.745,32.562,32.562,0,0,1-8.385,7.438c-3.9,2.6-8.089,4.708-12.182,6.977-.914.506-1.8,1.064-2.7,1.591a2.45,2.45,0,0,1-2.656.041c-3.95-2.433-8.153-4.413-12.119-6.815a42.634,42.634,0,0,1-10.1-7.83,14,14,0,0,1-3.609-6.848A11.581,11.581,0,0,1-513.653,1778.96Zm45.3-34.244a1.967,1.967,0,0,0-.859.183q-3.166,1.054-6.327,2.123a1.37,1.37,0,0,1-1.036-.036c-3.111-1.265-6.235-2.5-9.349-3.752a1.1,1.1,0,0,0-.906,0c-3.114,1.256-6.239,2.488-9.35,3.752a1.37,1.37,0,0,1-1.036.034q-2.934-1-5.876-1.969a3.6,3.6,0,0,0-1.311-.339l-.075-.05.049.075a1.413,1.413,0,0,0,.2.643,19.087,19.087,0,0,1,1.584,7.128,27.829,27.829,0,0,1-1.692,9.669,142.48,142.48,0,0,0-4.132,13.683,7.973,7.973,0,0,0,1.367,6.948,20.9,20.9,0,0,0,3.073,3.191,60.5,60.5,0,0,0,10.2,6.656c2.272,1.247,4.561,2.464,6.819,3.735a1.117,1.117,0,0,0,1.251.013c3.333-1.864,6.7-3.661,10.011-5.57a36.773,36.773,0,0,0,9.292-7.081c1.768-1.975,2.835-4.18,2.322-6.954a68.457,68.457,0,0,0-2.128-8.086c-.975-3.1-2.134-6.137-2.985-9.274a22.088,22.088,0,0,1-.47-10.435,32.9,32.9,0,0,1,1.379-4.269l.052-.074Z" transform="translate(-12.559 -13.411)" fill="#f5cd6c"/>
    <path id="Trazado_172115" data-name="Trazado 172115" d="M-482.315,1763.929a3.614,3.614,0,0,1,1.31.339q2.944.967,5.876,1.969a1.37,1.37,0,0,0,1.036-.034c3.111-1.264,6.235-2.5,9.35-3.752a1.1,1.1,0,0,1,.906,0c3.114,1.256,6.239,2.487,9.349,3.752a1.37,1.37,0,0,0,1.036.036q3.16-1.072,6.327-2.123a1.968,1.968,0,0,1,.859-.183l.023.023a32.859,32.859,0,0,0-1.379,4.269,22.087,22.087,0,0,0,.47,10.435c.852,3.137,2.01,6.177,2.985,9.274a68.445,68.445,0,0,1,2.128,8.086c.513,2.773-.554,4.978-2.322,6.954a36.769,36.769,0,0,1-9.292,7.081c-3.307,1.909-6.678,3.706-10.011,5.57a1.117,1.117,0,0,1-1.251-.013c-2.258-1.271-4.547-2.489-6.819-3.736a60.493,60.493,0,0,1-10.2-6.656,20.874,20.874,0,0,1-3.073-3.191,7.972,7.972,0,0,1-1.367-6.948,142.462,142.462,0,0,1,4.132-13.683,27.833,27.833,0,0,0,1.692-9.669,19.086,19.086,0,0,0-1.584-7.128,1.415,1.415,0,0,1-.2-.643Zm17.979,15.024a1.389,1.389,0,0,0-1.281.9c-.707,1.448-1.425,2.892-2.12,4.346a.854.854,0,0,1-.759.549c-1.556.193-3.1.442-4.657.662a1.49,1.49,0,0,0-1.368.962,1.49,1.49,0,0,0,.507,1.651c1.119,1.069,2.2,2.173,3.333,3.229a1.037,1.037,0,0,1,.33,1.081c-.282,1.519-.516,3.046-.792,4.566a1.47,1.47,0,0,0,.508,1.586,1.479,1.479,0,0,0,1.725,0c1.38-.742,2.776-1.455,4.152-2.205a.845.845,0,0,1,.929-.01c1.392.766,2.811,1.486,4.21,2.24a1.439,1.439,0,0,0,1.663-.026,1.414,1.414,0,0,0,.524-1.515c-.275-1.543-.515-3.093-.8-4.634a1.036,1.036,0,0,1,.327-1.082c1.147-1.072,2.251-2.189,3.381-3.279a1.459,1.459,0,0,0,.462-1.6,1.445,1.445,0,0,0-1.3-.955c-1.574-.231-3.145-.483-4.724-.678a.846.846,0,0,1-.76-.541c-.7-1.454-1.414-2.9-2.121-4.346A1.423,1.423,0,0,0-464.336,1778.953Zm.043,22.446q-4.405,0-8.811,0c-1.015,0-1.675.555-1.685,1.391s.645,1.408,1.654,1.43c.159,0,.319,0,.478,0h14.617c.888,0,1.776,0,2.664,0a1.466,1.466,0,0,0,1.416-.776,1.418,1.418,0,0,0-1.453-2.043C-458.373,1801.392-461.333,1801.4-464.293,1801.4Zm.022-25.288c3,0,6.008.006,9.012,0a1.392,1.392,0,0,0,1.444-1.188,1.423,1.423,0,0,0-.849-1.489,2.511,2.511,0,0,0-.944-.1h-6.554q-5.393,0-10.787,0a2.371,2.371,0,0,0-1.007.12,1.4,1.4,0,0,0-.8,1.511,1.4,1.4,0,0,0,1.477,1.148C-470.279,1776.115-467.275,1776.111-464.271,1776.111Z" transform="translate(-34.648 -32.626)" fill="#deb247"/>
    <path id="Trazado_172116" data-name="Trazado 172116" d="M-463.368,1770.79l-.049-.075.075.049Z" transform="translate(-53.622 -39.461)" fill="#febcbb"/>
    <path id="Trazado_172117" data-name="Trazado 172117" d="M-265.606,1770.764l.074-.052-.052.074Z" transform="translate(-215.308 -39.459)" fill="#febcbb"/>
    <path id="Trazado_172118" data-name="Trazado 172118" d="M-410.514,1853.251a1.423,1.423,0,0,1,1.371.9c.707,1.448,1.426,2.892,2.121,4.346a.846.846,0,0,0,.76.541c1.578.2,3.15.447,4.724.678a1.445,1.445,0,0,1,1.3.955,1.459,1.459,0,0,1-.462,1.6c-1.13,1.09-2.233,2.208-3.381,3.279a1.036,1.036,0,0,0-.327,1.082c.285,1.541.524,3.091.8,4.634a1.414,1.414,0,0,1-.524,1.515,1.439,1.439,0,0,1-1.663.026c-1.4-.754-2.817-1.474-4.21-2.24a.845.845,0,0,0-.929.01c-1.376.75-2.771,1.464-4.152,2.205a1.479,1.479,0,0,1-1.725,0,1.47,1.47,0,0,1-.508-1.587c.276-1.52.509-3.048.792-4.566a1.036,1.036,0,0,0-.33-1.081c-1.13-1.056-2.215-2.161-3.333-3.229a1.49,1.49,0,0,1-.507-1.651,1.49,1.49,0,0,1,1.368-.963c1.552-.22,3.1-.469,4.657-.662a.853.853,0,0,0,.759-.549c.7-1.454,1.414-2.9,2.12-4.345A1.389,1.389,0,0,1-410.514,1853.251Zm3.69,15.843c-.173-1.009-.278-1.864-.473-2.7a2.116,2.116,0,0,1,.715-2.313c.676-.579,1.257-1.268,1.944-1.973-1.047-.156-2-.323-2.969-.433a1.78,1.78,0,0,1-1.537-1.159c-.392-.877-.847-1.726-1.327-2.691-.442.891-.884,1.635-1.188,2.431a2.193,2.193,0,0,1-2.125,1.5c-.822.061-1.637.231-2.546.366.68.684,1.228,1.328,1.871,1.858a2.245,2.245,0,0,1,.791,2.542c-.2.793-.278,1.621-.433,2.573,1.01-.534,1.879-.969,2.725-1.448a1.7,1.7,0,0,1,1.8-.009C-408.723,1868.11-407.855,1868.55-406.824,1869.094Z" transform="translate(-88.471 -106.924)"/>
    <path id="Trazado_172119" data-name="Trazado 172119" d="M-411.3,1976.148c2.96,0,5.92-.007,8.88,0a1.418,1.418,0,0,1,1.453,2.043,1.466,1.466,0,0,1-1.416.776c-.888,0-1.776,0-2.664,0h-14.617c-.159,0-.319,0-.478,0-1.009-.022-1.664-.59-1.654-1.43s.671-1.39,1.685-1.391Q-415.706,1976.143-411.3,1976.148Z" transform="translate(-87.641 -207.375)"/>
    <path id="Trazado_172120" data-name="Trazado 172120" d="M-411.249,1825.23c-3,0-6.008,0-9.012,0a1.4,1.4,0,0,1-1.477-1.148,1.4,1.4,0,0,1,.8-1.511,2.375,2.375,0,0,1,1.007-.12q5.394,0,10.787,0h6.554a2.506,2.506,0,0,1,.944.1,1.424,1.424,0,0,1,.849,1.489,1.392,1.392,0,0,1-1.444,1.188C-405.241,1825.236-408.245,1825.23-411.249,1825.23Z" transform="translate(-87.67 -81.745)"/>
    <path id="Trazado_172121" data-name="Trazado 172121" d="M-386.9,1889.577c-1.031-.544-1.9-.984-2.749-1.457a1.7,1.7,0,0,0-1.8.009c-.845.479-1.715.914-2.725,1.448.155-.952.228-1.78.433-2.573a2.245,2.245,0,0,0-.791-2.542c-.642-.53-1.191-1.175-1.871-1.858.909-.135,1.724-.3,2.546-.366a2.193,2.193,0,0,0,2.125-1.5c.3-.8.746-1.541,1.188-2.432.48.965.935,1.814,1.327,2.691a1.78,1.78,0,0,0,1.537,1.159c.964.11,1.922.278,2.969.433-.687.706-1.268,1.395-1.944,1.974a2.115,2.115,0,0,0-.715,2.313C-387.177,1887.713-387.071,1888.568-386.9,1889.577Z" transform="translate(-108.396 -127.407)" fill="#ffecb3"/>
  </g>
</svg>
