<svg xmlns="http://www.w3.org/2000/svg" width="69.927" height="70" viewBox="0 0 69.927 70">
  <g id="Grupo_111498" data-name="Grupo 111498" transform="translate(1815.529 -991.301)">
    <path id="Trazado_172189" data-name="Trazado 172189" d="M-1809.865,1017.152a5.821,5.821,0,0,1-3.044-3.776,9.485,9.485,0,0,1-.055-3.014,65.872,65.872,0,0,1,.494-6.6,9.43,9.43,0,0,1,9.472-7.9q17.374-.011,34.748.01a1.425,1.425,0,0,0,1.137-.5c3.626-3.711,8-4.989,12.927-3.386a11.792,11.792,0,0,1,8.461,10.178,12.149,12.149,0,0,1-6.139,12.328.908.908,0,0,0-.5.944c.01,8.245,0,16.491.027,24.736,0,.709-.2.813-.848.811-7-.025-14-.009-21-.029-.556,0-.747.085-.74.7q.054,5.109,0,10.219a.8.8,0,0,0,.677.919c2.984.97,5.954,1.985,8.941,2.949a.664.664,0,0,1,.558.779c-.028,1.385-.025,2.772,0,4.158.007.423-.055.6-.553.6q-13-.027-26.008,0c-.464,0-.529-.152-.522-.558.023-1.409.028-2.819,0-4.228a.632.632,0,0,1,.525-.729c3-.982,6-1.993,9-2.971a.767.767,0,0,0,.649-.873q-.044-5.18,0-10.36c0-.507-.141-.606-.622-.6q-5.6.032-11.207,0c-.511,0-.609.147-.6.625.029,1.855,0,3.711.02,5.567,0,.417-.044.69-.549.587-.579-.118-.724.136-.771.7-.175,2.105-.408,4.206-.643,6.305a1.331,1.331,0,0,0,.443,1.289c1.481,1.352,1.61,3.153,1.5,5-.025.445-.4.225-.6.226-4.135.014-8.27.01-12.405.01-1.48,0-2.961-.025-4.44.014-.515.014-.583-.156-.6-.625a5.588,5.588,0,0,1,1.844-4.937c.2-.167.165-.372.145-.577-.233-2.359-.48-4.718-.7-7.079-.04-.437-.325-.354-.546-.317-.647.109-.759-.169-.746-.761.041-1.831.006-3.665.023-5.5,0-.359-.057-.494-.464-.56a3.346,3.346,0,0,1-2.925-3.487c-.007-3.383.056-6.767-.016-10.148A10.671,10.671,0,0,1-1809.865,1017.152Zm12.964-19.005c.319.322.587.573.832.844a9.028,9.028,0,0,1,2.423,5.42c.17,2.082.283,4.169.412,6.254a13.607,13.607,0,0,1,.053,1.827,5.644,5.644,0,0,1-2.7,4.427c.527.2,1,.371,1.468.559a12.95,12.95,0,0,1,4.458,3.479c.378.4.605.37,1,.039q1.809-1.514,3.68-2.952a3.682,3.682,0,0,1,5.07.5,3.451,3.451,0,0,1-.591,4.945q-2.719,2.348-5.457,4.672a5.807,5.807,0,0,1-7.726.119c-.376-.3-.749-.6-1.215-.972a21.079,21.079,0,0,1-.948,5.076,1.148,1.148,0,0,0,.14.928,12.7,12.7,0,0,1,1.665,4.67c.087.64.357.738.934.737q13.6-.027,27.2-.013,5.5,0,10.992.006c.4,0,.619,0,.617-.535q-.031-10.991-.007-21.981c0-.4-.06-.525-.5-.411a12.319,12.319,0,0,1-4.608.249,12.463,12.463,0,0,1-10.472-14.565,18.319,18.319,0,0,1,1.1-3.322Zm38.926-4.545a10.167,10.167,0,0,0-10.17,10.091,10.17,10.17,0,0,0,10.127,10.206,10.174,10.174,0,0,0,10.171-10.092A10.167,10.167,0,0,0-1757.975,993.6Zm-36.143,31.641c.488-1.164.951-2.289,1.433-3.405.135-.314-.04-.472-.228-.658a8.321,8.321,0,0,0-4.228-2.24c-.447-.095-.587.014-.753.408a5.349,5.349,0,0,1-5.038,3.547,5.335,5.335,0,0,1-5.3-3.363c-.21-.454-.375-.477-.762-.259a8.289,8.289,0,0,0-3.706,4.183,10.27,10.27,0,0,0-.554,4.294c.018.626-.278,1.486.117,1.819.454.384,1.3.071,1.975.12.368.027.405-.09.339-.438a10.189,10.189,0,0,1,.621-5.863c.407-.993.407-.993,1.333-.529a8.055,8.055,0,0,0,.758.369c.328.124.345.3.193.584a7.975,7.975,0,0,0-.688,2.06c-.439,2.016.2,3.9.679,5.81.1.407.4.248.622.249,2.419.012,4.838.007,7.258.007,1.706,0,1.681-.007,2.131-1.675a9.319,9.319,0,0,0,.034-5.474c-.155-.473-.682-.98-.426-1.387.236-.375.885-.475,1.326-.739.4-.238.655-.207.769.266C-1795.937,1024.066-1794.994,1024.581-1794.118,1025.242Zm-9,20.228c2.067,0,4.135-.014,6.2.01.459.005.595-.118.586-.583-.031-1.62.019-3.242-.03-4.862a11.954,11.954,0,0,0-1.512-5.44.644.644,0,0,0-.643-.409q-4.581.022-9.162,0a.644.644,0,0,0-.657.387,12.264,12.264,0,0,0-1.241,3.278c-.521,2.416-.222,4.869-.3,7.305-.014.452.332.306.551.307C-1807.251,1045.474-1805.184,1045.47-1803.117,1045.47Zm-5.65-35.78c0-.856-.006-1.537,0-2.218a5.184,5.184,0,0,1,2.919-4.782.864.864,0,0,1,1.075.049,10.383,10.383,0,0,0,6.783,2.107c.435-.018.56.115.554.551-.023,1.808-.053,3.618,0,5.425a4.972,4.972,0,0,1-1.7,4.339c-.143.117-.222.24-.13.422.124.244.318.15.485.083a14.012,14.012,0,0,0,1.617-.684,3.19,3.19,0,0,0,1.717-3.021c-.031-1.43-.123-2.862-.254-4.287a29.036,29.036,0,0,0-.359-3.92,7.262,7.262,0,0,0-7.526-5.6,7.2,7.2,0,0,0-6.7,6.546q-.3,3.612-.478,7.235a3.165,3.165,0,0,0,1.688,3.035,9.4,9.4,0,0,0,1.422.6c.217.081.481.343.688.036s-.131-.437-.3-.6a4.581,4.581,0,0,1-1.4-2.468A20.812,20.812,0,0,1-1808.767,1009.691Zm30.483,49.311c3.521,0,7.042.005,10.564-.012.237,0,.716.243.681-.29-.03-.461.345-1.063-.485-1.321-2.236-.7-4.468-1.414-6.665-2.223a10.035,10.035,0,0,0-4.259-.664,8.812,8.812,0,0,0-2.167.1c-2.849.935-5.688,1.9-8.537,2.835-.778.255-.351.863-.4,1.3-.05.482.41.265.63.266C-1785.373,1059.006-1781.828,1059-1778.283,1059Zm-28.2-49.473c0,.7-.015,1.408,0,2.111a2.247,2.247,0,0,0,2.234,2.246c.75.021,1.5.019,2.251,0a2.242,2.242,0,0,0,2.256-2.3c.018-1.337-.011-2.674.014-4.01.007-.393-.125-.524-.5-.566a11.492,11.492,0,0,1-4.308-1.4c-.987-.543-1.212-.463-1.681.582a2.936,2.936,0,0,0-.268,1.225C-1806.478,1008.121-1806.48,1008.825-1806.48,1009.529Zm15.629,13.791c-.431,1.026-.815,2-1.252,2.955-.189.412-.051.576.306.734a3.569,3.569,0,0,0,3.9-.431c.7-.548,1.361-1.149,2.037-1.729q1.841-1.58,3.679-3.164a1.13,1.13,0,0,0,.376-1.439,1.248,1.248,0,0,0-1.334-.7,1.611,1.611,0,0,0-.935.437q-2.14,1.714-4.283,3.425c-.4.321-.783.84-1.223.9C-1790.1,1024.373-1790.332,1023.636-1790.851,1023.32Zm-13.391,32c0-2.446,0-4.769,0-7.093,0-.256.059-.5-.364-.5-1.22.024-2.442.017-3.662,0-.306,0-.345.126-.319.381.206,2.007.4,4.015.609,6.022.021.209.034.422.362.384A5.219,5.219,0,0,1-1804.242,1055.315Zm2.273-.027a5.213,5.213,0,0,1,3.267-.774c.358.01.448-.114.478-.415q.293-2.977.6-5.954c.03-.287-.017-.422-.353-.417-1.2.018-2.4.015-3.593,0-.3,0-.405.073-.4.39C-1801.963,1050.487-1801.969,1052.854-1801.969,1055.287Zm22.539-8.76v4.085c0,1.642,0,1.617,1.628,1.645.531.009.66-.133.655-.659-.027-2.981-.013-5.963-.013-8.945,0-1.728,0-1.71-1.7-1.713-.462,0-.589.127-.582.586C-1779.414,1043.194-1779.43,1044.861-1779.43,1046.528Zm-23.67-30.283c-1.336-.548-1.9.274-2.3,1.391-.1.263-.155.637-.511.7-.393.074-.29.255-.165.481a3.234,3.234,0,0,0,3.022,1.819,3.2,3.2,0,0,0,2.931-1.847c.065-.124.26-.34.01-.4-.517-.116-.631-.546-.761-.917C-1801.249,1016.424-1801.836,1015.8-1803.1,1016.245Zm-10.146,18.695q0,1.267,0,2.535a1.133,1.133,0,0,0,.824,1.173c.205.07.395.118.444-.225a14.969,14.969,0,0,1,1.867-5.337.73.73,0,0,0-.7-1.137c-.657,0-1.316.019-1.972-.008-.363-.015-.486.088-.474.465C-1813.227,1033.249-1813.246,1034.095-1813.246,1034.94Zm3.548,24.046c1.66,0,3.318,0,4.976,0,.255,0,.393-.029.317-.345a2.917,2.917,0,0,0-2.769-1.883A2.684,2.684,0,0,0-1809.7,1058.986Zm7.894,0c1.66,0,3.318,0,4.976,0,.255,0,.393-.03.317-.345a2.918,2.918,0,0,0-2.769-1.883A2.684,2.684,0,0,0-1801.8,1058.986Z" fill="#020201"/>
    <path id="Trazado_172190" data-name="Trazado 172190" d="M-1716.643,1027.641h27.809a18.317,18.317,0,0,0-1.1,3.322,12.463,12.463,0,0,0,10.472,14.565,12.317,12.317,0,0,0,4.608-.249c.443-.114.5.011.5.411q-.014,10.991.007,21.981c0,.531-.222.536-.617.535q-5.5-.015-10.992-.006-13.6,0-27.2.013c-.577,0-.847-.1-.934-.737a12.7,12.7,0,0,0-1.665-4.67,1.148,1.148,0,0,1-.14-.928,21.079,21.079,0,0,0,.948-5.076c.466.373.839.675,1.215.972a5.807,5.807,0,0,0,7.726-.12q2.74-2.323,5.457-4.672a3.451,3.451,0,0,0,.591-4.945,3.682,3.682,0,0,0-5.07-.5q-1.867,1.441-3.68,2.952c-.4.331-.623.366-1-.039a12.947,12.947,0,0,0-4.458-3.479c-.467-.189-.941-.359-1.468-.56a5.644,5.644,0,0,0,2.7-4.427,13.607,13.607,0,0,0-.053-1.827c-.129-2.085-.243-4.172-.412-6.254a9.027,9.027,0,0,0-2.423-5.42C-1716.056,1028.214-1716.324,1027.963-1716.643,1027.641Zm25.3,38.3c4.7,0,9.393-.009,14.089.013.521,0,.664-.114.654-.647-.032-1.613-.007-1.639-1.637-1.607-.535.011-.65-.135-.646-.655.026-3.358,0-6.715.024-10.073,0-.464-.124-.581-.58-.574q-2.817.039-5.635,0c-.466-.007-.577.126-.574.58.021,3.052.011,6.1.011,9.157,0,1.553,0,1.521-1.553,1.567-.6.018-.718-.153-.716-.729.024-5.565.006-11.129.028-16.694,0-.528-.124-.66-.651-.65q-2.746.054-5.494,0c-.53-.011-.651.128-.649.652.022,5.236.013,10.472.013,15.708,0,1.718,0,1.7-1.689,1.709-.46,0-.583-.119-.577-.578.026-1.9,0-3.8.02-5.705,0-.4-.11-.508-.506-.5-1.9.02-3.8.025-5.706,0-.464-.007-.582.122-.575.579.027,1.854-.012,3.71.026,5.564.011.533-.132.657-.654.648-1.625-.03-1.6-.006-1.632,1.614-.012.546.152.642.661.64C-1700.637,1065.936-1695.988,1065.945-1691.338,1065.945Zm-10.115-29.318h7.468c1.591,0,1.563,0,1.6-1.588.014-.561-.149-.683-.691-.68-5.237.021-10.474.013-15.712.013-1.67,0-1.647,0-1.671,1.659-.007.5.131.614.619.61C-1707.043,1036.614-1704.248,1036.627-1701.453,1036.627Zm2.294-6.766h-5.143c-1.638,0-1.614,0-1.644,1.615-.01.518.109.659.645.656,3.757-.027,7.515-.014,11.272-.014,1.65,0,1.633,0,1.641-1.685,0-.451-.1-.589-.573-.582C-1695.026,1029.876-1697.092,1029.861-1699.159,1029.861Zm1.055,11.277h4.015c1.713,0,1.693,0,1.7-1.7,0-.469-.133-.574-.584-.571-3.005.02-6.011.01-9.016.01-1.739,0-1.725,0-1.7,1.766.005.4.121.5.512.5C-1701.485,1041.126-1699.795,1041.137-1698.1,1041.137Zm-7.757,2.255h-2.888c-1.715,0-1.7,0-1.706,1.691,0,.461.121.581.579.576,2.254-.024,4.508-.011,6.761-.011,1.741,0,1.727,0,1.705-1.762-.005-.4-.11-.511-.507-.5C-1703.231,1043.407-1704.546,1043.392-1705.861,1043.392Zm-2.326-2.255h.563c1.786,0,1.786,0,1.693-1.831a.377.377,0,0,1,0-.07c.038-.275-.081-.361-.355-.359q-1.9.018-3.8,0c-.273,0-.341.088-.364.358-.162,1.9-.17,1.9,1.7,1.9Zm0-10.084c0-1.193,0-1.193-1.2-1.193-1.052,0-1.052,0-1.052,1.063,0,1.192,0,1.192,1.2,1.192C-1708.187,1032.117-1708.187,1032.117-1708.187,1031.053Z" transform="translate(-80.258 -29.495)" fill="#e5e8ec"/>
    <path id="Trazado_172191" data-name="Trazado 172191" d="M-1553.826,1003.514a10.167,10.167,0,0,1,10.129,10.2,10.174,10.174,0,0,1-10.172,10.092A10.17,10.17,0,0,1-1564,1013.6,10.167,10.167,0,0,1-1553.826,1003.514Zm3.343,7.893a3.225,3.225,0,0,1,.493,0c.674.105.709-.215.567-.754a3.466,3.466,0,0,0-2.141-2.435c-.375-.157-.952.023-1.115-.37a3.725,3.725,0,0,1-.039-1.324.437.437,0,0,1,0-.07c.084-.521-.079-.719-.661-.7-1.589.041-1.606.01-1.585,1.6.006.459-.058.653-.6.745a3.342,3.342,0,0,0-2.782,3.659,3.412,3.412,0,0,0,3.4,3.032c.728.011,1.456-.015,2.184.008a1.118,1.118,0,0,1,1.16,1.152,1.118,1.118,0,0,1-1.152,1.09c-.727.023-1.456.006-2.183.005a.937.937,0,0,1-.981-.554c-.177-.621-.573-.609-1.052-.576a5.407,5.407,0,0,1-.915,0c-.42-.043-.533.114-.45.515a3.5,3.5,0,0,0,2.1,2.634c.408.183,1.034,0,1.214.447a3.174,3.174,0,0,1,.029,1.394c-.045.5.078.682.634.67,1.622-.034,1.638-.005,1.62-1.635,0-.439.06-.615.563-.7a3.357,3.357,0,0,0,2.819-3.635,3.409,3.409,0,0,0-3.443-3.066c-.7-.008-1.409.013-2.113-.007a1.124,1.124,0,0,1-1.194-1.12,1.122,1.122,0,0,1,1.187-1.125c.7-.019,1.409,0,2.113-.006.4,0,.864.113.951.47C-1551.641,1011.6-1551.03,1011.388-1550.483,1011.407Z" transform="translate(-204.149 -9.913)" fill="#f9d56f"/>
    <path id="Trazado_172192" data-name="Trazado 172192" d="M-1784.692,1144.181c-.876-.661-1.819-1.176-2.093-2.311-.114-.474-.372-.5-.769-.266-.441.265-1.09.365-1.326.739-.256.407.271.914.426,1.387a9.319,9.319,0,0,1-.034,5.474c-.45,1.668-.425,1.675-2.131,1.675-2.419,0-4.838,0-7.258-.007-.218,0-.52.158-.622-.249-.474-1.909-1.118-3.794-.679-5.81a7.975,7.975,0,0,1,.688-2.06c.151-.287.135-.46-.193-.584a8.025,8.025,0,0,1-.758-.37c-.926-.464-.926-.464-1.333.529a10.189,10.189,0,0,0-.621,5.863c.066.348.028.465-.339.438-.674-.049-1.521.264-1.975-.12-.395-.333-.1-1.193-.117-1.819a10.27,10.27,0,0,1,.554-4.294,8.289,8.289,0,0,1,3.706-4.183c.387-.218.551-.195.762.259a5.335,5.335,0,0,0,5.3,3.363,5.349,5.349,0,0,0,5.038-3.547c.166-.394.305-.5.753-.408a8.32,8.32,0,0,1,4.228,2.24c.188.186.364.344.228.658C-1783.741,1141.892-1784.2,1143.017-1784.692,1144.181Z" transform="translate(-9.426 -118.939)" fill="#28c65d"/>
    <path id="Trazado_172193" data-name="Trazado 172193" d="M-1778.82,1230.242c-2.068,0-4.135,0-6.2-.005-.219,0-.565.145-.551-.307.074-2.436-.225-4.889.3-7.305a12.266,12.266,0,0,1,1.241-3.278.644.644,0,0,1,.657-.387q4.581.018,9.162,0a.644.644,0,0,1,.643.409,11.955,11.955,0,0,1,1.512,5.44c.048,1.62,0,3.242.03,4.862.009.464-.127.588-.586.583C-1774.685,1230.229-1776.753,1230.242-1778.82,1230.242Z" transform="translate(-24.297 -184.772)" fill="#959ea9"/>
    <path id="Trazado_172194" data-name="Trazado 172194" d="M-1788.261,1039.139a20.812,20.812,0,0,0,.1,2.846,4.581,4.581,0,0,0,1.4,2.468c.173.165.519.283.3.6s-.47.045-.687-.036a9.4,9.4,0,0,1-1.422-.6,3.166,3.166,0,0,1-1.688-3.035q.173-3.621.478-7.235a7.2,7.2,0,0,1,6.7-6.546,7.261,7.261,0,0,1,7.526,5.6,29.018,29.018,0,0,1,.359,3.92c.131,1.425.224,2.857.254,4.287a3.19,3.19,0,0,1-1.717,3.021,13.992,13.992,0,0,1-1.617.684c-.168.067-.362.161-.485-.083-.093-.182-.013-.305.13-.422a4.972,4.972,0,0,0,1.7-4.339c-.056-1.807-.026-3.617,0-5.425.006-.435-.119-.568-.554-.551a10.382,10.382,0,0,1-6.783-2.107.864.864,0,0,0-1.075-.049,5.184,5.184,0,0,0-2.919,4.782C-1788.267,1037.6-1788.261,1038.284-1788.261,1039.139Z" transform="translate(-20.506 -29.449)" fill="#959ea9"/>
    <path id="Trazado_172195" data-name="Trazado 172195" d="M-1666.677,1331.15c-3.545,0-7.089,0-10.634-.011-.22,0-.681.216-.63-.266.046-.439-.382-1.047.4-1.3,2.849-.936,5.688-1.9,8.537-2.835a8.81,8.81,0,0,1,2.167-.1,10.035,10.035,0,0,1,4.259.664c2.2.808,4.429,1.526,6.665,2.223.83.258.455.86.485,1.321.035.533-.445.288-.681.29C-1659.634,1331.156-1663.156,1331.15-1666.677,1331.15Z" transform="translate(-111.607 -272.149)" fill="#959ea9"/>
    <path id="Trazado_172196" data-name="Trazado 172196" d="M-1767.517,1069.757c0-.7,0-1.407,0-2.111a2.936,2.936,0,0,1,.268-1.225c.469-1.045.693-1.125,1.681-.582a11.493,11.493,0,0,0,4.308,1.4c.378.041.509.172.5.566-.025,1.336,0,2.674-.014,4.01a2.242,2.242,0,0,1-2.256,2.3c-.75.019-1.5.021-2.251,0a2.247,2.247,0,0,1-2.234-2.246C-1767.532,1071.164-1767.517,1070.46-1767.517,1069.757Z" transform="translate(-38.963 -60.228)" fill="#ffd8aa"/>
    <path id="Trazado_172197" data-name="Trazado 172197" d="M-1690.288,1144.989c.519.316.754,1.053,1.267.985.44-.059.82-.578,1.223-.9q2.143-1.71,4.283-3.425a1.613,1.613,0,0,1,.935-.437,1.248,1.248,0,0,1,1.334.7,1.13,1.13,0,0,1-.376,1.439q-1.834,1.589-3.679,3.164c-.676.58-1.336,1.182-2.037,1.729a3.569,3.569,0,0,1-3.9.431c-.357-.158-.5-.322-.306-.734C-1691.1,1146.992-1690.719,1146.015-1690.288,1144.989Z" transform="translate(-100.563 -121.669)" fill="#f5d8b5"/>
    <path id="Trazado_172198" data-name="Trazado 172198" d="M-1774.362,1298.419a5.219,5.219,0,0,0-3.374-.8c-.328.039-.341-.175-.362-.384-.2-2.007-.4-4.015-.609-6.022-.026-.255.013-.384.319-.381,1.221.015,2.442.021,3.662,0,.423-.008.364.24.364.5C-1774.362,1293.65-1774.362,1295.973-1774.362,1298.419Z" transform="translate(-29.88 -243.104)" fill="#f5d8b5"/>
    <path id="Trazado_172199" data-name="Trazado 172199" d="M-1743.577,1298.4c0-2.433.006-4.8-.007-7.169,0-.317.1-.394.4-.39,1.2.015,2.4.017,3.593,0,.336-.005.383.129.353.417q-.309,2.976-.6,5.954c-.03.3-.119.425-.478.415A5.213,5.213,0,0,0-1743.577,1298.4Z" transform="translate(-58.392 -243.111)" fill="#f5d8b5"/>
    <path id="Trazado_172200" data-name="Trazado 172200" d="M-1623.948,1260.4c0-1.667.016-3.334-.011-5-.007-.459.12-.587.582-.586,1.7,0,1.7-.016,1.7,1.713,0,2.982-.014,5.964.013,8.945,0,.525-.124.667-.655.659-1.627-.027-1.628,0-1.628-1.645Z" transform="translate(-155.482 -213.873)" fill="#959ea9"/>
    <path id="Trazado_172201" data-name="Trazado 172201" d="M-1762.871,1122.968c1.264-.45,1.851.179,2.222,1.235.13.371.244.8.761.917.25.056.055.272-.01.4a3.2,3.2,0,0,1-2.931,1.847,3.234,3.234,0,0,1-3.022-1.819c-.125-.226-.228-.407.165-.481.356-.067.415-.441.511-.7C-1764.767,1123.242-1764.207,1122.42-1762.871,1122.968Z" transform="translate(-40.229 -106.722)" fill="#f5d8b5"/>
    <path id="Trazado_172202" data-name="Trazado 172202" d="M-1803.454,1210.028c0-.845.019-1.691-.009-2.535-.012-.377.111-.48.474-.465.656.027,1.314.006,1.972.008a.73.73,0,0,1,.7,1.137,14.971,14.971,0,0,0-1.867,5.337c-.049.343-.238.3-.444.225a1.133,1.133,0,0,1-.824-1.173Q-1803.453,1211.3-1803.454,1210.028Z" transform="translate(-9.792 -175.088)" fill="#f5d8b5"/>
    <path id="Trazado_172203" data-name="Trazado 172203" d="M-1784.577,1341.012a2.684,2.684,0,0,1,2.524-2.225,2.917,2.917,0,0,1,2.769,1.883c.077.316-.062.346-.317.345C-1781.259,1341.009-1782.917,1341.012-1784.577,1341.012Z" transform="translate(-25.121 -282.026)" fill="#f9d56f"/>
    <path id="Trazado_172204" data-name="Trazado 172204" d="M-1742.671,1341.012a2.684,2.684,0,0,1,2.524-2.225,2.918,2.918,0,0,1,2.769,1.883c.076.316-.062.346-.317.345C-1739.353,1341.009-1741.011,1341.012-1742.671,1341.012Z" transform="translate(-59.133 -282.026)" fill="#f9d56f"/>
    <path id="Trazado_172205" data-name="Trazado 172205" d="M-1645.26,1143.46c-4.649,0-9.3-.008-13.948.012-.509,0-.672-.094-.661-.64.034-1.62.007-1.645,1.632-1.614.522.01.664-.114.654-.648-.037-1.854,0-3.71-.025-5.564-.007-.457.112-.586.575-.579,1.9.027,3.8.023,5.706,0,.4,0,.51.1.506.5-.021,1.9.006,3.8-.02,5.705-.007.46.117.581.577.578,1.689-.009,1.689.009,1.689-1.709,0-5.236.008-10.472-.013-15.707,0-.524.118-.662.649-.652q2.746.055,5.494,0c.527-.01.653.122.651.65-.022,5.565,0,11.129-.028,16.694,0,.576.118.746.716.729,1.552-.046,1.553-.014,1.553-1.567,0-3.052.01-6.1-.011-9.157,0-.455.108-.587.574-.58q2.817.042,5.635,0c.456-.006.582.11.58.574-.021,3.358,0,6.715-.025,10.073,0,.519.111.666.646.655,1.63-.033,1.6-.006,1.637,1.607.011.533-.132.65-.654.647C-1635.867,1143.451-1640.564,1143.46-1645.26,1143.46Zm-1.066-10.164v6.333c0,1.587,0,1.561,1.593,1.6.549.012.691-.132.688-.685-.024-4.479-.014-8.959-.014-13.439,0-1.71,0-1.693-1.7-1.7-.457,0-.584.116-.58.578C-1646.314,1128.417-1646.326,1130.857-1646.326,1133.3Zm9.022,3.4v2.812c0,1.745,0,1.725,1.745,1.721.451,0,.535-.138.531-.555-.02-2.249-.01-4.5-.01-6.748,0-1.8,0-1.782-1.78-1.755-.41.006-.5.134-.495.518C-1637.291,1134.02-1637.3,1135.355-1637.3,1136.691Zm-15.777,2.278v-.561c0-1.782,0-1.771-1.8-1.728-.355.009-.492.079-.478.462.03.771.009,1.543.009,2.315,0,1.844,0,1.835,1.834,1.763.323-.013.456-.077.441-.426C-1653.1,1140.186-1653.081,1139.577-1653.081,1138.969Z" transform="translate(-126.336 -107.01)" fill="#020201"/>
    <path id="Trazado_172206" data-name="Trazado 172206" d="M-1674.8,1065.569c-2.795,0-5.59-.013-8.384.012-.488,0-.626-.108-.619-.609.024-1.658,0-1.659,1.671-1.659,5.237,0,10.475.009,15.712-.013.541,0,.7.12.691.68-.038,1.588-.01,1.588-1.6,1.588Z" transform="translate(-106.91 -58.437)" fill="#020201"/>
    <path id="Trazado_172207" data-name="Trazado 172207" d="M-1653.073,1039.374c2.067,0,4.133.016,6.2-.012.469-.006.575.131.573.582-.009,1.685.008,1.685-1.641,1.685-3.757,0-7.515-.013-11.272.014-.536,0-.655-.137-.645-.656.03-1.614.006-1.615,1.644-1.615Z" transform="translate(-126.344 -39.008)" fill="#020201"/>
    <path id="Trazado_172208" data-name="Trazado 172208" d="M-1642.308,1089.523c-1.691,0-3.381-.012-5.072.009-.391,0-.506-.095-.512-.5-.023-1.766-.038-1.766,1.7-1.766,3.005,0,6.011.01,9.016-.01.45,0,.587.1.584.571-.01,1.7.01,1.7-1.7,1.7Z" transform="translate(-136.054 -77.88)" fill="#020201"/>
    <path id="Trazado_172209" data-name="Trazado 172209" d="M-1679.2,1111.214c1.315,0,2.63.015,3.944-.009.4-.007.5.106.507.5.022,1.762.036,1.761-1.705,1.761-2.254,0-4.508-.013-6.761.011-.458,0-.582-.115-.579-.576.009-1.691-.009-1.691,1.706-1.691Z" transform="translate(-106.918 -97.316)" fill="#020201"/>
    <path id="Trazado_172210" data-name="Trazado 172210" d="M-1681.8,1089.546h-.563c-1.87,0-1.863,0-1.7-1.9.023-.27.09-.36.364-.358q1.9.018,3.8,0c.274,0,.393.084.355.359a.377.377,0,0,0,0,.07c.093,1.831.093,1.831-1.693,1.831Z" transform="translate(-106.649 -77.903)" fill="#020201"/>
    <path id="Trazado_172211" data-name="Trazado 172211" d="M-1681.474,1040.617c0,1.063,0,1.063-1.052,1.063-1.2,0-1.2,0-1.2-1.193,0-1.063,0-1.063,1.052-1.063C-1681.474,1039.425-1681.474,1039.425-1681.474,1040.617Z" transform="translate(-106.971 -39.059)" fill="#020201"/>
    <path id="Trazado_172212" data-name="Trazado 172212" d="M-1526.209,1021.049c-.547-.018-1.157.192-1.364-.658-.086-.357-.548-.472-.951-.47-.7,0-1.409-.014-2.113.006a1.122,1.122,0,0,0-1.187,1.125,1.124,1.124,0,0,0,1.194,1.12c.7.019,1.409,0,2.113.007a3.408,3.408,0,0,1,3.443,3.066,3.357,3.357,0,0,1-2.819,3.635c-.5.085-.568.261-.563.7.018,1.629,0,1.6-1.62,1.635-.556.012-.679-.168-.634-.67a3.174,3.174,0,0,0-.029-1.394c-.18-.445-.806-.264-1.214-.447a3.5,3.5,0,0,1-2.1-2.634c-.084-.4.03-.558.45-.515a5.426,5.426,0,0,0,.915,0c.479-.033.875-.045,1.052.576a.937.937,0,0,0,.981.554c.728,0,1.456.018,2.183-.005a1.118,1.118,0,0,0,1.152-1.09,1.118,1.118,0,0,0-1.16-1.152c-.727-.023-1.456,0-2.184-.009a3.412,3.412,0,0,1-3.4-3.032,3.342,3.342,0,0,1,2.782-3.659c.539-.092.6-.285.6-.745-.02-1.59,0-1.559,1.585-1.6.582-.015.745.183.661.7a.437.437,0,0,0,0,.07,3.725,3.725,0,0,0,.039,1.324c.163.394.74.213,1.115.37a3.466,3.466,0,0,1,2.141,2.435c.142.538.107.859-.567.754A3.225,3.225,0,0,0-1526.209,1021.049Z" transform="translate(-228.423 -19.555)" fill="#020201"/>
    <path id="Trazado_172213" data-name="Trazado 172213" d="M-1588.023,1143c0-2.439.012-4.879-.011-7.317,0-.462.123-.58.58-.578,1.7.007,1.7-.011,1.7,1.7,0,4.48-.01,8.959.014,13.439,0,.553-.139.7-.688.685-1.592-.035-1.593-.009-1.593-1.6Z" transform="translate(-184.639 -116.715)" fill="#f9d56f"/>
    <path id="Trazado_172214" data-name="Trazado 172214" d="M-1540.12,1175.52c0-1.336.013-2.671-.008-4.006-.006-.384.084-.511.495-.518,1.781-.028,1.78-.043,1.78,1.755,0,2.25-.01,4.5.01,6.748,0,.417-.08.554-.531.555-1.745,0-1.745.023-1.745-1.721Z" transform="translate(-223.521 -145.839)" fill="#f9d56f"/>
    <path id="Trazado_172215" data-name="Trazado 172215" d="M-1633.644,1197.219c0,.608-.019,1.217.007,1.824.015.349-.118.414-.441.426-1.834.073-1.834.082-1.834-1.763,0-.772.021-1.545-.009-2.315-.015-.383.123-.454.478-.462,1.8-.042,1.8-.053,1.8,1.728Z" transform="translate(-145.774 -165.26)" fill="#f9d56f"/>
  </g>
</svg>
