<svg xmlns="http://www.w3.org/2000/svg" width="77.326" height="80" viewBox="0 0 77.326 80">
  <g id="Grupo_111485" data-name="Grupo 111485" transform="translate(1105.456 -666.079)">
    <path id="Trazado_172078" data-name="Trazado 172078" d="M-926.054,666.079c1.182.211,2.374.373,3.542.641,5.594,1.282,10.445,3.814,13.815,8.624,4.2,6,3.457,13.486-1.812,18.856a23.671,23.671,0,0,1-13.672,6.708,27.6,27.6,0,0,1-11.443-.569,1.2,1.2,0,0,0-1,.273,21.426,21.426,0,0,1-11.108,3.127,3.281,3.281,0,0,1-3.324-3.6,3.123,3.123,0,0,1,.956-1.911,21.088,21.088,0,0,0,2.782-3.749.878.878,0,0,0-.1-1.2,14.375,14.375,0,0,1-3.638-10.625,15.247,15.247,0,0,1,5.255-10.291,24.2,24.2,0,0,1,12.966-5.969,3.438,3.438,0,0,0,1.468-.31Zm16.55,13.427a2.01,2.01,0,0,0-.08-.3,16.257,16.257,0,0,0-8.7-8.29,24.811,24.811,0,0,0-15.29-1.68,20.4,20.4,0,0,0-11.2,5.824,12.33,12.33,0,0,0-3.6,7.5,12.144,12.144,0,0,0,3.547,9.626c.946,1.025.994,1.207.405,2.472a20.607,20.607,0,0,1-3.593,5.251c-.206.224-.5.434-.336.8s.526.368.873.356a5.013,5.013,0,0,0,1.7-.172,5.333,5.333,0,0,0,.776-.02A19.523,19.523,0,0,0-937.5,698a2.471,2.471,0,0,1,2.19-.357,24.858,24.858,0,0,0,15.224-.5c4.209-1.48,7.764-3.885,9.958-7.9A10.936,10.936,0,0,0-909.5,679.506Z" transform="translate(-122.144)"/>
    <path id="Trazado_172079" data-name="Trazado 172079" d="M-1105.439,892.056c0-2.628-.021-5.257,0-7.885a13.5,13.5,0,0,1,9.666-13.029c7.383-2.133,13.768-.021,19.087,5.318a16.709,16.709,0,0,1,4.911,12.188c0,4.163-.028,8.327.017,12.49a3.765,3.765,0,0,1-1.636,3.261,13.558,13.558,0,0,1-5.506,2.257,44.855,44.855,0,0,1-20.854-.392,12.043,12.043,0,0,1-3.891-1.737,3.926,3.926,0,0,1-1.816-3.494C-1105.4,898.042-1105.44,895.048-1105.439,892.056Zm17.282-15.349-.115-.054.033.094.092-.062c-.186.162-.051.35-.01.5q1.285,4.887,2.59,9.768a.882.882,0,0,0,.278.537c1.458,1.124,2.912,2.253,4.461,3.453.376-1.739.729-3.379,1.086-5.019.06-.274-.108-.431-.271-.6Q-1084.088,881.016-1088.158,876.707Zm.759-3.134c.291.324.574.655.873.971q4.447,4.709,8.9,9.411a1.934,1.934,0,0,1,.651,1.882c-.565,2.477-1.1,4.962-1.65,7.442-.31,1.385-1.26,1.742-2.41.869-2.049-1.555-4.065-3.154-6.111-4.714a2.406,2.406,0,0,1-.907-1.393c-1.237-4.744-2.507-9.48-3.74-14.226-.152-.588-.378-.8-1.007-.7a12.073,12.073,0,0,0-6.4,3,10.827,10.827,0,0,0-3.63,8.4q-.008,7.534,0,15.069c0,2.607.16,2.829,2.669,3.743a31.93,31.93,0,0,0,9.621,1.643,41.29,41.29,0,0,0,9.539-.609,16.679,16.679,0,0,0,5.864-1.972,1.339,1.339,0,0,0,.69-1.278c-.019-4.268-.007-8.536.006-12.8a12.234,12.234,0,0,0-.266-2.551,15.45,15.45,0,0,0-7.353-10.286A12.182,12.182,0,0,0-1087.4,873.573Z" transform="translate(0 -161.614)"/>
    <path id="Trazado_172080" data-name="Trazado 172080" d="M-1100.175,734.828a14.76,14.76,0,0,1,5.2-11.163,12.34,12.34,0,0,1,16.909.561,15.665,15.665,0,0,1,.581,21.471c-5.792,6.271-15.309,5.433-20.1-1.774A15.962,15.962,0,0,1-1100.175,734.828Zm13.038-11.53a9.27,9.27,0,0,0-5.847,2.207c-3.632,3.043-4.891,7.025-4.351,11.625a9.671,9.671,0,0,0,1.773,4.815.643.643,0,0,0,.04.223c3.408,5.513,10.2,6.571,14.8,2.841a12.849,12.849,0,0,0,1.934-17.528A9.782,9.782,0,0,0-1087.137,723.3Z" transform="translate(-4.179 -43.129)"/>
    <path id="Trazado_172081" data-name="Trazado 172081" d="M-935.622,710.944a5.013,5.013,0,0,1-1.7.172c-.348.012-.7.016-.873-.356s.129-.574.336-.8a20.608,20.608,0,0,0,3.593-5.251c.589-1.265.541-1.447-.405-2.472a12.144,12.144,0,0,1-3.547-9.626,12.33,12.33,0,0,1,3.6-7.5,20.4,20.4,0,0,1,11.2-5.824,24.811,24.811,0,0,1,15.29,1.68,16.258,16.258,0,0,1,8.7,8.29,2.01,2.01,0,0,1,.08.3c-.237.371-.569.664-.782,1.063a5.54,5.54,0,0,0-.444,2.967,9.751,9.751,0,0,1-2.983,7.292c-3.575,3.782-8.175,5.287-13.2,5.686a23,23,0,0,1-9.134-1.142,1.308,1.308,0,0,0-1.258.124,23.526,23.526,0,0,1-6.348,3.1A2.977,2.977,0,0,0-935.622,710.944ZM-918.642,705c1.344-.023,1.155.163,1.175-1.019a4.936,4.936,0,0,0-.006-.857c-.118-.731.151-1.032.891-1.263a4.561,4.561,0,0,0,3.4-4.031,4.493,4.493,0,0,0-2.1-4.47,12.575,12.575,0,0,0-2.2-1.156,11.448,11.448,0,0,1-2.341-1.214,1.988,1.988,0,0,1-.877-2.172,2.088,2.088,0,0,1,1.711-1.609,5.4,5.4,0,0,1,3.7.5c.669.336.89.246,1.12-.445.485-1.458.521-1.448-.953-1.934-.27-.089-.552-.143-.82-.235-.434-.15-1.08.108-1.291-.317a3.576,3.576,0,0,1-.072-1.458c-.005-1.049,0-1.053-1.018-1.048-1.173.006-1-.1-1.014.983a3.64,3.64,0,0,0,0,.624c.136.837-.154,1.21-1.025,1.507a4.284,4.284,0,0,0-1.993,6.977,8.3,8.3,0,0,0,3.012,1.884,10.026,10.026,0,0,1,2.529,1.341,2.408,2.408,0,0,1,.878,2.507,2.344,2.344,0,0,1-1.8,1.761,6.153,6.153,0,0,1-3.881-.35c-.467-.165-.944-.763-1.333-.509-.351.229-.393.915-.6,1.387a.559.559,0,0,0,.3.858,10.1,10.1,0,0,0,2.185.795c.513.127,1.25-.052,1.5.357a2.979,2.979,0,0,1,.056,1.606C-919.569,704.761-919.434,705.255-918.642,705Z" transform="translate(-132.294 -10.05)" fill="#72e676"/>
    <path id="Trazado_172082" data-name="Trazado 172082" d="M-925.589,751.8a2.977,2.977,0,0,1,2.119-2.3,23.525,23.525,0,0,0,6.348-3.1,1.308,1.308,0,0,1,1.258-.124,23,23,0,0,0,9.134,1.142c5.025-.4,9.624-1.9,13.2-5.686a9.751,9.751,0,0,0,2.983-7.292,5.54,5.54,0,0,1,.444-2.967c.214-.4.546-.692.782-1.063a10.936,10.936,0,0,1-.627,9.734c-2.193,4.018-5.749,6.423-9.958,7.9a24.858,24.858,0,0,1-15.224.5,2.471,2.471,0,0,0-2.19.357,19.523,19.523,0,0,1-7.492,2.878A5.333,5.333,0,0,1-925.589,751.8Z" transform="translate(-142.326 -50.904)" fill="#72e676"/>
    <path id="Trazado_172083" data-name="Trazado 172083" d="M-1077.432,884.081a12.183,12.183,0,0,1,5.348,1.889,15.45,15.45,0,0,1,7.353,10.286,12.225,12.225,0,0,1,.265,2.55c-.013,4.268-.025,8.536-.006,12.8a1.339,1.339,0,0,1-.69,1.278,16.678,16.678,0,0,1-5.864,1.972,41.286,41.286,0,0,1-9.539.609,31.93,31.93,0,0,1-9.621-1.643c-2.509-.914-2.669-1.136-2.669-3.743q0-7.534,0-15.069a10.828,10.828,0,0,1,3.63-8.4,12.073,12.073,0,0,1,6.4-3c.629-.1.855.112,1.007.7,1.233,4.745,2.5,9.481,3.74,14.226a2.406,2.406,0,0,0,.907,1.393c2.045,1.56,4.062,3.159,6.111,4.714,1.15.873,2.1.516,2.41-.869.554-2.48,1.084-4.965,1.65-7.442a1.934,1.934,0,0,0-.651-1.882q-4.463-4.694-8.9-9.411C-1076.859,884.736-1077.142,884.405-1077.432,884.081Z" transform="translate(-9.967 -172.122)" fill="#deb247"/>
    <path id="Trazado_172084" data-name="Trazado 172084" d="M-1022.9,900.834q4.07,4.31,8.141,8.62c.163.173.331.33.271.6-.357,1.64-.71,3.281-1.086,5.019-1.548-1.2-3-2.329-4.461-3.453a.883.883,0,0,1-.278-.537q-1.3-4.883-2.59-9.768c-.041-.154-.176-.341.01-.5Z" transform="translate(-65.258 -185.744)" fill="#fff"/>
    <path id="Trazado_172085" data-name="Trazado 172085" d="M-1023,900.691l-.092.062-.033-.094c.038.018.077.036.116.053Z" transform="translate(-65.147 -185.619)" fill="#fff"/>
    <path id="Trazado_172086" data-name="Trazado 172086" d="M-1069.647,733.575a9.782,9.782,0,0,1,8.351,4.183,12.849,12.849,0,0,1-1.934,17.528c-4.6,3.73-11.394,2.672-14.8-2.841a.644.644,0,0,1-.04-.224,4.562,4.562,0,0,0,.559-3.215,13.451,13.451,0,0,1-.425-4.305,10.039,10.039,0,0,1,2.687-6.455,9.929,9.929,0,0,1,3.653-2.428A2.984,2.984,0,0,0-1069.647,733.575Z" transform="translate(-21.669 -53.405)" fill="#afafaf"/>
    <path id="Trazado_172087" data-name="Trazado 172087" d="M-1076.823,733.589a2.985,2.985,0,0,1-1.952,2.244,9.928,9.928,0,0,0-3.653,2.427,10.039,10.039,0,0,0-2.687,6.455,13.451,13.451,0,0,0,.425,4.305,4.562,4.562,0,0,1-.559,3.215,9.669,9.669,0,0,1-1.773-4.814c-.541-4.6.719-8.583,4.351-11.625A9.27,9.27,0,0,1-1076.823,733.589Z" transform="translate(-14.493 -53.42)" fill="#fff"/>
    <path id="Trazado_172088" data-name="Trazado 172088" d="M-863.177,718.241c-.792.256-.927-.238-.864-1a2.979,2.979,0,0,0-.056-1.606c-.249-.409-.987-.23-1.5-.357a10.1,10.1,0,0,1-2.185-.795.559.559,0,0,1-.3-.858c.207-.472.249-1.158.6-1.387.39-.254.866.344,1.333.509a6.153,6.153,0,0,0,3.881.35,2.344,2.344,0,0,0,1.8-1.761,2.408,2.408,0,0,0-.878-2.507,10.028,10.028,0,0,0-2.529-1.341,8.3,8.3,0,0,1-3.012-1.884,4.284,4.284,0,0,1,1.993-6.977c.871-.3,1.161-.669,1.025-1.507a3.64,3.64,0,0,1,0-.624c.015-1.08-.16-.978,1.014-.983,1.017,0,1.013,0,1.018,1.048a3.576,3.576,0,0,0,.072,1.458c.211.426.858.167,1.291.317.268.093.55.146.82.235,1.475.486,1.438.476.953,1.934-.23.691-.451.781-1.12.445a5.4,5.4,0,0,0-3.7-.5,2.088,2.088,0,0,0-1.711,1.609,1.988,1.988,0,0,0,.877,2.172,11.45,11.45,0,0,0,2.341,1.214,12.58,12.58,0,0,1,2.2,1.156,4.493,4.493,0,0,1,2.1,4.47,4.561,4.561,0,0,1-3.4,4.031c-.741.231-1.009.532-.891,1.263a4.937,4.937,0,0,1,.006.857C-862.023,718.4-861.833,718.219-863.177,718.241Z" transform="translate(-187.759 -23.292)"/>
  </g>
</svg>
