<svg xmlns="http://www.w3.org/2000/svg" width="93.009" height="100" viewBox="0 0 93.009 100">
  <g id="Grupo_111500" data-name="Grupo 111500" transform="translate(492.488 -1594.927)">
    <g id="Elipse_5888" data-name="Elipse 5888" transform="translate(-466.488 1607.927)" fill="#fff" stroke="#707070" stroke-width="1">
      <circle cx="21" cy="21" r="21" stroke="none"/>
      <circle cx="21" cy="21" r="20.5" fill="none"/>
    </g>
    <path id="Trazado_171862" data-name="Trazado 171862" d="M-421.31,1674.583c-2.778-3.561-5.6-7.089-8.325-10.689-4.768-6.3-9.263-12.778-12.508-20.031-2.43-5.432-3.975-11.037-3.49-17.081a33.722,33.722,0,0,1,10.3-22.094,33.443,33.443,0,0,1,19.346-9.442c.348-.047.787.062,1.05-.319h6.64a12.128,12.128,0,0,0,2.986.543,34.492,34.492,0,0,1,27.717,28.023c1.222,7.135-.15,13.81-3.062,20.285-3.271,7.274-7.763,13.792-12.555,20.115-2.728,3.6-5.544,7.13-8.321,10.691q-4.166,4.957-7.906,10.243c-1.324,1.882-2.638,1.883-3.963,0C-415.891,1681.3-418.541,1677.895-421.31,1674.583Zm40.289-45.231a31.429,31.429,0,0,0-1.012-7.867,30.372,30.372,0,0,0-48.459-15.9c-9.246,7.34-13.867,20.417-9.864,32.152a68.066,68.066,0,0,0,7.648,15.075c6.308,9.7,14.02,18.339,20.93,27.583.37.495.534.209.773-.1,4.949-6.329,9.956-12.612,14.838-18.992a98.521,98.521,0,0,0,11.748-18.7A32.724,32.724,0,0,0-381.021,1629.352Z" transform="translate(-34.56)" fill="#030302"/>
    <path id="Trazado_171863" data-name="Trazado 171863" d="M-444.591,1900.142c2.77,3.312,5.419,6.716,7.9,10.246,1.325,1.881,2.639,1.88,3.963,0q3.726-5.3,7.906-10.243l7.656.6c.077,1.619.643,2.213,2.232,2.358.55.05,1.1.119,1.648.184A83.861,83.861,0,0,1-398,1906.217a15.956,15.956,0,0,1,5.351,2.49c.569.452.627.864,0,1.294-.374.257-.738.533-1.132.756a23.015,23.015,0,0,1-5.433,2.095c-8.909,2.389-18.034,3.14-27.2,3.537a195.031,195.031,0,0,1-26.319-.625,94.892,94.892,0,0,1-18.123-3.106,18.929,18.929,0,0,1-5.606-2.415c-1.02-.709-1.013-1.036,0-1.776a13.107,13.107,0,0,1,3.387-1.682c6.014-2.143,12.29-2.976,18.589-3.679,1.582-.177,2.155-.746,2.233-2.362Z" transform="translate(-11.28 -225.559)" fill="#f5cd6c"/>
    <path id="Trazado_171864" data-name="Trazado 171864" d="M-463.532,1897.986c-.078,1.616-.651,2.185-2.233,2.362-6.3.7-12.575,1.536-18.589,3.679a13.1,13.1,0,0,0-3.387,1.682c-1.013.74-1.02,1.067,0,1.776a18.929,18.929,0,0,0,5.606,2.415,94.9,94.9,0,0,0,18.123,3.106,195.072,195.072,0,0,0,26.319.625c9.169-.4,18.294-1.148,27.2-3.537a23.02,23.02,0,0,0,5.433-2.095c.394-.223.758-.5,1.132-.756.626-.43.568-.843,0-1.294a15.951,15.951,0,0,0-5.351-2.49,83.862,83.862,0,0,0-15.285-2.931c-.549-.065-1.1-.134-1.648-.184-1.589-.145-2.155-.739-2.232-2.358.562-1.277,1.057-1.679,2.269-1.552,6.727.708,13.421,1.614,19.838,3.9a14.978,14.978,0,0,1,5.02,2.727c2.442,2.152,2.452,4.9,0,7.047a17.937,17.937,0,0,1-6.665,3.314,89.264,89.264,0,0,1-17.6,3.284,191.138,191.138,0,0,1-24.368.974c-9.993-.22-19.947-.9-29.737-3.092a33.566,33.566,0,0,1-8.988-3.1,9.423,9.423,0,0,1-2.622-2,4.123,4.123,0,0,1,.068-5.885,12.216,12.216,0,0,1,4.582-2.883,59.3,59.3,0,0,1,13.194-3.31c2.344-.367,4.7-.644,7.056-.941C-464.707,1896.259-464.164,1896.562-463.532,1897.986Z" transform="translate(0 -222.801)" fill="#030303"/>
    <path id="Trazado_171866" data-name="Trazado 171866" d="M-377.893,1640.239a22.474,22.474,0,0,1,22.43,22.587,22.52,22.52,0,0,1-22.556,22.382,22.513,22.513,0,0,1-22.382-22.654A22.489,22.489,0,0,1-377.893,1640.239Zm-.006,3.909a18.571,18.571,0,0,0-18.594,18.411,18.608,18.608,0,0,0,18.481,18.74,18.606,18.606,0,0,0,18.642-18.48A18.561,18.561,0,0,0-377.9,1644.149Z" transform="translate(-68.054 -33.486)" fill="#030302"/>
    <path id="Trazado_171867" data-name="Trazado 171867" d="M-366.835,1655.219a18.561,18.561,0,0,1,18.529,18.672,18.607,18.607,0,0,1-18.642,18.48,18.608,18.608,0,0,1-18.481-18.74A18.572,18.572,0,0,1-366.835,1655.219Zm-17.414,18.532a17.277,17.277,0,0,0,17.2,17.444,17.311,17.311,0,0,0,17.557-16.495,17.353,17.353,0,0,0-17.336-18.385A17.319,17.319,0,0,0-384.249,1673.75Z" transform="translate(-79.118 -44.556)" fill="#e4e4e4"/>
    <path id="Trazado_171865" data-name="Trazado 171865" d="M-369.925,1640.425a32.724,32.724,0,0,1-3.4,13.257,98.512,98.512,0,0,1-11.748,18.7c-4.882,6.38-9.89,12.663-14.839,18.992-.239.306-.4.592-.773.1-6.91-9.245-14.622-17.882-20.93-27.583a68.068,68.068,0,0,1-7.648-15.075c-4-11.735.618-24.811,9.864-32.152a30.372,30.372,0,0,1,48.459,15.9A31.429,31.429,0,0,1-369.925,1640.425Zm-30.365-22.6A22.489,22.489,0,0,0-422.8,1640.14a22.513,22.513,0,0,0,22.382,22.654,22.52,22.52,0,0,0,22.556-22.382A22.474,22.474,0,0,0-400.29,1617.826Z" transform="translate(-45.657 -11.073)" fill="#43a047"/>
  </g>
</svg>
