<svg xmlns="http://www.w3.org/2000/svg" width="100" height="100" viewBox="0 0 100 100">
  <g id="Grupo_111431" data-name="Grupo 111431" transform="translate(489.853 -1696.425)">
    <path id="Trazado_171869" data-name="Trazado 171869" d="M-241.289,1839.981a145.872,145.872,0,0,1-10.781,10.8c-1.627,1.492-3.309,2.925-4.946,4.406a1.632,1.632,0,0,1-2.274.224c-.661-1.071-.591-1.628.353-2.443a183.363,183.363,0,0,0,14.122-13.439,1.669,1.669,0,0,0,.55-1.356c-.425-7.142-.547-14.292-.41-21.445.074-3.868.215-7.733.314-11.6.007-.291.253-.807-.439-.668a5.829,5.829,0,0,0-5.651,4.411,30.011,30.011,0,0,0-1.178,7.69c-.289,4.748-.217,9.5-.2,14.254a2.636,2.636,0,0,1-.991,2.2c-1.116.947-2.178,1.958-3.256,2.95-.218.2-.6.419-.058.7.171.192.335.39.513.575,1.277,1.325,1.265,1.93-.1,3.127-1.979,1.735-3.953,3.475-5.956,5.182-2.1,1.79-4.233,3.546-6.356,5.311a1.44,1.44,0,0,1-1.707.276,1.418,1.418,0,0,1-.818-1.335,1.862,1.862,0,0,1,.914-1.417q5.407-4.4,10.622-9.02c.221-.2.65-.293.541-.747-2.264-2.463-4.637-2.948-7.61-1.545a20.69,20.69,0,0,0-3.316,2.03c-4.605,3.352-8.677,7.346-13.1,10.906-2.175,1.749-3.627,3.6-3.206,6.5a1.141,1.141,0,0,1-.014.194,128.037,128.037,0,0,0,.245,15.872c-.236.875-.722,1.5-1.709,1.365s-1.255-.9-1.309-1.784a139,139,0,0,1,.141-20.177,1.776,1.776,0,0,1,.66-1.253c5.306-4.549,10.387-9.363,15.976-13.577a17.633,17.633,0,0,1,7.319-3.7,7.821,7.821,0,0,1,1.258-.119c1.2-.026,1.194-.017,1.115-1.253a78.409,78.409,0,0,1-.155-12.278,22.011,22.011,0,0,1,1.346-6.161,8.658,8.658,0,0,1,6.976-5.806,1.06,1.06,0,0,0,.976-.739c1.371-3.478,4.08-5.152,7.678-5.581.548-.065,1.105-.063,1.652-.135a2.184,2.184,0,0,1,2.277.9v4.1c-.313.108-.184.379-.192.578-.4,9.639-.426,19.278.007,28.917.009.2-.117.469.186.585Zm-17.7-5.333c1.3-1.188,2.405-2.237,3.559-3.228a1.778,1.778,0,0,0,.664-1.5c-.006-5.3-.1-10.6.4-15.884.1-1.041.238-2.078.365-3.171a5.557,5.557,0,0,0-3.7,2.939,11.768,11.768,0,0,0-1.167,3.389C-259.974,1822.914-259.218,1828.647-258.99,1834.649Z" transform="translate(-148.564 -77.534)" fill="#040403"/>
    <path id="Trazado_171870" data-name="Trazado 171870" d="M-357.288,1707.807c1.206-.4,1.577-.271,2.358.85a28.368,28.368,0,0,1-11.5,41.9,28.4,28.4,0,0,1-39.912-21.61c-2.273-15.743,8.426-29.923,24.361-32.3.231-.034.539.1.68-.224h5.665c1.539.435,3.144.527,4.689.955a29.135,29.135,0,0,1,10.5,5.329,1.6,1.6,0,0,1,.535,2.283c-1,.752-1.417.752-2.406-.02a23.977,23.977,0,0,0-9.4-4.693,24.191,24.191,0,0,0-10.9-.546c-13.247,2.1-22.979,15.2-20.854,28.447,1.768,11.016,8.212,18.137,18.935,21.226a22.559,22.559,0,0,0,12.611-.049l.454-.1.007,0c.282-.072.568-.13.844-.218a25.444,25.444,0,0,0,13.327-38.657C-358.118,1709.184-358.116,1708.8-357.288,1707.807Z" transform="translate(-61.484)" fill="#040403"/>
    <path id="Trazado_171871" data-name="Trazado 171871" d="M-224.774,1813.2c.691-.139.446.378.439.668-.1,3.867-.24,7.733-.314,11.6-.137,7.153-.015,14.3.41,21.445a1.669,1.669,0,0,1-.55,1.356,183.361,183.361,0,0,1-14.122,13.439c-.944.814-1.015,1.372-.353,2.443a8.949,8.949,0,0,0-3.112,2.545c-.943-.875-1.488-.9-2.543-.112-1.431,1.065-2.821,2.191-4.308,3.17a2.611,2.611,0,0,0-1.34,2.743,42.679,42.679,0,0,1-.049,8.843l-10.9-.043a16.711,16.711,0,0,0-.185-2.414c.1-2.331.014-4.663.144-7,.126-2.259.2-4.533.287-6.8a3.789,3.789,0,0,1,.494-2.5c.654-.76,1.328-1.515,2.033-2.221,2.452-2.455,4.834-4.977,7.515-7.207,3.746-3.115,7.8-5.433,12.77-5.8.109.454-.32.551-.541.747q-5.213,4.625-10.622,9.02a1.862,1.862,0,0,0-.914,1.417,1.418,1.418,0,0,0,.818,1.335,1.44,1.44,0,0,0,1.707-.276c2.123-1.766,4.254-3.521,6.356-5.311,2-1.706,3.977-3.447,5.956-5.182,1.365-1.2,1.377-1.8.1-3.127-.178-.185-.343-.383-.513-.575.162-.358.475-.377.816-.4a6.786,6.786,0,0,0,6.807-6.118,25.38,25.38,0,0,0,.228-5.392,74.728,74.728,0,0,1,.375-11.371,23.632,23.632,0,0,1,1.272-5.759A22.463,22.463,0,0,1-224.774,1813.2Z" transform="translate(-168.591 -86.271)" fill="#fde4c5"/>
    <path id="Trazado_171872" data-name="Trazado 171872" d="M-441.234,1881.313l-10.9.043a39.147,39.147,0,0,1-.061-8.479,3.171,3.171,0,0,0-1.586-3.308,167.492,167.492,0,0,1-24.28-21.394,1.235,1.235,0,0,1-.457-1.007c.171-2.4.3-4.807.446-7.211a148.17,148.17,0,0,0,.156-17.761q-.248-4.143-.459-8.287c-.013-.262-.322-.809.4-.692a14.129,14.129,0,0,1,2.557,5.484,57.054,57.054,0,0,1,.95,9.15c.2,3.234-.207,6.473.006,9.714.285,4.34,2.511,7.077,7.011,7.456.339.028.653.042.815.4-.125.146-.243.3-.376.436-1.466,1.51-1.462,2.032.109,3.393q4.677,4.052,9.379,8.076c.962.823,1.942,1.628,2.947,2.4a1.394,1.394,0,0,0,2.006-.184,1.423,1.423,0,0,0-.116-2.016,6.446,6.446,0,0,0-.59-.508q-5.363-4.374-10.542-8.963c-.193-.172-.646-.23-.468-.681a6.69,6.69,0,0,0,.95.18,17.022,17.022,0,0,1,8.473,3.126c5,3.246,8.913,7.7,12.975,11.977a.937.937,0,0,1,.253.613c.123,1.708.364,3.414.365,5.121,0,3.408.34,6.807.233,10.218A13.484,13.484,0,0,0-441.234,1881.313Z" transform="translate(-8.372 -86.291)" fill="#fde4c5"/>
    <path id="Trazado_171873" data-name="Trazado 171873" d="M-472.663,1838.7c-.178.45.274.509.468.681q5.177,4.592,10.542,8.963a6.5,6.5,0,0,1,.59.508,1.423,1.423,0,0,1,.116,2.016,1.394,1.394,0,0,1-2.006.184c-1.005-.77-1.985-1.575-2.947-2.4q-4.7-4.024-9.379-8.076c-1.57-1.361-1.574-1.883-.109-3.393.134-.138.251-.291.376-.436.539-.278.164-.5-.058-.7-1.079-.991-2.139-2-3.257-2.948a2.629,2.629,0,0,1-.992-2.2c.013-4.719.089-9.442-.2-14.156a28.177,28.177,0,0,0-1.351-8.244,5.746,5.746,0,0,0-5.478-3.956c-.722-.117-.413.429-.4.692q.206,4.144.459,8.286a148.174,148.174,0,0,1-.156,17.761c-.145,2.4-.275,4.809-.446,7.211a1.235,1.235,0,0,0,.457,1.007,167.492,167.492,0,0,0,24.28,21.394,3.171,3.171,0,0,1,1.586,3.308,39.145,39.145,0,0,0,.061,8.478,1.434,1.434,0,0,1-1.615,1.346c-.929-.087-1.286-.752-1.361-1.627a45,45,0,0,1-.052-7.994,1.24,1.24,0,0,0-.585-1.286,178.453,178.453,0,0,1-24.477-21.608,4.132,4.132,0,0,1-1.213-3.476,196.925,196.925,0,0,0,.718-21.455c-.159-4.1-.457-8.187-.692-12.28-.022-.39-.064-.78-.067-1.169a1.456,1.456,0,0,1,1.59-1.67c4.155.057,8.134.929,10.095,5.906a.68.68,0,0,0,.614.5c4.849.715,7.018,4.012,8,8.4a39.29,39.29,0,0,1,.678,10.39c-.089,2.048-.2,4.095-.294,6.143-.013.288-.178.672.411.634,3-.2,5.453,1.21,7.854,2.744.411.262.791.573,1.2.836a1.614,1.614,0,0,1,.69,2.254c-1.026.829-1.386.842-2.492.063a23.7,23.7,0,0,0-3.651-2.219C-468.083,1835.76-470.449,1836.258-472.663,1838.7Zm.422-4.038c.1-1.566.2-2.894.263-4.223a61.323,61.323,0,0,0-.109-11.885,11.427,11.427,0,0,0-2.183-5.855,3.732,3.732,0,0,0-2.894-1.58,59.966,59.966,0,0,1,.612,6.208c.228,4.26.151,8.522.187,12.783,0,.343-.1.7.231,1C-474.881,1832.234-473.644,1833.377-472.241,1834.66Z" transform="translate(0 -77.618)" fill="#040403"/>
    <path id="Trazado_171874" data-name="Trazado 171874" d="M-424,1937.527c2.214-2.441,4.58-2.938,7.508-1.584a23.705,23.705,0,0,1,3.651,2.219c1.106.779,1.466.765,2.492-.063l3.328,2.747c-.578,1.168-.5,1.548.509,2.432q4.471,3.912,8.951,7.812a1.492,1.492,0,0,1,.6,1.143c.05,1.167.168,2.332.209,3.5A125.82,125.82,0,0,1-397,1971.49l-3.943-.022a13.508,13.508,0,0,1,.192-2.706c.107-3.411-.232-6.81-.233-10.218,0-1.707-.242-3.414-.365-5.121a.937.937,0,0,0-.253-.613c-4.063-4.277-7.971-8.731-12.975-11.976a17.022,17.022,0,0,0-8.473-3.127A6.69,6.69,0,0,1-424,1937.527Z" transform="translate(-48.66 -176.446)" fill="#fcd3ae"/>
    <path id="Trazado_171875" data-name="Trazado 171875" d="M-250.162,1937.527c-4.97.364-9.024,2.682-12.77,5.8-2.681,2.23-5.063,4.752-7.515,7.207-.705.706-1.378,1.462-2.033,2.221a3.79,3.79,0,0,0-.494,2.5c-.091,2.266-.161,4.54-.287,6.8-.13,2.338-.043,4.67-.144,7a16.7,16.7,0,0,1,.185,2.414l-3.946.019a128.047,128.047,0,0,1-.245-15.872,1.141,1.141,0,0,0,.014-.194c-.422-2.907,1.031-4.754,3.206-6.5,4.427-3.56,8.5-7.554,13.1-10.906a20.69,20.69,0,0,1,3.316-2.03C-254.8,1934.578-252.426,1935.064-250.162,1937.527Z" transform="translate(-156.888 -176.446)" fill="#fcd3ae"/>
    <path id="Trazado_171876" data-name="Trazado 171876" d="M-272.861,1711.186a23.977,23.977,0,0,1,9.4,4.693c.989.772,1.409.772,2.406.02l2.631,2.815c-.828.991-.83,1.376-.011,2.575a25.444,25.444,0,0,1-13.327,38.657c-.277.088-.563.146-.844.218.06-.412.449-.433.716-.572a26.043,26.043,0,0,0,8.838-7.338,26.354,26.354,0,0,0,5.365-20.588,26.17,26.17,0,0,0-11.785-18.427C-270.57,1712.505-271.731,1711.868-272.861,1711.186Z" transform="translate(-160.346 -10.908)" fill="#fdd165"/>
    <path id="Trazado_171877" data-name="Trazado 171877" d="M-349.966,1986.259a125.824,125.824,0,0,0,.248-15.759c-.041-1.167-.159-2.332-.209-3.5a1.493,1.493,0,0,0-.6-1.143q-4.493-3.886-8.951-7.812c-1.011-.884-1.088-1.264-.509-2.432a1.66,1.66,0,0,1,2.356.145q4.827,4.251,9.692,8.46a2.517,2.517,0,0,1,.885,1.851,139.571,139.571,0,0,1,.138,19.283c-.009.162-.022.324-.031.487-.046.882-.32,1.645-1.308,1.781S-349.727,1987.13-349.966,1986.259Z" transform="translate(-95.697 -191.215)" fill="#040403"/>
    <path id="Trazado_171878" data-name="Trazado 171878" d="M-219.231,2030.906a42.679,42.679,0,0,0,.049-8.843,2.612,2.612,0,0,1,1.34-2.743c1.487-.979,2.878-2.1,4.308-3.17,1.056-.786,1.6-.763,2.543.112a1.662,1.662,0,0,1-.707,2.186c-1.339.976-2.644,2-4,2.959a1.084,1.084,0,0,0-.514,1.128,45.017,45.017,0,0,1-.043,7.991c-.092,1.06-.549,1.688-1.366,1.732A1.463,1.463,0,0,1-219.231,2030.906Z" transform="translate(-199.976 -235.841)" fill="#040403"/>
    <path id="Trazado_171879" data-name="Trazado 171879" d="M-153.12,1813.263a22.47,22.47,0,0,0-1.841,3.166,23.632,23.632,0,0,0-1.272,5.759,74.728,74.728,0,0,0-.375,11.371,25.379,25.379,0,0,1-.228,5.392,6.786,6.786,0,0,1-6.807,6.118c-.341.022-.653.04-.816.4-.545-.278-.16-.5.058-.7,1.078-.992,2.14-2,3.256-2.95a2.635,2.635,0,0,0,.991-2.2c-.013-4.752-.085-9.507.2-14.254a30.011,30.011,0,0,1,1.178-7.69A5.829,5.829,0,0,1-153.12,1813.263Z" transform="translate(-240.245 -86.337)" fill="#fcd3ae"/>
    <path id="Trazado_171880" data-name="Trazado 171880" d="M-175.91,1861.574c-.228-6-.984-11.735.117-17.459a11.768,11.768,0,0,1,1.167-3.389,5.557,5.557,0,0,1,3.7-2.939c-.127,1.093-.268,2.129-.365,3.171-.491,5.285-.4,10.586-.4,15.884a1.777,1.777,0,0,1-.664,1.5C-173.505,1859.337-174.609,1860.386-175.91,1861.574Z" transform="translate(-231.644 -104.459)" fill="#fde4c5"/>
    <path id="Trazado_171881" data-name="Trazado 171881" d="M-363.575,1708.593c1.13.682,2.291,1.319,3.386,2.055a26.169,26.169,0,0,1,11.785,18.427,26.354,26.354,0,0,1-5.365,20.588,26.043,26.043,0,0,1-8.838,7.338c-.267.139-.657.16-.716.572l-.007,0a.315.315,0,0,0-.454.1,22.559,22.559,0,0,1-12.611.049c-10.722-3.089-17.167-10.21-18.935-21.226-2.125-13.244,7.607-26.345,20.854-28.446A24.189,24.189,0,0,1-363.575,1708.593ZM-388.2,1738.5c-1.059.787-1.162,1.17-.649,2.393a20.194,20.194,0,0,0,21.174,12.314,20.325,20.325,0,0,0,17.737-18.112,20.283,20.283,0,0,0-18.918-22.2,20.248,20.248,0,0,0-21.536,19.74c-.02,1.356.244,1.684,1.6,1.991A15.876,15.876,0,0,0-388.2,1738.5Z" transform="translate(-69.632 -8.315)" fill="#fcee8b"/>
    <path id="Trazado_171882" data-name="Trazado 171882" d="M-273.662,1898.741a.315.315,0,0,1,.454-.1Z" transform="translate(-159.754 -149.385)" fill="#fdd165"/>
    <path id="Trazado_171883" data-name="Trazado 171883" d="M-476.432,1813.263a5.746,5.746,0,0,1,5.478,3.956,28.178,28.178,0,0,1,1.351,8.244c.292,4.715.216,9.437.2,14.156a2.629,2.629,0,0,0,.992,2.2c1.117.945,2.178,1.958,3.257,2.948.222.2.6.422.058.7-.162-.358-.476-.372-.815-.4-4.5-.379-6.726-3.116-7.011-7.456-.213-3.241.192-6.48-.006-9.714a57.051,57.051,0,0,0-.95-9.15A14.129,14.129,0,0,0-476.432,1813.263Z" transform="translate(-9.918 -86.337)" fill="#fcd3ae"/>
    <path id="Trazado_171884" data-name="Trazado 171884" d="M-436.323,1861.982c-1.4-1.283-2.64-2.426-3.893-3.552-.328-.295-.228-.656-.231-1-.037-4.261.041-8.524-.187-12.783a59.974,59.974,0,0,0-.612-6.208,3.732,3.732,0,0,1,2.894,1.58,11.427,11.427,0,0,1,2.183,5.855,61.323,61.323,0,0,1,.109,11.885C-436.126,1859.089-436.224,1860.416-436.323,1861.982Z" transform="translate(-35.918 -104.94)" fill="#fde4c5"/>
    <path id="Trazado_171885" data-name="Trazado 171885" d="M-368.893,1761.423a15.876,15.876,0,0,1-.592-3.878c1.1-.338,1.316-1.159,1.35-2.2a17.341,17.341,0,0,1,15.115-16.53,17.346,17.346,0,0,1,19.5,17.815,17.361,17.361,0,0,1-16.912,16.729,17.268,17.268,0,0,1-16.341-10.55C-367.194,1761.831-367.741,1761.208-368.893,1761.423Zm12.253-.507a5.051,5.051,0,0,0,2.594,4.286c1.3.7,2.05,1.365,1.8,2.961-.119.771.531,1.291,1.376,1.326a1.413,1.413,0,0,0,1.492-1.358,4.535,4.535,0,0,0,0-1.072c-.1-.715.155-1.048.857-1.336a5.759,5.759,0,0,0,3.421-6.449,5.844,5.844,0,0,0-5.406-4.687,5.513,5.513,0,0,1-1.153-.171,2.822,2.822,0,0,1-2.068-2.658,2.88,2.88,0,0,1,1.865-2.811,2.874,2.874,0,0,1,3.9,2.468q.256,1.847,1.706,1.664c.9-.114,1.31-.771,1.209-1.987a5.605,5.605,0,0,0-2.394-4.18c-1.573-1.164-1.574-1.151-1.955-3.119a1.385,1.385,0,0,0-1.5-1.245,1.381,1.381,0,0,0-1.392,1.365,4.576,4.576,0,0,0,0,1.072c.1.709-.138,1.051-.852,1.336a5.671,5.671,0,0,0-3.5,5.667,5.774,5.774,0,0,0,4.125,5.247,11.031,11.031,0,0,0,2.02.3,2.706,2.706,0,0,1,2.414,1.983,2.736,2.736,0,0,1-.815,3.022,2.723,2.723,0,0,1-2.91.572,2.84,2.84,0,0,1-1.922-2.581c-.113-1.076-.748-1.671-1.591-1.6S-356.666,1759.677-356.639,1760.916Z" transform="translate(-88.935 -31.235)" fill="#fdd165"/>
    <path id="Trazado_171886" data-name="Trazado 171886" d="M-373.383,1753.136c1.151-.215,1.7.408,2.123,1.387a17.268,17.268,0,0,0,16.341,10.55,17.361,17.361,0,0,0,16.912-16.729,17.346,17.346,0,0,0-19.5-17.815,17.341,17.341,0,0,0-15.115,16.53c-.034,1.04-.254,1.861-1.35,2.2-1.356-.307-1.62-.635-1.6-1.991a20.248,20.248,0,0,1,21.536-19.74,20.283,20.283,0,0,1,18.918,22.2,20.325,20.325,0,0,1-17.737,18.112,20.194,20.194,0,0,1-21.174-12.314C-374.546,1754.307-374.442,1753.923-373.383,1753.136Z" transform="translate(-84.445 -22.948)" fill="#040403"/>
    <path id="Trazado_171887" data-name="Trazado 171887" d="M-320.256,1771.818c-.027-1.239.487-1.908,1.322-1.98s1.478.523,1.591,1.6a2.84,2.84,0,0,0,1.922,2.581,2.723,2.723,0,0,0,2.91-.572,2.736,2.736,0,0,0,.815-3.022,2.706,2.706,0,0,0-2.414-1.983,11.041,11.041,0,0,1-2.02-.3,5.773,5.773,0,0,1-4.125-5.247,5.671,5.671,0,0,1,3.5-5.667c.714-.285.95-.627.852-1.336a4.576,4.576,0,0,1,0-1.072,1.381,1.381,0,0,1,1.392-1.365,1.385,1.385,0,0,1,1.5,1.245c.381,1.969.382,1.956,1.955,3.119a5.6,5.6,0,0,1,2.394,4.18c.1,1.215-.311,1.873-1.209,1.987q-1.449.184-1.706-1.664a2.874,2.874,0,0,0-3.9-2.468,2.88,2.88,0,0,0-1.865,2.811,2.822,2.822,0,0,0,2.068,2.658,5.513,5.513,0,0,0,1.153.171,5.844,5.844,0,0,1,5.406,4.687,5.759,5.759,0,0,1-3.421,6.449c-.7.287-.959.621-.857,1.336a4.533,4.533,0,0,1,0,1.072,1.413,1.413,0,0,1-1.492,1.358c-.845-.035-1.495-.555-1.376-1.326.245-1.6-.508-2.261-1.8-2.961A5.052,5.052,0,0,1-320.256,1771.818Z" transform="translate(-125.318 -42.137)" fill="#040403"/>
  </g>
</svg>
