<svg xmlns="http://www.w3.org/2000/svg" width="60.007" height="60" viewBox="0 0 60.007 60">
  <g id="Grupo_111512" data-name="Grupo 111512" transform="translate(-672.645 -1871.903)">
    <path id="Trazado_172350" data-name="Trazado 172350" d="M718.616,1916.412a2.017,2.017,0,0,0,.283.207c1.517.753,1.524.755.733,2.2a25,25,0,1,1-27.149-36.36,24.475,24.475,0,0,1,20.664,4.842c.272.209.555.767.9.484.462-.374,1.105-.691,1.094-1.479-.023-1.552.01-3.1-.014-4.656a2.447,2.447,0,0,1,.755-1.886q3.587-3.557,7.146-7.142a1.882,1.882,0,0,1,2.222-.552,1.9,1.9,0,0,1,1.141,1.99c-.026,1.141.021,2.285-.018,3.426-.018.528.112.714.673.692,1.2-.045,2.4-.007,3.6-.015a1.88,1.88,0,0,1,1.355,3.282q-3.666,3.664-7.329,7.331a2.2,2.2,0,0,1-1.665.643c-1.523-.013-3.048.05-4.567-.025-.885-.043-1.211.616-1.675,1.089-.287.292.156.509.313.706a25.113,25.113,0,0,1,4.737,22.153c-.14.547-.332.715-.873.5a9.078,9.078,0,0,0-1.176-.312,5.134,5.134,0,0,0-.9-.32c-.667-.107-.837-.358-.637-1.062a18.787,18.787,0,0,0,.647-5.035,21.09,21.09,0,0,0-4.444-13.225c-.381-.5-.616-.538-1.049-.066-.772.841-1.575,1.659-2.425,2.419-.513.458-.451.77-.077,1.285a15.375,15.375,0,0,1,2.993,8.576,16.253,16.253,0,1,1-6.807-12.4c.571.4.855.33,1.28-.129.756-.816,1.537-1.614,2.363-2.358.512-.461.469-.7-.067-1.112a20.76,20.76,0,0,0-10.776-4.312,18.613,18.613,0,0,0-8.811,1.006,1.706,1.706,0,0,0-.347.035c-7.617,2.361-13.85,10.447-14.25,18.433a21.039,21.039,0,0,0,8.093,18.341,16.54,16.54,0,0,0,6.133,3.287l-.008-.007c.081.165.228.164.379.15a13.7,13.7,0,0,0,4.678,1.026q13.372.735,20.407-10.7c.3-.495.452-1.236.882-1.461C717.482,1915.657,718.036,1916.329,718.616,1916.412Zm4.447-35.109c-.582-.853-.328-1.849-.434-2.917-1.262,1.247-2.438,2.4-3.6,3.571a.592.592,0,0,0-.143.4,16.8,16.8,0,0,0,.091,3.046c.031.3.256.267.457.268.874,0,1.747,0,2.62,0a.745.745,0,0,0,.574-.153c1.161-1.161,2.318-2.327,3.58-3.595C725.02,1881.828,723.921,1882.112,723.063,1881.3Zm-25.681,27.482c-1.791-.67-2.134-2.083-.825-3.449.485-.506,1.012-.972,1.5-1.471.151-.153.458-.281.336-.544-.11-.237-.414-.159-.641-.168a3.623,3.623,0,0,0-2.225.67,3.725,3.725,0,0,0-1.282,4.655,3.588,3.588,0,0,0,4.015,2.049,3.454,3.454,0,0,0,2.864-4.53c-.636.667-1.242,1.287-1.829,1.925A2.361,2.361,0,0,1,697.382,1908.785Zm.44,10.619a19.908,19.908,0,0,0,2.378-.266,12.536,12.536,0,0,0,7.918-19.067c-.291-.432-.453-.581-.879-.12-.873.946-1.8,1.844-2.726,2.738a.642.642,0,0,0-.156.9,7.37,7.37,0,0,1,.762,3.823,7.492,7.492,0,1,1-4.231-7.248.765.765,0,0,0,1.05-.189c.844-.894,1.7-1.778,2.612-2.6.528-.479.355-.682-.142-.992a12.237,12.237,0,0,0-8.731-1.819,12.5,12.5,0,0,0,2.145,24.84Z" transform="translate(0 0)" fill="#020302"/>
    <path id="Trazado_172351" data-name="Trazado 172351" d="M741.149,1961.211c-.58-.083-1.134-.755-1.591-.516-.43.225-.579.966-.882,1.461q-7.013,11.43-20.407,10.7a13.7,13.7,0,0,1-4.678-1.026.325.325,0,0,0-.379-.15l.008.006c-.089-.368-.451-.446-.7-.616a25.125,25.125,0,0,1-3.274-2.615,23.163,23.163,0,0,1-4.343-5.674,23.406,23.406,0,0,1-.788-20.6,23.254,23.254,0,0,1,6.179-8.167c1.043-.892,2.245-1.551,3.3-2.421a18.613,18.613,0,0,1,8.811-1.006,20.76,20.76,0,0,1,10.776,4.312c.536.409.58.651.067,1.112-.826.744-1.608,1.541-2.363,2.358-.425.459-.709.532-1.28.129a16.221,16.221,0,1,0,6.808,12.4,15.375,15.375,0,0,0-2.993-8.576c-.374-.515-.436-.827.077-1.285.85-.76,1.653-1.579,2.425-2.419.433-.472.668-.436,1.049.066a21.09,21.09,0,0,1,4.444,13.225,18.782,18.782,0,0,1-.647,5.035c-.2.7-.029.955.637,1.062a5.131,5.131,0,0,1,.9.32A8.927,8.927,0,0,1,741.149,1961.211Z" transform="translate(-22.533 -44.799)" fill="#28c65d"/>
    <path id="Trazado_172352" data-name="Trazado 172352" d="M738.592,1992.639a12.5,12.5,0,0,1-2.145-24.84,12.237,12.237,0,0,1,8.731,1.819c.5.31.67.513.142.992-.909.825-1.768,1.71-2.612,2.6a.765.765,0,0,1-1.05.189,7.489,7.489,0,1,0,4.231,7.248,7.372,7.372,0,0,0-.762-3.823.642.642,0,0,1,.156-.9c.927-.895,1.853-1.792,2.726-2.738.426-.461.588-.312.879.12a12.536,12.536,0,0,1-7.918,19.067A19.957,19.957,0,0,1,738.592,1992.639Z" transform="translate(-40.77 -73.235)" fill="#ffecb3"/>
    <path id="Trazado_172353" data-name="Trazado 172353" d="M703.367,1935.269c-1.052.87-2.254,1.529-3.3,2.421a23.255,23.255,0,0,0-6.18,8.167,23.405,23.405,0,0,0,.788,20.6,23.17,23.17,0,0,0,4.343,5.674,25.125,25.125,0,0,0,3.274,2.615c.252.171.614.249.7.616a16.536,16.536,0,0,1-6.133-3.287,21.04,21.04,0,0,1-8.093-18.341c.4-7.987,6.632-16.072,14.25-18.433A1.7,1.7,0,0,1,703.367,1935.269Z" transform="translate(-12.312 -48.481)" fill="#28c65d"/>
    <path id="Trazado_172354" data-name="Trazado 172354" d="M767.49,2012.292a3.588,3.588,0,0,1-4.015-2.049,3.725,3.725,0,0,1,1.282-4.655,3.625,3.625,0,0,1,2.225-.67c.226.009.53-.069.641.168.123.262-.185.391-.336.544-.492.5-1.019.965-1.5,1.471-1.309,1.366-.966,2.78.825,3.449C766.716,2011.224,767.232,2011.693,767.49,2012.292Z" transform="translate(-69.227 -101.765)" fill="#00b670"/>
    <path id="Trazado_172355" data-name="Trazado 172355" d="M873.963,1911.917c.858.81,1.957.526,3.142.618-1.262,1.268-2.419,2.434-3.58,3.6a.747.747,0,0,1-.574.153c-.873,0-1.747,0-2.621,0-.2,0-.426.028-.457-.268A44.507,44.507,0,0,0,873.963,1911.917Z" transform="translate(-150.9 -30.615)" fill="#28c65d"/>
    <path id="Trazado_172356" data-name="Trazado 172356" d="M873.582,1902.415a44.473,44.473,0,0,1-4.089,4.1,16.789,16.789,0,0,1-.091-3.045.59.59,0,0,1,.143-.4c1.165-1.168,2.341-2.324,3.6-3.572C873.254,1900.566,873,1901.561,873.582,1902.415Z" transform="translate(-150.52 -21.112)" fill="#28c65d"/>
    <path id="Trazado_172357" data-name="Trazado 172357" d="M778.835,2021.575c-.258-.6-.774-1.067-.882-1.742a2.361,2.361,0,0,0,1.917-.863c.587-.638,1.193-1.258,1.829-1.925A3.454,3.454,0,0,1,778.835,2021.575Z" transform="translate(-80.571 -111.048)" fill="#2edd83"/>
    <path id="Trazado_172358" data-name="Trazado 172358" d="M749.416,2105.9a.325.325,0,0,1,.379.151C749.644,2106.068,749.5,2106.069,749.416,2105.9Z" transform="translate(-58.738 -179.026)" fill="#00b670"/>
  </g>
</svg>
