<svg xmlns="http://www.w3.org/2000/svg" width="53.675" height="60" viewBox="0 0 53.675 60">
  <g id="Grupo_111486" data-name="Grupo 111486" transform="translate(548.148 -1481.299)">
    <path id="Trazado_172089" data-name="Trazado 172089" d="M-517.327,1541.3a2.069,2.069,0,0,1-.916-1.143,52.511,52.511,0,0,1-2.177-5.723,14.657,14.657,0,0,1-.363-3.425c-.012-1.621-.024-3.242.01-4.863.01-.479-.147-.565-.582-.559-1.738.024-3.476.006-5.214.013a1.432,1.432,0,0,1-1.128-.38,1.1,1.1,0,0,1-.244-1.2,1.152,1.152,0,0,1,1.14-.765c.722-.014,1.445,0,2.168,0,1.094,0,2.188-.021,3.281.01.444.013.6-.089.579-.563a3.68,3.68,0,0,1,1.373-3.2,3.581,3.581,0,0,1,5.582,1.363c.707,1.769,1.252,3.6,1.861,5.41a2.016,2.016,0,0,0,1.445,1.463,1.933,1.933,0,0,0,2.429-1.706c.022-.233.013-.468.013-.7q0-17.811-.01-35.621c0-2.159.091-4.255,1.636-5.963a.5.5,0,0,0-.437-.1q-17.079,0-34.157,0a4.477,4.477,0,0,0-4.6,3.321,5.137,5.137,0,0,0-.164,1.392q0,21.385,0,42.769c0,1.091.423,1.5,1.545,1.5h14.588a2.259,2.259,0,0,1,.754.068,1.106,1.106,0,0,1,.821,1.083,1.091,1.091,0,0,1-.841,1.123,2.744,2.744,0,0,1-.695.067q-7.353.005-14.706,0a3.545,3.545,0,0,1-3.812-3.8q0-21.443,0-42.886a6.782,6.782,0,0,1,6.989-6.984q19.832-.009,39.665,0a6.793,6.793,0,0,1,7.014,7.019q.009,4.6,0,9.2a3.553,3.553,0,0,1-3.849,3.819c-2.207,0-4.414-.007-6.62.011-.255,0-.684-.2-.748.154a1.211,1.211,0,0,0,.238,1.245c.939.882,1.839,1.806,2.745,2.722a18.8,18.8,0,0,1,2.544,3.127,16.924,16.924,0,0,1,2.672,9.249c0,4.414.023,8.828-.032,13.24a23.284,23.284,0,0,1-2.217,9.378,2.116,2.116,0,0,1-.827.835h-.7c-.35-.335-.822-.584-.817-1.168.158-.417.3-.841.477-1.251a20.679,20.679,0,0,0,1.749-7.941c.039-4.372.024-8.745.026-13.117a14.936,14.936,0,0,0-1.353-6.232,17.778,17.778,0,0,0-4.166-5.447c-.1-.093-.152-.283-.368-.227q0,8.555,0,17.1c0,.937.019,1.874,0,2.811a4.3,4.3,0,0,1-5.293,4.205,4.231,4.231,0,0,1-3.152-3c-.546-1.644-1.087-3.29-1.645-4.93a1.316,1.316,0,0,0-2.015-.847,1.509,1.509,0,0,0-.6,1.433c0,2.713.019,5.427-.006,8.14a12.924,12.924,0,0,0,1.06,5.285,34.337,34.337,0,0,1,1.6,4.011,1.382,1.382,0,0,1-.953,1.169Zm11.6-48.007c0,1.756.006,3.512-.006,5.268,0,.3.029.447.4.445,2.4-.017,4.8,0,7.2-.013a1.189,1.189,0,0,0,1.311-1.313c.01-3.2.029-6.4-.008-9.6a4.42,4.42,0,0,0-2.952-4.163,4.445,4.445,0,0,0-5.936,4.284C-505.746,1489.9-505.725,1491.594-505.725,1493.292Z" transform="translate(0 0)" fill="#020101"/>
    <path id="Trazado_172090" data-name="Trazado 172090" d="M-319.583,1882c0,.583.467.833.817,1.168h-15.468a1.382,1.382,0,0,0,.953-1.169Z" transform="translate(-182.507 -341.865)" fill="#fefefe"/>
    <path id="Trazado_172091" data-name="Trazado 172091" d="M-505.282,1529.307c0-.839-.016-1.677,0-2.516a2.319,2.319,0,0,1,2.448-2.408c1.618-.012,3.237-.009,4.855,0a2.33,2.33,0,0,1,2.525,2.4q.066,2.514,0,5.03a2.33,2.33,0,0,1-2.517,2.409q-2.4.013-4.8,0a2.341,2.341,0,0,1-2.518-2.518C-505.292,1530.906-505.283,1530.106-505.282,1529.307Zm4.893,2.573c.74,0,1.481-.012,2.221.006.309.007.4-.1.4-.4-.014-1.461-.012-2.922,0-4.384,0-.266-.069-.382-.359-.38q-2.221.017-4.442,0c-.287,0-.364.1-.362.374.01,1.461.015,2.922,0,4.384,0,.357.142.416.449.408C-501.793,1531.868-501.091,1531.88-500.39,1531.88Z" transform="translate(-36.567 -36.752)" fill="#020202"/>
    <path id="Trazado_172092" data-name="Trazado 172092" d="M-505.28,1625.059c0-.819-.014-1.638,0-2.457a2.326,2.326,0,0,1,2.474-2.442q2.428-.015,4.855,0a2.333,2.333,0,0,1,2.5,2.425q.058,2.485,0,4.972a2.346,2.346,0,0,1-2.545,2.443q-2.4.01-4.8,0a2.333,2.333,0,0,1-2.492-2.484C-505.292,1626.7-505.28,1625.878-505.28,1625.059Zm7.506.006h0c0-.721-.012-1.442.005-2.163.007-.3-.081-.409-.394-.406q-2.191.021-4.383,0c-.319,0-.39.117-.388.409q.017,2.192,0,4.384c0,.271.075.377.362.374q2.221-.017,4.442,0c.286,0,.368-.105.363-.376C-497.783,1626.545-497.774,1625.8-497.774,1625.064Z" transform="translate(-36.57 -118.467)" fill="#020202"/>
    <path id="Trazado_172093" data-name="Trazado 172093" d="M-505.281,1720.8c0-.819-.016-1.638,0-2.457a2.318,2.318,0,0,1,2.449-2.406c1.618-.012,3.237-.009,4.855,0a2.329,2.329,0,0,1,2.524,2.4q.065,2.514,0,5.03a2.333,2.333,0,0,1-2.519,2.408q-2.4.012-4.8,0a2.336,2.336,0,0,1-2.515-2.461C-505.295,1722.476-505.282,1721.637-505.281,1720.8Zm2.347.057c0,.7.013,1.4-.006,2.1-.009.327.043.488.436.482,1.441-.024,2.883-.016,4.325,0,.294,0,.412-.073.409-.39q-.023-2.191,0-4.384c0-.315-.113-.394-.409-.392-1.442.011-2.884.014-4.325,0-.325,0-.445.084-.434.423C-502.918,1719.414-502.934,1720.135-502.934,1720.856Z" transform="translate(-36.568 -200.181)" fill="#020202"/>
    <path id="Trazado_172094" data-name="Trazado 172094" d="M-403.172,1673.607h-6.561a1.2,1.2,0,0,1-1.2-.678,1.1,1.1,0,0,1,.136-1.208,1.23,1.23,0,0,1,1.031-.456q6.591,0,13.181,0a1.159,1.159,0,0,1,1.28,1.152,1.167,1.167,0,0,1-1.307,1.184C-398.8,1673.614-400.985,1673.607-403.172,1673.607Z" transform="translate(-116.967 -162.073)" fill="#020101"/>
    <path id="Trazado_172095" data-name="Trazado 172095" d="M-369.3,1577.826c-1.25,0-2.5,0-3.749,0-.918,0-1.45-.427-1.461-1.155s.528-1.185,1.43-1.187q3.779-.006,7.557,0c.875,0,1.389.436,1.4,1.154.009.742-.514,1.183-1.424,1.187C-366.8,1577.83-368.054,1577.826-369.3,1577.826Z" transform="translate(-148.14 -80.354)" fill="#020101"/>
    <path id="Trazado_172096" data-name="Trazado 172096" d="M-409.818,1577.87a1.178,1.178,0,0,1-1.159-1.142,1.177,1.177,0,0,1,1.171-1.188,1.2,1.2,0,0,1,1.142,1.171A1.2,1.2,0,0,1-409.818,1577.87Z" transform="translate(-117.031 -80.404)" fill="#020202"/>
    <path id="Trazado_172097" data-name="Trazado 172097" d="M-391.293,1833.27a1.215,1.215,0,0,1-1.156-1.159,1.211,1.211,0,0,1,1.2-1.17,1.211,1.211,0,0,1,1.127,1.188A1.213,1.213,0,0,1-391.293,1833.27Z" transform="translate(-132.84 -298.306)" fill="#020202"/>
    <path id="Trazado_172098" data-name="Trazado 172098" d="M-329.486,1683.13l-13.7,0a34.357,34.357,0,0,0-1.6-4.011,12.924,12.924,0,0,1-1.06-5.285c.026-2.713.007-5.426.006-8.14a1.509,1.509,0,0,1,.6-1.434,1.316,1.316,0,0,1,2.015.847c.558,1.64,1.1,3.286,1.645,4.93a4.231,4.231,0,0,0,3.152,3,4.3,4.3,0,0,0,5.293-4.205c.024-.936,0-1.874,0-2.811q0-8.549,0-17.1c.216-.056.271.134.369.227a17.776,17.776,0,0,1,4.166,5.447,14.937,14.937,0,0,1,1.353,6.232c0,4.372.014,8.745-.026,13.117a20.679,20.679,0,0,1-1.749,7.941C-329.183,1682.289-329.328,1682.712-329.486,1683.13Z" transform="translate(-172.604 -142.999)" fill="#fdcfba"/>
    <path id="Trazado_172099" data-name="Trazado 172099" d="M-259.252,1507.023c0-1.7-.021-3.4,0-5.092a4.445,4.445,0,0,1,5.936-4.284,4.42,4.42,0,0,1,2.952,4.163c.037,3.2.018,6.4.008,9.6a1.189,1.189,0,0,1-1.311,1.313c-2.4.013-4.8,0-7.2.013-.367,0-.4-.145-.4-.445C-259.246,1510.535-259.252,1508.779-259.252,1507.023Z" transform="translate(-246.473 -13.731)" fill="#fdd99a"/>
    <path id="Trazado_172100" data-name="Trazado 172100" d="M-486.757,1545.5c-.7,0-1.4-.012-2.1.005-.307.008-.453-.052-.449-.408.018-1.461.013-2.922,0-4.383,0-.272.075-.376.362-.374q2.221.017,4.442,0c.29,0,.361.114.359.38-.008,1.461-.009,2.923,0,4.384,0,.3-.089.41-.4.4C-485.276,1545.492-486.017,1545.5-486.757,1545.5Z" transform="translate(-50.2 -50.376)" fill="#35d08d"/>
    <path id="Trazado_172101" data-name="Trazado 172101" d="M-484.128,1638.681c0,.74-.009,1.481,0,2.221,0,.271-.077.378-.363.376q-2.221-.016-4.442,0c-.287,0-.364-.1-.362-.375q.015-2.192,0-4.384c0-.291.069-.412.388-.408q2.192.022,4.383,0c.313,0,.4.107.394.406-.017.72-.005,1.441-.005,2.163Z" transform="translate(-50.215 -132.083)" fill="#35d08d"/>
    <path id="Trazado_172102" data-name="Trazado 172102" d="M-489.3,1734.471c0-.721.016-1.442-.007-2.162-.011-.339.109-.426.434-.423,1.441.015,2.883.013,4.325,0,.3,0,.411.077.409.392q-.019,2.192,0,4.384c0,.317-.116.393-.409.391-1.442-.011-2.884-.02-4.325,0-.392.006-.444-.155-.436-.482C-489.289,1735.875-489.3,1735.173-489.3,1734.471Z" transform="translate(-50.2 -213.796)" fill="#35d08d"/>
  </g>
</svg>
