<svg xmlns="http://www.w3.org/2000/svg" width="70" height="53.696" viewBox="0 0 70 53.696">
  <g id="Grupo_111497" data-name="Grupo 111497" transform="translate(1104.875 -1028.362)">
    <path id="Trazado_172178" data-name="Trazado 172178" d="M-1034.875,1032.736c-.2.053-.18.25-.235.382a3.466,3.466,0,0,1-4.458,2.06.594.594,0,0,0-.707.158q-2.963,2.834-5.949,5.643a1.037,1.037,0,0,0-.358.83q.012,14.01-.007,28.02c0,.558.255.561.657.547a3.644,3.644,0,0,1,3.637,1.923,3.208,3.208,0,0,1,.374,1.508c.02,1.594.081,3.192-.007,4.781a3.464,3.464,0,0,1-3.633,3.466c-.136.005-.273,0-.41,0h-54.877c-2.646,0-4.023-1.391-4.024-4.056q0-.854,0-1.708c0-.683,0-1.367,0-2.05a3.517,3.517,0,0,1,3.8-3.849c.705.005.877-.169.875-.877q-.037-16.778-.017-33.556c0-2.677,1.363-4.052,4.017-4.052q22.86,0,45.72,0a3.533,3.533,0,0,1,3.9,3.881c0,.547,0,1.094,0,1.64,0,.157.015.314.026.524a2.5,2.5,0,0,0,.793-.652c1.264-1.183,2.51-2.385,3.779-3.562a.678.678,0,0,0,.251-.808,3.472,3.472,0,0,1,2.405-4.441,3.482,3.482,0,0,1,4.322,2.526c.024.087.02.179.125.214Zm-18.7,15.237c-.208.186-.307.27-.4.359l-6.553,6.2c-.94.889-1.3.907-2.356.116-2.5-1.87-5-3.73-7.479-5.621-.419-.32-.625-.292-.971.1q-3.924,4.465-7.894,8.891c-.736.825-1.086.885-2.079.389-1.016-.508-2.04-1-3.041-1.54a.871.871,0,0,0-1.089.072,3.437,3.437,0,0,1-4.13-.146,3.523,3.523,0,0,1-1.077-4,3.535,3.535,0,0,1,3.36-2.241,3.253,3.253,0,0,1,3.251,2.688c.082,1.244.743,1.635,1.652,2.019a7.6,7.6,0,0,1,1.218.61c.4.26.611.136.895-.186q3.978-4.509,7.987-8.991c.887-1,1.309-1.034,2.365-.242,2.532,1.9,5.073,3.784,7.585,5.707.424.325.646.273,1-.071q3.674-3.524,7.39-7a1.087,1.087,0,0,0,.372-.89c-.018-1.526-.043-3.054.01-4.578.021-.623-.17-.734-.754-.733q-19.066.027-38.133,0c-.6,0-.794.122-.792.768q.037,12.643,0,25.286c0,.62.149.785.778.784q15.684-.031,31.367-.015c2.278,0,4.556-.023,6.834.016.593.01.712-.172.694-.722-.042-1.274-.013-2.551-.013-3.826Zm2.331-5.456,2.216-2.113c.175-.167.113-.383.114-.581.005-1.367.009-2.734,0-4.1-.007-1.087-.4-1.483-1.484-1.483q-23,0-46,0c-1.061,0-1.482.424-1.482,1.5q0,17.019-.013,34.037c0,.481.133.6.606.6q23.887-.018,47.775,0c.468,0,.61-.1.609-.594q-.023-12.816-.017-25.631c0-.159.1-.365-.139-.493-.56.53-1.1,1.082-1.688,1.584a1.384,1.384,0,0,0-.511,1.176q.027,10.013.011,20.026c0,1.234-.351,1.587-1.578,1.588q-20.572,0-41.145,0c-1.2,0-1.583-.393-1.583-1.6q0-14.114,0-28.228c0-1.245.395-1.641,1.629-1.641h41.077c1.228,0,1.6.363,1.6,1.575C-1051.246,1039.543-1051.249,1040.945-1051.249,1042.517Zm-22.167,37.2h27.474c1.35,0,1.7-.35,1.7-1.7q0-1.811,0-3.622c0-1.344-.351-1.688-1.71-1.689q-5.5,0-11,0c-2.552,0-5.1.016-7.654-.013-.521-.006-.708.136-.625.644a2.58,2.58,0,0,1,0,.478,3.373,3.373,0,0,1-3.28,3.508c-3.3.125-6.6.115-9.9,0a3.2,3.2,0,0,1-2.652-1.685,4.011,4.011,0,0,1-.476-2.371c.016-.387-.062-.567-.514-.566-6.356.014-12.712,0-19.068.015-1.012,0-1.415.456-1.42,1.5-.006,1.207,0,2.415,0,3.622,0,1.587.294,1.886,1.861,1.886Zm.052-4.675h4.027c1.47,0,1.9-.477,1.792-1.95-.021-.294-.107-.391-.4-.39q-5.426.01-10.852.005c-.177,0-.345-.023-.419.229a1.5,1.5,0,0,0,1.55,2.1C-1076.231,1075.051-1074.8,1075.045-1073.364,1075.045Zm34.988-44.252a1.087,1.087,0,0,0-1.145,1.078,1.08,1.08,0,0,0,1.078,1.141,1.1,1.1,0,0,0,1.154-1.074A1.1,1.1,0,0,0-1038.376,1030.793Zm-49.024,24.374a1.075,1.075,0,0,0,1.125-1.092,1.075,1.075,0,0,0-1.093-1.122,1.073,1.073,0,0,0-1.123,1.09A1.075,1.075,0,0,0-1087.4,1055.167Z" fill="#030303"/>
    <path id="Trazado_172179" data-name="Trazado 172179" d="M-985.634,1109.417v13.2c0,1.276-.028,2.552.013,3.826.018.55-.1.732-.694.722-2.277-.039-4.556-.016-6.834-.016q-15.684,0-31.367.015c-.629,0-.78-.164-.778-.784q.032-12.643,0-25.286c0-.646.189-.769.792-.768q19.066.026,38.133,0c.583,0,.775.11.754.733-.052,1.525-.027,3.052-.01,4.578a1.087,1.087,0,0,1-.372.89q-3.711,3.485-7.39,7c-.358.343-.579.4-1,.071-2.513-1.923-5.053-3.809-7.585-5.707-1.057-.792-1.478-.753-2.365.243q-4,4.489-7.987,8.991c-.284.322-.5.446-.895.186a7.618,7.618,0,0,0-1.218-.61c-.909-.384-1.57-.775-1.652-2.019a3.253,3.253,0,0,0-3.251-2.688,3.535,3.535,0,0,0-3.36,2.241,3.523,3.523,0,0,0,1.077,4,3.437,3.437,0,0,0,4.13.146.871.871,0,0,1,1.089-.072c1,.537,2.025,1.032,3.041,1.54.994.5,1.344.436,2.079-.389q3.956-4.437,7.894-8.891c.345-.393.552-.422.971-.1,2.479,1.892,4.983,3.752,7.479,5.622,1.056.791,1.416.773,2.356-.116l6.553-6.2C-985.941,1109.687-985.842,1109.6-985.634,1109.417Zm-16.3,10.158v-3.551c0-1.73,0-1.7-1.734-1.725-.554-.007-.619.2-.616.671.02,2.708,0,5.417.016,8.125,0,.56-.259,1.323.116,1.625.35.282,1.085.06,1.646.116.51.051.591-.164.583-.618C-1001.951,1122.671-1001.934,1121.123-1001.934,1119.575Zm9.312,2.29c0-.364.006-.728,0-1.092-.012-.565.182-1.318-.106-1.646-.335-.383-1.111-.067-1.689-.135-.481-.057-.554.167-.546.582.023,1.16,0,2.322.01,3.482,0,.565-.186,1.321.1,1.644.337.379,1.112.063,1.691.132.478.057.562-.157.547-.577C-992.643,1123.46-992.622,1122.662-992.622,1121.866Zm-28,1.187c0,.432.017.865-.005,1.3-.017.337.067.5.447.484.5-.027,1-.022,1.5,0,.328.014.437-.1.43-.43-.018-.818-.041-1.639.007-2.454.031-.535-.166-.637-.658-.632C-1020.622,1121.329-1020.622,1121.31-1020.622,1123.052Zm8.145,1.775c1.225,0,1.225,0,1.225-1.183,0-1.158,0-1.158-1.181-1.158s-1.192,0-1.192,1.215C-1013.626,1124.827-1013.626,1124.827-1012.477,1124.827Z" transform="translate(-67.946 -61.444)" fill="#a9e3c6"/>
    <path id="Trazado_172180" data-name="Trazado 172180" d="M-1010.486,1076.837c0-1.572,0-2.974,0-4.377,0-1.212-.374-1.574-1.6-1.575h-41.077c-1.234,0-1.629.4-1.629,1.641q0,14.114,0,28.228c0,1.211.387,1.6,1.583,1.6q20.573,0,41.145,0c1.228,0,1.578-.353,1.578-1.587q0-10.013-.011-20.026a1.384,1.384,0,0,1,.511-1.176c.586-.5,1.129-1.054,1.688-1.584.242.127.139.334.139.493q.009,12.815.016,25.631c0,.489-.141.594-.609.594q-23.887-.018-47.775,0c-.474,0-.607-.121-.606-.6q.021-17.019.013-34.037c0-1.08.421-1.5,1.482-1.5q23,0,46,0c1.082,0,1.478.4,1.484,1.483.008,1.367,0,2.734,0,4.1,0,.2.061.414-.114.581Z" transform="translate(-40.764 -34.32)" fill="#e1e1df"/>
    <path id="Trazado_172181" data-name="Trazado 172181" d="M-1059.818,1338.654h-27.268c-1.566,0-1.861-.3-1.861-1.886,0-1.207,0-2.415,0-3.622.005-1.041.408-1.495,1.421-1.5,6.356-.011,12.712,0,19.067-.015.452,0,.529.179.514.566a4.01,4.01,0,0,0,.476,2.371,3.2,3.2,0,0,0,2.652,1.685c3.3.119,6.6.129,9.9,0a3.373,3.373,0,0,0,3.28-3.508,2.569,2.569,0,0,0,0-.478c-.083-.508.1-.65.625-.644,2.551.029,5.1.013,7.654.013q5.5,0,11,0c1.359,0,1.707.345,1.71,1.689q0,1.811,0,3.622c0,1.348-.352,1.7-1.7,1.7Z" transform="translate(-13.598 -258.933)" fill="#e6e6e6"/>
    <path id="Trazado_172182" data-name="Trazado 172182" d="M-924.065,1334.024c-1.433,0-2.866.006-4.3,0a1.5,1.5,0,0,1-1.55-2.1c.074-.253.242-.229.419-.229q5.426,0,10.852-.005c.291,0,.377.1.4.39.1,1.474-.321,1.949-1.792,1.95Z" transform="translate(-149.3 -258.979)" fill="#d4d4d4"/>
    <path id="Trazado_172183" data-name="Trazado 172183" d="M-656.678,1044.989a1.1,1.1,0,0,1,1.087,1.145,1.1,1.1,0,0,1-1.154,1.074,1.08,1.08,0,0,1-1.078-1.141A1.087,1.087,0,0,1-656.678,1044.989Z" transform="translate(-381.698 -14.196)" fill="#a9e3c6"/>
    <path id="Trazado_172184" data-name="Trazado 172184" d="M-991.7,1198.786a1.075,1.075,0,0,1-1.091-1.124,1.073,1.073,0,0,1,1.123-1.09,1.075,1.075,0,0,1,1.092,1.122A1.076,1.076,0,0,1-991.7,1198.786Z" transform="translate(-95.696 -143.62)" fill="#a9e3c6"/>
    <path id="Trazado_172185" data-name="Trazado 172185" d="M-879.63,1201.179c0,1.548-.017,3.1.01,4.643.008.453-.073.669-.583.618-.56-.056-1.3.166-1.646-.116-.375-.3-.113-1.065-.116-1.625-.014-2.708,0-5.417-.016-8.125,0-.472.062-.678.616-.671,1.734.022,1.734,0,1.734,1.725Z" transform="translate(-190.251 -143.048)" fill="#030303"/>
    <path id="Trazado_172186" data-name="Trazado 172186" d="M-815.751,1230.537c0,.8-.02,1.594.008,2.39.015.42-.069.634-.547.577-.579-.069-1.354.247-1.691-.132-.287-.323-.1-1.079-.1-1.644-.007-1.161.013-2.322-.01-3.482-.008-.415.065-.639.546-.582.578.068,1.354-.247,1.689.135.288.328.094,1.081.106,1.646C-815.745,1229.809-815.751,1230.173-815.751,1230.537Z" transform="translate(-244.817 -170.116)" fill="#030303"/>
    <path id="Trazado_172187" data-name="Trazado 172187" d="M-993.374,1245.621c0-1.742,0-1.724,1.72-1.739.492,0,.689.1.658.632-.048.816-.024,1.636-.007,2.454.007.326-.1.444-.43.43-.5-.021-1-.026-1.5,0-.38.021-.464-.146-.447-.484C-993.357,1246.486-993.374,1246.053-993.374,1245.621Z" transform="translate(-95.195 -184.013)" fill="#030303"/>
    <path id="Trazado_172188" data-name="Trazado 172188" d="M-944.324,1254.249c-1.148,0-1.148,0-1.148-1.125,0-1.215,0-1.215,1.192-1.215s1.181,0,1.181,1.158C-943.1,1254.249-943.1,1254.249-944.324,1254.249Z" transform="translate(-136.1 -190.866)" fill="#030303"/>
  </g>
</svg>
