<svg xmlns="http://www.w3.org/2000/svg" width="100.086" height="100" viewBox="0 0 100.086 100">
  <g id="Grupo_111419" data-name="Grupo 111419" transform="translate(505.862 -1696.426)">
    <path id="Trazado_171855" data-name="Trazado 171855" d="M-459.947,1696.426h8.011c.048.22.225.182.38.193a47.435,47.435,0,0,1,7.217,1.139,50.092,50.092,0,0,1,36.692,62.172,50.027,50.027,0,0,1-59.7,35.186,50.049,50.049,0,0,1-37.979-41.274,12.983,12.983,0,0,0-.539-3.295v-8.4c.27-.07.185-.3.21-.475.182-1.286.328-2.579.545-3.859a50.016,50.016,0,0,1,41.877-40.849A12.8,12.8,0,0,0-459.947,1696.426Zm24.057,60.189a2.056,2.056,0,0,1-2.915-.155,32.333,32.333,0,0,0-5.062-3.1,1.806,1.806,0,0,0-1.794.009,22.363,22.363,0,0,1-20.29.042,1.907,1.907,0,0,0-1.878-.049,28.133,28.133,0,0,0-14.408,15.938c-1.622,4.338-1.669,8.847-1.6,13.381.007.449.29.619.57.825a44.34,44.34,0,0,0,4.316,2.839,32.31,32.31,0,0,0,4.133,2.09v-1.055c0-3.517.01-7.033-.006-10.55a1.978,1.978,0,0,1,1.21-2.034c1.371-.587,2.7.42,2.705,2.07q.025,6.2-.008,12.406a.874.874,0,0,0,.742,1.011,46.382,46.382,0,0,0,28.595.028.981.981,0,0,0,.815-1.158c-.031-3.94-.016-7.879-.015-11.82,0-1.74.7-2.7,1.972-2.7s1.942.944,1.943,2.71c0,3.67,0,7.34,0,11.127a44.837,44.837,0,0,0,8.764-5.191.669.669,0,0,0,.247-.6c.052-4.17.1-8.342-1.264-12.363a2.268,2.268,0,0,1,.673-2.715c1.7-.547,2.557-.1,3.086,1.619a34.97,34.97,0,0,1,1.226,5.811c.192,1.472.088,2.96.265,4.492,12.133-11.171,18.337-30.982,10.959-49.9a46.023,46.023,0,0,0-49.067-28.873,46.09,46.09,0,0,0-39.485,39.03,46.044,46.044,0,0,0,1.978,21.56c2.2,6.54,8.75,16.7,11.673,18.049.016-.025.046-.05.047-.076.01-.293.014-.586.023-.878.378-12.215,5.891-21.391,16.372-27.608.6-.357.713-.5.142-1.039-5.8-5.472-8.3-12.214-7.211-20.1a22.769,22.769,0,0,1,25.109-19.419,22.831,22.831,0,0,1,20.32,22.2,22.367,22.367,0,0,1-7.425,17.3c-.666.621-.432.763.177,1.083a26.76,26.76,0,0,1,3.832,2.51C-435.14,1754.348-434.994,1755.234-435.89,1756.615Zm-19.921-42.593a18.988,18.988,0,0,0-18.968,18.9,19,19,0,0,0,18.9,18.972,19,19,0,0,0,18.971-18.9A18.989,18.989,0,0,0-455.811,1714.022Z" transform="translate(0 0)" fill="#020303"/>
    <path id="Trazado_171856" data-name="Trazado 171856" d="M-424.824,1767.714c.9-1.381.75-2.268-.537-3.256a26.776,26.776,0,0,0-3.832-2.51c-.609-.32-.843-.462-.177-1.083a22.368,22.368,0,0,0,7.425-17.3,22.83,22.83,0,0,0-20.319-22.2,22.768,22.768,0,0,0-25.109,19.419c-1.089,7.887,1.409,14.629,7.211,20.1.571.539.46.683-.142,1.039-10.481,6.218-15.994,15.394-16.372,27.608-.009.293-.013.586-.023.878,0,.026-.031.051-.047.076-2.923-1.349-9.472-11.51-11.673-18.049a46.045,46.045,0,0,1-1.978-21.56,46.09,46.09,0,0,1,39.485-39.03,46.023,46.023,0,0,1,49.067,28.873c7.378,18.917,1.173,38.728-10.959,49.9-.177-1.532-.073-3.02-.265-4.492a34.962,34.962,0,0,0-1.226-5.812c-.529-1.715-1.389-2.165-3.086-1.619-.278-.617-.574-1.226-.828-1.853a7.86,7.86,0,0,1-1.01-2.382c1.114-1.1,1.268-2.132.451-3.047-.745-.833-1.836-.835-2.936,0A14.022,14.022,0,0,0-424.824,1767.714Z" transform="translate(-11.066 -11.099)" fill="#28c65d"/>
    <path id="Trazado_171857" data-name="Trazado 171857" d="M-373.622,1917.048a14.021,14.021,0,0,1,3.119,3.7,1.977,1.977,0,0,0-.036,2.492,2.046,2.046,0,0,0,2.522.559,7.866,7.866,0,0,0,1.01,2.382c.254.626.55,1.236.828,1.852a2.268,2.268,0,0,0-.673,2.716c1.367,4.021,1.316,8.193,1.264,12.363a.668.668,0,0,1-.247.595,44.837,44.837,0,0,1-8.764,5.191c0-3.788,0-7.457,0-11.127,0-1.766-.678-2.709-1.943-2.71s-1.972.964-1.972,2.7c0,3.94-.016,7.879.015,11.82a.982.982,0,0,1-.815,1.158,46.382,46.382,0,0,1-28.595-.029.874.874,0,0,1-.742-1.011q.039-6.2.008-12.406c-.007-1.65-1.334-2.657-2.705-2.07a1.978,1.978,0,0,0-1.21,2.035c.016,3.517.006,7.033.006,10.55v1.055a32.343,32.343,0,0,1-4.133-2.09,44.429,44.429,0,0,1-4.316-2.839c-.281-.206-.563-.376-.57-.825-.067-4.534-.02-9.043,1.6-13.381a28.133,28.133,0,0,1,14.408-15.939,1.908,1.908,0,0,1,1.878.049,22.364,22.364,0,0,0,20.29-.042,1.8,1.8,0,0,1,1.794-.009,32.344,32.344,0,0,1,5.062,3.1A2.056,2.056,0,0,0-373.622,1917.048Z" transform="translate(-62.268 -160.433)" fill="#ffecb3"/>
    <path id="Trazado_171858" data-name="Trazado 171858" d="M-367.858,1763.813a18.988,18.988,0,0,1,18.9,18.967,19,19,0,0,1-18.971,18.9,19,19,0,0,1-18.9-18.972A18.988,18.988,0,0,1-367.858,1763.813Zm-.56,32.412a14.863,14.863,0,0,0,9.414-3.15,1.965,1.965,0,0,0,.5-2.831,1.944,1.944,0,0,0-2.919-.257c-4.273,3.115-8.625,3.112-12.956-.012a1.939,1.939,0,0,0-2.913.287,1.935,1.935,0,0,0,.535,2.819A14.132,14.132,0,0,0-368.418,1796.224Z" transform="translate(-87.953 -49.791)" fill="#fddde3"/>
    <path id="Trazado_171859" data-name="Trazado 171859" d="M-224.771,1942.389a2.046,2.046,0,0,1-2.522-.559,1.977,1.977,0,0,1,.036-2.492c1.1-.83,2.192-.829,2.936,0C-223.5,1940.257-223.656,1941.293-224.771,1942.389Z" transform="translate(-205.515 -179.024)" fill="#040303"/>
    <path id="Trazado_171860" data-name="Trazado 171860" d="M-342.564,1868.777a14.136,14.136,0,0,1-8.337-3.145,1.935,1.935,0,0,1-.535-2.819,1.94,1.94,0,0,1,2.913-.288c4.331,3.124,8.683,3.127,12.956.012a1.944,1.944,0,0,1,2.919.257,1.965,1.965,0,0,1-.5,2.832A14.862,14.862,0,0,1-342.564,1868.777Z" transform="translate(-113.807 -122.343)" fill="#040303"/>
  </g>
</svg>
