<svg xmlns="http://www.w3.org/2000/svg" width="100.015" height="100" viewBox="0 0 100.015 100">
  <g id="Grupo_111501" data-name="Grupo 111501" transform="translate(757.374 -719.282)">
    <rect id="Rectángulo_37661" data-name="Rectángulo 37661" width="50" height="50" transform="translate(-718.359 743.281)" fill="#fff"/>
    <path id="Trazado_172216" data-name="Trazado 172216" d="M-655.714,1044.989a2.033,2.033,0,0,1,2,2.108,2.027,2.027,0,0,1-2.126,1.979,1.99,1.99,0,0,1-1.986-2.1A2,2,0,0,1-655.714,1044.989Z" transform="translate(-72.743 -237.997)" fill="#a9e3c6"/>
    <path id="Trazado_172217" data-name="Trazado 172217" d="M-716.121,799.912a14.907,14.907,0,0,1,.684,5.3c-.021,4.4-.025,8.8.012,13.195.006.716-.185.87-.882.869q-20.095-.033-40.19,0c-.7,0-.883-.162-.878-.873.034-4.9-.009-9.8.028-14.706a10.822,10.822,0,0,1,4.161-8.671,1.712,1.712,0,0,0,.677-1.528q-.027-10.375-.009-20.75a16,16,0,0,1,13.008-16.031c5.4-1.091,10.139.455,14.395,4.255,0-1.352.005-2.564,0-3.775,0-.768.266-1.786-.119-2.238-.456-.535-1.507-.147-2.3-.172q-1.711-.052-3.424,0c-.488.015-.619-.138-.615-.619.023-2.552.03-5.1-.005-7.655a1.216,1.216,0,0,1,.612-1.049Q-721.3,737.735-711.63,730c3.406-2.725,6.8-5.461,10.222-8.169a10.683,10.683,0,0,1,13.805-.034q14.85,11.813,29.648,23.691a1.324,1.324,0,0,1,.557,1.181c-.03,2.451-.037,4.9,0,7.353.01.627-.153.789-.775.771-1.677-.047-3.357.006-5.036-.028-.534-.011-.666.149-.665.671q.023,13.6,0,27.2a1.414,1.414,0,0,0,.453,1.048c5.528,5.93,7.41,12.874,5.072,20.628-2.32,7.7-7.644,12.538-15.477,14.428-11.863,2.862-24.086-5.846-25.326-17.951-.04-.395.093-.886-.63-.883C-705.18,799.921-710.583,799.912-716.121,799.912Zm37.755,16.119a17.766,17.766,0,0,0,17.73-17.736,17.761,17.761,0,0,0-17.735-17.727A17.755,17.755,0,0,0-696.1,798.3,17.763,17.763,0,0,0-678.366,816.031ZM-749.3,781.8c0,3.424.006,6.848-.006,10.273,0,.556,0,.819.758.677,1.675-.317,3.381-.475,5.078-.673.5-.058,1.018.033,1.137-.677.109-.657.506-1.22-.275-1.865a9.4,9.4,0,0,1-3.473-7.7c.023-2.585.026-5.17-.01-7.754a1.342,1.342,0,0,1,.7-1.3c1.609-1.032,3.214-2.077,4.771-3.185a1.45,1.45,0,0,1,1.8-.124,20.714,20.714,0,0,0,11.41,3.027c.642-.031.691.285.688.791-.016,2.518-.088,5.039.012,7.553.143,3.576-.879,6.616-3.709,8.922-.687.56-.069,1.1-.032,1.648.033.485.356.611.828.657,1.7.167,3.408.316,5.083.63.861.161,1.06.061,1.054-.84-.038-6.446-.026-12.891-.014-19.337a12.582,12.582,0,0,0-.285-2.695,13,13,0,0,0-13.781-10.184,12.971,12.971,0,0,0-11.729,12.894C-749.3,775.625-749.3,778.713-749.3,781.8Zm37.076-10.906c0,5.1.013,10.208-.016,15.312,0,.657.165.831.823.824q4.835-.053,9.67,0c.66.008.822-.171.821-.825q-.032-15.312,0-30.623c0-.656-.164-.831-.822-.824-3.19.036-6.38.044-9.569,0-.757-.011-.932.18-.926.93C-712.2,760.755-712.219,765.825-712.219,770.9Zm38.965-25.818c-.263-.234-.375-.344-.5-.44q-9.438-7.454-18.882-14.9a2.655,2.655,0,0,0-3.742.033q-9.3,7.386-18.588,14.787c-.156.124-.441.189-.388.522Zm-14.785,34.545a2.507,2.507,0,0,0,.415-.1,20.34,20.34,0,0,1,10.214-2.142c.676.035.662-.265.661-.75q-.014-10.523.008-21.046c0-.648-.151-.839-.818-.828-2.517.042-5.035,0-7.552.026-.959.011-2.239-.429-2.785.186-.471.531-.141,1.786-.141,2.72C-688.041,764.973-688.039,772.256-688.039,779.622Zm-44.309,24.738-.333.245a6.88,6.88,0,0,0-.42,2.138c.384,2.856.822,5.705,1.206,8.562.079.586.306.743.895.738,3.825-.03,7.65-.036,11.475,0,.727.008.875-.211.869-.9-.034-3.758-.021-7.516-.014-11.274a8.51,8.51,0,0,0-.417-2.671c-1.186-3.643-5.573-6.364-9.218-5.745-.371.063-.395.273-.437.547-.129.828-.269,1.654-.407,2.48-.435,2.6-.87,5.2-1.348,8.046Zm-9.957,2.225c-.514-3.106-.953-5.881-1.443-8.647-.144-.812.053-1.912-.56-2.357s-1.617.047-2.446.127a8.028,8.028,0,0,0-7.37,8.122c-.021,3.758.017,7.516-.023,11.274-.008.739.158.954.927.944,3.757-.045,7.516-.054,11.273.005.829.013.992-.332,1.082-1,.366-2.723.761-5.443,1.145-8.164a6.435,6.435,0,0,0-.441-2.35l-.287-.111Zm47.778-55.045h31.821c2.062,0,2.009,0,2.084-2.089.034-.933-.247-1.134-1.149-1.133q-32.224.04-64.447.021c-2.113,0-2.061,0-2.135,2.139-.031.9.228,1.086,1.1,1.084C-716.345,751.528-705.437,751.54-694.527,751.54Zm-30.788-6.448c1.317,0,2.383-.038,3.445.013a2.53,2.53,0,0,0,1.819-.627q10.617-8.487,21.265-16.935c2.975-2.369,5.624-2.364,8.637.016q10.782,8.52,21.577,17.026c.255.2.461.5.841.5h4.134c-.321-.226-.4-.279-.481-.34q-12.816-10.249-25.639-20.491a7.623,7.623,0,0,0-9.593.033c-1.3,1.005-2.57,2.052-3.855,3.079Zm27.6,25.7q0,7.653.01,15.306c0,.3-.209.837.194.864.631.042,1.353.362,1.878-.464a17.836,17.836,0,0,1,3.915-4.3,1.162,1.162,0,0,0,.457-1.029q-.014-12.839,0-25.678c0-.557-.132-.746-.714-.733-1.61.039-3.224.059-4.833-.006-.759-.031-.936.182-.931.933C-697.694,760.723-697.711,765.759-697.711,770.794Zm-17.733.118c0-5.1-.009-10.2.011-15.293,0-.6-.073-.888-.792-.861-1.641.061-3.287.056-4.929,0-.665-.022-.755.222-.75.8.026,3.119.015,6.238.009,9.357a2.5,2.5,0,0,0,.2,1.069,16.789,16.789,0,0,1,1.42,7.131c-.031,4.36,0,8.72-.023,13.08,0,.644.145.873.819.834a24.7,24.7,0,0,1,3.117,0c.756.052.938-.174.933-.929C-715.462,781.04-715.444,775.975-715.444,770.911Zm-27.4,8.142c0,1.073-.018,2.146,0,3.219a6.457,6.457,0,0,0,6.461,6.352,6.444,6.444,0,0,0,6.416-6.292c.042-1.977-.009-3.957.024-5.935.009-.543-.143-.77-.7-.817a21.777,21.777,0,0,1-8.291-2.544.957.957,0,0,0-1.088.053c-2.823,1.729-2.828,1.72-2.828,5.057C-742.847,778.449-742.847,778.751-742.845,779.053Zm75.629,1.512c.077-.093.111-.115.111-.137q.012-12.532.031-25.063c0-.513-.187-.6-.642-.6-1.711.022-3.422.025-5.133,0-.5-.008-.7.085-.7.648q.029,10.972.011,21.944c0,.307-.024.568.392.672A21.478,21.478,0,0,1-667.216,780.565Zm-30.554,9.692h-2.059q-9.769,0-19.539.014c-.3,0-.905-.273-.865.314.122,1.785-.8,3.891,1.424,5.1a.984.984,0,0,1,.35.357,1.436,1.436,0,0,0,1.451.642c2.786-.028,5.573-.012,8.36-.012q4.28,0,8.561,0c.37,0,.837.161.885-.488A21.4,21.4,0,0,1-697.77,790.257Zm-35.643,2.559c.038-.915-.4-1.315-1.292-1.132a9.308,9.308,0,0,1-3.584-.021c-.275-.051-.7-.351-.811.19-.089.449-.554.9-.073,1.384.8.8,1.616,1.6,2.406,2.416.271.28.459.286.733,0,.79-.817,1.6-1.61,2.407-2.416C-733.513,793.125-733.376,793.012-733.413,792.816Zm-2.97,23.225a3,3,0,0,1,.5,0c.743.127.86-.152.743-.864-.348-2.117-.6-4.25-.915-6.372-.043-.284.083-.816-.363-.8-.408.016-.294.536-.34.83-.3,1.922-.566,3.848-.833,5.774C-737.785,816.04-737.778,816.041-736.383,816.041Zm-.074-15.5c-.289.587-1.048.737-.958,1.4.116.85.4,1.677.594,2.518.061.263.228.285.438.287a.355.355,0,0,0,.412-.32c.183-.81.461-1.6.576-2.421C-735.295,801.3-736,801.086-736.457,800.542Zm-3.914-4.076-.294.144.51,3.019c1.537-1.248,1.534-1.244.263-2.521A5.418,5.418,0,0,1-740.371,796.466Zm7.735,3.153c.1-.577.2-1.07.255-1.568a4.06,4.06,0,0,0,.167-1.466C-734.3,798.066-734.341,798.287-732.636,799.62Z" transform="translate(0)" fill="#010101"/>
    <path id="Trazado_172218" data-name="Trazado 172218" d="M-512.1,982.327a17.763,17.763,0,0,1-17.733-17.73A17.755,17.755,0,0,1-512.1,946.864a17.761,17.761,0,0,1,17.735,17.727A17.766,17.766,0,0,1-512.1,982.327Zm-1.614-4.965a5.733,5.733,0,0,1-.006.8c-.1.71.1.978.9.961,2.33-.049,2.331-.007,2.334-2.435a1.732,1.732,0,0,0,0-.3c-.093-.527.161-.734.644-.917a6.211,6.211,0,0,0,4.192-6.018,6.284,6.284,0,0,0-4.408-5.874c-1.041-.368-2.1-.678-3.141-1.057a3.088,3.088,0,0,1-2.1-3.292,3.175,3.175,0,0,1,2.636-2.675c1.6-.229,3.247.524,3.529,1.975.261,1.346.956,1.307,1.918,1.167a4.335,4.335,0,0,1,.9-.068c.617.041.724-.251.636-.79-.3-1.808-1.014-3.551-2.662-4.283-1.926-.855-2.5-2.054-2.147-3.961.053-.286-.006-.528-.4-.514-.9.031-1.951-.232-2.651.152-.5.276-.1,1.426-.163,2.184a1.262,1.262,0,0,0,0,.3c.09.545-.114.8-.664,1.005a6.192,6.192,0,0,0-4.171,6.029,6.291,6.291,0,0,0,4.43,5.857c1.076.371,2.17.692,3.229,1.107a3.04,3.04,0,0,1,1.929,3.555,3.18,3.18,0,0,1-3.5,2.373,3.163,3.163,0,0,1-2.86-2.779c-.077-.677.338-1.608-.227-1.967-.5-.321-1.367-.077-2.072-.082-.168,0-.336.009-.5,0-.284-.017-.41.083-.432.393-.2,2.969.63,5.753,3.98,7.177.656.279.984.554.867,1.269A4.388,4.388,0,0,0-513.712,977.362Z" transform="translate(-166.268 -166.296)" fill="#f9d56f"/>
    <path id="Trazado_172219" data-name="Trazado 172219" d="M-727.39,891.154c0-3.089-.008-6.177,0-9.266a12.971,12.971,0,0,1,11.729-12.894,13,13,0,0,1,13.781,10.184,12.578,12.578,0,0,1,.285,2.7c-.012,6.446-.024,12.891.014,19.337.005.9-.194,1-1.054.84-1.675-.315-3.384-.463-5.083-.63-.472-.046-.794-.172-.828-.657-.037-.546-.655-1.088.032-1.648,2.83-2.307,3.852-5.346,3.709-8.922-.1-2.514-.028-5.035-.012-7.553,0-.505-.046-.822-.688-.791a20.711,20.711,0,0,1-11.409-3.027,1.45,1.45,0,0,0-1.8.124c-1.557,1.108-3.161,2.152-4.771,3.185a1.342,1.342,0,0,0-.7,1.3c.036,2.584.034,5.17.01,7.754a9.4,9.4,0,0,0,3.473,7.7c.781.645.384,1.208.275,1.865-.118.711-.64.619-1.137.677-1.7.2-3.4.356-5.078.673-.753.143-.76-.121-.757-.677C-727.384,898-727.39,894.578-727.39,891.154Z" transform="translate(-21.905 -109.352)" fill="#646c77"/>
    <path id="Trazado_172220" data-name="Trazado 172220" d="M-559.241,771.395h-42.1c-.053-.332.232-.4.388-.522q9.287-7.4,18.588-14.787a2.655,2.655,0,0,1,3.742-.033q9.449,7.44,18.882,14.9C-559.615,771.051-559.5,771.161-559.241,771.395Zm-16.4-8a4.859,4.859,0,0,0-4.745-4.872,4.859,4.859,0,0,0-4.923,4.794,4.86,4.86,0,0,0,4.845,4.875A4.861,4.861,0,0,0-575.641,763.4Z" transform="translate(-114.014 -26.317)" fill="#a27b1c"/>
    <path id="Trazado_172221" data-name="Trazado 172221" d="M-666.525,1010.825l1.852,2.172c.477-2.85.913-5.448,1.348-8.046.138-.826.278-1.652.407-2.48.043-.274.067-.484.437-.547,3.645-.619,8.032,2.1,9.218,5.744a8.514,8.514,0,0,1,.417,2.671c-.007,3.758-.021,7.516.013,11.274.006.686-.142.9-.869.9-3.825-.039-7.65-.033-11.475,0-.588,0-.815-.152-.894-.738-.385-2.856-.823-5.705-1.207-8.562a6.885,6.885,0,0,1,.42-2.139Z" transform="translate(-65.823 -206.465)" fill="#43a047"/>
    <path id="Trazado_172222" data-name="Trazado 172222" d="M-733.547,1013.115l1.857-2.158.287.111a6.434,6.434,0,0,1,.441,2.35c-.384,2.721-.779,5.44-1.145,8.164-.09.67-.252,1.015-1.082,1-3.757-.059-7.516-.05-11.273-.005-.769.009-.935-.205-.927-.944.04-3.758,0-7.516.023-11.274a8.028,8.028,0,0,1,7.37-8.122c.829-.08,1.829-.574,2.446-.127s.416,1.545.56,2.357C-734.5,1007.235-734.06,1010.01-733.547,1013.115Z" transform="translate(-8.759 -206.531)" fill="#43a047"/>
    <path id="Trazado_172223" data-name="Trazado 172223" d="M-615.787,830.327c-10.909,0-21.818-.011-32.727.021-.871,0-1.13-.18-1.1-1.083.074-2.137.022-2.139,2.135-2.139q32.224,0,64.447-.021c.9,0,1.182.2,1.149,1.133-.075,2.087-.022,2.089-2.084,2.089Z" transform="translate(-78.741 -78.787)" fill="#a27b1c"/>
    <path id="Trazado_172224" data-name="Trazado 172224" d="M-638.324,754.025l22.151-17.724c1.284-1.027,2.554-2.074,3.855-3.079a7.624,7.624,0,0,1,9.593-.033q12.844,10.214,25.639,20.491c.076.061.16.114.481.34h-4.134c-.38,0-.586-.3-.841-.5q-10.793-8.507-21.577-17.026c-3.013-2.381-5.661-2.385-8.637-.016q-10.632,8.467-21.265,16.935a2.531,2.531,0,0,1-1.819.627C-635.941,753.987-637.007,754.025-638.324,754.025Z" transform="translate(-86.991 -8.933)" fill="#a27b1c"/>
    <path id="Trazado_172225" data-name="Trazado 172225" d="M-535.937,867.043c0-5.035.018-10.07-.019-15.1-.005-.751.172-.964.931-.933,1.608.065,3.222.045,4.832.006.582-.014.716.176.714.732q-.025,12.839,0,25.678a1.162,1.162,0,0,1-.457,1.029,17.835,17.835,0,0,0-3.915,4.3c-.525.826-1.247.506-1.878.464-.4-.027-.193-.565-.194-.864Q-535.948,874.7-535.937,867.043Z" transform="translate(-161.774 -96.25)" fill="#cbd0d8"/>
    <path id="Trazado_172226" data-name="Trazado 172226" d="M-619.2,867.165c0,5.064-.018,10.129.019,15.193.005.755-.177.98-.933.928a24.749,24.749,0,0,0-3.117,0c-.674.039-.823-.19-.819-.834.028-4.36-.008-8.72.023-13.08a16.788,16.788,0,0,0-1.42-7.131,2.5,2.5,0,0,1-.2-1.069c.006-3.119.017-6.238-.009-9.357,0-.579.085-.823.75-.8,1.642.054,3.288.059,4.929,0,.719-.027.794.259.792.861C-619.2,856.969-619.2,862.067-619.2,867.165Z" transform="translate(-96.248 -96.254)" fill="#cbd0d8"/>
    <path id="Trazado_172227" data-name="Trazado 172227" d="M-703.44,924.523q0-.453,0-.905c0-3.338.006-3.328,2.828-5.057a.958.958,0,0,1,1.088-.053,21.777,21.777,0,0,0,8.291,2.544c.556.047.708.273.7.817-.033,1.978.018,3.957-.024,5.935a6.445,6.445,0,0,1-6.416,6.292,6.457,6.457,0,0,1-6.461-6.352C-703.457,926.669-703.439,925.6-703.44,924.523Z" transform="translate(-39.406 -145.47)" fill="#f5d8b5"/>
    <path id="Trazado_172228" data-name="Trazado 172228" d="M-439.745,876.847a21.471,21.471,0,0,0-5.925-2.536c-.416-.1-.392-.365-.392-.672q0-10.972-.011-21.944c0-.563.2-.656.7-.648,1.711.026,3.422.023,5.133,0,.454-.006.643.085.642.6q-.032,12.532-.031,25.063C-439.633,876.732-439.668,876.754-439.745,876.847Z" transform="translate(-227.471 -96.282)" fill="#cbd0d8"/>
    <path id="Trazado_172229" data-name="Trazado 172229" d="M-597.232,982.711a21.4,21.4,0,0,0-1.433,5.92c-.048.649-.515.487-.885.488q-4.28.01-8.561,0c-2.787,0-5.573-.016-8.36.012a1.436,1.436,0,0,1-1.451-.642.984.984,0,0,0-.35-.357c-2.225-1.207-1.3-3.312-1.424-5.1-.04-.587.568-.313.865-.314q9.77-.027,19.539-.014Z" transform="translate(-100.538 -192.454)" fill="#cbd0d8"/>
    <path id="Trazado_172230" data-name="Trazado 172230" d="M-684.609,988.87c.037.2-.1.309-.214.425-.8.806-1.617,1.6-2.407,2.416-.274.284-.462.278-.733,0-.79-.817-1.6-1.612-2.406-2.416-.481-.482-.016-.935.073-1.384.107-.541.536-.24.811-.19a9.308,9.308,0,0,0,3.584.021C-685,987.555-684.57,987.955-684.609,988.87Z" transform="translate(-48.804 -196.054)" fill="#eed8be"/>
    <path id="Trazado_172231" data-name="Trazado 172231" d="M-682.94,1056.8c-1.4,0-1.4,0-1.2-1.426.267-1.926.536-3.852.833-5.774.046-.295-.068-.815.34-.831.446-.017.32.514.363.8.319,2.122.567,4.255.915,6.372.117.712,0,.991-.743.864A3.029,3.029,0,0,0-682.94,1056.8Z" transform="translate(-53.442 -240.76)" fill="#f5cd6c"/>
    <path id="Trazado_172232" data-name="Trazado 172232" d="M-682.316,1021.039c.456.544,1.162.762,1.062,1.463-.116.818-.393,1.611-.576,2.421a.355.355,0,0,1-.412.319c-.21,0-.377-.024-.438-.287-.194-.841-.478-1.668-.594-2.518C-683.364,1021.776-682.6,1021.626-682.316,1021.039Z" transform="translate(-54.141 -220.497)" fill="#f5cd6c"/>
    <path id="Trazado_172233" data-name="Trazado 172233" d="M-695.031,1005.9a5.406,5.406,0,0,0,.478.642c1.271,1.277,1.275,1.274-.263,2.521l-.51-3.019Z" transform="translate(-45.34 -209.437)" fill="#43a047"/>
    <path id="Trazado_172234" data-name="Trazado 172234" d="M-668.813,1009.382c-1.705-1.332-1.668-1.554.422-3.033a4.059,4.059,0,0,1-.167,1.466C-668.614,1008.312-668.716,1008.8-668.813,1009.382Z" transform="translate(-63.823 -209.763)" fill="#43a047"/>
    <path id="Trazado_172235" data-name="Trazado 172235" d="M-483.186,985.941a4.381,4.381,0,0,1,.006-.7c.117-.714-.211-.989-.867-1.269-3.35-1.425-4.183-4.208-3.98-7.177.021-.31.148-.409.432-.393.167.01.336,0,.5,0,.7,0,1.568-.239,2.072.082.565.359.15,1.291.227,1.967a3.163,3.163,0,0,0,2.86,2.779,3.18,3.18,0,0,0,3.5-2.373,3.04,3.04,0,0,0-1.929-3.555c-1.058-.415-2.153-.736-3.229-1.107a6.292,6.292,0,0,1-4.43-5.857,6.192,6.192,0,0,1,4.171-6.029c.55-.205.754-.46.664-1.005a1.256,1.256,0,0,1,0-.3c.058-.757-.34-1.908.163-2.184.7-.384,1.751-.121,2.651-.152.4-.014.456.228.4.514-.354,1.906.22,3.106,2.146,3.961,1.649.732,2.367,2.475,2.662,4.282.088.539-.019.831-.636.79a4.334,4.334,0,0,0-.9.068c-.962.14-1.657.179-1.918-1.167-.282-1.452-1.933-2.2-3.529-1.975a3.175,3.175,0,0,0-2.636,2.675,3.088,3.088,0,0,0,2.1,3.292c1.037.379,2.1.688,3.141,1.057a6.285,6.285,0,0,1,4.408,5.874,6.211,6.211,0,0,1-4.192,6.018c-.483.184-.737.391-.644.918a1.725,1.725,0,0,1,0,.3c0,2.429,0,2.386-2.334,2.436-.8.017-1-.251-.9-.961A5.731,5.731,0,0,0-483.186,985.941Z" transform="translate(-196.794 -174.875)" fill="#010101"/>
    <path id="Trazado_172236" data-name="Trazado 172236" d="M-532.132,772.155a4.862,4.862,0,0,1-4.823,4.8,4.86,4.86,0,0,1-4.845-4.875,4.859,4.859,0,0,1,4.923-4.794A4.859,4.859,0,0,1-532.132,772.155Zm-4.841,1.578a1.625,1.625,0,0,0,1.623-1.584,1.624,1.624,0,0,0-1.559-1.648,1.621,1.621,0,0,0-1.672,1.634A1.622,1.622,0,0,0-536.973,773.733Z" transform="translate(-157.522 -35.074)" fill="#010101"/>
    <path id="Trazado_172237" data-name="Trazado 172237" d="M-528.239,782.464a1.622,1.622,0,0,1-1.608-1.6,1.621,1.621,0,0,1,1.672-1.634,1.624,1.624,0,0,1,1.559,1.648A1.625,1.625,0,0,1-528.239,782.464Z" transform="translate(-166.256 -43.805)" fill="#cbd0d8"/>
  </g>
</svg>
