<svg xmlns="http://www.w3.org/2000/svg" width="486.898" height="369.978" viewBox="0 0 486.898 369.978">
  <g id="Grupo_111335" data-name="Grupo 111335" transform="translate(-111.693 -42.886)">
    <path id="Trazado_171564" data-name="Trazado 171564" d="M493.923,136.327C461.2,89.924,377.441,63.966,284.291,76.08,170.082,90.949,85.009,157.414,94.282,224.519c4.487,32.751,30.691,59.606,69.578,76.783,32.725,46.4,116.482,72.361,209.632,60.247C487.7,346.68,572.774,280.216,563.5,213.174c-4.547-32.815-30.691-59.606-69.578-76.847Z" transform="translate(34.399 -3.086)" fill="#fff4d1" fill-rule="evenodd" opacity="0.413"/>
    <path id="Trazado_171565" data-name="Trazado 171565" d="M581.26,1876.877c.256.169.384.254.384.424,0,2.882-73.9,5.17-165.133,5.17s-165.2-2.288-165.2-5.17c0-.509,2.3-1.017,6.59-1.441-27.511-.848-43.762-1.949-43.762-3.051,0-1.187,17.083-2.288,45.81-3.136-7.23-.424-11.133-.848-11.133-1.271,0-2.119,88.868-3.814,198.53-3.814s198.594,1.7,198.594,3.814c0,.509-5.31,1.017-14.843,1.441,25.272.848,40.115,1.865,40.115,2.966,0,1.7-35.317,3.136-89.956,4.068Z" transform="translate(-97.251 -1469.606)" fill="#7b5d14" fill-rule="evenodd" opacity="0.372"/>
    <g id="Grupo_111281" data-name="Grupo 111281" transform="translate(435.17 142.529)">
      <g id="Grupo_111273" data-name="Grupo 111273" transform="translate(0)">
        <path id="Trazado_171566" data-name="Trazado 171566" d="M1907.418,677.541c12.266.692,36.111-8.625,47.58-23.383,3.548-4.5,15.715-20.071,6.5-26.9-6.871.331-15.787,12.829-20.58.983-.587-6.428,16.146-.119,19.274-5.545,3.227-7.9,1.016-23.908-7.786-28.323-4.282.507-16.841,21.432-21.589,18.417-3.756-3.951,10.227-11.542,15.338-17.294,4.529-6.353-4.494-15.391-9.419-21.443-1.773,9.844-5.109,17.5-8.413,16.267-7.547-3.9,8.835-10.838,8.413-16.267-7.145-8.782-5.512-13.915-11.825-15.623-7.394,2.8-10.745,4.285-15.382,10.209-9.725,13.123,9.869,29.842,4.8,32.107-5-.166-7.92-19.035-10.951-19.338-6.136-1.669-14.417,8.491-12.927,13.863,2.2,7.959,19.421,21.441,16.595,24.957-3.524,4.457-16.6-19.717-26.216-17.915-7.765,2.23-12.842,12.716-15.03,20.274-4.98,9.63,33.37,13.235,32.987,17.117-6.281,8.082-36.767-14.092-37.895,2.126.152,8.763,5.853,15.451,11.8,21.662,9.189,9.541,25.978,13.793,34.731,14.048ZM1891.44,615.7a2.753,2.753,0,0,1-.061,5.479,2.753,2.753,0,0,1,.061-5.479Zm30.825,10.086c-2.815,3.054,3.265,3.158,5.12,1.839,2.581-1.164,6.012-3.5,5.762-6.661-3.082-1.851-7.233,1.1-10.882,4.821Zm1.52,17.406c.1-6.08,12.578-6.368,14.364-3.548.787,2.986-13.286,7.772-14.364,3.548Zm-28.107,7.207c-2.286-.081-.145,2.507,1.062,2.795,1.411.67,3.628,1.267,4.844.027-.316-1.948-3.038-2.636-5.905-2.822Zm12.732-50.506c2.472.651,3.99,3.809,4.536,6.167-1.37,1.341-3.2-.823-4.475-2.084-1.466-1.3-1.848-3.906-.062-4.082Z" transform="translate(-1860.886 -558.43)" fill="#72e676" fill-rule="evenodd"/>
        <g id="Grupo_111272" data-name="Grupo 111272" transform="translate(8.437 14.243)">
          <g id="Grupo_111267" data-name="Grupo 111267" transform="translate(24.902)">
            <path id="Trazado_171567" data-name="Trazado 171567" d="M2033.422,774.16a1.021,1.021,0,0,1,.026-.655c17.574-46.069,26.323-91.983,26.745-140.364a1.027,1.027,0,0,1,2.054.018,401.141,401.141,0,0,1-7.843,75.634,413.878,413.878,0,0,1-19.037,65.445,1.027,1.027,0,0,1-1.945-.077Z" transform="translate(-2033.38 -632.123)" fill="#57c45b"/>
          </g>
          <g id="Grupo_111268" data-name="Grupo 111268" transform="translate(49.811 15.897)">
            <path id="Trazado_171568" data-name="Trazado 171568" d="M2162.3,735.673a1.027,1.027,0,0,1,.631-1.253c9.09-3.34,15.032-9.832,17.661-19.3a1.027,1.027,0,1,1,1.979.55,31.1,31.1,0,0,1-6.531,12.4,30.086,30.086,0,0,1-12.4,8.278,1.027,1.027,0,0,1-1.318-.61C2162.309,735.717,2162.3,735.695,2162.3,735.673Z" transform="translate(-2162.254 -714.372)" fill="#57c45b"/>
          </g>
          <g id="Grupo_111269" data-name="Grupo 111269" transform="translate(42.634 63.599)">
            <path id="Trazado_171569" data-name="Trazado 171569" d="M2125.163,980.355a1.028,1.028,0,0,1,1.158-1.3c16.855,2.868,31.6-3.176,42.648-17.479a1.027,1.027,0,0,1,1.626,1.256c-11.539,14.941-26.968,21.251-44.619,18.248A1.028,1.028,0,0,1,2125.163,980.355Z" transform="translate(-2125.121 -961.175)" fill="#57c45b"/>
          </g>
          <g id="Grupo_111270" data-name="Grupo 111270" transform="translate(9.598 43.251)">
            <path id="Trazado_171570" data-name="Trazado 171570" d="M1954.237,857.216a1.027,1.027,0,0,1,1.806-.908c8.671,11.513,19.151,16.506,36.171,17.234a1.027,1.027,0,0,1-.088,2.052c-8.532-.365-15.157-1.7-20.846-4.209a42.3,42.3,0,0,1-16.878-13.842A1.024,1.024,0,0,1,1954.237,857.216Z" transform="translate(-1954.196 -855.899)" fill="#57c45b"/>
          </g>
          <g id="Grupo_111271" data-name="Grupo 111271" transform="translate(0 72.112)">
            <path id="Trazado_171571" data-name="Trazado 171571" d="M1904.581,1006.541a1.027,1.027,0,0,1,1.8-.914c15.051,19.666,28.705,21.594,38.919,21.076a1.027,1.027,0,0,1,.1,2.052c-10.716.543-25.021-1.453-40.654-21.879A1.02,1.02,0,0,1,1904.581,1006.541Z" transform="translate(-1904.539 -1005.224)" fill="#57c45b"/>
          </g>
        </g>
      </g>
      <g id="Grupo_111280" data-name="Grupo 111280" transform="translate(33.286 56.321)">
        <path id="Trazado_171572" data-name="Trazado 171572" d="M2142.028,930.527c8.707,8.653,32.733,17.5,51.113,14.043,5.623-1.011,25.068-4.6,22.7-15.821-5.367-4.3-20.331-.856-16.063-12.9,3.819-5.206,12.154,10.617,18.113,8.624,7.641-3.775,16.608-17.226,12.947-26.353-3.54-2.47-26.812,4.858-28.384-.544-.186-5.443,15.308-1.84,22.959-2.768,7.592-1.757,6.839-14.5,7.171-22.3-7.85,6.19-15.437,9.711-17.09,6.593-3.068-7.923,13.81-2.245,17.09-6.593.479-11.3,5.092-14.058,1.514-19.532-7.413-2.819-10.884-3.931-18.294-2.558-15.994,3.384-12.406,28.879-17.694,27.218-3.64-3.433,6.687-19.51,4.612-21.749-3.473-5.3-16.407-3.206-18.863,1.82-3.629,7.412.33,28.918-4.135,29.68-5.572,1,.669-25.773-7.742-30.8-7.294-3.479-18.036,1.006-24.687,5.207-10.118,3.916,16.215,32.038,13.336,34.687-10.052,1.892-18.167-34.92-29.779-23.522-5.689,6.658-5.862,15.442-5.524,24.022.552,13.242,10.3,27.547,16.7,33.551Zm29.039-56.887a2.753,2.753,0,1,1-3.68.366,2.632,2.632,0,0,1,3.68-.366Zm16.37,28c-4.128.406.358,4.528,2.616,4.764,2.711.838,6.822,1.375,8.726-1.153-1.067-3.437-6.121-3.99-11.341-3.612Zm-10.4,14.02c4.11-4.464,13.648,3.577,13.112,6.879-1.393,2.763-15.092-2.986-13.112-6.879Zm-25.813-13.234c-1.658-1.571-1.777,1.773-1.071,2.8.625,1.434,1.885,3.343,3.619,3.237,1.053-1.671-.528-3.982-2.548-6.035Zm43.025-29.36c1.42,2.138.458,5.492-.7,7.616-1.9.1-1.856-2.745-1.972-4.513-.221-1.939,1.208-4.143,2.672-3.1Z" transform="translate(-2107.421 -849.827)" fill="#28c65d" fill-rule="evenodd"/>
        <g id="Grupo_111279" data-name="Grupo 111279" transform="translate(0 11.662)">
          <g id="Grupo_111274" data-name="Grupo 111274">
            <path id="Trazado_171573" data-name="Trazado 171573" d="M2033.145,999.03a1.028,1.028,0,0,1,.51-1.2c43.706-22.837,80.706-51.4,113.115-87.327a1.027,1.027,0,0,1,1.525,1.376,401.542,401.542,0,0,1-56.037,51.4,414.367,414.367,0,0,1-57.651,36.366,1.028,1.028,0,0,1-1.462-.621Z" transform="translate(-2033.103 -910.166)" fill="#318335"/>
          </g>
          <g id="Grupo_111275" data-name="Grupo 111275" transform="translate(88.152 22.772)">
            <path id="Trazado_171574" data-name="Trazado 171574" d="M2489.236,1032.127a1.027,1.027,0,0,1,1.359-1.246c9.025,3.525,17.785,2.605,26.038-2.733a1.027,1.027,0,1,1,1.116,1.725c-8.838,5.717-18.226,6.7-27.9,2.921A1.026,1.026,0,0,1,2489.236,1032.127Z" transform="translate(-2489.195 -1027.984)" fill="#318335"/>
          </g>
          <g id="Grupo_111276" data-name="Grupo 111276" transform="translate(52.568 54.939)">
            <path id="Trazado_171575" data-name="Trazado 171575" d="M2305.126,1195.729a1.027,1.027,0,0,1,1.786-.934c10.722,13.328,25.769,18.591,43.513,15.218a1.027,1.027,0,1,1,.384,2.018c-18.537,3.523-34.27-1.992-45.5-15.949A1.025,1.025,0,0,1,2305.126,1195.729Z" transform="translate(-2305.085 -1194.412)" fill="#318335"/>
          </g>
          <g id="Grupo_111277" data-name="Grupo 111277" transform="translate(53.016 4.449)">
            <path id="Trazado_171576" data-name="Trazado 171576" d="M2309.065,950.441a44.557,44.557,0,0,1-1.485-16.313,1.027,1.027,0,0,1,2.048.164c-1.148,14.367,3.384,25.052,15.642,36.884a1.027,1.027,0,0,1-1.427,1.478c-6.144-5.93-10.215-11.322-12.812-16.97A38.678,38.678,0,0,1,2309.065,950.441Z" transform="translate(-2307.405 -933.183)" fill="#318335"/>
          </g>
          <g id="Grupo_111278" data-name="Grupo 111278" transform="translate(26.626 19.7)">
            <path id="Trazado_171577" data-name="Trazado 171577" d="M2173.027,1035.964c-1.763-5.991-2.61-13.455-1.925-22.919a1.027,1.027,0,1,1,2.049.148c-1.787,24.687,7.164,35.18,15.161,41.564a1.027,1.027,0,0,1-1.282,1.605A39.159,39.159,0,0,1,2173.027,1035.964Z" transform="translate(-2170.864 -1012.092)" fill="#318335"/>
          </g>
        </g>
      </g>
    </g>
    <g id="Grupo_111296" data-name="Grupo 111296" transform="translate(319.64 120.472)">
      <g id="Grupo_111288" data-name="Grupo 111288" transform="translate(0 57.61)">
        <path id="Trazado_171578" data-name="Trazado 171578" d="M1381.782,800.909c1-12.244-7.715-36.316-22.18-48.153-4.41-3.66-19.67-16.215-26.729-7.171.158,6.877,12.428,16.1.465,20.6-6.441.425.287-16.144-5.059-19.407-7.817-3.425-23.875-1.617-28.51,7.071.4,4.294,21,17.374,17.869,22.046-4.044,3.655-11.281-10.514-16.9-15.767-6.237-4.687-15.5,4.105-21.673,8.877,9.8,2.02,17.367,5.547,16.05,8.82-4.09,7.447-10.613-9.1-16.05-8.82-8.959,6.922-14.049,5.16-15.916,11.429,2.615,7.462,4.013,10.85,9.819,15.634,12.874,10.052,30.081-9.116,32.218-3.99-.291,4.989-19.228,7.439-19.607,10.461-1.823,6.092,8.126,14.625,13.534,13.272,8.011-1.995,21.923-18.876,25.367-15.962,4.367,3.635-20.128,16.1-18.568,25.758,2.035,7.818,12.389,13.158,19.89,15.535,9.5,5.22,14.069-33.027,17.941-32.546,7.922,6.483-15.012,36.4,1.173,37.937,8.764.068,15.593-5.463,21.952-11.252,9.769-8.946,14.441-25.622,14.916-34.367Zm-62.222,14.419a2.753,2.753,0,0,1,5.476.2,2.753,2.753,0,0,1-5.476-.2Zm10.857-30.562c2.982,2.891,3.239-3.184,1.968-5.072-1.1-2.609-3.346-6.1-6.514-5.928-1.928,3.035.917,7.259,4.546,11Zm17.439-1.082c-6.076-.257-6.05-12.734-3.186-14.449,3-.712,7.436,13.478,3.186,14.449Zm6.5,28.279c-.138,2.283,2.5.208,2.821-.991.7-1.394,1.358-3.595.149-4.842-1.955.267-2.712,2.97-2.969,5.833Zm-50.17-14c.713-2.455,3.907-3.893,6.279-4.38,1.306,1.4-.9,3.181-2.2,4.421-1.333,1.434-3.951,1.75-4.082-.041Z" transform="translate(-1263.148 -742.375)" fill="#43a047" fill-rule="evenodd"/>
        <g id="Grupo_111287" data-name="Grupo 111287" transform="translate(14.167 7.312)">
          <g id="Grupo_111282" data-name="Grupo 111282" transform="translate(0 32.942)">
            <path id="Trazado_171579" data-name="Trazado 171579" d="M1477.74,983.005a1.021,1.021,0,0,1-.654-.042c-45.613-18.727-91.292-28.626-139.647-30.265a1.027,1.027,0,1,1,.07-2.053,401.136,401.136,0,0,1,75.413,9.741,413.924,413.924,0,0,1,64.945,20.676,1.027,1.027,0,0,1-.126,1.943Z" transform="translate(-1336.446 -950.645)" fill="#318335"/>
          </g>
          <g id="Grupo_111283" data-name="Grupo 111283" transform="translate(16.304 16.955)">
            <path id="Trazado_171580" data-name="Trazado 171580" d="M1441.611,888.74a1.028,1.028,0,0,1-1.237-.663c-3.11-9.171-9.45-15.275-18.846-18.141a1.027,1.027,0,1,1,.6-1.965,31.1,31.1,0,0,1,12.228,6.841,30.088,30.088,0,0,1,7.964,12.6,1.027,1.027,0,0,1-.643,1.3Z" transform="translate(-1420.801 -867.927)" fill="#318335"/>
          </g>
          <g id="Grupo_111284" data-name="Grupo 111284" transform="translate(64.447)">
            <path id="Trazado_171581" data-name="Trazado 171581" d="M1687.941,826.293a1.028,1.028,0,0,1-1.272-1.19c3.29-16.778-2.381-31.672-16.4-43.074a1.027,1.027,0,1,1,1.3-1.594c14.646,11.911,20.567,27.493,17.121,45.063A1.028,1.028,0,0,1,1687.941,826.293Z" transform="translate(-1669.888 -780.205)" fill="#318335"/>
          </g>
          <g id="Grupo_111285" data-name="Grupo 111285" transform="translate(42.179 39.641)">
            <path id="Trazado_171582" data-name="Trazado 171582" d="M1555.967,1023.816a1.027,1.027,0,0,1-.863-1.828c11.727-8.379,16.982-18.73,18.138-35.727a1.027,1.027,0,0,1,2.05.139c-.58,8.521-2.083,15.109-4.731,20.734a42.3,42.3,0,0,1-14.262,16.524A1.028,1.028,0,0,1,1555.967,1023.816Z" transform="translate(-1554.675 -985.303)" fill="#318335"/>
          </g>
          <g id="Grupo_111286" data-name="Grupo 111286" transform="translate(70.79 47.219)">
            <path id="Trazado_171583" data-name="Trazado 171583" d="M1704,1065.767a1.027,1.027,0,0,1-.869-1.823c20.038-14.552,22.308-28.153,22.047-38.377a1.027,1.027,0,0,1,2.054-.052c.274,10.726-2.081,24.977-22.894,40.091A1.024,1.024,0,0,1,1704,1065.767Z" transform="translate(-1702.704 -1024.513)" fill="#318335"/>
          </g>
        </g>
      </g>
      <g id="Grupo_111295" data-name="Grupo 111295" transform="translate(58.389)">
        <path id="Trazado_171584" data-name="Trazado 171584" d="M1643.933,539.549c8.869-8.487,18.321-32.283,15.323-50.744-.87-5.646-3.971-25.175-15.245-23.093-4.438,5.257-1.366,20.3-13.3,15.733-5.108-3.948,10.919-11.883,9.077-17.89-3.582-7.733-16.8-17.035-26.02-13.6-2.558,3.477,4.183,26.926-1.258,28.362-5.446.049-1.454-15.35-2.19-23.022-1.565-7.633-14.321-7.2-22.113-7.729,5.991,8,9.32,15.676,6.162,17.25-8,2.867-1.9-13.862-6.162-17.25-11.286-.763-13.925-5.444-19.487-2-3,7.339-4.2,10.782-3.017,18.224,2.981,16.074,28.558,13.127,26.764,18.372-3.524,3.552-19.335-7.175-21.626-5.157-5.388,3.339-3.617,16.321,1.345,18.9,7.318,3.814,28.917.4,29.567,4.879.856,5.6-25.749-1.317-30.984,6.966-3.662,7.2.553,18.055,4.585,24.81,3.661,10.214,32.435-15.405,35.011-12.46,1.639,10.1-35.366,17.284-24.263,29.178,6.512,5.855,15.29,6.248,23.875,6.126,13.251-.218,27.8-9.6,33.96-15.849Zm-56.14-30.459a2.753,2.753,0,1,1,.274,3.688,2.632,2.632,0,0,1-.274-3.688Zm28.405-15.661c.3,4.137,4.536-.244,4.829-2.5.906-2.689,1.546-6.785-.933-8.752-3.463.98-4.143,6.019-3.9,11.247Zm13.754,10.748c-4.36-4.221,3.918-13.554,7.206-12.935,2.728,1.462-3.365,15.012-7.206,12.935Zm-13.879,25.472c-1.613,1.618,1.728,1.82,2.77,1.141,1.449-.588,3.39-1.8,3.327-3.537-1.644-1.095-3.994.428-6.1,2.4ZM1587.8,485.9c2.173-1.366,5.5-.32,7.6.891.052,1.9-2.791,1.787-4.561,1.858-1.944.173-4.112-1.311-3.035-2.749Z" transform="translate(-1565.246 -444.308)" fill="#318335" fill-rule="evenodd"/>
        <g id="Grupo_111294" data-name="Grupo 111294" transform="translate(11.676 11.559)">
          <g id="Grupo_111289" data-name="Grupo 111289" transform="translate(0 1.147)">
            <path id="Trazado_171585" data-name="Trazado 171585" d="M1711.617,627.636a1.028,1.028,0,0,1-1.186-.54c-21.731-44.266-49.357-81.973-84.456-115.274a1.027,1.027,0,0,1,1.414-1.49,401.572,401.572,0,0,1,49.98,57.312,414.4,414.4,0,0,1,34.906,58.547,1.028,1.028,0,0,1-.658,1.445Z" transform="translate(-1625.655 -510.05)" fill="#1c551f"/>
          </g>
          <g id="Grupo_111290" data-name="Grupo 111290" transform="translate(22.808)">
            <path id="Trazado_171586" data-name="Trazado 171586" d="M1747.1,533.166a1.027,1.027,0,0,1-1.211-1.39c3.75-8.934,3.051-17.714-2.077-26.1a1.027,1.027,0,1,1,1.752-1.072c5.493,8.979,6.239,18.388,2.219,27.965A1.025,1.025,0,0,1,1747.1,533.166Z" transform="translate(-1743.659 -504.115)" fill="#1c551f"/>
          </g>
          <g id="Grupo_111291" data-name="Grupo 111291" transform="translate(53.392 19.243)">
            <path id="Trazado_171587" data-name="Trazado 171587" d="M1903.193,649.795a1.027,1.027,0,0,1-.889-1.809c13.594-10.383,19.233-25.293,16.307-43.117a1.027,1.027,0,1,1,2.027-.333c3.057,18.62-2.852,34.209-17.087,45.082A1.023,1.023,0,0,1,1903.193,649.795Z" transform="translate(-1901.9 -603.675)" fill="#1c551f"/>
          </g>
          <g id="Grupo_111292" data-name="Grupo 111292" transform="translate(2.934 46.454)">
            <path id="Trazado_171588" data-name="Trazado 171588" d="M1658.1,760.435a44.567,44.567,0,0,1-16.345,1.074,1.027,1.027,0,0,1,.215-2.043c14.333,1.509,25.13-2.753,37.266-14.71a1.027,1.027,0,1,1,1.442,1.463c-6.083,5.993-11.575,9.927-17.286,12.381A38.7,38.7,0,0,1,1658.1,760.435Z" transform="translate(-1640.834 -744.461)" fill="#1c551f"/>
          </g>
          <g id="Grupo_111293" data-name="Grupo 111293" transform="translate(17.519 73.683)">
            <path id="Trazado_171589" data-name="Trazado 171589" d="M1740.182,900.517c-6.033,1.612-13.516,2.271-22.96,1.349a1.027,1.027,0,1,1,.2-2.045c24.634,2.407,35.349-6.277,41.931-14.112a1.027,1.027,0,0,1,1.573,1.321A39.157,39.157,0,0,1,1740.182,900.517Z" transform="translate(-1716.295 -885.344)" fill="#1c551f"/>
          </g>
        </g>
      </g>
    </g>
    <g id="Grupo_111303" data-name="Grupo 111303" transform="translate(111.693 58.321)">
      <g id="Grupo_111301" data-name="Grupo 111301" transform="translate(3.777 7.555)">
        <circle id="Elipse_5882" data-name="Elipse 5882" cx="79.965" cy="79.965" r="79.965" fill="#fffae8"/>
        <g id="Grupo_111300" data-name="Grupo 111300" transform="translate(36.716 15.272)">
          <g id="Grupo_111297" data-name="Grupo 111297" transform="translate(0 2.869)">
            <path id="Trazado_171590" data-name="Trazado 171590" d="M441.819,351.259c-14.912,3.648-30.054-2.739-45.064-4.115,12.264-31.984,2.909-60,4.375-90.021,16.151-3.987,31.8,1.549,47.707,2.311-2.351,30.613,9.238,57.4-7.018,91.826Z" transform="translate(-396.755 -255.692)" fill="#43a047" fill-rule="evenodd"/>
            <path id="Trazado_171591" data-name="Trazado 171591" d="M465.478,363.008c-9.205,1.871-18.443-1.106-27.691-2.974a4.167,4.167,0,0,0,1.426-2.919c.126-2.637-2.308-4.866-5.459-5.022a4.3,4.3,0,0,0-1.036.023c6.512-24.868,1.657-47.3,1.841-70.827a6.2,6.2,0,0,0,2.585.687c3.15.156,5.8-1.852,5.924-4.488a4.334,4.334,0,0,0-1.509-3.416c8.232-.706,16.312,1.154,24.441,2.333a4.211,4.211,0,0,0-.761,2.17c-.114,2.613,2.308,4.866,5.459,5.022a6.492,6.492,0,0,0,2.76-.462c-.559,23.7,5.365,45.34-3.044,71.534a6.633,6.633,0,0,0-3.13-.967c-3.126-.145-5.775,1.863-5.889,4.475a5.01,5.01,0,0,0,4.082,4.83Z" transform="translate(-425.768 -270.394)" fill="#c3ffc5" fill-rule="evenodd"/>
            <path id="Trazado_171592" data-name="Trazado 171592" d="M477.24,455.975a8.714,8.714,0,0,1,3.166-7.159,13.019,13.019,0,0,1,9.114-2.821,16.618,16.618,0,0,1,10.133,4.09,11.091,11.091,0,0,1,4.083,8.726,8.923,8.923,0,0,1-4.59,7.327,14.226,14.226,0,0,1-9.5,1.559,16.412,16.412,0,0,1-8.672-4.211,11.3,11.3,0,0,1-3.732-7.511Z" transform="translate(-461.675 -409.2)" fill="#fffae8" fill-rule="evenodd"/>
            <path id="Trazado_171593" data-name="Trazado 171593" d="M498.882,477.623a6.717,6.717,0,0,1,2.571.652,5.706,5.706,0,0,1,1.908,1.461,6.256,6.256,0,0,1,1.143,2.106c.081.271.15.567.22.862.418.045.837.091,1.267.112a1.4,1.4,0,0,1,1.364,1.241h0a1.2,1.2,0,0,1-1.446.918c-.359-.048-.729-.071-1.112-.129a5.8,5.8,0,0,1-.178,1.09,6.651,6.651,0,0,1-.421,1.3,6.006,6.006,0,0,1-.541.924,2.161,2.161,0,0,1-.471.516,1.173,1.173,0,0,1-.589.2,4.767,4.767,0,0,1-1-.05,3.694,3.694,0,0,1-.648-.121,3.408,3.408,0,0,1-.434-.14.667.667,0,0,1-.22-.159.359.359,0,0,1-.067-.236c0-.119.1-.277.281-.486a6.94,6.94,0,0,0,.6-.807,5.266,5.266,0,0,0,.628-1.177,3.768,3.768,0,0,0,.295-1.154c-2.165-.261-4.317-.486-6.4-.737l-.066.145a13.012,13.012,0,0,1-.731,1.276,4.076,4.076,0,0,1-1.013,1.059,3.962,3.962,0,0,1-1.372.63,4.954,4.954,0,0,1-1.88.075,6.673,6.673,0,0,1-1.853-.557,5.273,5.273,0,0,1-1.541-1.175,5.539,5.539,0,0,1-1.083-1.727,4.513,4.513,0,0,1-.266-.825c-.335-.036-.694-.084-1.029-.12a1.251,1.251,0,0,1-1.144-1.081h0a.887.887,0,0,1,1.067-.858,8.022,8.022,0,0,0,.9.089,6.017,6.017,0,0,1,.073-.67,5.556,5.556,0,0,1,.239-1.033,3.107,3.107,0,0,1,.331-.785,2.3,2.3,0,0,1,.33-.464.6.6,0,0,1,.243-.211.544.544,0,0,1,.236-.067,3.775,3.775,0,0,1,.822,0,2.679,2.679,0,0,1,.526.066,1.18,1.18,0,0,1,.385.118.437.437,0,0,1,.22.159.218.218,0,0,1,.066.176.709.709,0,0,1-.2.436q-.17.274-.405.693a4.987,4.987,0,0,0-.4.99,3.437,3.437,0,0,0-.15.839c1.793.178,3.634.378,5.535.576l.211-.46a10.268,10.268,0,0,1,.74-1.359,4.167,4.167,0,0,1,2.412-1.94,5.411,5.411,0,0,1,2.043-.176Zm2.937,4.774a5.909,5.909,0,0,0-.443-.759,2.836,2.836,0,0,0-.932-.779,3.616,3.616,0,0,0-1.31-.337,2.123,2.123,0,0,0-1.292.2,2.728,2.728,0,0,0-.95.795c-.08.11-.17.244-.25.354,1.674.182,3.407.362,5.176.528Zm-13.573.6a2.1,2.1,0,0,0,.4.594,2.27,2.27,0,0,0,.758.582,2.586,2.586,0,0,0,.951.29,1.992,1.992,0,0,0,1.2-.183,2.627,2.627,0,0,0,.844-.755.1.1,0,0,0,.058-.062c-1.423-.154-2.835-.333-4.209-.466Z" transform="translate(-466.86 -434.607)" fill="#43a047" fill-rule="evenodd"/>
          </g>
          <g id="Grupo_111298" data-name="Grupo 111298" transform="translate(11.535)">
            <path id="Trazado_171594" data-name="Trazado 171594" d="M492.957,342.532C478.282,338,468.6,324.745,456.436,315.827c26.938-21.125,33.34-49.969,50.021-74.977,15.915,4.9,26.484,17.68,39.732,26.537-17.752,25.045-21.565,53.991-53.232,75.145Z" transform="translate(-456.436 -240.85)" fill="#43a047" fill-rule="evenodd"/>
            <path id="Trazado_171595" data-name="Trazado 171595" d="M535.682,369.832c-8.85-3.121-15.279-10.433-22.247-16.762a4.41,4.41,0,0,0,2.727-1.8c1.475-2.194.533-5.379-2.074-7.1a6.819,6.819,0,0,0-.911-.505c18.359-18,25.739-39.717,37.989-59.787a6.426,6.426,0,0,0,1.886,1.89c2.6,1.747,5.9,1.386,7.371-.808a4.365,4.365,0,0,0,.47-3.709c7.414,3.634,13.385,9.389,19.767,14.57A4.3,4.3,0,0,0,578.9,297.3c-1.475,2.194-.533,5.379,2.074,7.1a6.516,6.516,0,0,0,2.6,1.044c-7.017,11.12-18.733,34.177-18.733,34.177s-11.455,17.524-20.651,25.585a6.448,6.448,0,0,0-2.178-2.4c-2.6-1.747-5.9-1.386-7.371.808a5,5,0,0,0,1.044,6.219Z" transform="translate(-502.21 -273.444)" fill="#c3ffc5" fill-rule="evenodd"/>
            <path id="Trazado_171596" data-name="Trazado 171596" d="M639.534,452.454a8.846,8.846,0,0,1,6.4-4.5,12.99,12.99,0,0,1,9.262,2.285,16.708,16.708,0,0,1,6.608,8.712,11.234,11.234,0,0,1-1,9.588,8.917,8.917,0,0,1-7.707,3.905,14.288,14.288,0,0,1-8.947-3.546,16.416,16.416,0,0,1-5.263-8.067,11.34,11.34,0,0,1,.647-8.373Z" transform="translate(-603.221 -407.806)" fill="#fffae8" fill-rule="evenodd"/>
            <path id="Trazado_171597" data-name="Trazado 171597" d="M664.075,472.964a7.256,7.256,0,0,1,1.862,1.879,5.7,5.7,0,0,1,.776,4.632,4.668,4.668,0,0,1-.269.843c.354.25.708.5,1.026.764a1.377,1.377,0,0,1,.547,1.745h0a1.171,1.171,0,0,1-1.714.034c-.281-.217-.587-.445-.868-.662a8.665,8.665,0,0,1-1.764,1.739,4.734,4.734,0,0,1-.936.508,1.683,1.683,0,0,1-.684.214,1.189,1.189,0,0,1-.588-.123c-.231-.135-.5-.317-.853-.567a5.308,5.308,0,0,1-.468-.449,2.414,2.414,0,0,1-.321-.323.805.805,0,0,1-.1-.282.3.3,0,0,1,.065-.2c.055-.121.243-.211.514-.291.247-.092.565-.21.929-.365a6.76,6.76,0,0,0,1.144-.706,4.248,4.248,0,0,0,.853-.839c-1.76-1.335-3.448-2.636-5.147-3.913-.046.037-.082.05-.128.088a9.89,9.89,0,0,1-1.3.723,3.858,3.858,0,0,1-2.887.228,4.825,4.825,0,0,1-1.652-.933,5.391,5.391,0,0,1-1.287-1.41,5.164,5.164,0,0,1-.728-1.8,5.871,5.871,0,0,1-.033-2.036,7.978,7.978,0,0,1,.186-.852c-.281-.217-.539-.423-.831-.615a1.286,1.286,0,0,1-.409-1.535h0a.857.857,0,0,1,1.34-.176c.244.17.477.365.721.536a6.052,6.052,0,0,1,.423-.538,5.007,5.007,0,0,1,.736-.775,4.346,4.346,0,0,1,.663-.487,2.378,2.378,0,0,1,.552-.245.693.693,0,0,1,.32-.059.743.743,0,0,1,.229.076l.291.133c.11.08.268.181.427.283.147.126.305.228.428.343a2.148,2.148,0,0,1,.248.29.492.492,0,0,1,.116.258.234.234,0,0,1-.053.181.653.653,0,0,1-.384.263q-.281.135-.7.381a5.348,5.348,0,0,0-.859.66,3.354,3.354,0,0,0-.562.65c1.442,1.071,2.921,2.189,4.46,3.3.128-.088.256-.175.42-.276a13.2,13.2,0,0,1,1.32-.771,4.716,4.716,0,0,1,1.46-.5,4.325,4.325,0,0,1,1.635.076,5.4,5.4,0,0,1,1.841.9Zm.034,5.61a3.83,3.83,0,0,0,.029-.894,2.794,2.794,0,0,0-.4-1.119,3.9,3.9,0,0,0-.951-.992,2.211,2.211,0,0,0-1.243-.482,3.031,3.031,0,0,0-1.2.183,3.994,3.994,0,0,0-.41.193c1.356,1,2.75,2.052,4.167,3.112Zm-11.93-6.5a2.208,2.208,0,0,0,.013.738,2.74,2.74,0,0,0,.352.893,2.707,2.707,0,0,0,.667.716,1.884,1.884,0,0,0,1.135.462,2.436,2.436,0,0,0,1.113-.192l.106-.039c-1.16-.854-2.286-1.722-3.387-2.578Z" transform="translate(-611.692 -423.056)" fill="#43a047" fill-rule="evenodd"/>
          </g>
          <g id="Grupo_111299" data-name="Grupo 111299" transform="translate(5.739 39.237)">
            <path id="Trazado_171598" data-name="Trazado 171598" d="M444.841,525.325c-10.458-11.239-12.259-27.559-18.394-41.326,33.894-4.931,53.8-26.76,80.7-40.141,11.358,12.15,14.173,28.5,21.278,42.766-27.883,12.9-45.6,36.086-83.589,38.7Z" transform="translate(-426.447 -443.858)" fill="#43a047" fill-rule="evenodd"/>
            <path id="Trazado_171599" data-name="Trazado 171599" d="M475.962,554.7c-6.1-7.133-8.031-16.658-10.919-25.627a4.207,4.207,0,0,0,3.222-.192c2.355-1.176,3.128-4.394,1.747-7.2a4.413,4.413,0,0,0-.53-.888c24.858-6.5,42.086-21.648,62.684-32.969a6.869,6.869,0,0,0,.694,2.574c1.405,2.812,4.428,4.139,6.783,2.964a4.319,4.319,0,0,0,2.271-2.971c4.626,6.837,6.944,14.812,9.883,22.457a4.033,4.033,0,0,0-2.249.433c-2.344,1.151-3.128,4.394-1.747,7.2a6.711,6.711,0,0,0,1.753,2.181c-20.938,11.106-36.956,26.812-63.911,32.26a6.29,6.29,0,0,0-.679-3.182c-1.405-2.812-4.428-4.139-6.783-2.964-2,.985-2.874,3.456-2.219,5.924Z" transform="translate(-457.583 -479.328)" fill="#c3ffc5" fill-rule="evenodd"/>
            <path id="Trazado_171600" data-name="Trazado 171600" d="M645.808,603.409a8.792,8.792,0,0,1,7.8-.728,13,13,0,0,1,6.881,6.582,16.58,16.58,0,0,1,1.39,10.83,11.154,11.154,0,0,1-5.621,7.85,9.008,9.008,0,0,1-8.64-.447,14.434,14.434,0,0,1-6.008-7.529,16.439,16.439,0,0,1-.528-9.644,11.288,11.288,0,0,1,4.723-6.914Z" transform="translate(-599.207 -571.511)" fill="#fffae8" fill-rule="evenodd"/>
            <path id="Trazado_171601" data-name="Trazado 171601" d="M673.271,625.688a7.481,7.481,0,0,1,.67,2.562,5.643,5.643,0,0,1-.349,2.359,5.547,5.547,0,0,1-1.254,2.032,7.628,7.628,0,0,1-.659.606c.168.4.336.8.516,1.174a1.423,1.423,0,0,1-.416,1.8h0a1.2,1.2,0,0,1-1.5-.807c-.155-.364-.3-.693-.429-1.046a7.548,7.548,0,0,1-1.059.393,5.631,5.631,0,0,1-1.338.236,5.071,5.071,0,0,1-1.06.012,3.036,3.036,0,0,1-.685-.168,1.074,1.074,0,0,1-.455-.414,5.883,5.883,0,0,1-.46-.914,5.564,5.564,0,0,1-.187-.613,1.4,1.4,0,0,1-.087-.45.431.431,0,0,1,.014-.286.3.3,0,0,1,.161-.16.823.823,0,0,1,.584,0,7.343,7.343,0,0,0,.993.133,6.155,6.155,0,0,0,1.333-.033,3.953,3.953,0,0,0,1.158-.289c-.855-2.032-1.672-4.018-2.488-5.944l-.178.006a11.867,11.867,0,0,1-1.454-.022,4.427,4.427,0,0,1-1.418-.357,4.358,4.358,0,0,1-1.233-.888,5.653,5.653,0,0,1-.984-1.623,6.654,6.654,0,0,1-.4-1.881,5.644,5.644,0,0,1,.258-1.9,6.045,6.045,0,0,1,1-1.8,5.935,5.935,0,0,1,.586-.639c-.142-.329-.271-.622-.413-.951a1.29,1.29,0,0,1,.388-1.55h0a.922.922,0,0,1,1.281.529,7.213,7.213,0,0,0,.35.834,4.1,4.1,0,0,1,.622-.271,4.64,4.64,0,0,1,1.015-.3,6.1,6.1,0,0,1,.842-.112c.251.027.454.032.586.064a1.525,1.525,0,0,1,.3.109.946.946,0,0,1,.173.2c.062.057.1.163.175.256a3.471,3.471,0,0,1,.23.457c.09.188.155.364.208.505a1.248,1.248,0,0,1,.084.39.423.423,0,0,1-.164.423.9.9,0,0,1-.476.016c-.227-.016-.489-.019-.811-.02a6.012,6.012,0,0,0-1.056.131,3.328,3.328,0,0,0-.812.3c.711,1.644,1.447,3.358,2.209,5.084.178-.006.333-.023.511-.029.511-.029,1.011-.034,1.536-.028a4.863,4.863,0,0,1,1.5.307,3.861,3.861,0,0,1,1.387.871,5.739,5.739,0,0,1,1.154,1.7Zm-2.766,4.882a3.294,3.294,0,0,0,.463-.754,2.631,2.631,0,0,0,.222-1.187,3.849,3.849,0,0,0-.331-1.323,2.316,2.316,0,0,0-.821-1.021,3.213,3.213,0,0,0-1.147-.438c-.143-.007-.3-.049-.443-.056.684,1.573,1.369,3.147,2.055,4.779Zm-7.12-11.554a2.187,2.187,0,0,0-.348.631,3.74,3.74,0,0,0-.146.958,2.8,2.8,0,0,0,.235.957,1.745,1.745,0,0,0,.735.952,2.814,2.814,0,0,0,1.074.4c.024.011.06,0,.084.009q-.8-1.992-1.633-3.912Z" transform="translate(-615.347 -581.246)" fill="#43a047" fill-rule="evenodd"/>
          </g>
        </g>
      </g>
      <g id="Grupo_111302" data-name="Grupo 111302" transform="translate(0)">
        <path id="Trazado_171602" data-name="Trazado 171602" d="M270.991,122.744a83.742,83.742,0,1,1-83.742,83.742,83.742,83.742,0,0,1,83.742-83.742ZM215.67,158.807l103,103a73.033,73.033,0,0,1-103-103Zm110.642,95.359-103-103a73.032,73.032,0,0,1,103,103Z" transform="translate(-187.249 -122.744)" fill="#7b5d14" fill-rule="evenodd"/>
      </g>
    </g>
    <g id="Grupo_111304" data-name="Grupo 111304" transform="translate(261.368 237.995)">
      <path id="Trazado_171603" data-name="Trazado 171603" d="M1015.425,1052.362H1247.1a12.682,12.682,0,0,1,12.625,12.715v140.411A12.682,12.682,0,0,1,1247.1,1218.2H1015.425a12.759,12.759,0,0,1-12.715-12.716V1065.077a12.758,12.758,0,0,1,12.715-12.715Z" transform="translate(-994.774 -1052.362)" fill="#a27b1c" fill-rule="evenodd"/>
      <path id="Trazado_171604" data-name="Trazado 171604" d="M974.366,1052.362H1206.04a12.682,12.682,0,0,1,12.625,12.715v140.411a12.682,12.682,0,0,1-12.625,12.716H974.366a12.759,12.759,0,0,1-12.715-12.716V1065.077a12.758,12.758,0,0,1,12.715-12.715Z" transform="translate(-961.651 -1052.362)" fill="#7b5d14" fill-rule="evenodd"/>
      <path id="Trazado_171605" data-name="Trazado 171605" d="M1063.966,1133.813a1.468,1.468,0,0,1-1.533-1.533,1.58,1.58,0,0,1,1.533-1.533l6.132.09a1.446,1.446,0,0,1,1.443,1.533,1.52,1.52,0,0,1-1.533,1.533Zm-1.533,1.984a1.52,1.52,0,0,1,1.533-1.533,1.58,1.58,0,0,1,1.533,1.533v6.132a1.58,1.58,0,0,1-1.533,1.533,1.52,1.52,0,0,1-1.533-1.533Zm0,21.373a1.448,1.448,0,0,1,1.533-1.443,1.5,1.5,0,0,1,1.533,1.443v6.132a1.52,1.52,0,0,1-1.533,1.533,1.468,1.468,0,0,1-1.533-1.533Zm0,21.373a1.448,1.448,0,0,1,1.533-1.443,1.5,1.5,0,0,1,1.533,1.443v6.132a1.52,1.52,0,0,1-1.533,1.533,1.468,1.468,0,0,1-1.533-1.533Zm0,21.373a1.448,1.448,0,0,1,1.533-1.443,1.5,1.5,0,0,1,1.533,1.443v6.132a1.52,1.52,0,0,1-1.533,1.533,1.468,1.468,0,0,1-1.533-1.533Zm0,21.373a1.448,1.448,0,0,1,1.533-1.443,1.5,1.5,0,0,1,1.533,1.443v6.132a1.52,1.52,0,0,1-1.533,1.533,1.468,1.468,0,0,1-1.533-1.533Zm0,21.463a1.468,1.468,0,0,1,1.533-1.533,1.52,1.52,0,0,1,1.533,1.533v6.042a1.52,1.52,0,0,1-1.533,1.533,1.468,1.468,0,0,1-1.533-1.533Zm0,21.373a1.468,1.468,0,0,1,1.533-1.533,1.578,1.578,0,0,1,1.262.631h4.148a1.533,1.533,0,0,1,0,3.066h-6.944v-2.164Zm22.275,2.164a1.533,1.533,0,1,1,0-3.066h6.042a1.533,1.533,0,1,1,0,3.066Zm21.373,0a1.533,1.533,0,1,1,0-3.066h6.042a1.533,1.533,0,1,1,0,3.066Zm21.373,0a1.533,1.533,0,0,1,0-3.066h6.042a1.533,1.533,0,0,1,0,3.066Zm21.373,0a1.533,1.533,0,1,1,0-3.066h6.042a1.533,1.533,0,1,1,0,3.066Zm21.373,0a1.533,1.533,0,1,1,0-3.066h6.042a1.533,1.533,0,1,1,0,3.066Zm21.373,0a1.533,1.533,0,1,1,0-3.066h6.042a1.533,1.533,0,0,1,0,3.066Zm21.373,0a1.533,1.533,0,1,1,0-3.066h6.042a1.533,1.533,0,1,1,0,3.066Zm21.373,0a1.533,1.533,0,1,1,0-3.066h6.042a1.533,1.533,0,1,1,0,3.066Zm21.373,0a1.533,1.533,0,1,1,0-3.066h6.042a1.533,1.533,0,1,1,0,3.066Zm21.373,0a1.533,1.533,0,1,1,0-3.066h.451V1260.7a1.533,1.533,0,0,1,3.066,0v5.591h-3.517Zm3.517-20.922a1.533,1.533,0,1,1-3.066,0v-6.042a1.533,1.533,0,1,1,3.066,0Zm0-21.373a1.533,1.533,0,0,1-3.066,0v-6.042a1.533,1.533,0,0,1,3.066,0Zm0-21.373a1.533,1.533,0,1,1-3.066,0v-6.042a1.533,1.533,0,1,1,3.066,0Zm0-21.373a1.533,1.533,0,0,1-3.066,0v-6.042a1.533,1.533,0,0,1,3.066,0Zm0-21.373a1.533,1.533,0,1,1-3.066,0v-6.042a1.533,1.533,0,0,1,3.066,0Zm0-21.373a1.533,1.533,0,0,1-3.066,0v-3.246a1.559,1.559,0,0,1-1.353-1.533,1.5,1.5,0,0,1,1.533-1.443h2.886v6.222Zm-18.126-6.4a1.58,1.58,0,0,1,1.533,1.533,1.52,1.52,0,0,1-1.533,1.533h-6.132a1.533,1.533,0,0,1,0-3.066Zm-21.373-.09a1.533,1.533,0,1,1,0,3.066l-6.132-.09a1.468,1.468,0,0,1-1.533-1.533,1.58,1.58,0,0,1,1.533-1.533Zm-21.373-.18a1.58,1.58,0,0,1,1.533,1.533,1.52,1.52,0,0,1-1.533,1.533h-6.132a1.533,1.533,0,1,1,0-3.066Zm-21.373-.09a1.52,1.52,0,0,1,1.533,1.533,1.5,1.5,0,0,1-1.533,1.443H1192.2a1.52,1.52,0,0,1-1.533-1.533,1.58,1.58,0,0,1,1.533-1.533Zm-21.373-.18a1.58,1.58,0,0,1,1.533,1.533,1.663,1.663,0,0,1-1.623,1.533l-6.042-.09A1.468,1.468,0,0,1,1169.3,1133a1.445,1.445,0,0,1,1.533-1.443Zm-21.373-.18a1.58,1.58,0,0,1,1.533,1.533,1.6,1.6,0,0,1-1.623,1.533h-6.042a1.533,1.533,0,1,1,0-3.066Zm-21.373-.09a1.4,1.4,0,0,1,1.443,1.533,1.52,1.52,0,0,1-1.533,1.533l-6.042-.09a1.52,1.52,0,0,1-1.533-1.533,1.58,1.58,0,0,1,1.533-1.533Zm-21.373-.18a1.445,1.445,0,0,1,1.443,1.533,1.468,1.468,0,0,1-1.533,1.533h-6.042a1.579,1.579,0,0,1-1.533-1.533,1.52,1.52,0,0,1,1.533-1.533Zm-21.373-.09a1.4,1.4,0,0,1,1.443,1.533,1.448,1.448,0,0,1-1.533,1.443h-6.042a1.52,1.52,0,0,1-1.533-1.533,1.58,1.58,0,0,1,1.533-1.533Z" transform="translate(-1042.954 -1115.597)" fill="#f5cd6c"/>
      <path id="Trazado_171606" data-name="Trazado 171606" d="M1946.04,1369.172h67.545a8.256,8.256,0,0,1,8.206,8.3v26.874a8.237,8.237,0,0,1-8.206,8.207H1946.04a8.256,8.256,0,0,1-8.3-8.207v-26.874a8.275,8.275,0,0,1,8.3-8.3Z" transform="translate(-1749.086 -1307.94)" fill="#a27b1c"/>
      <path id="Trazado_171607" data-name="Trazado 171607" d="M2108.874,1446.413a11.092,11.092,0,1,0-11.092-11.092,11.142,11.142,0,0,0,11.092,11.092Z" transform="translate(-1878.193 -1352.355)" fill="#fffae8"/>
      <path id="Trazado_171608" data-name="Trazado 171608" d="M2044.827,1392.591h.812v2.976a.736.736,0,0,1-.812.722.664.664,0,0,1-.721-.722v-1.443h-6.854a.808.808,0,0,1-.812-.812.8.8,0,0,1,.812-.721Zm-.812,10.641a.808.808,0,0,1,.812-.812.8.8,0,0,1,.722.812v7.575a.808.808,0,0,1-.812.812.737.737,0,0,1-.722-.812Zm-.09,15.24a.808.808,0,0,1,.812-.812.8.8,0,0,1,.721.812v7.665a.8.8,0,0,1-.811.721.737.737,0,0,1-.722-.812Zm-6.854,6.854a.737.737,0,0,1,.722.812.664.664,0,0,1-.722.721h-7.665a.711.711,0,0,1-.721-.721.8.8,0,0,1,.721-.812Zm-15.24,0a.8.8,0,0,1,.721.812.711.711,0,0,1-.721.721h-7.665a.736.736,0,0,1-.812-.721.808.808,0,0,1,.812-.812Zm-15.331,0a.808.808,0,0,1,.812.812.736.736,0,0,1-.812.721h-7.575a.737.737,0,0,1-.812-.721.808.808,0,0,1,.812-.812Zm-15.24,0a.737.737,0,0,1,.721.812.664.664,0,0,1-.721.721h-7.665a.711.711,0,0,1-.722-.721.8.8,0,0,1,.722-.812Zm-13.256-.451a.8.8,0,0,1-.722.812.808.808,0,0,1-.812-.812v-7.665a.8.8,0,0,1,.812-.721.776.776,0,0,1,.722.721Zm0-15.24a.776.776,0,0,1-.722.721.8.8,0,0,1-.812-.721v-7.665a.736.736,0,0,1,.812-.721.711.711,0,0,1,.722.721Zm0-15.331a.8.8,0,0,1-.722.812.808.808,0,0,1-.812-.812v-1.8h7.3a.808.808,0,0,1,.812.812.8.8,0,0,1-.812.721H1978Zm13.437-.271a.8.8,0,0,1-.812-.721.808.808,0,0,1,.812-.812h7.575a.808.808,0,0,1,.812.812.8.8,0,0,1-.812.721Zm15.24,0a.664.664,0,0,1-.721-.721.736.736,0,0,1,.721-.812l7.665.09a.721.721,0,1,1,0,1.443Zm15.24.09a.8.8,0,0,1-.721-.812.711.711,0,0,1,.721-.721h7.666a.711.711,0,0,1,.721.721.736.736,0,0,1-.721.812Z" transform="translate(-1780.328 -1326.76)" fill="#deb247"/>
    </g>
    <g id="Grupo_111308" data-name="Grupo 111308" transform="translate(310.547 281.987)">
      <g id="Grupo_111305" data-name="Grupo 111305" transform="translate(0 86.808)">
        <path id="Trazado_171609" data-name="Trazado 171609" d="M1243.536,1859.973a84.73,84.73,0,0,1,14.634,1.2h12.8v6.56h0v.063c0,4.289-12.3,7.759-27.439,7.759s-27.439-3.469-27.439-7.759v-.063h0v-6.56h12.8a84.728,84.728,0,0,1,14.634-1.2Z" transform="translate(-1216.097 -1834.679)" fill="#fecb14" fill-rule="evenodd"/>
        <path id="Trazado_171610" data-name="Trazado 171610" d="M1362.305,1859.973a76.122,76.122,0,0,1,13.814,1.2h12.8v6.56h0v.063c0,4.226-11.859,7.632-26.619,7.759Z" transform="translate(-1334.046 -1834.679)" fill="#fe9f0e" fill-rule="evenodd"/>
        <path id="Trazado_171611" data-name="Trazado 171611" d="M1243.536,1841.348c15.139,0,27.439-3.532,27.439-7.822,0-4.352-12.3-7.822-27.439-7.822s-27.439,3.469-27.439,7.822c0,4.289,12.3,7.822,27.439,7.822Z" transform="translate(-1216.097 -1807.034)" fill="#fefe1e" fill-rule="evenodd"/>
        <path id="Trazado_171612" data-name="Trazado 171612" d="M1253.278,1844.552c13.814,0,25.1-3.091,25.1-6.812,0-3.785-11.291-6.812-25.1-6.812s-25.1,3.028-25.1,6.813c0,3.722,11.291,6.812,25.1,6.812Z" transform="translate(-1225.839 -1811.247)" fill="#fe9f0e" fill-rule="evenodd"/>
        <path id="Trazado_171613" data-name="Trazado 171613" d="M1252.584,1844.552c13.5,0,24.474-3.091,24.474-6.812,0-3.785-10.975-6.812-24.474-6.812-13.436,0-24.411,3.028-24.411,6.813,0,3.722,10.975,6.812,24.411,6.812Z" transform="translate(-1225.839 -1811.247)" fill="#fecb14" fill-rule="evenodd"/>
        <path id="Trazado_171614" data-name="Trazado 171614" d="M1316.42,1843.6c0,.379-.378.757-1.072,1.073a14.668,14.668,0,0,1-2.965.82,42.4,42.4,0,0,1-4.6.442,19.129,19.129,0,0,1-1.955.126v.5c0,.315-1.136.568-2.523.568h0c-1.388,0-2.523-.252-2.523-.568v-.442c-.883,0-1.766,0-2.649-.063-1.2-.063-2.271-.063-3.217-.189-.946-.063-1.766-.126-2.4-.189a14.124,14.124,0,0,1-1.451-.189,1.188,1.188,0,0,1-.631-.252.532.532,0,0,1-.252-.442.479.479,0,0,1,.126-.252l.189-.189c.063-.063.189-.063.316-.126h.568c.253,0,.694.063,1.325.126.568.063,1.325.126,2.145.252.883.063,1.892.189,3.091.252.883.063,1.829.126,2.839.126v-2.775l-.378-.063c-1.135-.126-2.271-.189-3.406-.315-1.072-.126-2.082-.315-2.965-.5a9.176,9.176,0,0,1-2.082-.631c-.568-.252-.82-.568-.82-.883s.315-.631.82-.883a8.507,8.507,0,0,1,2.586-.757,31.309,31.309,0,0,1,4.163-.5c.694-.063,1.388-.126,2.082-.126v-.5c0-.315,1.135-.568,2.523-.568h0c1.388,0,2.523.252,2.523.568v.442h1.766q1.514.094,2.649.189a18.365,18.365,0,0,1,2.082.126,11.225,11.225,0,0,1,1.261.189c.315.063.5.126.568.126.126.063.189.063.189.126.063.063.126.063.126.126a.478.478,0,0,1,.063.252c0,.126,0,.189-.063.252q0,.095-.189.189c-.063.063-.189.063-.315.126h-.5a7.753,7.753,0,0,1-1.072-.063c-.442-.063-1.072-.126-1.766-.252q-1.135-.095-2.649-.189c-.631-.063-1.388-.063-2.145-.063v2.586c.378.063.757.063,1.2.126,1.135.063,2.334.189,3.469.315a27.4,27.4,0,0,1,2.965.442,9.857,9.857,0,0,1,2.145.631c.5.252.82.568.82.883Zm-10.6,1.261q.946-.094,1.7-.189a11.685,11.685,0,0,0,1.577-.379q.568-.284.568-.568c0-.252-.252-.441-.82-.568a10.626,10.626,0,0,0-2.082-.442c-.315,0-.631-.063-.946-.063Zm-5.046-6.118a5.046,5.046,0,0,0-1.451.189,4.009,4.009,0,0,0-1.262.315c-.315.126-.442.316-.442.442,0,.252.252.442.82.631.568.126,1.261.252,2.145.378h.189Z" transform="translate(-1275.861 -1815.722)" fill="#fe7509" fill-rule="evenodd"/>
        <path id="Trazado_171615" data-name="Trazado 171615" d="M1243.536,1812a84.754,84.754,0,0,1,14.634,1.2h12.8v6.56h0v.063c0,4.289-12.3,7.822-27.439,7.822s-27.439-3.532-27.439-7.822v-.063h0v-6.56h12.8a84.752,84.752,0,0,1,14.634-1.2Z" transform="translate(-1216.097 -1795.976)" fill="#fecb14" fill-rule="evenodd"/>
        <path id="Trazado_171616" data-name="Trazado 171616" d="M1362.305,1812a76.144,76.144,0,0,1,13.814,1.2h12.8v6.56h0v.063c0,4.226-11.859,7.7-26.619,7.759Z" transform="translate(-1334.046 -1795.976)" fill="#fe9f0e" fill-rule="evenodd"/>
        <path id="Trazado_171617" data-name="Trazado 171617" d="M1243.536,1793.374c15.139,0,27.439-3.532,27.439-7.822s-12.3-7.822-27.439-7.822-27.439,3.532-27.439,7.822,12.3,7.822,27.439,7.822Z" transform="translate(-1216.097 -1768.332)" fill="#fefe1e" fill-rule="evenodd"/>
        <path id="Trazado_171618" data-name="Trazado 171618" d="M1253.278,1796.577c13.814,0,25.1-3.091,25.1-6.812,0-3.785-11.291-6.812-25.1-6.812s-25.1,3.028-25.1,6.813c0,3.722,11.291,6.813,25.1,6.813Z" transform="translate(-1225.839 -1772.544)" fill="#fe9f0e" fill-rule="evenodd"/>
        <path id="Trazado_171619" data-name="Trazado 171619" d="M1252.584,1796.577c13.5,0,24.474-3.091,24.474-6.812,0-3.785-10.975-6.812-24.474-6.812-13.436,0-24.411,3.028-24.411,6.813,0,3.722,10.975,6.813,24.411,6.813Z" transform="translate(-1225.839 -1772.544)" fill="#fecb14" fill-rule="evenodd"/>
        <path id="Trazado_171620" data-name="Trazado 171620" d="M1316.42,1795.629c0,.378-.378.757-1.072,1.072a14.652,14.652,0,0,1-2.965.82c-1.325.189-2.839.379-4.6.5-.631,0-1.261.063-1.955.063v.5c0,.315-1.136.568-2.523.568h0c-1.388,0-2.523-.252-2.523-.568v-.442c-.883,0-1.766,0-2.649-.063-1.2,0-2.271-.063-3.217-.126s-1.766-.189-2.4-.252a14.089,14.089,0,0,1-1.451-.189,1.186,1.186,0,0,1-.631-.252.531.531,0,0,1-.252-.442.479.479,0,0,1,.126-.252l.189-.189a.473.473,0,0,1,.316-.063,1.748,1.748,0,0,1,.568-.063c.253,0,.694.063,1.325.126.568.063,1.325.189,2.145.252.883.063,1.892.189,3.091.252.883.063,1.829.126,2.839.126v-2.776l-.378-.063c-1.135-.126-2.271-.189-3.406-.315-1.072-.126-2.082-.316-2.965-.5a6.8,6.8,0,0,1-2.082-.631c-.568-.252-.82-.568-.82-.883s.315-.631.82-.883a8.518,8.518,0,0,1,2.586-.757c1.135-.189,2.523-.378,4.163-.5.694-.063,1.388-.126,2.082-.126v-.5c0-.315,1.135-.568,2.523-.568h0c1.388,0,2.523.252,2.523.568v.441a16.487,16.487,0,0,1,1.766.063c1.009,0,1.892.063,2.649.126q1.23.095,2.082.189c.568.063,1.009.063,1.261.126.315.063.5.126.568.126.126.063.189.063.189.126.063.063.126.126.126.189a.232.232,0,0,1,.063.189c0,.126,0,.189-.063.252a.167.167,0,0,1-.189.189c-.063.063-.189.063-.315.126h-.5a7.738,7.738,0,0,1-1.072-.063c-.442-.063-1.072-.126-1.766-.252q-1.135-.094-2.649-.189c-.631,0-1.388-.063-2.145-.063v2.586c.378.063.757.063,1.2.126,1.135.063,2.334.189,3.469.315a27.4,27.4,0,0,1,2.965.441,9.848,9.848,0,0,1,2.145.631c.5.252.82.568.82.883Zm-10.6,1.261q.946-.094,1.7-.189a11.673,11.673,0,0,0,1.577-.378q.568-.284.568-.568c0-.252-.252-.442-.82-.568a11.356,11.356,0,0,0-2.082-.378,4.876,4.876,0,0,0-.946-.126Zm-5.046-6.119a9.069,9.069,0,0,0-1.451.189,4.007,4.007,0,0,0-1.262.315c-.315.189-.442.315-.442.5s.252.379.82.568c.568.126,1.261.252,2.145.379a.231.231,0,0,1,.189.063Z" transform="translate(-1275.861 -1777.021)" fill="#fe7509" fill-rule="evenodd"/>
        <path id="Trazado_171621" data-name="Trazado 171621" d="M1243.536,1763.371a84.741,84.741,0,0,1,14.634,1.2h12.8v6.56h0v.063c0,4.289-12.3,7.822-27.439,7.822s-27.439-3.532-27.439-7.822v-.063h0v-6.56h12.8a84.739,84.739,0,0,1,14.634-1.2Z" transform="translate(-1216.097 -1756.748)" fill="#fecb14" fill-rule="evenodd"/>
        <path id="Trazado_171622" data-name="Trazado 171622" d="M1362.305,1763.371a89.453,89.453,0,0,1,13.814,1.2h12.8v6.56h0v.063c0,4.226-11.859,7.7-26.619,7.822Z" transform="translate(-1334.046 -1756.748)" fill="#fe9f0e" fill-rule="evenodd"/>
        <path id="Trazado_171623" data-name="Trazado 171623" d="M1243.536,1744.746c15.139,0,27.439-3.532,27.439-7.822s-12.3-7.822-27.439-7.822-27.439,3.532-27.439,7.822,12.3,7.822,27.439,7.822Z" transform="translate(-1216.097 -1729.103)" fill="#fefe1e" fill-rule="evenodd"/>
        <path id="Trazado_171624" data-name="Trazado 171624" d="M1253.278,1747.95c13.814,0,25.1-3.028,25.1-6.812,0-3.721-11.291-6.812-25.1-6.812s-25.1,3.091-25.1,6.812c0,3.785,11.291,6.812,25.1,6.812Z" transform="translate(-1225.839 -1733.316)" fill="#fe9f0e" fill-rule="evenodd"/>
        <path id="Trazado_171625" data-name="Trazado 171625" d="M1252.584,1747.95c13.5,0,24.474-3.028,24.474-6.812,0-3.721-10.975-6.812-24.474-6.812-13.436,0-24.411,3.091-24.411,6.812,0,3.785,10.975,6.812,24.411,6.812Z" transform="translate(-1225.839 -1733.316)" fill="#fecb14" fill-rule="evenodd"/>
        <path id="Trazado_171626" data-name="Trazado 171626" d="M1316.42,1747c0,.441-.378.757-1.072,1.072a11.432,11.432,0,0,1-2.965.82c-1.325.189-2.839.379-4.6.5-.631,0-1.261.063-1.955.063v.568c0,.252-1.136.5-2.523.5h0c-1.388,0-2.523-.252-2.523-.5v-.5c-.883,0-1.766,0-2.649-.063-1.2,0-2.271-.063-3.217-.126s-1.766-.126-2.4-.189c-.694-.126-1.135-.189-1.451-.252a1.238,1.238,0,0,1-.631-.189.638.638,0,0,1-.252-.441c0-.126.063-.189.126-.316l.189-.189a2.722,2.722,0,0,1,.316-.063,1.744,1.744,0,0,1,.568-.063c.253,0,.694.063,1.325.126.568.063,1.325.189,2.145.252.883.126,1.892.189,3.091.252.883.063,1.829.126,2.839.126v-2.775l-.378-.063c-1.135-.063-2.271-.189-3.406-.315-1.072-.126-2.082-.252-2.965-.442a8.841,8.841,0,0,1-2.082-.694c-.568-.252-.82-.5-.82-.883,0-.316.315-.631.82-.883a10.8,10.8,0,0,1,2.586-.757c1.135-.189,2.523-.378,4.163-.5.694-.063,1.388-.063,2.082-.126v-.5c0-.315,1.135-.568,2.523-.568h0c1.388,0,2.523.253,2.523.568v.442a16.551,16.551,0,0,1,1.766.063c1.009,0,1.892.063,2.649.126q1.23.095,2.082.189c.568.063,1.009.126,1.261.126.315.063.5.126.568.126a.78.78,0,0,1,.189.126c.063.063.126.126.126.189.063.063.063.126.063.252a.379.379,0,0,1-.063.252c0,.063-.063.126-.189.126a.483.483,0,0,1-.315.126c-.189,0-.316.063-.5.063-.252,0-.568-.063-1.072-.126-.442-.063-1.072-.126-1.766-.189-.757-.063-1.64-.189-2.649-.252-.631,0-1.388-.063-2.145-.063v2.586c.378.063.757.063,1.2.126,1.135.126,2.334.189,3.469.315s2.145.315,2.965.441a9.841,9.841,0,0,1,2.145.631c.5.252.82.568.82.883Zm-10.6,1.262a7.042,7.042,0,0,0,1.7-.189,4.436,4.436,0,0,0,1.577-.379q.568-.189.568-.568c0-.189-.252-.378-.82-.568q-.757-.189-2.082-.378c-.315-.063-.631-.063-.946-.126Zm-5.046-6.119c-.568.063-1.009.126-1.451.189a3.759,3.759,0,0,0-1.262.378c-.315.126-.442.252-.442.442s.252.379.82.568a13.377,13.377,0,0,0,2.145.378.232.232,0,0,0,.189.063Z" transform="translate(-1275.861 -1737.791)" fill="#fe7509" fill-rule="evenodd"/>
        <path id="Trazado_171627" data-name="Trazado 171627" d="M1292.786,1753.907l1.388,4.857,4.92-.946-4.794,1.388.883,4.983-1.388-4.857-4.92.946,4.794-1.388Z" transform="translate(-1274.808 -1749.113)" fill="#fff" fill-rule="evenodd"/>
        <path id="Trazado_171628" data-name="Trazado 171628" d="M1341.086,1874.659l1.388,4.857,4.983-.946-4.857,1.388.946,4.983-1.451-4.857-4.92.946,4.857-1.388Z" transform="translate(-1313.774 -1846.526)" fill="#fff" fill-rule="evenodd"/>
      </g>
      <g id="Grupo_111306" data-name="Grupo 111306" transform="translate(56.833 58.612)">
        <path id="Trazado_171629" data-name="Trazado 171629" d="M1537.584,1859.973a84.732,84.732,0,0,1,14.634,1.2h12.8v6.56h0v.063c0,4.289-12.237,7.759-27.439,7.759-15.139,0-27.439-3.469-27.439-7.759v-.063h0v-6.56h12.8a84.729,84.729,0,0,1,14.634-1.2Z" transform="translate(-1510.145 -1806.483)" fill="#fecb14" fill-rule="evenodd"/>
        <path id="Trazado_171630" data-name="Trazado 171630" d="M1656.353,1859.973a76.124,76.124,0,0,1,13.814,1.2h12.8v6.56h0v.063c0,4.226-11.859,7.632-26.619,7.759Z" transform="translate(-1628.094 -1806.483)" fill="#fe9f0e" fill-rule="evenodd"/>
        <path id="Trazado_171631" data-name="Trazado 171631" d="M1537.584,1841.348c15.139,0,27.439-3.532,27.439-7.822,0-4.352-12.3-7.822-27.439-7.822s-27.439,3.469-27.439,7.822c0,4.289,12.3,7.822,27.439,7.822Z" transform="translate(-1510.145 -1778.838)" fill="#fefe1e" fill-rule="evenodd"/>
        <path id="Trazado_171632" data-name="Trazado 171632" d="M1547.325,1844.552c13.814,0,25.1-3.091,25.1-6.812,0-3.785-11.291-6.812-25.1-6.812s-25.105,3.028-25.105,6.813c0,3.722,11.291,6.812,25.105,6.812Z" transform="translate(-1519.886 -1783.051)" fill="#fe9f0e" fill-rule="evenodd"/>
        <path id="Trazado_171633" data-name="Trazado 171633" d="M1546.694,1844.552c13.435,0,24.411-3.091,24.411-6.812,0-3.785-10.976-6.812-24.411-6.812-13.5,0-24.474,3.028-24.474,6.813,0,3.722,10.975,6.812,24.474,6.812Z" transform="translate(-1519.886 -1783.051)" fill="#fecb14" fill-rule="evenodd"/>
        <path id="Trazado_171634" data-name="Trazado 171634" d="M1610.732,1843.6c0,.379-.378.757-1.072,1.073a14.663,14.663,0,0,1-2.965.82,42.4,42.4,0,0,1-4.6.442,19.134,19.134,0,0,1-1.955.126v.5c0,.315-1.135.568-2.523.568h0c-1.388,0-2.523-.252-2.523-.568v-.442c-.883,0-1.766,0-2.649-.063-1.2-.063-2.271-.063-3.217-.189-.946-.063-1.766-.126-2.4-.189s-1.135-.126-1.451-.189a1.188,1.188,0,0,1-.631-.252.492.492,0,0,1-.189-.442.38.38,0,0,1,.063-.252l.189-.189c.063-.063.189-.063.378-.126h.5c.252,0,.757.063,1.325.126s1.325.126,2.145.252c.883.063,1.892.189,3.091.252.883.063,1.829.126,2.839.126v-2.775l-.379-.063c-1.135-.126-2.271-.189-3.406-.315-1.072-.126-2.082-.315-2.965-.5a9.176,9.176,0,0,1-2.082-.631c-.568-.252-.82-.568-.82-.883s.315-.631.883-.883a7.512,7.512,0,0,1,2.523-.757,31.091,31.091,0,0,1,4.226-.5c.631-.063,1.325-.126,2.018-.126v-.5c0-.315,1.135-.568,2.523-.568h0c1.388,0,2.523.252,2.523.568v.442h1.766c1.009.063,1.892.126,2.712.189a18.131,18.131,0,0,1,2.019.126,11.219,11.219,0,0,1,1.262.189c.315.063.5.126.568.126.126.063.189.063.252.126,0,.063.063.063.126.126v.5a.871.871,0,0,1-.252.189c-.063.063-.189.063-.315.126h-.442a8.571,8.571,0,0,1-1.135-.063c-.442-.063-1.072-.126-1.766-.252q-1.135-.095-2.649-.189c-.631-.063-1.388-.063-2.145-.063v2.586c.378.063.82.063,1.2.126,1.135.063,2.334.189,3.469.315s2.145.252,3.028.442a9.18,9.18,0,0,1,2.082.631c.568.252.82.568.82.883Zm-10.6,1.261q.946-.094,1.7-.189a11.676,11.676,0,0,0,1.577-.379q.568-.284.568-.568c0-.252-.252-.441-.82-.568a10.626,10.626,0,0,0-2.082-.442c-.315,0-.631-.063-.946-.063Zm-5.046-6.118a5.045,5.045,0,0,0-1.451.189,4.01,4.01,0,0,0-1.262.315c-.315.126-.442.316-.442.442,0,.252.253.442.82.631.568.126,1.262.252,2.145.378h.189Z" transform="translate(-1570.173 -1787.527)" fill="#fe7509" fill-rule="evenodd"/>
        <path id="Trazado_171635" data-name="Trazado 171635" d="M1537.584,1812a84.757,84.757,0,0,1,14.634,1.2h12.8v6.56h0v.063c0,4.289-12.237,7.822-27.439,7.822-15.139,0-27.439-3.532-27.439-7.822v-.063h0v-6.56h12.8a84.753,84.753,0,0,1,14.634-1.2Z" transform="translate(-1510.145 -1767.781)" fill="#fecb14" fill-rule="evenodd"/>
        <path id="Trazado_171636" data-name="Trazado 171636" d="M1656.353,1812a76.146,76.146,0,0,1,13.814,1.2h12.8v6.56h0v.063c0,4.226-11.859,7.7-26.619,7.759Z" transform="translate(-1628.094 -1767.781)" fill="#fe9f0e" fill-rule="evenodd"/>
        <path id="Trazado_171637" data-name="Trazado 171637" d="M1537.584,1793.374c15.139,0,27.439-3.532,27.439-7.822s-12.3-7.822-27.439-7.822-27.439,3.532-27.439,7.822,12.3,7.822,27.439,7.822Z" transform="translate(-1510.145 -1740.137)" fill="#fefe1e" fill-rule="evenodd"/>
        <path id="Trazado_171638" data-name="Trazado 171638" d="M1547.325,1796.577c13.814,0,25.1-3.091,25.1-6.812,0-3.785-11.291-6.812-25.1-6.812s-25.105,3.028-25.105,6.813c0,3.722,11.291,6.813,25.105,6.813Z" transform="translate(-1519.886 -1744.349)" fill="#fe9f0e" fill-rule="evenodd"/>
        <path id="Trazado_171639" data-name="Trazado 171639" d="M1546.694,1796.577c13.435,0,24.411-3.091,24.411-6.812,0-3.785-10.976-6.812-24.411-6.812-13.5,0-24.474,3.028-24.474,6.813,0,3.722,10.975,6.813,24.474,6.813Z" transform="translate(-1519.886 -1744.349)" fill="#fecb14" fill-rule="evenodd"/>
        <path id="Trazado_171640" data-name="Trazado 171640" d="M1610.732,1795.629c0,.378-.378.757-1.072,1.072a14.647,14.647,0,0,1-2.965.82c-1.325.189-2.839.379-4.6.5-.631,0-1.262.063-1.955.063v.5c0,.315-1.135.568-2.523.568h0c-1.388,0-2.523-.252-2.523-.568v-.442c-.883,0-1.766,0-2.649-.063-1.2,0-2.271-.063-3.217-.126s-1.766-.189-2.4-.252-1.135-.126-1.451-.189a1.186,1.186,0,0,1-.631-.252.491.491,0,0,1-.189-.442.38.38,0,0,1,.063-.252l.189-.189c.063-.063.189-.063.378-.063a1.231,1.231,0,0,1,.5-.063c.252,0,.757.063,1.325.126s1.325.189,2.145.252c.883.063,1.892.189,3.091.252.883.063,1.829.126,2.839.126v-2.776l-.379-.063c-1.135-.126-2.271-.189-3.406-.315-1.072-.126-2.082-.316-2.965-.5a6.8,6.8,0,0,1-2.082-.631c-.568-.252-.82-.568-.82-.883s.315-.631.883-.883a7.521,7.521,0,0,1,2.523-.757c1.135-.189,2.523-.378,4.226-.5.631-.063,1.325-.126,2.018-.126v-.5c0-.315,1.135-.568,2.523-.568h0c1.388,0,2.523.252,2.523.568v.441a16.486,16.486,0,0,1,1.766.063c1.009,0,1.892.063,2.712.126.757.063,1.451.126,2.019.189s1.009.063,1.262.126c.315.063.5.126.568.126.126.063.189.063.252.126,0,.063.063.126.126.189v.441c-.063.126-.126.189-.252.189-.063.063-.189.063-.315.126h-.442a8.555,8.555,0,0,1-1.135-.063c-.442-.063-1.072-.126-1.766-.252q-1.135-.094-2.649-.189c-.631,0-1.388-.063-2.145-.063v2.586c.378.063.82.063,1.2.126,1.135.063,2.334.189,3.469.315s2.145.252,3.028.441a9.171,9.171,0,0,1,2.082.631c.568.252.82.568.82.883Zm-10.6,1.261q.946-.094,1.7-.189a11.663,11.663,0,0,0,1.577-.378q.568-.284.568-.568c0-.252-.252-.442-.82-.568a11.356,11.356,0,0,0-2.082-.378,4.874,4.874,0,0,0-.946-.126Zm-5.046-6.119a9.066,9.066,0,0,0-1.451.189,4.009,4.009,0,0,0-1.262.315c-.315.189-.442.315-.442.5s.253.379.82.568c.568.126,1.262.252,2.145.379a.232.232,0,0,1,.189.063Z" transform="translate(-1570.173 -1748.825)" fill="#fe7509" fill-rule="evenodd"/>
        <path id="Trazado_171641" data-name="Trazado 171641" d="M1537.584,1763.371a84.744,84.744,0,0,1,14.634,1.2h12.8v6.56h0v.063c0,4.289-12.237,7.822-27.439,7.822-15.139,0-27.439-3.532-27.439-7.822v-.063h0v-6.56h12.8a84.74,84.74,0,0,1,14.634-1.2Z" transform="translate(-1510.145 -1728.552)" fill="#fecb14" fill-rule="evenodd"/>
        <path id="Trazado_171642" data-name="Trazado 171642" d="M1656.353,1763.371a89.456,89.456,0,0,1,13.814,1.2h12.8v6.56h0v.063c0,4.226-11.859,7.7-26.619,7.822Z" transform="translate(-1628.094 -1728.552)" fill="#fe9f0e" fill-rule="evenodd"/>
        <path id="Trazado_171643" data-name="Trazado 171643" d="M1537.584,1744.746c15.139,0,27.439-3.532,27.439-7.822s-12.3-7.822-27.439-7.822-27.439,3.532-27.439,7.822,12.3,7.822,27.439,7.822Z" transform="translate(-1510.145 -1700.907)" fill="#fefe1e" fill-rule="evenodd"/>
        <path id="Trazado_171644" data-name="Trazado 171644" d="M1547.325,1747.95c13.814,0,25.1-3.028,25.1-6.812,0-3.721-11.291-6.812-25.1-6.812s-25.105,3.091-25.105,6.812c0,3.785,11.291,6.812,25.105,6.812Z" transform="translate(-1519.886 -1705.12)" fill="#fe9f0e" fill-rule="evenodd"/>
        <path id="Trazado_171645" data-name="Trazado 171645" d="M1546.694,1747.95c13.435,0,24.411-3.028,24.411-6.812,0-3.721-10.976-6.812-24.411-6.812-13.5,0-24.474,3.091-24.474,6.812,0,3.785,10.975,6.812,24.474,6.812Z" transform="translate(-1519.886 -1705.12)" fill="#fecb14" fill-rule="evenodd"/>
        <path id="Trazado_171646" data-name="Trazado 171646" d="M1610.732,1747c0,.441-.378.757-1.072,1.072a11.429,11.429,0,0,1-2.965.82c-1.325.189-2.839.379-4.6.5-.631,0-1.262.063-1.955.063v.568c0,.252-1.135.5-2.523.5h0c-1.388,0-2.523-.252-2.523-.5v-.5c-.883,0-1.766,0-2.649-.063-1.2,0-2.271-.063-3.217-.126s-1.766-.126-2.4-.189c-.631-.126-1.135-.189-1.451-.252a1.238,1.238,0,0,1-.631-.189.678.678,0,0,1-.126-.757l.189-.189a2.225,2.225,0,0,1,.378-.063,1.229,1.229,0,0,1,.5-.063c.252,0,.757.063,1.325.126s1.325.189,2.145.252c.883.126,1.892.189,3.091.252.883.063,1.829.126,2.839.126v-2.775l-.379-.063c-1.135-.063-2.271-.189-3.406-.315-1.072-.126-2.082-.252-2.965-.442a8.84,8.84,0,0,1-2.082-.694c-.568-.252-.82-.5-.82-.883,0-.316.315-.631.883-.883a9.345,9.345,0,0,1,2.523-.757c1.135-.189,2.523-.378,4.226-.5.631-.063,1.325-.063,2.018-.126v-.5c0-.315,1.135-.568,2.523-.568h0c1.388,0,2.523.253,2.523.568v.442a16.55,16.55,0,0,1,1.766.063c1.009,0,1.892.063,2.712.126.757.063,1.451.126,2.019.189s1.009.126,1.262.126c.315.063.5.126.568.126.126.063.189.126.252.126,0,.063.063.126.126.189v.5a.327.327,0,0,1-.252.126.482.482,0,0,1-.315.126c-.189,0-.316.063-.442.063-.252,0-.631-.063-1.135-.126-.442-.063-1.072-.126-1.766-.189-.757-.063-1.64-.189-2.649-.252-.631,0-1.388-.063-2.145-.063v2.586c.378.063.82.063,1.2.126,1.135.126,2.334.189,3.469.315s2.145.315,3.028.441a9.166,9.166,0,0,1,2.082.631c.568.252.82.568.82.883Zm-10.6,1.262a7.042,7.042,0,0,0,1.7-.189,4.434,4.434,0,0,0,1.577-.379q.568-.189.568-.568c0-.189-.252-.378-.82-.568q-.757-.189-2.082-.378c-.315-.063-.631-.063-.946-.126Zm-5.046-6.119c-.568.063-1.009.126-1.451.189a3.761,3.761,0,0,0-1.262.378c-.315.126-.442.252-.442.442s.253.379.82.568a13.382,13.382,0,0,0,2.145.378.232.232,0,0,0,.189.063Z" transform="translate(-1570.173 -1709.596)" fill="#fe7509" fill-rule="evenodd"/>
        <path id="Trazado_171647" data-name="Trazado 171647" d="M1635.134,1874.659l1.388,4.857,4.983-.946-4.857,1.388.946,4.983-1.388-4.857-4.983.946,4.857-1.388Z" transform="translate(-1607.822 -1818.33)" fill="#fff" fill-rule="evenodd"/>
        <path id="Trazado_171648" data-name="Trazado 171648" d="M1537.584,1714.091a84.744,84.744,0,0,1,14.634,1.2h12.8v6.56h0v.063c0,4.289-12.237,7.822-27.439,7.822-15.139,0-27.439-3.532-27.439-7.822v-.063h0v-6.56h12.8a84.74,84.74,0,0,1,14.634-1.2Z" transform="translate(-1510.145 -1688.797)" fill="#fecb14" fill-rule="evenodd"/>
        <path id="Trazado_171649" data-name="Trazado 171649" d="M1656.353,1714.091a82.257,82.257,0,0,1,13.814,1.2h12.8v6.56h0v.063c0,4.226-11.859,7.7-26.619,7.822Z" transform="translate(-1628.094 -1688.797)" fill="#fe9f0e" fill-rule="evenodd"/>
        <path id="Trazado_171650" data-name="Trazado 171650" d="M1537.584,1695.467c15.139,0,27.439-3.532,27.439-7.822s-12.3-7.822-27.439-7.822-27.439,3.532-27.439,7.822,12.3,7.822,27.439,7.822Z" transform="translate(-1510.145 -1661.153)" fill="#fefe1e" fill-rule="evenodd"/>
        <path id="Trazado_171651" data-name="Trazado 171651" d="M1547.325,1698.67c13.814,0,25.1-3.091,25.1-6.812s-11.291-6.812-25.1-6.812-25.105,3.091-25.105,6.813,11.291,6.812,25.105,6.812Z" transform="translate(-1519.886 -1665.365)" fill="#fe9f0e" fill-rule="evenodd"/>
        <path id="Trazado_171652" data-name="Trazado 171652" d="M1546.694,1698.67c13.435,0,24.411-3.091,24.411-6.812s-10.976-6.812-24.411-6.812c-13.5,0-24.474,3.091-24.474,6.813s10.975,6.812,24.474,6.812Z" transform="translate(-1519.886 -1665.365)" fill="#fecb14" fill-rule="evenodd"/>
        <path id="Trazado_171653" data-name="Trazado 171653" d="M1610.732,1697.721c0,.441-.378.757-1.072,1.072a11.428,11.428,0,0,1-2.965.82c-1.325.189-2.839.378-4.6.5-.631,0-1.262.063-1.955.063v.5c0,.315-1.135.568-2.523.568h0c-1.388,0-2.523-.252-2.523-.568v-.441c-.883,0-1.766,0-2.649-.063-1.2,0-2.271-.063-3.217-.126a20.032,20.032,0,0,1-2.4-.252c-.631-.063-1.135-.126-1.451-.189a1.185,1.185,0,0,1-.631-.252.381.381,0,0,1-.189-.378.473.473,0,0,1,.063-.315l.189-.189a2.229,2.229,0,0,1,.378-.063,1.227,1.227,0,0,1,.5-.063c.252,0,.757.063,1.325.126s1.325.189,2.145.252c.883.126,1.892.189,3.091.252.883.063,1.829.126,2.839.126v-2.776l-.379-.063c-1.135-.063-2.271-.189-3.406-.315-1.072-.126-2.082-.315-2.965-.442a8.853,8.853,0,0,1-2.082-.694c-.568-.252-.82-.5-.82-.883,0-.315.315-.631.883-.883a7.51,7.51,0,0,1,2.523-.757c1.135-.189,2.523-.378,4.226-.5.631-.063,1.325-.126,2.018-.126v-.5c0-.315,1.135-.568,2.523-.568h0c1.388,0,2.523.252,2.523.568v.441a16.55,16.55,0,0,1,1.766.063c1.009,0,1.892.063,2.712.126.757.063,1.451.126,2.019.189s1.009.126,1.262.126c.315.063.5.126.568.126.126.063.189.126.252.126,0,.063.063.126.126.189v.5a.327.327,0,0,1-.252.126.482.482,0,0,1-.315.126h-.442a8.555,8.555,0,0,1-1.135-.063c-.442-.063-1.072-.126-1.766-.189-.757-.126-1.64-.189-2.649-.252-.631,0-1.388-.063-2.145-.063v2.586c.378.063.82.063,1.2.126,1.135.063,2.334.189,3.469.315s2.145.315,3.028.441a9.171,9.171,0,0,1,2.082.631c.568.252.82.568.82.883Zm-10.6,1.261q.946-.094,1.7-.189a6.419,6.419,0,0,0,1.577-.378q.568-.284.568-.568c0-.252-.252-.442-.82-.568q-.757-.189-2.082-.378a4.875,4.875,0,0,0-.946-.126Zm-5.046-6.119c-.568.063-1.009.126-1.451.189a2.715,2.715,0,0,0-1.262.378c-.315.126-.442.252-.442.442s.253.379.82.568c.568.126,1.262.252,2.145.379.063,0,.126.063.189.063Z" transform="translate(-1570.173 -1669.841)" fill="#fe7509" fill-rule="evenodd"/>
        <path id="Trazado_171654" data-name="Trazado 171654" d="M1537.584,1666.117a84.758,84.758,0,0,1,14.634,1.2h12.8v6.56h0v.063c0,4.289-12.237,7.822-27.439,7.822-15.139,0-27.439-3.532-27.439-7.822v-.063h0v-6.56h12.8a84.755,84.755,0,0,1,14.634-1.2Z" transform="translate(-1510.145 -1650.095)" fill="#fecb14" fill-rule="evenodd"/>
        <path id="Trazado_171655" data-name="Trazado 171655" d="M1656.353,1666.117a89.444,89.444,0,0,1,13.814,1.2h12.8v6.56h0v.063c0,4.226-11.859,7.7-26.619,7.822Z" transform="translate(-1628.094 -1650.095)" fill="#fe9f0e" fill-rule="evenodd"/>
        <path id="Trazado_171656" data-name="Trazado 171656" d="M1537.584,1647.492c15.139,0,27.439-3.532,27.439-7.822s-12.3-7.822-27.439-7.822-27.439,3.532-27.439,7.822,12.3,7.822,27.439,7.822Z" transform="translate(-1510.145 -1622.45)" fill="#fefe1e" fill-rule="evenodd"/>
        <path id="Trazado_171657" data-name="Trazado 171657" d="M1547.325,1650.7c13.814,0,25.1-3.028,25.1-6.812,0-3.721-11.291-6.812-25.1-6.812s-25.105,3.091-25.105,6.812c0,3.785,11.291,6.813,25.105,6.813Z" transform="translate(-1519.886 -1626.663)" fill="#fe9f0e" fill-rule="evenodd"/>
        <path id="Trazado_171658" data-name="Trazado 171658" d="M1546.694,1650.7c13.435,0,24.411-3.028,24.411-6.812,0-3.721-10.976-6.812-24.411-6.812-13.5,0-24.474,3.091-24.474,6.812,0,3.785,10.975,6.813,24.474,6.813Z" transform="translate(-1519.886 -1626.663)" fill="#fecb14" fill-rule="evenodd"/>
        <path id="Trazado_171659" data-name="Trazado 171659" d="M1610.732,1649.747c0,.442-.378.757-1.072,1.072a11.433,11.433,0,0,1-2.965.82c-1.325.189-2.839.378-4.6.5-.631,0-1.262.063-1.955.063v.568c0,.252-1.135.5-2.523.5h0c-1.388,0-2.523-.252-2.523-.5v-.5c-.883,0-1.766,0-2.649-.063-1.2,0-2.271-.063-3.217-.126s-1.766-.126-2.4-.189c-.631-.126-1.135-.189-1.451-.252a1.238,1.238,0,0,1-.631-.189.677.677,0,0,1-.126-.757l.189-.189a2.225,2.225,0,0,1,.378-.063,1.229,1.229,0,0,1,.5-.063c.252,0,.757.063,1.325.126s1.325.189,2.145.252c.883.126,1.892.189,3.091.252.883.063,1.829.126,2.839.126v-2.776l-.379-.063c-1.135-.063-2.271-.189-3.406-.316-1.072-.126-2.082-.252-2.965-.441a8.852,8.852,0,0,1-2.082-.694c-.568-.252-.82-.5-.82-.883,0-.315.315-.631.883-.883a9.344,9.344,0,0,1,2.523-.757c1.135-.189,2.523-.379,4.226-.5.631-.063,1.325-.063,2.018-.126v-.5c0-.315,1.135-.568,2.523-.568h0c1.388,0,2.523.252,2.523.568v.442a16.55,16.55,0,0,1,1.766.063c1.009,0,1.892.063,2.712.126.757.063,1.451.126,2.019.189s1.009.126,1.262.126c.315.063.5.126.568.126.126.063.189.126.252.126,0,.063.063.126.126.189v.5a.328.328,0,0,1-.252.126.482.482,0,0,1-.315.126c-.189,0-.316.063-.442.063-.252,0-.631-.063-1.135-.126-.442-.063-1.072-.126-1.766-.189-.757-.063-1.64-.189-2.649-.252-.631,0-1.388-.063-2.145-.063v2.586c.378.063.82.063,1.2.126,1.135.126,2.334.189,3.469.316s2.145.315,3.028.442a14.158,14.158,0,0,1,2.082.631c.568.252.82.568.82.883Zm-10.6,1.261a7.03,7.03,0,0,0,1.7-.189,4.435,4.435,0,0,0,1.577-.378q.568-.19.568-.568c0-.189-.252-.378-.82-.568q-.757-.189-2.082-.378c-.315-.063-.631-.063-.946-.126Zm-5.046-6.118c-.568.063-1.009.126-1.451.189a3.761,3.761,0,0,0-1.262.378c-.315.126-.442.252-.442.441s.253.379.82.568a13.437,13.437,0,0,0,2.145.378.232.232,0,0,0,.189.063Z" transform="translate(-1570.173 -1631.139)" fill="#fe7509" fill-rule="evenodd"/>
        <path id="Trazado_171660" data-name="Trazado 171660" d="M1537.584,1617.489a84.757,84.757,0,0,1,14.634,1.2h12.8v6.623h0c0,4.352-12.237,7.822-27.439,7.822-15.139,0-27.439-3.469-27.439-7.822h0v-6.623h12.8a84.753,84.753,0,0,1,14.634-1.2Z" transform="translate(-1510.145 -1610.866)" fill="#fecb14" fill-rule="evenodd"/>
        <path id="Trazado_171661" data-name="Trazado 171661" d="M1656.353,1617.489a89.472,89.472,0,0,1,13.814,1.2h12.8v6.623h0c0,4.226-11.859,7.7-26.619,7.822Z" transform="translate(-1628.094 -1610.866)" fill="#fe9f0e" fill-rule="evenodd"/>
        <path id="Trazado_171662" data-name="Trazado 171662" d="M1537.584,1598.865c15.139,0,27.439-3.469,27.439-7.822,0-4.289-12.3-7.822-27.439-7.822s-27.439,3.532-27.439,7.822c0,4.352,12.3,7.822,27.439,7.822Z" transform="translate(-1510.145 -1583.222)" fill="#fefe1e" fill-rule="evenodd"/>
        <path id="Trazado_171663" data-name="Trazado 171663" d="M1547.325,1602.068c13.814,0,25.1-3.028,25.1-6.812,0-3.722-11.291-6.812-25.1-6.812s-25.105,3.091-25.105,6.813c0,3.785,11.291,6.813,25.105,6.813Z" transform="translate(-1519.886 -1587.434)" fill="#fe9f0e" fill-rule="evenodd"/>
        <path id="Trazado_171664" data-name="Trazado 171664" d="M1546.694,1602.068c13.435,0,24.411-3.028,24.411-6.812,0-3.722-10.976-6.812-24.411-6.812-13.5,0-24.474,3.091-24.474,6.813,0,3.785,10.975,6.813,24.474,6.813Z" transform="translate(-1519.886 -1587.434)" fill="#fecb14" fill-rule="evenodd"/>
        <path id="Trazado_171665" data-name="Trazado 171665" d="M1610.732,1601.183c0,.379-.378.757-1.072,1.072a11.735,11.735,0,0,1-2.965.757,41.109,41.109,0,0,1-4.6.5c-.631.063-1.262.063-1.955.126v.5c0,.315-1.135.568-2.523.568h0c-1.388,0-2.523-.252-2.523-.568v-.441c-.883,0-1.766-.063-2.649-.063q-1.8-.094-3.217-.189c-.946-.063-1.766-.126-2.4-.189s-1.135-.126-1.451-.189a1.186,1.186,0,0,1-.631-.252.573.573,0,0,1-.189-.442c0-.126,0-.189.063-.252q.094-.189.189-.189a.533.533,0,0,1,.378-.126h.5a11.824,11.824,0,0,1,1.325.063c.568.126,1.325.189,2.145.315.883.063,1.892.126,3.091.253.883.063,1.829.063,2.839.063v-2.776h-.379l-3.406-.378c-1.072-.126-2.082-.252-2.965-.442a9.177,9.177,0,0,1-2.082-.631c-.568-.252-.82-.568-.82-.946,0-.315.315-.568.883-.883a12.42,12.42,0,0,1,2.523-.757c1.135-.189,2.523-.378,4.226-.5.631-.063,1.325-.063,2.018-.126v-.5c0-.315,1.135-.568,2.523-.568h0c1.388,0,2.523.252,2.523.568V1595c.568,0,1.2.063,1.766.063,1.009.063,1.892.063,2.712.126.757.063,1.451.126,2.019.189a11.184,11.184,0,0,1,1.262.189c.315.063.5.063.568.126a.327.327,0,0,1,.252.126l.126.126v.5a.876.876,0,0,1-.252.189.473.473,0,0,1-.315.063,1.234,1.234,0,0,1-.442.063c-.252,0-.631-.063-1.135-.126-.442-.063-1.072-.126-1.766-.189q-1.135-.095-2.649-.189c-.631-.063-1.388-.063-2.145-.126v2.649c.378,0,.82.063,1.2.063,1.135.126,2.334.252,3.469.378s2.145.252,3.028.442a6.8,6.8,0,0,1,2.082.631c.568.252.82.5.82.883Zm-10.6,1.262q.946-.095,1.7-.189a6.042,6.042,0,0,0,1.577-.442q.568-.189.568-.568c0-.189-.252-.379-.82-.568q-.757-.189-2.082-.378c-.315-.063-.631-.063-.946-.126Zm-5.046-6.182c-.568.063-1.009.126-1.451.189a6.2,6.2,0,0,0-1.262.378c-.315.126-.442.315-.442.441,0,.252.253.442.82.568a12.635,12.635,0,0,0,2.145.442h.189Z" transform="translate(-1570.173 -1591.91)" fill="#fe7509" fill-rule="evenodd"/>
        <path id="Trazado_171666" data-name="Trazado 171666" d="M1698.184,1699.4l1.388,4.857,4.92-.946-4.857,1.388.946,4.983-1.388-4.857-4.983.946,4.857-1.388Z" transform="translate(-1658.635 -1676.949)" fill="#fff" fill-rule="evenodd"/>
        <path id="Trazado_171667" data-name="Trazado 171667" d="M1721.619,1595.624l1.388,4.857,4.983-.946-4.857,1.451.946,4.92-1.388-4.857-4.983.946,4.857-1.388Z" transform="translate(-1677.591 -1593.227)" fill="#fff" fill-rule="evenodd"/>
      </g>
      <g id="Grupo_111307" data-name="Grupo 111307" transform="translate(51.829)">
        <path id="Trazado_171668" data-name="Trazado 171668" d="M1513.607,1280.045a31.553,31.553,0,1,1-29.268,33.684,31.641,31.641,0,0,1,29.268-33.684Z" transform="translate(-1484.255 -1279.969)" fill="#fefe1e" fill-rule="evenodd"/>
        <path id="Trazado_171669" data-name="Trazado 171669" d="M1522.729,1291.154a29.4,29.4,0,1,1-27.25,31.412,29.441,29.441,0,0,1,27.25-31.412Z" transform="translate(-1493.251 -1288.933)" fill="#fe9f0e" fill-rule="evenodd"/>
        <path id="Trazado_171670" data-name="Trazado 171670" d="M1527.091,1301.293a28.423,28.423,0,1,1-26.366,30.34,28.445,28.445,0,0,1,26.366-30.34Z" transform="translate(-1497.487 -1297.117)" fill="#fecb14" fill-rule="evenodd"/>
        <path id="Trazado_171671" data-name="Trazado 171671" d="M1623.8,1381.11a9.518,9.518,0,0,1-.631,4.1,8.588,8.588,0,0,1-2.271,3.154,12.068,12.068,0,0,1-3.659,2.082,15.707,15.707,0,0,1-1.64.442l.126,1.956a2.012,2.012,0,0,1-1.892,2.208h0a2.163,2.163,0,0,1-2.271-1.955l-.126-1.64c-.757,0-1.514,0-2.208-.063a27.221,27.221,0,0,1-2.712-.441,10.948,10.948,0,0,1-2.018-.631,7.619,7.619,0,0,1-1.262-.631,1.881,1.881,0,0,1-.631-.883,4.815,4.815,0,0,1-.252-1.577,3.037,3.037,0,0,1,0-1.072c0-.252.063-.5.063-.694a.645.645,0,0,1,.316-.378.893.893,0,0,1,.378-.126,1.921,1.921,0,0,1,1.135.315,13.554,13.554,0,0,0,1.892.883c.757.252,1.64.5,2.586.757a10.165,10.165,0,0,0,2.46.252l-.757-10.344-.315-.126a22.775,22.775,0,0,1-2.9-1.072,9.616,9.616,0,0,1-2.586-1.514,7.869,7.869,0,0,1-1.955-2.334,8.054,8.054,0,0,1-.883-3.28,8.579,8.579,0,0,1,.441-3.343,8.14,8.14,0,0,1,1.955-2.9,11.85,11.85,0,0,1,3.343-2.208c.568-.189,1.072-.378,1.7-.568l-.126-1.892a2.062,2.062,0,0,1,1.955-2.208h0a2.013,2.013,0,0,1,2.208,1.893l.126,1.7a12.17,12.17,0,0,1,1.514.063,11.509,11.509,0,0,1,2.208.378,9.967,9.967,0,0,1,1.766.5c.442.252.82.378,1.072.568a1.875,1.875,0,0,1,.5.442,1.017,1.017,0,0,1,.252.442,3.216,3.216,0,0,0,.126.568c.063.252.063.5.126.883v.946a2.26,2.26,0,0,1-.126.694.578.578,0,0,1-.252.378.9.9,0,0,1-.378.126,1.994,1.994,0,0,1-.946-.315c-.378-.189-.883-.378-1.514-.631a16.612,16.612,0,0,0-2.271-.631,7.747,7.747,0,0,0-1.829-.189l.694,9.651a8.969,8.969,0,0,0,1.009.315c1.009.315,2.019.694,2.965,1.072a10.622,10.622,0,0,1,2.649,1.451,7.464,7.464,0,0,1,2.839,5.425Zm-8.516,5.3a4.163,4.163,0,0,0,1.388-.757,3.644,3.644,0,0,0,1.2-1.577,3.964,3.964,0,0,0,.315-2.145,3.092,3.092,0,0,0-.82-2.019,6.071,6.071,0,0,0-1.829-1.387c-.252-.126-.5-.252-.82-.379Zm-5.74-22.456a3.88,3.88,0,0,0-1.2.757,3.414,3.414,0,0,0-.946,1.388,5.31,5.31,0,0,0-.252,1.7,3.473,3.473,0,0,0,.82,2.082,6.135,6.135,0,0,0,1.892,1.388c.063.063.126.063.189.126Z" transform="translate(-1579.058 -1340.79)" fill="#fe7509" fill-rule="evenodd"/>
        <path id="Trazado_171672" data-name="Trazado 171672" d="M1590.956,1354.772l-.378,5.929,5.8,1.451-5.929-.379-1.451,5.8.378-5.929-5.8-1.451,5.929.379Z" transform="translate(-1564.379 -1340.314)" fill="#fff" fill-rule="evenodd"/>
      </g>
    </g>
    <g id="Grupo_111326" data-name="Grupo 111326" transform="translate(399.516 42.886)">
      <path id="Trazado_171673" data-name="Trazado 171673" d="M1805.517,112.879a5.2,5.2,0,0,1,8.159,3.836l2.8,33.22,2.807,33.239a5.2,5.2,0,0,1-7.4,5.149L1781.7,174.139l-30.173-14.178a5.2,5.2,0,0,1-.76-8.983l27.38-19.055Z" transform="translate(-1734.593 -98.594)" fill="#fecb15" fill-rule="evenodd"/>
      <g id="Grupo_111309" data-name="Grupo 111309" transform="translate(19.468 18.631)">
        <path id="Trazado_171674" data-name="Trazado 171674" d="M1828.861,144.015a5.2,5.2,0,0,1,8.124,3.817l2.548,27.666,2.518,27.435a5.2,5.2,0,0,1-7.4,5.186L1809.3,196.206l-25.362-11.917a5.2,5.2,0,0,1-.728-9l22.729-15.57Z" transform="translate(-1780.213 -142.36)" fill="#fecb15" fill-rule="evenodd"/>
        <path id="Trazado_171675" data-name="Trazado 171675" d="M1831.913,205.966a6.2,6.2,0,0,1-.645-.26l-25.351-11.913-25.362-11.917a5.941,5.941,0,0,1-.831-10.278l45.648-31.27.416.607-.416-.607a5.941,5.941,0,0,1,9.273,4.356l2.548,27.666,2.518,27.435a5.942,5.942,0,0,1-7.8,6.179Zm-1.767-64.975a4.421,4.421,0,0,0-3.943.552l-45.648,31.27a4.469,4.469,0,0,0,.625,7.731l25.362,11.917,25.351,11.913a4.469,4.469,0,0,0,6.351-4.453l-2.518-27.435-2.548-27.666a4.429,4.429,0,0,0-2.55-3.635A4.592,4.592,0,0,0,1830.146,140.991Z" transform="translate(-1777.139 -139.281)" fill="#7b5d14"/>
      </g>
      <path id="Trazado_171676" data-name="Trazado 171676" d="M1936.384,373.263l-.062-.021a2.135,2.135,0,0,0-2.842,1.042h0a2.13,2.13,0,0,0,1.033,2.825l.071.038a2.143,2.143,0,0,0,2.842-1.042h0a2.15,2.15,0,0,0-1.042-2.842Z" transform="translate(-1883.635 -309.229)" fill="#7b5d14" fill-rule="evenodd"/>
      <path id="Trazado_171677" data-name="Trazado 171677" d="M1967.744,192.295l-14.623,26.376-.669,1.443a1.7,1.7,0,0,1-2.241.828h0a1.7,1.7,0,0,1-.828-2.241l.673-1.455,10.7-28.189.012,0a2.5,2.5,0,0,1,.114-.3h0a3.285,3.285,0,0,1,4.336-1.594l1.081.5a3.275,3.275,0,0,1,1.581,4.332h0a2.621,2.621,0,0,1-.151.283Z" transform="translate(-1896.503 -159.045)" fill="#7b5d14" fill-rule="evenodd"/>
      <g id="Grupo_111325" data-name="Grupo 111325" transform="translate(0 0)">
        <g id="Grupo_111314" data-name="Grupo 111314" transform="translate(0 48.432)">
          <g id="Grupo_111311" data-name="Grupo 111311">
            <g id="Grupo_111310" data-name="Grupo 111310">
              <path id="Trazado_171678" data-name="Trazado 171678" d="M1685.525,312.571a13.232,13.232,0,0,1-2.354-1.06,13.448,13.448,0,0,1-5.268-17.8.442.442,0,0,1,.787.4,12.54,12.54,0,0,0,8.39,17.978.442.442,0,1,1-.2.862A13.872,13.872,0,0,1,1685.525,312.571Z" transform="translate(-1676.414 -293.469)" fill="#7b5d14"/>
            </g>
          </g>
          <g id="Grupo_111313" data-name="Grupo 111313" transform="translate(5.449 3.354)">
            <g id="Grupo_111312" data-name="Grupo 111312">
              <path id="Trazado_171679" data-name="Trazado 171679" d="M1710.152,322.47a7.656,7.656,0,0,1-1.46-.664,8.1,8.1,0,0,1-3.188-10.742.442.442,0,0,1,.787.4,7.215,7.215,0,0,0,2.844,9.572l.007,0a7.251,7.251,0,0,0,1.988.789.442.442,0,0,1-.21.859Q1710.523,322.6,1710.152,322.47Z" transform="translate(-1704.604 -310.823)" fill="#7b5d14"/>
            </g>
          </g>
        </g>
        <g id="Grupo_111319" data-name="Grupo 111319" transform="translate(76.2 91.293)">
          <g id="Grupo_111316" data-name="Grupo 111316" transform="translate(0 1.604)">
            <g id="Grupo_111315" data-name="Grupo 111315">
              <path id="Trazado_171680" data-name="Trazado 171680" d="M2074.733,531.59q-.209-.071-.417-.149a13.112,13.112,0,0,1-3.479-1.926.442.442,0,1,1,.543-.7,12.238,12.238,0,0,0,3.245,1.795,12.531,12.531,0,0,0,15.944-6.82.442.442,0,1,1,.813.348A13.413,13.413,0,0,1,2074.733,531.59Z" transform="translate(-2070.666 -523.524)" fill="#7b5d14"/>
            </g>
          </g>
          <g id="Grupo_111318" data-name="Grupo 111318" transform="translate(2.445)">
            <g id="Grupo_111317" data-name="Grupo 111317">
              <path id="Trazado_171681" data-name="Trazado 171681" d="M2085.847,520.344c-.084-.028-.167-.058-.251-.089a8.1,8.1,0,0,1-2.106-1.169.442.442,0,1,1,.541-.7,7.231,7.231,0,0,0,11.056-2.893.442.442,0,1,1,.813.347A8.1,8.1,0,0,1,2085.847,520.344Z" transform="translate(-2083.318 -515.224)" fill="#7b5d14"/>
            </g>
          </g>
        </g>
        <g id="Grupo_111324" data-name="Grupo 111324" transform="translate(69.487)">
          <g id="Grupo_111321" data-name="Grupo 111321">
            <g id="Grupo_111320" data-name="Grupo 111320">
              <path id="Trazado_171682" data-name="Trazado 171682" d="M2054.448,54.413a.443.443,0,0,1-.294-.341,12.541,12.541,0,0,0-17.6-9.147.442.442,0,1,1-.37-.8,13.425,13.425,0,0,1,18.836,9.794.442.442,0,0,1-.576.5Z" transform="translate(-2035.931 -42.886)" fill="#7b5d14"/>
            </g>
          </g>
          <g id="Grupo_111323" data-name="Grupo 111323" transform="translate(3.132 5.5)">
            <g id="Grupo_111322" data-name="Grupo 111322">
              <path id="Trazado_171683" data-name="Trazado 171683" d="M2063.2,78.5a.442.442,0,0,1-.293-.338,7.152,7.152,0,0,0-.693-2.016,7.235,7.235,0,0,0-9.454-3.251.442.442,0,0,1-.369-.8A8.117,8.117,0,0,1,2063,75.736,8.026,8.026,0,0,1,2063.78,78a.442.442,0,0,1-.576.5Z" transform="translate(-2052.136 -71.345)" fill="#7b5d14"/>
            </g>
          </g>
        </g>
      </g>
    </g>
    <g id="Grupo_111328" data-name="Grupo 111328" transform="translate(262.529 63.104)">
      <path id="Trazado_171684" data-name="Trazado 171684" d="M1026.711,393.79l-4.247-5.268-8.5,2.082,3.947,4.3Z" transform="translate(-1005.016 -341.936)" fill="#ffbb9b" fill-rule="evenodd"/>
      <path id="Trazado_171685" data-name="Trazado 171685" d="M1135.317,319.694l-7.154-13.781c-24.009,5.154-48.015,8.292-71.987,15.453l1.224,6.723c27.193-1.212,51.958-5.6,77.917-8.395Z" transform="translate(-1039.068 -275.294)" fill="#fbb109" fill-rule="evenodd"/>
      <g id="Grupo_111327" data-name="Grupo 111327" transform="translate(74.135 16.755)">
        <path id="Trazado_171686" data-name="Trazado 171686" d="M1351.377,249.111c1.091,1.389,1.361,2.932,2.042,4.4a15.48,15.48,0,0,0,6.408,2.267c1.689-2.12,5.208-6.769,3.864-10.154-2.964-2.3-3.677-7.43-5.516-11.145q-3.4,7.321-6.8,14.634Z" transform="translate(-1351.348 -234.42)" fill="#f4a484"/>
        <path id="Trazado_171687" data-name="Trazado 171687" d="M1359.716,255.563l-.014,0a15.581,15.581,0,0,1-6.417-2.27l-.006,0,0-.007c-.227-.49-.412-1-.59-1.485a10.006,10.006,0,0,0-1.448-2.908l-.009-.012.006-.014q1.692-3.645,3.385-7.287,1.707-3.673,3.413-7.348l.022-.047.023.047a36.2,36.2,0,0,1,1.59,4.032c.958,2.741,1.949,5.575,3.919,7.1l.005,0,0,.006c1.41,3.551-2.562,8.539-3.867,10.178Zm-6.4-2.31a15.532,15.532,0,0,0,6.378,2.258c1.309-1.644,5.243-6.6,3.854-10.112-1.978-1.54-2.971-4.378-3.93-7.123a36.758,36.758,0,0,0-1.564-3.98q-1.7,3.652-3.392,7.3t-3.378,7.273a10.073,10.073,0,0,1,1.447,2.91C1352.909,252.264,1353.092,252.767,1353.317,253.252Z" transform="translate(-1351.227 -234.18)" fill="#f4a484"/>
      </g>
      <path id="Trazado_171688" data-name="Trazado 171688" d="M1305.444,186.64c-6.1,2.013-12.141,3.982-18.187,5.951-.337,4.219,6.108,18.674,10.722,20.9,5.815,2.782,11.621-3.35,11.725-8.348.325-4.744-1.566-15.407-4.261-18.5Z" transform="translate(-1225.476 -179.073)" fill="#ffbb9b" fill-rule="evenodd"/>
      <path id="Trazado_171689" data-name="Trazado 171689" d="M1232.894,161.313c-5.67-2.819-8.639,5.032-12.062,5.608-3.244-.651-18.246-2.919-18.556-9.517-.005-4.1,10.466-8.053,14.624-8.912a37.4,37.4,0,0,1,10.408-.955,8.874,8.874,0,0,1,7.5,5.328c1.225-1.87,7.245-.7,8.242.756,3.782,3.929-2.37,8.846-2.109,14.774-2.444.881-6.959-6.959-8.047-7.082Z" transform="translate(-1156.93 -147.491)" fill="#12263f" fill-rule="evenodd"/>
      <path id="Trazado_171690" data-name="Trazado 171690" d="M1372.553,224.018c-3.715.651-4.281-.818-3.358-3.853.091-1.328,1-2.839,2.521-2.02,1.131.888,1.042,4.266.837,5.872Z" transform="translate(-1291.273 -204.303)" fill="#ffbb9b" fill-rule="evenodd"/>
      <path id="Trazado_171691" data-name="Trazado 171691" d="M977.164,349.6c-3.824-3.619-4.032-10.856-9.345-10.916-1.038.394,3.1,16.122,10.721,16.214,4.647.017,1.591-2.55-1.376-5.3Z" transform="translate(-967.662 -301.728)" fill="#ffbb9b" fill-rule="evenodd"/>
      <path id="Trazado_171692" data-name="Trazado 171692" d="M1049.558,462.914l-5.246-4.881-5.533,2.117,2.316,5.5Z" transform="translate(-1025.034 -398.012)" fill="#ffbb9b" fill-rule="evenodd"/>
      <path id="Trazado_171693" data-name="Trazado 171693" d="M1004.773,423.266c-4.456-2.805-2.69-11.84-7.942-10.884-.962.586,1.376,19.97,8.537,17.31,2.148-.843,2.841-4.258-.6-6.427Z" transform="translate(-991.027 -361.128)" fill="#ffbb9b" fill-rule="evenodd"/>
      <path id="Trazado_171694" data-name="Trazado 171694" d="M1455.763,990.584l-3.937,4.334c-5.142,3.813-16.187,2.742-14.656,8.218,2.876,2.024,18.618-2.034,27.923-3.071.264-1.034-1.087-5.967-4.422-7.127Z" transform="translate(-1346.308 -827.633)" fill="#12263f" fill-rule="evenodd"/>
      <path id="Trazado_171695" data-name="Trazado 171695" d="M1502.153,960.5l-7.482,2.472c1.086,2.35,2.2,4.654,3.329,7,3.429,1.677,5.1-1.094,7.674-1.644Z" transform="translate(-1392.812 -803.36)" fill="#ffbb9b" fill-rule="evenodd"/>
      <path id="Trazado_171696" data-name="Trazado 171696" d="M1688.033,989.471l-3.138,4.887c-4.451,4.674-15.488,5.451-13.118,10.568,3.234,1.507,18.013-5.13,27.042-7.679.09-1.085-2.067-5.706-5.546-6.306Z" transform="translate(-1535.421 -826.735)" fill="#12263f" fill-rule="evenodd"/>
      <path id="Trazado_171697" data-name="Trazado 171697" d="M1722.556,959.871l-6.972,3.695c1.494,2.112,2.988,4.223,4.443,6.342,3.686,1.055,4.864-1.954,7.316-2.935Z" transform="translate(-1571.027 -802.856)" fill="#ffbb9b" fill-rule="evenodd"/>
      <path id="Trazado_171698" data-name="Trazado 171698" d="M1412.926,586.8l-18.848-8.034c-7.765,11.073-25.029,28.889-23.209,33.243l22.534,47.229,12.823-4.062L1391.95,612.9Z" transform="translate(-1292.83 -495.412)" fill="#12263f" fill-rule="evenodd"/>
      <path id="Trazado_171699" data-name="Trazado 171699" d="M1498.9,512.256c6.058,1.445,12.116,2.89,18.182,4.374,7.183,12.584,4.7,27.174,7.1,40.793l22.085,42.955-11.583,5.233-24.861-41.052L1491.5,525.111Z" transform="translate(-1390.257 -441.755)" fill="#1a3352" fill-rule="evenodd"/>
      <path id="Trazado_171700" data-name="Trazado 171700" d="M1341.154,302.7l11.633-5.859a12.194,12.194,0,0,1,8.26,1.126c8.084,4.446,26.222,29.337,33.864,44.673-8.527,2.827-12.2,9.5-25.581,8.481q-14.556-21.022-29.072-42.052c-.529-2,.068-4.369.9-6.369Z" transform="translate(-1268.082 -267.765)" fill="#fecb15" fill-rule="evenodd"/>
      <path id="Trazado_171701" data-name="Trazado 171701" d="M1142.63,304.774c.526-8.4-5.1-11.731-10.2-11.747-22.112,10.6-44.7,19.278-66.376,31.816l2.786,6.274c26.128-7.512,49.2-17.591,73.785-26.343Z" transform="translate(-1047.04 -264.898)" fill="#fecb15" fill-rule="evenodd"/>
    </g>
    <g id="Grupo_111333" data-name="Grupo 111333" transform="translate(319.78 45.162)">
      <g id="Grupo_111329" data-name="Grupo 111329" transform="translate(0 7.414)">
        <path id="Trazado_171702" data-name="Trazado 171702" d="M1270.607,109.731a.576.576,0,0,1-.417-.972c1.732-1.823,4.389-5.887,3.432-9.613a10.772,10.772,0,0,0-9.189-4.974.576.576,0,0,1,.027-1.151,11.9,11.9,0,0,1,10.195,5.61l.039.066.02.074c1.146,4.239-1.78,8.771-3.689,10.78A.573.573,0,0,1,1270.607,109.731Z" transform="translate(-1263.87 -93.021)" fill="#ea718b"/>
      </g>
      <g id="Grupo_111330" data-name="Grupo 111330" transform="translate(19.945 1.566)">
        <path id="Trazado_171703" data-name="Trazado 171703" d="M1376,80.414a.577.577,0,0,1-.145-.019c-2.654-.688-7.486-3-8.761-7.285l-.024-.08v-.084a11.806,11.806,0,0,1,6.025-10.1.576.576,0,0,1,.589.99,10.676,10.676,0,0,0-5.462,9.028c1.02,3.263,4.809,5.612,7.923,6.419a.576.576,0,0,1-.144,1.133Z" transform="translate(-1367.065 -62.763)" fill="#ea718b"/>
      </g>
      <g id="Grupo_111331" data-name="Grupo 111331" transform="translate(9.503 16.006)">
        <path id="Trazado_171704" data-name="Trazado 171704" d="M1313.612,147.785a.582.582,0,0,1-.106-.01.576.576,0,0,1-.461-.671c.632-3.414,2.659-7.953,6.292-9.509l.077-.033.083-.01a11.84,11.84,0,0,1,10.752,4.7.576.576,0,0,1-.9.716,10.721,10.721,0,0,0-9.632-4.286c-3.167,1.41-4.961,5.518-5.537,8.628A.576.576,0,0,1,1313.612,147.785Z" transform="translate(-1313.036 -137.473)" fill="#ea718b"/>
      </g>
      <g id="Grupo_111332" data-name="Grupo 111332" transform="translate(3.133 0)">
        <path id="Trazado_171705" data-name="Trazado 171705" d="M1289.45,64.956c-4.642,0-8.47-4.175-9.233-5.064a.576.576,0,0,1,.874-.75c2.051,2.393,5.658,5.024,9.116,4.618a10.806,10.806,0,0,0,6.063-8.6.576.576,0,1,1,1.14.159,11.925,11.925,0,0,1-6.808,9.53l-.078.035-.084.011A7.6,7.6,0,0,1,1289.45,64.956Z" transform="translate(-1280.079 -54.66)" fill="#ea718b"/>
      </g>
    </g>
  </g>
</svg>
