<svg xmlns="http://www.w3.org/2000/svg" width="52.551" height="70" viewBox="0 0 52.551 70">
  <g id="Grupo_111494" data-name="Grupo 111494" transform="translate(475.843 -2157.809)">
    <path id="Trazado_172122" data-name="Trazado 172122" d="M-472.121,2346.471c-.054-.171-.218-.133-.339-.173a4.657,4.657,0,0,1-3.37-4.741q-.005-14.621,0-29.241c0-2.6.02-5.192-.012-7.788-.009-.773.165-1.338.988-1.531.924.275,1.084.5,1.084,1.526,0,12.272.027,24.544-.027,36.816a2.805,2.805,0,0,0,3.321,3.047c2.081.009,4.162.032,6.243.02a1.149,1.149,0,0,1,1.317.981,1.287,1.287,0,0,1-.728,1.084Z" transform="translate(0 -118.662)" fill="#060606"/>
    <path id="Trazado_172123" data-name="Trazado 172123" d="M-355.062,2446.532a1.093,1.093,0,0,1,.975,1.247c-.011,3.747.006,7.495-.009,11.242a4.529,4.529,0,0,1-3.905,4.662c-.03.006-.049.065-.074.1h-32.4a1.593,1.593,0,0,1-.693-1.092c.2-.773.732-.977,1.49-.976q15.3.024,30.608.01a2.631,2.631,0,0,0,2.918-2.907q0-5.465,0-10.931C-356.149,2446.987-355.906,2446.693-355.062,2446.532Z" transform="translate(-69.205 -235.973)" fill="#060606"/>
    <path id="Trazado_172124" data-name="Trazado 172124" d="M-405.8,2534.973a1.593,1.593,0,0,0,.693,1.092h-3.964a1.287,1.287,0,0,0,.728-1.084Z" transform="translate(-54.568 -308.255)" fill="#fdfdfd"/>
    <path id="Trazado_172125" data-name="Trazado 172125" d="M-474.843,2181.78c-.749-.13-.973-.612-.97-1.324.014-4.261,0-8.521.009-12.782a4.63,4.63,0,0,1,4.831-4.875c2.711-.022,5.423,0,8.134,0,1.025,0,2.051,0,3.076,0,.252,0,.456.011.592-.3a2.2,2.2,0,0,1,2.349-1.389c.489.031.724-.017.781-.634a2.909,2.909,0,0,1,3.028-2.652q3.452-.015,6.9,0a2.95,2.95,0,0,1,3.1,2.812c.035.384.129.5.507.473a2.356,2.356,0,0,1,2.644,1.473c.154.37.468.212.708.213,3.668.011,7.337,0,11.005.011a4.645,4.645,0,0,1,4.784,3.749,5.955,5.955,0,0,1,.088,1.222q.007,19.378,0,38.756c0,1-.112,1.16-.974,1.469-.91-.231-1.085-.472-1.085-1.513q0-19.272,0-38.545c0-2.116-.963-3.08-3.089-3.082-3.167,0-6.333-.008-9.5.005-.58,0-1.375-.267-1.684.127-.292.372-.064,1.133-.116,1.719-.041.463.136.56.569.555,2.073-.021,4.146-.013,6.219-.009a3.551,3.551,0,0,1,3.832,3.772q.014,23.954,0,47.908a3.535,3.535,0,0,1-3.771,3.772q-16.676.017-33.351,0a3.708,3.708,0,0,1-2.471-.829,3.893,3.893,0,0,1-1.3-3.232q.017-22.621.008-45.242c0-.843-.018-1.686.005-2.529a3.543,3.543,0,0,1,3.706-3.623c1.708-.01,3.417,0,5.125,0,.566,0,1.32.192,1.649-.094.383-.333.064-1.112.139-1.689.07-.541-.161-.631-.648-.625-2,.027-4.009,0-6.014.013-1.479.006-2.958.031-4.437.048-2.064-.232-3.286.84-3.288,2.893q0,6.319,0,12.637C-473.749,2181.326-474,2181.623-474.843,2181.78Zm24.856,4.74a1.478,1.478,0,0,0-.359.695c-.754,1.923-1.495,3.851-2.249,5.773a1.408,1.408,0,0,1-1.47,1.083,1.429,1.429,0,0,1-1.344-1.156c-.366-1.123-.74-2.243-1.113-3.363-.642-1.924-1.288-3.847-1.982-5.921-.747,1.674-1.46,3.191-2.1,4.737a1.851,1.851,0,0,1-1.981,1.3c-1.592-.054-3.188,0-4.782-.019-.381,0-.554.04-.553.5q.023,14.383.016,28.765c0,1.172.541,1.708,1.725,1.708q16.637.011,33.275,0c1.211,0,1.74-.541,1.74-1.767q.007-15.031.011-30.063c0-.4-.068-.556-.514-.547q-2.254.044-4.509,0a.745.745,0,0,0-.735.458q-1.246,2.115-2.523,4.211a1.42,1.42,0,0,1-1.629.835,1.431,1.431,0,0,1-1.121-1.371c-.344-2.616-.712-5.229-1.074-7.843-.028-.2-.083-.4-.156-.739-1.047,2.156-2.019,4.154-2.989,6.154a1.4,1.4,0,0,1-1.452.919,1.407,1.407,0,0,1-1.3-1.2C-449.413,2188.63-449.7,2187.59-449.987,2186.52Zm9.616,3.955c.651-1.082,1.266-1.982,1.753-2.947a2.2,2.2,0,0,1,2.341-1.347c1.521.085,3.051.015,4.577.026.337,0,.545-.023.544-.46-.014-4.965,0-9.93-.02-14.9a1.449,1.449,0,0,0-1.621-1.537c-2.141-.012-4.282,0-6.423-.012-.376,0-.492.088-.5.484a2.224,2.224,0,0,1-2.441,2.4q-7.379.005-14.759,0a2.209,2.209,0,0,1-2.428-2.34c-.006-.475-.166-.549-.584-.545-2.072.02-4.145.007-6.218.013-1.2,0-1.753.543-1.755,1.756-.006,5.329,0,10.659-.014,15.989,0,.473.159.559.584.552,1.412-.022,2.825-.027,4.236.006a.732.732,0,0,0,.807-.522c.821-1.9,1.675-3.777,2.508-5.667a1.436,1.436,0,0,1,1.408-1,1.426,1.426,0,0,1,1.364,1.135c.428,1.34.887,2.67,1.333,4l1.686,5.036c.212-.107.209-.261.257-.384q1.216-3.107,2.426-6.217a1.708,1.708,0,0,1,.776-1,1.42,1.42,0,0,1,2.049,1.03c.313,1.134.592,2.277.923,3.556.176-.352.278-.552.376-.754.955-1.959,1.905-3.921,2.866-5.878a1.378,1.378,0,0,1,1.5-.838,1.423,1.423,0,0,1,1.213,1.294c.055.36.1.721.145,1.082C-441.111,2185.095-440.755,2187.686-440.371,2190.475Zm-9.168-20.352v.011h6.9c.864,0,.865,0,.865-.9q0-2.6,0-5.194c0-.893,0-.893-.872-.894h-.479c-1.488,0-1.922-.427-1.929-1.9-.005-1.113-.266-1.38-1.356-1.379q-2.836,0-5.672.008c-1.839,0-1.839,0-1.941,1.82a1.453,1.453,0,0,1-1.491,1.453,8.451,8.451,0,0,1-1.093,0c-.521-.052-.717.1-.706.67.036,1.89.032,3.781,0,5.672-.009.526.161.648.662.643C-454.277,2170.109-451.908,2170.123-449.539,2170.123Z" transform="translate(-0.024 0)" fill="#060606"/>
    <path id="Trazado_172126" data-name="Trazado 172126" d="M-450.81,2196.047c1.479-.017,2.958-.042,4.437-.048,2-.008,4.01.014,6.014-.013.487-.006.718.083.648.625-.075.577.245,1.356-.139,1.689-.329.286-1.083.092-1.649.094-1.708,0-3.417-.006-5.125,0a3.543,3.543,0,0,0-3.706,3.623c-.023.842-.005,1.686-.005,2.529q0,22.621-.007,45.242a3.892,3.892,0,0,0,1.3,3.232,3.707,3.707,0,0,0,2.471.83q16.676,0,33.351,0a3.534,3.534,0,0,0,3.771-3.772q.014-23.954,0-47.908a3.551,3.551,0,0,0-3.832-3.772c-2.073,0-4.146-.013-6.219.009-.433,0-.61-.092-.569-.556.052-.585-.176-1.347.116-1.719.309-.394,1.1-.125,1.684-.128,3.166-.013,6.333-.009,9.5-.005,2.125,0,3.088.966,3.089,3.082q0,19.273,0,38.545c0,1.041.174,1.281,1.085,1.513l0,2.566c-.844.161-1.087.455-1.088,1.354q0,5.466,0,10.932a2.631,2.631,0,0,1-2.918,2.907q-15.3,0-30.608-.01c-.758,0-1.286.2-1.49.976l-2.544.008a1.149,1.149,0,0,0-1.317-.981c-2.081.012-4.162-.011-6.243-.02a6.09,6.09,0,0,1-.968-2.921q.018-27.46.01-54.921c0-.271.043-.541.066-.81A5.914,5.914,0,0,1-450.81,2196.047Z" transform="translate(-19.673 -31.145)" fill="#c99a28"/>
    <path id="Trazado_172127" data-name="Trazado 172127" d="M-466.119,2196.495a5.911,5.911,0,0,0-.886,2.17c-.023.268-.066.539-.066.81q0,27.46-.01,54.921a6.09,6.09,0,0,0,.968,2.922,2.805,2.805,0,0,1-3.321-3.047c.054-12.272.027-24.544.027-36.816,0-1.03-.159-1.251-1.084-1.526q-.006-1.278-.012-2.555c.845-.157,1.094-.454,1.095-1.348q0-6.319,0-12.637C-469.4,2197.334-468.183,2196.262-466.119,2196.495Z" transform="translate(-4.364 -31.592)" fill="#c99a28"/>
    <path id="Trazado_172128" data-name="Trazado 172128" d="M-414.687,2302.031c.284,1.071.574,2.11.832,3.158a1.407,1.407,0,0,0,1.3,1.2,1.4,1.4,0,0,0,1.452-.92c.97-2,1.942-4,2.989-6.154.073.343.128.539.156.739.362,2.614.73,5.227,1.074,7.843a1.431,1.431,0,0,0,1.121,1.371,1.42,1.42,0,0,0,1.629-.835q1.271-2.1,2.523-4.211a.745.745,0,0,1,.735-.458q2.254.041,4.509,0c.446-.009.514.152.514.547q-.015,15.032-.011,30.064c0,1.225-.529,1.766-1.74,1.767q-16.638.006-33.275,0c-1.184,0-1.724-.537-1.725-1.708q-.009-14.383-.016-28.765c0-.462.172-.506.553-.5,1.594.017,3.19-.035,4.782.019a1.851,1.851,0,0,0,1.981-1.3c.641-1.547,1.354-3.063,2.1-4.737.694,2.073,1.339,4,1.982,5.921.374,1.12.747,2.24,1.113,3.363a1.43,1.43,0,0,0,1.344,1.156,1.409,1.409,0,0,0,1.47-1.083c.754-1.923,1.494-3.851,2.249-5.774A1.479,1.479,0,0,1-414.687,2302.031Zm.444,20.62h-11.886a5.537,5.537,0,0,0-.614.014.93.93,0,0,0-.895.872.929.929,0,0,0,.706,1.1,2.893,2.893,0,0,0,.808.078q11.886.006,23.772,0a1.994,1.994,0,0,0,.938-.121.964.964,0,0,0,.572-1.061.934.934,0,0,0-.834-.859,4.253,4.253,0,0,0-.682-.021Zm0,6.552h-11.818a5.988,5.988,0,0,0-.682.019.93.93,0,0,0-.892.875.933.933,0,0,0,.709,1.094,2.619,2.619,0,0,0,.741.073q11.954.005,23.908,0a1.943,1.943,0,0,0,.807-.094.963.963,0,0,0,.63-1.088.925.925,0,0,0-.837-.854,5.012,5.012,0,0,0-.75-.026Zm.081-13.115h-11.886a5.828,5.828,0,0,0-.682.015.939.939,0,0,0-.909.933.953.953,0,0,0,.765,1.062,2.483,2.483,0,0,0,.677.05q11.954,0,23.909,0a1.853,1.853,0,0,0,.871-.114.967.967,0,0,0,.581-1.055.938.938,0,0,0-.827-.867,3.906,3.906,0,0,0-.681-.025Z" transform="translate(-35.324 -115.512)" fill="#f5f6f2"/>
    <path id="Trazado_172129" data-name="Trazado 172129" d="M-405.069,2241.886c-.384-2.789-.741-5.38-1.1-7.971-.049-.361-.091-.722-.145-1.082a1.423,1.423,0,0,0-1.213-1.294,1.378,1.378,0,0,0-1.5.838c-.961,1.957-1.911,3.919-2.866,5.878-.1.2-.2.4-.376.754-.33-1.279-.61-2.422-.923-3.556a1.42,1.42,0,0,0-2.049-1.03,1.708,1.708,0,0,0-.776,1q-1.206,3.111-2.426,6.217c-.048.123-.045.276-.257.383q-.846-2.527-1.686-5.035c-.447-1.334-.905-2.665-1.333-4a1.425,1.425,0,0,0-1.364-1.135,1.437,1.437,0,0,0-1.408,1c-.833,1.89-1.686,3.772-2.508,5.667a.732.732,0,0,1-.807.522c-1.411-.033-2.824-.029-4.236-.006-.424.007-.585-.079-.584-.552.018-5.329.007-10.659.014-15.989,0-1.212.551-1.752,1.755-1.756,2.073-.006,4.145.007,6.218-.013.418,0,.578.069.584.545a2.209,2.209,0,0,0,2.428,2.34q7.379.006,14.759,0a2.223,2.223,0,0,0,2.441-2.4c.011-.4.128-.487.5-.484,2.141.017,4.282,0,6.423.012a1.449,1.449,0,0,1,1.621,1.537c.019,4.965.006,9.93.02,14.9,0,.437-.207.462-.544.46-1.526-.011-3.056.06-4.577-.026a2.2,2.2,0,0,0-2.341,1.347C-403.8,2239.9-404.418,2240.8-405.069,2241.886Z" transform="translate(-35.327 -51.411)" fill="#f5f6f2"/>
    <path id="Trazado_172130" data-name="Trazado 172130" d="M-366.765,2179.354c-2.369,0-4.738-.014-7.107.011-.5.005-.671-.117-.662-.643.031-1.89.035-3.782,0-5.672-.011-.566.185-.722.706-.67a8.451,8.451,0,0,0,1.093,0,1.453,1.453,0,0,0,1.491-1.453c.1-1.82.1-1.819,1.941-1.82q2.836,0,5.672-.008c1.091,0,1.351.267,1.356,1.379.007,1.469.44,1.9,1.929,1.9h.479c.871,0,.872,0,.872.894q0,2.6,0,5.194c0,.9,0,.9-.865.9h-6.9Z" transform="translate(-82.798 -9.231)" fill="#43a047"/>
    <path id="Trazado_172131" data-name="Trazado 172131" d="M-391.991,2427.8h11.886a4.253,4.253,0,0,1,.682.021.934.934,0,0,1,.834.859.964.964,0,0,1-.572,1.061,1.994,1.994,0,0,1-.938.121q-11.886,0-23.772,0a2.893,2.893,0,0,1-.808-.078.929.929,0,0,1-.706-1.1.93.93,0,0,1,.895-.872,5.536,5.536,0,0,1,.614-.014Z" transform="translate(-57.575 -220.663)" fill="#060606"/>
    <path id="Trazado_172132" data-name="Trazado 172132" d="M-391.995,2463.676h11.817a5.012,5.012,0,0,1,.75.026.925.925,0,0,1,.837.854.963.963,0,0,1-.63,1.088,1.943,1.943,0,0,1-.807.094q-11.954,0-23.908,0a2.619,2.619,0,0,1-.741-.073.933.933,0,0,1-.709-1.094.93.93,0,0,1,.892-.875,5.987,5.987,0,0,1,.682-.019Z" transform="translate(-57.576 -249.984)" fill="#060606"/>
    <path id="Trazado_172133" data-name="Trazado 172133" d="M-391.909,2391.891h11.818a3.906,3.906,0,0,1,.681.025.938.938,0,0,1,.827.867.967.967,0,0,1-.581,1.055,1.85,1.85,0,0,1-.871.114q-11.954,0-23.909,0a2.483,2.483,0,0,1-.677-.05.953.953,0,0,1-.765-1.062.939.939,0,0,1,.909-.932,5.828,5.828,0,0,1,.682-.015Z" transform="translate(-57.581 -191.313)" fill="#060606"/>
  </g>
</svg>
