<svg xmlns="http://www.w3.org/2000/svg" width="292.714" height="275" viewBox="0 0 292.714 275">
  <g id="Grupo_111397" data-name="Grupo 111397" transform="translate(4782.026 164.401)">
    <circle id="Elipse_5883" data-name="Elipse 5883" cx="123.58" cy="123.58" r="123.58" transform="translate(-4767.693 -164.401)" fill="#72e676" opacity="0.335"/>
    <ellipse id="Elipse_5884" data-name="Elipse 5884" cx="112.536" cy="12.225" rx="112.536" ry="12.225" transform="translate(-4714.383 85.137)" fill="#f5cd6c" opacity="0.651"/>
    <ellipse id="Elipse_5885" data-name="Elipse 5885" cx="61.373" cy="6.667" rx="61.373" ry="6.667" transform="translate(-4782.026 97.266)" fill="#f5cd6c" opacity="0.651"/>
    <g id="Grupo_111349" data-name="Grupo 111349" transform="translate(-4714.943 -160.939)">
      <g id="Grupo_111336" data-name="Grupo 111336" transform="translate(0 59.263)">
        <path id="Trazado_171706" data-name="Trazado 171706" d="M-3921.008,548.043c-15.11,1.186-48.257,5.026-57.172,20.173s-33.413,72.687-34.655,142.023c-.208,11.567-11.831,17.124-6.334,25.9,5.116,8.174,156.526,17.631,206.993,2.117a10.668,10.668,0,0,0,4.987-17.19,8.814,8.814,0,0,0-2.4-1.932c-6.4-3.452-9.353-74.706-22.421-113.58S-3866.106,543.733-3921.008,548.043Z" transform="translate(4020.644 -547.526)" fill="#c99a28"/>
      </g>
      <g id="Grupo_111337" data-name="Grupo 111337" transform="translate(73.759 0)">
        <path id="Trazado_171707" data-name="Trazado 171707" d="M-3169.887-59.533s-8.925-39.449-11.644-48.054-3.132-13.194,2.237-14.2,13.083,2.223,17.553,1.166,8.2-4.866,16.725-4.458,17.055,3.259,22.854,2.176,7.739,8.111,4.9,19.087-12.374,39.65-19.612,46.113S-3164.632-51.625-3169.887-59.533Z" transform="translate(3183.485 125.106)" fill="#c99a28"/>
      </g>
      <path id="Trazado_171708" data-name="Trazado 171708" d="M-2821.735,1032.36a27.96,27.96,0,0,0-8.146-8.934c-4.271-3.125-9.216-5-13.516-6.513-3.351-1.179-7.52-2.645-10.422-5.066a9.264,9.264,0,0,1-3.152-5.887c-.4-3.052-.036-5.165,1.136-6.652,1.5-1.9,4.257-2.411,6.309-2.507.211-.01.425-.012.636-.007a8.9,8.9,0,0,1,6.223,2.817c2.087,2.188,3.426,5.356,4.212,9.969a3.838,3.838,0,0,0,3.588,3.11h.125l9.135-.1a2.86,2.86,0,0,0,2.188-.992,2.88,2.88,0,0,0,.6-2.331c-1.35-8.42-4.028-14.548-8.425-19.284a25.676,25.676,0,0,0-13.907-7.6c-.613-2.992-1.254-6-1.914-8.97a3.8,3.8,0,0,0-1.45-2.2,3.72,3.72,0,0,0-2.108-.751,3.229,3.229,0,0,0-.38.012l-5.234.475-2.057.187a2.791,2.791,0,0,0-2.5,3.506c.629,2.835,1.241,5.7,1.826,8.552-4.817,1.526-8.434,4.053-10.772,7.532-2.8,4.17-3.836,9.732-2.91,15.662a26.891,26.891,0,0,0,7.774,15.315c5.211,4.966,11.914,7.668,17.787,9.811,3.48,1.27,7.394,2.917,10.033,5.5a9.412,9.412,0,0,1,2.759,6.09c.113,1.63-.028,4.643-2.25,6.514-1.56,1.313-3.81,1.912-6.879,1.832-.366-.009-.752-.029-1.147-.058a12.329,12.329,0,0,1-8.052-3.466c-1.9-2.066-2.942-4.828-3.37-8.954a3.829,3.829,0,0,0-3.524-3.319l-9.251-.507-.1,0a2.9,2.9,0,0,0-2.177.843,2.828,2.828,0,0,0-.764,2.271c.712,7.49,3.031,13.357,7.088,17.936a29.608,29.608,0,0,0,13.939,8.571c.037,2.331.059,4.671.065,6.985a3.806,3.806,0,0,0,3.3,3.618l7.422.94c.114.014.227.023.339.026a2.94,2.94,0,0,0,1.993-.672,2.771,2.771,0,0,0,.962-2.149c-.006-2.418-.029-4.863-.069-7.3,5.705-.574,10.053-2.46,13.237-5.729,3.745-3.845,5.542-9.715,5.06-16.528A27.882,27.882,0,0,0-2821.735,1032.36Z" transform="translate(2974.091 -873.935)" fill="#ffecb3"/>
      <g id="Grupo_111338" data-name="Grupo 111338" transform="translate(89.579 8.447)">
        <path id="Trazado_171709" data-name="Trazado 171709" d="M-2995.01,17.826s-10.8-43.56-8.63-45.323,6.531-3.4,8.022,1.547S-2995.01,17.826-2995.01,17.826Z" transform="translate(3003.929 29.238)" fill="#a27b1c"/>
      </g>
      <g id="Grupo_111339" data-name="Grupo 111339" transform="translate(108.573 12.253)">
        <path id="Trazado_171710" data-name="Trazado 171710" d="M-2788.337,56.342s3.643-41.9,7.138-41.961,12-1.649,14,1.833-18.787,44.62-20.052,44.778S-2788.337,56.342-2788.337,56.342Z" transform="translate(2788.347 -13.967)" fill="#a27b1c"/>
      </g>
      <g id="Grupo_111346" data-name="Grupo 111346" transform="translate(69.695 57.679)">
        <g id="Grupo_111341" data-name="Grupo 111341" transform="translate(14.369)">
          <g id="Grupo_111340" data-name="Grupo 111340">
            <path id="Trazado_171711" data-name="Trazado 171711" d="M-3046.084,537.253a79.219,79.219,0,0,1-18.716-1.972,2.294,2.294,0,0,1-1.649-2.794,2.293,2.293,0,0,1,2.792-1.649h0c.187.048,18.9,4.717,37.975-1.19a2.294,2.294,0,0,1,2.87,1.513,2.294,2.294,0,0,1-1.513,2.87A75.653,75.653,0,0,1-3046.084,537.253Z" transform="translate(3066.522 -529.544)" fill="#7b5d14"/>
          </g>
        </g>
        <g id="Grupo_111343" data-name="Grupo 111343" transform="translate(0 2.296)">
          <g id="Grupo_111342" data-name="Grupo 111342">
            <path id="Trazado_171712" data-name="Trazado 171712" d="M-3227.3,591.979a2.293,2.293,0,0,1-.727-.113,2.294,2.294,0,0,1-1.471-2.892c5.667-17.4,20.162-32.084,20.777-32.7a2.294,2.294,0,0,1,3.244-.006,2.294,2.294,0,0,1,.006,3.244h0c-.143.144-14.344,14.544-19.665,30.884A2.3,2.3,0,0,1-3227.3,591.979Z" transform="translate(3229.608 -555.598)" fill="#7b5d14"/>
          </g>
        </g>
        <g id="Grupo_111345" data-name="Grupo 111345" transform="translate(16.005 2.647)">
          <g id="Grupo_111344" data-name="Grupo 111344">
            <path id="Trazado_171713" data-name="Trazado 171713" d="M-3045.639,593.175a2.339,2.339,0,0,1-.241-.011,2.294,2.294,0,0,1-2.061-2.505,103.779,103.779,0,0,1,7.306-29.715,2.294,2.294,0,0,1,3.031-1.155,2.294,2.294,0,0,1,1.156,3.031,101.143,101.143,0,0,0-6.927,28.284A2.294,2.294,0,0,1-3045.639,593.175Z" transform="translate(3047.952 -559.588)" fill="#7b5d14"/>
          </g>
        </g>
      </g>
      <g id="Grupo_111348" data-name="Grupo 111348" transform="translate(51.799 61.743)">
        <g id="Grupo_111347" data-name="Grupo 111347">
          <path id="Trazado_171714" data-name="Trazado 171714" d="M-3276.042,763.92a10.664,10.664,0,0,0,4.966-17.183,8.8,8.8,0,0,0-2.4-1.932c-6.4-3.452-9.353-74.706-22.421-113.58-9.673-28.774-23.71-48.824-52.615-55.553,8.36,15.828,29.082,57.576,33.208,89.814,5.2,40.6,14.933,74.284.558,80.61s-114.066-3.8-117.638.814,21.01,5.425,33.153,7.963c9.348,1.954,4.182,12.065-14.544,16.165C-3365.377,773.487-3304.564,772.7-3276.042,763.92Z" transform="translate(3432.732 -575.672)" fill="#a27b1c"/>
        </g>
      </g>
    </g>
    <g id="Grupo_111394" data-name="Grupo 111394" transform="translate(-4761.757 -114.475)">
      <path id="Trazado_171715" data-name="Trazado 171715" d="M-3928.371,697.736s18.847,25.966,15.914,39.391-15.848,26.053-22.372,25.3-1.182-13.831,0-15.564,10.458-16.692,10.458-16.692-8.269-8.777-8.535-16.779S-3928.371,697.736-3928.371,697.736Z" transform="translate(3992.104 -671.702)" fill="#b1d5de"/>
      <g id="Grupo_111353" data-name="Grupo 111353" transform="translate(61.481 208.313)">
        <g id="Grupo_111352" data-name="Grupo 111352">
          <g id="Grupo_111351" data-name="Grupo 111351">
            <g id="Grupo_111350" data-name="Grupo 111350">
              <path id="Trazado_171716" data-name="Trazado 171716" d="M-3844.731,2773.662c-1.548-.678-1.745-2.057-2.4-3.364-.044-.088-.3-1.966-.3-2.116-.008-.648-1.88-2.369-2.753-1.019-1.719,2.66-3.6-1.5-3.5-.387.3,3.3-1.219,8.633.012,8.994,2.622.77,14.859,1.665,15.092.38C-3838.452,2775.378-3842.053,2774.834-3844.731,2773.662Z" transform="translate(3854.172 -2766.582)" fill="#404859"/>
            </g>
          </g>
        </g>
      </g>
      <path id="Trazado_171717" data-name="Trazado 171717" d="M-4545.447,2765.451c-.052-1.1,2.073,1.044,3.488.382,1.472-.69,2.729.367,2.708,1.007,0,.148.169,2,.209,2.091.6,1.292.74,2.655,2.259,3.325,2.626,1.159,6.2,1.7,6.032,2.458-.288,1.27-12.487.386-15.075-.375C-4547.041,2773.982-4545.293,2768.717-4545.447,2765.451Z" transform="translate(4546.762 -2556.948)" fill="#404859"/>
      <g id="Grupo_111358" data-name="Grupo 111358" transform="translate(0 71.488)">
        <g id="Grupo_111357" data-name="Grupo 111357">
          <g id="Grupo_111356" data-name="Grupo 111356">
            <g id="Grupo_111355" data-name="Grupo 111355">
              <g id="Grupo_111354" data-name="Grupo 111354">
                <path id="Trazado_171718" data-name="Trazado 171718" d="M-4533.541,1216.821c3.092-6.83,35.218-2.056,38.783,8.361,2.174,6.354,15.05,127.269,15.05,127.269s-.231,1.427-6.212,1.427c-5.75,0-8.071-1.5-8.071-1.5l-18.965-100.847-25.28,98.923a12.08,12.08,0,0,1-7.852,1.8,12,12,0,0,1-5.888-2.29S-4535.3,1220.7-4533.541,1216.821Z" transform="translate(4551.976 -1213.634)" fill="#434a59"/>
              </g>
            </g>
          </g>
        </g>
      </g>
      <path id="Trazado_171719" data-name="Trazado 171719" d="M-4288.631,1324.644a27.484,27.484,0,0,0-.667-3.314,7.645,7.645,0,0,0-1.271-2.259c-6.624,1.333-23.466,4.158-36.1,3.319,0,0,1.719,2.252,14.818,2.845A179.4,179.4,0,0,0-4288.631,1324.644Z" transform="translate(4346.516 -1238.294)" fill="#262a30"/>
      <g id="Grupo_111364" data-name="Grupo 111364" transform="translate(16.601 20.35)">
        <g id="Grupo_111363" data-name="Grupo 111363">
          <g id="Grupo_111362" data-name="Grupo 111362">
            <g id="Grupo_111361" data-name="Grupo 111361">
              <g id="Grupo_111360" data-name="Grupo 111360">
                <g id="Grupo_111359" data-name="Grupo 111359">
                  <path id="Trazado_171720" data-name="Trazado 171720" d="M-4315.231,640.617c-.914-3.532-12.68-7.626-18.052-7.385-6.685.3-19.374-.01-21.991,6.965-8.1,21.6-8.252,48.822-8.284,55.86,12.439,4.368,39.479,1.276,41.229.287a210.4,210.4,0,0,1,3.194-29.31C-4316.682,654.679-4313.025,649.148-4315.231,640.617Z" transform="translate(4363.557 -633.222)" fill="#e7f2f2"/>
                </g>
              </g>
            </g>
          </g>
        </g>
      </g>
      <g id="Grupo_111383" data-name="Grupo 111383" transform="translate(83.844 0.773)">
        <g id="Grupo_111366" data-name="Grupo 111366" transform="translate(8.09 31.469)">
          <g id="Grupo_111365" data-name="Grupo 111365" transform="translate(0)">
            <rect id="Rectángulo_37359" data-name="Rectángulo 37359" width="2.129" height="9.615" transform="translate(3.361 0) rotate(20.458)" fill="#404859"/>
          </g>
        </g>
        <g id="Grupo_111369" data-name="Grupo 111369" transform="translate(1.622 1.056)">
          <g id="Grupo_111368" data-name="Grupo 111368">
            <g id="Grupo_111367" data-name="Grupo 111367">
              <path id="Trazado_171721" data-name="Trazado 171721" d="M-3570.959,455.723a16.907,16.907,0,0,1-9.92-21.726,16.907,16.907,0,0,1,21.726-9.92,16.908,16.908,0,0,1,9.921,21.726A16.908,16.908,0,0,1-3570.959,455.723Zm11.075-29.689a14.815,14.815,0,0,0-19.038,8.693,14.816,14.816,0,0,0,8.693,19.038,14.815,14.815,0,0,0,19.038-8.693A14.816,14.816,0,0,0-3559.884,426.035Z" transform="translate(3581.945 -423.011)" fill="#1c551f"/>
            </g>
          </g>
        </g>
        <g id="Grupo_111372" data-name="Grupo 111372" transform="translate(3.535 2.777)">
          <g id="Grupo_111371" data-name="Grupo 111371">
            <g id="Grupo_111370" data-name="Grupo 111370">
              <path id="Trazado_171722" data-name="Trazado 171722" d="M-3550.879,471.3l.142.047a16.556,16.556,0,0,0,16-3.2,13.35,13.35,0,0,0,3.227-5.588c2.858-7.717-.569-16.155-8.212-19.028s-16.567.737-19.425,8.453S-3559.172,468.473-3550.879,471.3Z" transform="translate(3560.228 -442.542)" fill="#b1d5de"/>
            </g>
          </g>
        </g>
        <path id="Trazado_171723" data-name="Trazado 171723" d="M-3382.267,582.792a31.221,31.221,0,0,0-4.49,12.808h0l.117,0a16.2,16.2,0,0,0,10.089-4.006c1.611-1.449,3.427-9.341,4.222-11.486C-3370.613,575.471-3379.8,579.091-3382.267,582.792Z" transform="translate(3405.576 -563.215)" fill="#ba7c38"/>
        <g id="Grupo_111375" data-name="Grupo 111375" transform="translate(0 37.535)">
          <g id="Grupo_111374" data-name="Grupo 111374">
            <g id="Grupo_111373" data-name="Grupo 111373">
              <path id="Trazado_171724" data-name="Trazado 171724" d="M-3590.259,837.258h0a3.823,3.823,0,0,0-4.867,2.317l-5.008,14.108a3.822,3.822,0,0,0,2.317,4.867h0a3.822,3.822,0,0,0,4.867-2.317l5.008-14.108A3.822,3.822,0,0,0-3590.259,837.258Z" transform="translate(3600.352 -837.039)" fill="#57c45b"/>
            </g>
          </g>
        </g>
        <g id="Grupo_111377" data-name="Grupo 111377" transform="translate(13.631 4.988)">
          <g id="Grupo_111376" data-name="Grupo 111376">
            <path id="Trazado_171725" data-name="Trazado 171725" d="M-3445.48,470.107a7.482,7.482,0,0,1,3.443-2.092,13.163,13.163,0,0,1,3.921-.373c1.036.026.859,1.624-.168,1.6-2.109-.054-4.365.212-5.9,1.818a.829.829,0,0,1-1.123.172A.808.808,0,0,1-3445.48,470.107Z" transform="translate(3445.642 -467.633)" fill="#fff"/>
          </g>
        </g>
        <g id="Grupo_111379" data-name="Grupo 111379" transform="translate(10.689 9.235)">
          <g id="Grupo_111378" data-name="Grupo 111378">
            <path id="Trazado_171726" data-name="Trazado 171726" d="M-3478.726,516.152a.8.8,0,0,1,.275-.141.812.812,0,0,1,.363-.156.6.6,0,0,1,.306.019.605.605,0,0,1,.291.128.811.811,0,0,1,.318.526.827.827,0,0,1-.147.6,1.165,1.165,0,0,1-.435.358.859.859,0,0,1-.352.095.6.6,0,0,1-.307-.019.6.6,0,0,1-.29-.128.605.605,0,0,1-.208-.239.6.6,0,0,1-.11-.287.809.809,0,0,1,.147-.6Z" transform="translate(3479.029 -515.843)" fill="#fff"/>
          </g>
        </g>
        <g id="Grupo_111382" data-name="Grupo 111382" transform="translate(0.022)">
          <g id="Grupo_111381" data-name="Grupo 111381">
            <g id="Grupo_111380" data-name="Grupo 111380">
              <path id="Trazado_171727" data-name="Trazado 171727" d="M-3589.122,443.737a16.907,16.907,0,0,1-9.92-21.726,16.907,16.907,0,0,1,21.726-9.92,16.908,16.908,0,0,1,9.921,21.726A16.908,16.908,0,0,1-3589.122,443.737Zm11.075-29.689a14.815,14.815,0,0,0-19.038,8.693,14.816,14.816,0,0,0,8.693,19.038,14.815,14.815,0,0,0,19.038-8.693A14.816,14.816,0,0,0-3578.047,414.048Z" transform="translate(3600.108 -411.025)" fill="#28c65d"/>
            </g>
          </g>
        </g>
      </g>
      <g id="Grupo_111384" data-name="Grupo 111384" transform="translate(43.136 22.605)">
        <path id="Trazado_171728" data-name="Trazado 171728" d="M-4058.74,660.24s.3.47-.554,1.487c0,0,1.66,15.306,2.705,20.266,3.331,15.8,7.3,24.063,7.3,24.063l-1.777,8.883-7.477-4.918s-3.429-16.131-3.777-26.7a137.843,137.843,0,0,1,1.027-21.623s-.726-.248-.585-1.355a1.516,1.516,0,0,1,1.706-1.484A1.7,1.7,0,0,1-4058.74,660.24Z" transform="translate(4062.385 -658.823)" fill="#43a047"/>
      </g>
      <g id="Grupo_111385" data-name="Grupo 111385" transform="translate(38.552 90.721)">
        <path id="Trazado_171729" data-name="Trazado 171729" d="M-4113.944,1451.066h-.021a.468.468,0,0,1-.447-.487c0-.039.172-3.9.812-8.064.872-5.682,2.172-9.211,3.862-10.49a.467.467,0,0,1,.655.091.467.467,0,0,1-.091.655c-1.468,1.11-2.678,4.525-3.5,9.878-.632,4.115-.8,7.932-.8,7.97A.468.468,0,0,1-4113.944,1451.066Z" transform="translate(4114.412 -1431.929)" fill="#262a30"/>
      </g>
      <path id="Trazado_171730" data-name="Trazado 171730" d="M-4264.325,683.341c-2.089,4.85.417,35.331,22.027,43.071,15.657,5.607,43.487-19.448,41.212-24.566-2.849-6.409-35.478,9.53-37.723,9.14-5.612-.975-10.564-20.786-15.768-29.444C-4259.051,674.1-4262.719,679.613-4264.325,683.341Z" transform="translate(4290.214 -653.57)" fill="#e7f2f2"/>
      <g id="Grupo_111389" data-name="Grupo 111389" transform="translate(84.604 43.07)">
        <g id="Grupo_111388" data-name="Grupo 111388">
          <g id="Grupo_111387" data-name="Grupo 111387">
            <g id="Grupo_111386" data-name="Grupo 111386">
              <path id="Trazado_171731" data-name="Trazado 171731" d="M-3591.166,896.122s3.225-4.518,5.353-4.9,5.81.153,5.734.683c-.065.458-2.862-.1-2.862-.1s2.761.687,2.992,1.489-.293.7-.293.7a.96.96,0,0,1-.049,1.726,10.516,10.516,0,0,1-4.783,1.388c-.2.082-2.54,3.406-4.762,2.793S-3592.079,897.653-3591.166,896.122Z" transform="translate(3591.733 -891.093)" fill="#f5cd6c"/>
            </g>
          </g>
        </g>
      </g>
      <g id="Grupo_111391" data-name="Grupo 111391" transform="translate(39.041 0)">
        <path id="Trazado_171732" data-name="Trazado 171732" d="M-4100.682,408.96s2,0,2.369-1.526a3.876,3.876,0,0,0-1.181-4.082c-.668-.687-1.446-.714-1.608-.423-.1.18-.809-.439-2.691-.662-1.557-.185-1.4,1.8-1.4,1.8s-2.865-.4-3.454,4.795-.073,7.487,2.7,7.763C-4100.465,417.172-4100.708,409.017-4100.682,408.96Z" transform="translate(4108.866 -402.255)" fill="#434a59"/>
        <path id="Trazado_171733" data-name="Trazado 171733" d="M-4100.184,518.777c-.006,1.2,7.375,5.952,6.464.392l-.147-1.441-.681-6.678-.08-.783-3.241-2.022Z" transform="translate(4100.949 -498.907)" fill="#f5cd6c"/>
        <path id="Trazado_171734" data-name="Trazado 171734" d="M-4065.265,535.3s.344,4.53,2.2,6.108c.654.557.739.842,1.045.991l-.681-6.678C-4063.957,535.51-4065.265,535.3-4065.265,535.3Z" transform="translate(4069.106 -523.575)" fill="#deb247"/>
        <path id="Trazado_171735" data-name="Trazado 171735" d="M-4077.734,456.8l-1.016,3.817a3.845,3.845,0,0,0,1.622,3.841,4.956,4.956,0,0,0,3.951.788c1.353-.2,2.016-1.521,1.969-3.3a16.621,16.621,0,0,0-1.215-5.524,2.9,2.9,0,0,0-2.01-1.845C-4075.429,455.7-4077.044,454.985-4077.734,456.8Z" transform="translate(4081.473 -449.966)" fill="#f5cd6c"/>
        <path id="Trazado_171736" data-name="Trazado 171736" d="M-4040.521,522.61a10.091,10.091,0,0,0,3.3.492,1.208,1.208,0,0,1-.927,1.466C-4039.217,524.8-4040.242,524.171-4040.521,522.61Z" transform="translate(4046.542 -512.006)" fill="#fff"/>
        <path id="Trazado_171737" data-name="Trazado 171737" d="M-4090.587,485.593a4.4,4.4,0,0,1-.416-.827c-.216-.548-.663-1.312-1.318-.592-.954,1.047.077,3.717,1.518,3.406C-4089.732,487.349-4090.155,486.243-4090.587,485.593Z" transform="translate(4094.116 -476.689)" fill="#f5cd6c"/>
        <path id="Trazado_171738" data-name="Trazado 171738" d="M-4038.384,485.977a.3.3,0,0,1,.279-.214.3.3,0,0,1,.272.186.218.218,0,0,1,.075.132.679.679,0,0,1-.065.42.293.293,0,0,1-.457.055A.57.57,0,0,1-4038.384,485.977Z" transform="translate(4044.626 -478.406)" fill="#434a59"/>
        <path id="Trazado_171739" data-name="Trazado 171739" d="M-4003.525,489.75a.293.293,0,0,1,.41,0,.529.529,0,0,1,.128.316c0,.058-.007.117-.008.175a.294.294,0,0,1-.289.291.294.294,0,0,1-.291-.289c0-.044.006-.087.008-.131a.554.554,0,0,1-.045-.158A.3.3,0,0,1-4003.525,489.75Z" transform="translate(4012.885 -481.967)" fill="#434a59"/>
        <path id="Trazado_171740" data-name="Trazado 171740" d="M-4106.231,610.45l5.371,4.2.832-3.035a24.2,24.2,0,0,1,1.665,2.1,14.817,14.817,0,0,1,.682,3.666l-2.905-1.4-2.865,2.158s-3.379-5.3-3.546-5.726S-4106.231,610.45-4106.231,610.45Z" transform="translate(4107.182 -592.107)" fill="#fff"/>
        <path id="Trazado_171741" data-name="Trazado 171741" d="M-4045.833,475a8.935,8.935,0,0,1,1.048-.146c.394-.016.388.038.412-.087s.03-.48-.123-.489-1.326.039-1.445.266S-4046.05,474.978-4045.833,475Z" transform="translate(4051.555 -467.927)" fill="#434a59"/>
        <path id="Trazado_171742" data-name="Trazado 171742" d="M-4011.686,476.233a5.2,5.2,0,0,0-.74-.286c-.282-.069-.283-.014-.288-.141s.03-.479.142-.468.952.217,1.013.458S-4011.528,476.245-4011.686,476.233Z" transform="translate(4021.186 -468.899)" fill="#434a59"/>
        <g id="Grupo_111390" data-name="Grupo 111390" transform="translate(7.616 9.054)">
          <path id="Trazado_171743" data-name="Trazado 171743" d="M-4022.022,506.2a.761.761,0,0,1-.258-.041.22.22,0,0,1-.126-.285.221.221,0,0,1,.285-.126.5.5,0,0,0,.5-.172.588.588,0,0,0,.2-.339.22.22,0,0,1,.221-.219h0a.22.22,0,0,1,.219.222.974.974,0,0,1-.331.652A.994.994,0,0,1-4022.022,506.2Z" transform="translate(4022.421 -505.02)" fill="#7b5d14"/>
        </g>
      </g>
      <g id="Grupo_111392" data-name="Grupo 111392" transform="translate(48.566 55.456)">
        <path id="Trazado_171744" data-name="Trazado 171744" d="M-3994.623,1035.057h-.021c-4.7-.225-6.014-2.63-6.067-2.733a.441.441,0,0,1,.186-.595.441.441,0,0,1,.593.183c.021.038,1.19,2.066,5.33,2.264a.441.441,0,0,1,.419.461A.441.441,0,0,1-3994.623,1035.057Z" transform="translate(4000.762 -1031.679)" fill="#b1d5de"/>
      </g>
      <g id="Grupo_111393" data-name="Grupo 111393" transform="translate(26.702 46.895)">
        <path id="Trazado_171745" data-name="Trazado 171745" d="M-4221.856,961.634c-.407,0-.834-.012-1.28-.041a23.1,23.1,0,0,1-13.745-6,38.53,38.53,0,0,1-9.624-13.414,37.342,37.342,0,0,1-2.4-7.136.441.441,0,0,1,.348-.517.441.441,0,0,1,.517.347,37.172,37.172,0,0,0,2.351,6.974,37.623,37.623,0,0,0,9.386,13.082,22.243,22.243,0,0,0,13.178,5.786,16.04,16.04,0,0,0,5.864-.6.441.441,0,0,1,.563.266.44.44,0,0,1-.265.563A15.6,15.6,0,0,1-4221.856,961.634Z" transform="translate(4248.913 -934.513)" fill="#b1d5de"/>
      </g>
    </g>
    <g id="Grupo_111395" data-name="Grupo 111395" transform="translate(-4712.04 -82.544)">
      <path id="Trazado_171746" data-name="Trazado 171746" d="M-3986.073,765.577h-.684v-.21a.41.41,0,0,0-.026-.187.1.1,0,0,0-.087-.04.111.111,0,0,0-.1.054.313.313,0,0,0-.034.165.462.462,0,0,0,.039.214.556.556,0,0,0,.208.173,2.1,2.1,0,0,1,.62.479,1.1,1.1,0,0,1,.127.6,1.066,1.066,0,0,1-.07.446.556.556,0,0,1-.274.241,1.087,1.087,0,0,1-.473.1,1.056,1.056,0,0,1-.5-.112.548.548,0,0,1-.274-.285,1.453,1.453,0,0,1-.065-.492v-.185h.684v.345a.457.457,0,0,0,.029.2.113.113,0,0,0,.1.045.12.12,0,0,0,.109-.058.33.33,0,0,0,.036-.172.528.528,0,0,0-.068-.327,2.142,2.142,0,0,0-.344-.257,3.3,3.3,0,0,1-.364-.264.625.625,0,0,1-.148-.227,1.012,1.012,0,0,1-.058-.371,1.026,1.026,0,0,1,.083-.476.556.556,0,0,1,.269-.235,1.071,1.071,0,0,1,.448-.085,1.168,1.168,0,0,1,.489.093.515.515,0,0,1,.268.234,1.243,1.243,0,0,1,.065.479Z" transform="translate(3987.695 -764.66)" fill="#43a047"/>
      <path id="Trazado_171747" data-name="Trazado 171747" d="M-3966.427,765.336l.421,2.833h-.753l-.04-.509h-.263l-.044.509h-.762l.376-2.833Zm-.39,1.821q-.056-.481-.112-1.19-.113.814-.142,1.19Z" transform="translate(3969.614 -765.276)" fill="#43a047"/>
      <path id="Trazado_171748" data-name="Trazado 171748" d="M-3945.32,765.336h.521a3.988,3.988,0,0,1,.706.04.485.485,0,0,1,.3.206.932.932,0,0,1,.117.528.82.82,0,0,1-.083.444.431.431,0,0,1-.323.136.551.551,0,0,1,.293.145.431.431,0,0,1,.094.167,2.635,2.635,0,0,1,.019.419v.747h-.684v-.941a.658.658,0,0,0-.036-.282c-.024-.036-.087-.054-.188-.054v1.277h-.736Zm.736.485v.63a.324.324,0,0,0,.174-.034q.05-.034.05-.221v-.156a.235.235,0,0,0-.048-.177A.273.273,0,0,0-3944.584,765.821Z" transform="translate(3949.053 -765.276)" fill="#43a047"/>
      <path id="Trazado_171749" data-name="Trazado 171749" d="M-3922.682,765.336V767.6h.448v.567h-1.184v-2.833Z" transform="translate(3929.081 -765.276)" fill="#43a047"/>
      <path id="Trazado_171750" data-name="Trazado 171750" d="M-3907.394,765.336l.421,2.833h-.753l-.04-.509h-.264l-.044.509h-.761l.375-2.833Zm-.39,1.821q-.056-.481-.112-1.19-.113.814-.141,1.19Z" transform="translate(3915.782 -765.276)" fill="#43a047"/>
      <path id="Trazado_171751" data-name="Trazado 171751" d="M-3886.287,765.336h1.248v.567h-.511v.537h.455v.539h-.455v1.19h-.736Z" transform="translate(3895.222 -765.276)" fill="#43a047"/>
      <path id="Trazado_171752" data-name="Trazado 171752" d="M-3869.924,765.336v.567h-.437v2.266h-.737V765.9h-.436v-.567Z" transform="translate(3881.768 -765.276)" fill="#43a047"/>
    </g>
    <g id="Grupo_111396" data-name="Grupo 111396" transform="translate(-4671.578 -101.784)">
      <path id="Trazado_171753" data-name="Trazado 171753" d="M-3523.536,551.241l-2.1.015v-.684a1.42,1.42,0,0,0-.08-.609.282.282,0,0,0-.265-.128.337.337,0,0,0-.3.18,1.1,1.1,0,0,0-.1.536,1.607,1.607,0,0,0,.116.693,1.714,1.714,0,0,0,.631.56,6.507,6.507,0,0,1,1.9,1.563,3.805,3.805,0,0,1,.394,1.984,3.657,3.657,0,0,1-.219,1.463,1.712,1.712,0,0,1-.843.775,3.088,3.088,0,0,1-1.441.291,3.039,3.039,0,0,1-1.522-.391,1.764,1.764,0,0,1-.818-.934,5.1,5.1,0,0,1-.193-1.587v-.6l2.051.011v1.12a1.587,1.587,0,0,0,.087.666.335.335,0,0,0,.31.152.354.354,0,0,0,.332-.184,1.132,1.132,0,0,0,.109-.557,1.839,1.839,0,0,0-.207-1.067,6.7,6.7,0,0,0-1.042-.84,10.308,10.308,0,0,1-1.092-.856,2.012,2.012,0,0,1-.441-.733,3.462,3.462,0,0,1-.174-1.194,3.583,3.583,0,0,1,.247-1.537,1.763,1.763,0,0,1,.8-.773,3.062,3.062,0,0,1,1.349-.3,3.317,3.317,0,0,1,1.49.275,1.575,1.575,0,0,1,.823.752,4.278,4.278,0,0,1,.2,1.568Z" transform="translate(3528.45 -548.102)" fill="#1c551f"/>
      <path id="Trazado_171754" data-name="Trazado 171754" d="M-3460.088,549.3v9.419l-2.312-.042v-9.335Z" transform="translate(3468.219 -549.039)" fill="#1c551f"/>
      <path id="Trazado_171755" data-name="Trazado 171755" d="M-3420.685,549.992l-2.427.012v-.868a4.444,4.444,0,0,0-.068-1.027.3.3,0,0,0-.325-.2.3.3,0,0,0-.3.181,2.981,2.981,0,0,0-.08.908v4.577a2.825,2.825,0,0,0,.08.846.314.314,0,0,0,.319.207.346.346,0,0,0,.356-.226,2.765,2.765,0,0,0,.094-.9v-1.135l-.485,0v-1.451l2.838,0v5.181l-1.53-.028-.224-.691a1.677,1.677,0,0,1-.622.655,1.675,1.675,0,0,1-.881.205,2.237,2.237,0,0,1-1.123-.323,2.224,2.224,0,0,1-.789-.759,2.453,2.453,0,0,1-.335-.936,11.7,11.7,0,0,1-.067-1.463v-2.808a9.854,9.854,0,0,1,.14-1.969,2.059,2.059,0,0,1,.8-1.138,2.808,2.808,0,0,1,1.733-.545,3.152,3.152,0,0,1,1.759.418,2.073,2.073,0,0,1,.92,1.059,5.8,5.8,0,0,1,.215,1.807Z" transform="translate(3435.26 -546.29)" fill="#1c551f"/>
      <path id="Trazado_171756" data-name="Trazado 171756" d="M-3352.221,547.389l1.758-.032a13.468,13.468,0,0,1,2.417.1,1.649,1.649,0,0,1,1.044.7,3.231,3.231,0,0,1,.406,1.836,2.884,2.884,0,0,1-.287,1.552,1.5,1.5,0,0,1-1.123.477,1.916,1.916,0,0,1,1.02.505,1.517,1.517,0,0,1,.326.583,9.222,9.222,0,0,1,.064,1.463v2.608l-2.368-.043v-3.258a2.268,2.268,0,0,0-.123-.975q-.123-.188-.643-.189v4.408l-2.49-.045Zm2.49,1.628v2.174a1.1,1.1,0,0,0,.6-.12q.171-.119.171-.767v-.539a.816.816,0,0,0-.165-.61A.921.921,0,0,0-3349.731,549.017Z" transform="translate(3367.748 -547.257)" fill="#1c551f"/>
    </g>
  </g>
</svg>
