<svg xmlns="http://www.w3.org/2000/svg" width="61.675" height="70" viewBox="0 0 61.675 70">
  <g id="Grupo_111432" data-name="Grupo 111432" transform="translate(483.127 -1780.149)">
    <path id="Trazado_171888" data-name="Trazado 171888" d="M-443.378,1849.054c-.179.849-.452,1.092-1.283,1.093q-10.045,0-20.09,0c-.917,0-1.266-.352-1.275-1.29-.011-1.253-.046-2.508.014-3.758.032-.662-.2-.786-.8-.764-1.16.043-2.323.015-3.485.012-1.252,0-1.54-.287-1.541-1.513,0-1.276-.015-2.552.009-3.827.007-.386-.1-.488-.488-.491a25.635,25.635,0,0,1-3.956-.074,7.771,7.771,0,0,1-6.827-7.647c-.043-.818-.031-1.64-.012-2.459.019-.8.392-1.15,1.2-1.156,1.207-.009,2.416-.035,3.621.012.556.022.654-.166.654-.677q-.02-22.346-.019-44.692a1.828,1.828,0,0,1,.628-1.674h43.336a1.681,1.681,0,0,1,.628,1.538c-.032,1.229.014,2.461-.021,3.69-.014.5.158.608.621.6,1.3-.029,2.6-.016,3.9-.008.973.005,1.3.341,1.3,1.326,0,1.344.014,2.689-.008,4.033-.006.362.1.457.456.451,1.367-.02,2.734-.013,4.1-.006.887,0,1.234.35,1.263,1.236,0,.136,0,.273,0,.41q0,27.547,0,55.094c0,.182.008.365-.005.547a1.025,1.025,0,0,1-1.131,1.088q-8.544.011-17.087,0a1.064,1.064,0,0,1-1.146-1.093,1.172,1.172,0,0,1,1.343-.967c5.032.014,10.064-.006,15.1.024.68,0,.892-.126.891-.859q-.036-25.787-.024-51.573c0-.6.271-1.429-.118-1.754-.416-.347-1.218-.1-1.853-.082a7.1,7.1,0,0,1-.953-.029c-.681-.109-.846.137-.844.827.027,9.174.013,18.349.028,27.524a1.251,1.251,0,0,1-.962,1.426c-.922-.23-1.1-.456-1.1-1.422q0-16.151,0-32.3c0-2,0-2-2.051-1.8-.2-.014-.406-.039-.61-.04-1.095-.008-1.095-.006-1.095,1.055q0,23.921,0,47.842c0,1.351-.253,1.607-1.578,1.607h-33.556c-1.64,0-1.64,0-1.548,1.643a14.155,14.155,0,0,1-.033,1.432c-.067.57.124.7.7.7q19.539-.028,39.077,0c.547,0,.718-.1.714-.688-.028-4.691-.016-9.383-.015-14.074,0-.967.178-1.192,1.1-1.423a1.218,1.218,0,0,1,.961,1.358q-.025,7.787-.005,15.575a1.227,1.227,0,0,1-.384,1.046,1.8,1.8,0,0,1-1.243.249h-33.539c-1.675,0-1.675,0-1.5,1.7-.014.453.005.911-.051,1.359-.07.562.111.711.689.708,6.189-.024,12.379-.009,18.568-.022A1.173,1.173,0,0,1-443.378,1849.054Zm-12.379-20.943a1.049,1.049,0,0,1,1.207-.937c2.232.007,4.465,0,6.7,0,.868,0,1.225.365,1.242,1.254.015.8-.02,1.6.021,2.391a5.773,5.773,0,0,0,5.906,5.647c1.617.01,3.235-.023,4.852.016.552.013.714-.1.713-.691q-.027-26.449,0-52.9c0-.552-.107-.712-.691-.711q-19.545.029-39.091,0c-.57,0-.7.135-.7.7q.027,21.8,0,43.6c0,.576.143.7.706.7,5.012-.024,10.023-.009,15.035-.019.692,0,1.218.166,1.343.94-.132.9-.379,1.119-1.3,1.119q-10.149,0-20.3,0c-.182,0-.365.008-.547,0-.264-.01-.341.122-.365.372a5.921,5.921,0,0,0,6.055,6.875c9.363-.024,18.726-.008,28.088-.009.213,0,.426-.019.749-.035a8.272,8.272,0,0,1-2.565-6.692c.02-.454-.189-.52-.572-.517-1.731.014-3.463.008-5.194,0C-455.379,1829.229-455.626,1829.011-455.757,1828.111Z" fill="#060606"/>
    <path id="Trazado_171889" data-name="Trazado 171889" d="M-339.885,1854.645c.634-.017,1.437-.265,1.853.082.389.325.118,1.151.118,1.754q.01,25.787.024,51.573c0,.734-.211.863-.891.859-5.032-.03-10.063-.01-15.1-.023a1.171,1.171,0,0,0-1.343.967h-2.554a1.173,1.173,0,0,0-1.343-.967c-6.189.013-12.379,0-18.568.022-.578,0-.759-.147-.689-.708.056-.448.037-.906.051-1.359q18.689,0,37.379.017a.907.907,0,0,0,1.037-.9,4.916,4.916,0,0,0,.017-.75Q-339.887,1879.93-339.885,1854.645Z" transform="translate(-85.604 -60.803)" fill="#f4f4f4"/>
    <path id="Trazado_171890" data-name="Trazado 171890" d="M-424.861,1837.227c-.125-.774-.651-.942-1.343-.94-5.011.01-10.023,0-15.035.019-.562,0-.706-.122-.706-.7q.027-21.8,0-43.6c0-.568.131-.7.7-.7q19.546.028,39.091,0c.584,0,.692.159.691.711q-.024,26.45,0,52.9c0,.587-.161.7-.713.691-1.616-.039-3.234-.005-4.852-.016a5.773,5.773,0,0,1-5.906-5.647c-.041-.8-.006-1.594-.021-2.391-.017-.889-.374-1.252-1.242-1.254-2.233-.006-4.465,0-6.7,0a1.048,1.048,0,0,0-1.207.936A10.242,10.242,0,0,1-424.861,1837.227Zm-6.821-26.088q3.178,0,6.356,0c.929,0,1.3-.346,1.3-1.266q.013-6.322,0-12.645c0-.921-.368-1.264-1.3-1.265q-6.288,0-12.576,0c-.932,0-1.3.343-1.3,1.265q-.012,6.323,0,12.645c0,.921.368,1.264,1.3,1.266Q-434.792,1811.144-431.682,1811.139Zm9.979,17.633h-4.715q-5.808,0-11.616,0a1.016,1.016,0,0,0-1.149.833.951.951,0,0,0,.619,1.149,1.775,1.775,0,0,0,.667.074q16.194,0,32.388,0a2.343,2.343,0,0,0,.477-.014.982.982,0,0,0,.84-1.014.974.974,0,0,0-.841-1.011,3.22,3.22,0,0,0-.614-.014Zm7.587-6.152q-4.406,0-8.812,0c-.781,0-1.264.4-1.262,1.026s.484,1.025,1.265,1.026q8.744,0,17.488,0a1.607,1.607,0,0,0,.6-.074.951.951,0,0,0,.632-1.085.993.993,0,0,0-1.1-.895Q-409.711,1822.626-414.117,1822.62Zm-7.52-6.016q-3.723,0-7.445,0c-.78,0-1.264.4-1.261,1.028s.484,1.023,1.266,1.024q7.377,0,14.754,0c.778,0,1.262-.4,1.261-1.029s-.485-1.022-1.267-1.023Q-417.983,1816.6-421.638,1816.6Zm8.818-16.813q3.689,0,7.377,0c.78,0,1.264-.4,1.267-1.024s-.482-1.028-1.261-1.028q-7.309,0-14.618,0a1.613,1.613,0,0,0-.6.071.95.95,0,0,0-.637,1.083.994.994,0,0,0,1.094.9Q-416.509,1799.786-412.82,1799.792Zm.066,4.785q3.62,0,7.241,0c.843,0,1.332-.377,1.337-1.022s-.488-1.031-1.327-1.031h-14.481c-.845,0-1.333.376-1.337,1.021s.487,1.032,1.326,1.032Q-416.374,1804.579-412.754,1804.577Zm-.064,4.785q3.689,0,7.377,0c.78,0,1.264-.4,1.265-1.025s-.483-1.026-1.263-1.026q-7.309,0-14.618,0a1.607,1.607,0,0,0-.6.072.949.949,0,0,0-.635,1.083.994.994,0,0,0,1.1.9C-417.737,1809.359-415.278,1809.362-412.818,1809.362Zm-20.227,13.258q-2.492,0-4.983,0c-.8,0-1.241.373-1.241,1.024s.443,1.027,1.238,1.028q4.949,0,9.9,0c.779,0,1.263-.4,1.265-1.025s-.483-1.025-1.262-1.027Q-430.588,1822.616-433.046,1822.62Z" transform="translate(-33.658 -9.115)" fill="#f4f4f4"/>
    <path id="Trazado_171891" data-name="Trazado 171891" d="M-449.284,2042.676a10.247,10.247,0,0,0,2.763,0c.131.9.377,1.119,1.294,1.12,1.731,0,3.463.009,5.194,0,.383,0,.592.064.572.517A8.272,8.272,0,0,0-436.9,2051c-.323.016-.536.035-.749.035-9.363,0-18.726-.014-28.088.01a5.922,5.922,0,0,1-6.055-6.875c.024-.25.1-.382.365-.372.182.007.364,0,.547,0q10.149,0,20.3,0C-449.663,2043.8-449.416,2043.576-449.284,2042.676Z" transform="translate(-9.236 -214.564)" fill="#e5d090"/>
    <path id="Trazado_171892" data-name="Trazado 171892" d="M-368.62,1861.162c-.922.231-1.1.457-1.1,1.423,0,4.692-.013,9.383.015,14.074,0,.589-.167.689-.714.688q-19.539-.024-39.077,0c-.571,0-.763-.134-.7-.7a14.146,14.146,0,0,0,.033-1.432l37.365,0c.944,0,1.023-.079,1.023-1.006q0-25.549,0-51.1c2.051-.191,2.051-.191,2.051,1.8q0,16.151,0,32.3c0,.966.178,1.192,1.1,1.422Z" transform="translate(-59.6 -35.044)" fill="#f4f4f4"/>
    <path id="Trazado_171893" data-name="Trazado 171893" d="M-342.667,1887.137v-2.528a1.251,1.251,0,0,0,.962-1.426c-.015-9.175,0-18.349-.028-27.524,0-.69.162-.936.844-.827a7.076,7.076,0,0,0,.953.029q0,25.285,0,50.571a4.912,4.912,0,0,1-.017.75.907.907,0,0,1-1.037.9q-18.689-.031-37.379-.017c-.177-1.7-.177-1.7,1.5-1.7h33.539a1.8,1.8,0,0,0,1.243-.249,1.227,1.227,0,0,0,.384-1.046q-.009-7.787.005-15.575A1.218,1.218,0,0,0-342.667,1887.137Z" transform="translate(-85.553 -61.019)" fill="#e0e0e0"/>
    <path id="Trazado_171894" data-name="Trazado 171894" d="M-371.709,1823.278q0,25.549,0,51.1c0,.928-.08,1.006-1.023,1.006l-37.365,0c-.092-1.643-.092-1.643,1.548-1.643h33.556c1.326,0,1.578-.256,1.578-1.607q0-23.921,0-47.842c0-1.061,0-1.063,1.095-1.055C-372.115,1823.239-371.912,1823.264-371.709,1823.278Z" transform="translate(-59.663 -35.216)" fill="#e0e0e0"/>
    <path id="Trazado_171895" data-name="Trazado 171895" d="M-419.434,1831.982q-3.11,0-6.22,0c-.93,0-1.3-.345-1.3-1.266q-.012-6.323,0-12.645c0-.922.367-1.265,1.3-1.265q6.288,0,12.576,0c.932,0,1.3.343,1.3,1.265q.012,6.322,0,12.645c0,.92-.371,1.264-1.3,1.266Q-416.256,1831.987-419.434,1831.982Zm-5.457-7.573c0,1.663.012,3.326-.009,4.988-.005.41.1.543.529.541q5.022-.026,10.043,0c.392,0,.5-.119.5-.5q-.02-5.022,0-10.044c0-.409-.1-.543-.529-.541q-4.988.027-9.975,0c-.452,0-.573.13-.567.573C-424.876,1821.083-424.891,1822.746-424.891,1824.409Z" transform="translate(-45.907 -29.957)" fill="#060606"/>
    <path id="Trazado_171896" data-name="Trazado 171896" d="M-409.471,1996.374h16.057a3.21,3.21,0,0,1,.614.014.974.974,0,0,1,.841,1.011.982.982,0,0,1-.839,1.014,2.343,2.343,0,0,1-.477.014q-16.194,0-32.388,0a1.777,1.777,0,0,1-.667-.074.951.951,0,0,1-.619-1.149,1.016,1.016,0,0,1,1.149-.833q5.808.013,11.616,0Z" transform="translate(-45.891 -176.716)" fill="#060606"/>
    <path id="Trazado_171897" data-name="Trazado 171897" d="M-334.7,1962.721q4.406,0,8.812,0a.993.993,0,0,1,1.1.895.951.951,0,0,1-.632,1.085,1.607,1.607,0,0,1-.6.074q-8.744.005-17.488,0c-.78,0-1.263-.4-1.265-1.025s.481-1.026,1.262-1.026Q-339.1,1962.718-334.7,1962.721Z" transform="translate(-113.08 -149.215)" fill="#060606"/>
    <path id="Trazado_171898" data-name="Trazado 171898" d="M-369.737,1929.8q3.655,0,7.309,0c.782,0,1.266.4,1.267,1.023s-.483,1.029-1.261,1.029q-7.377,0-14.754,0c-.781,0-1.263-.4-1.266-1.024s.481-1.027,1.261-1.028Q-373.46,1929.8-369.737,1929.8Z" transform="translate(-85.559 -122.312)" fill="#060606"/>
    <path id="Trazado_171899" data-name="Trazado 171899" d="M-320.492,1828.589q-3.689,0-7.377,0a.994.994,0,0,1-1.094-.9.95.95,0,0,1,.637-1.083,1.613,1.613,0,0,1,.6-.071q7.309-.005,14.617,0c.779,0,1.264.4,1.261,1.028s-.487,1.023-1.267,1.024Q-316.8,1828.592-320.492,1828.589Z" transform="translate(-125.986 -37.911)" fill="#060606"/>
    <path id="Trazado_171900" data-name="Trazado 171900" d="M-320.489,1854.78q-3.62,0-7.241,0c-.839,0-1.329-.385-1.326-1.032s.492-1.021,1.337-1.021h14.481c.839,0,1.332.386,1.327,1.031s-.494,1.021-1.337,1.022Q-316.869,1854.782-320.489,1854.78Z" transform="translate(-125.923 -59.318)" fill="#060606"/>
    <path id="Trazado_171901" data-name="Trazado 171901" d="M-320.49,1880.972c-2.459,0-4.918,0-7.377,0a.994.994,0,0,1-1.1-.9.949.949,0,0,1,.635-1.083,1.61,1.61,0,0,1,.6-.072q7.309-.005,14.618,0c.78,0,1.265.4,1.263,1.027s-.486,1.024-1.265,1.025Q-316.8,1880.975-320.49,1880.972Z" transform="translate(-125.987 -80.724)" fill="#060606"/>
    <path id="Trazado_171902" data-name="Trazado 171902" d="M-421.08,1962.728q2.458,0,4.915,0c.779,0,1.264.4,1.262,1.027s-.486,1.025-1.265,1.025q-4.949,0-9.9,0c-.8,0-1.239-.375-1.238-1.028s.445-1.022,1.241-1.024Q-423.572,1962.724-421.08,1962.728Z" transform="translate(-45.624 -149.222)" fill="#060606"/>
    <path id="Trazado_171903" data-name="Trazado 171903" d="M-415.688,1833.558c0-1.663.015-3.326-.01-4.988-.007-.443.115-.576.567-.573q4.988.028,9.975,0c.43,0,.53.132.529.541q-.022,5.022,0,10.044c0,.383-.1.5-.5.5q-5.022-.021-10.043,0c-.43,0-.534-.131-.529-.541C-415.676,1836.883-415.688,1835.221-415.688,1833.558Z" transform="translate(-55.11 -39.106)" fill="#43a047"/>
  </g>
</svg>
