<svg xmlns="http://www.w3.org/2000/svg" width="79.988" height="80" viewBox="0 0 79.988 80">
  <g id="Grupo_111437" data-name="Grupo 111437" transform="translate(448.205 -1628.052)">
    <path id="Trazado_171907" data-name="Trazado 171907" d="M-448.205,1668q0-18.993,0-37.986c0-1.594.363-1.958,1.95-1.958h54.726c1.629,0,1.977.355,1.977,2.016q0,32.655.016,65.309a2.737,2.737,0,0,1-.893,2.119q-4.921,4.856-9.778,9.776a2.472,2.472,0,0,1-1.914.779q-22.074-.026-44.147-.013c-1.574,0-1.936-.37-1.936-1.974Q-448.206,1687.031-448.205,1668Zm2.666.051q0,18.287-.009,36.575c0,.515.026.769.679.768q20.661-.034,41.321,0c.549,0,.684-.146.679-.685-.028-2.777-.016-5.554-.011-8.331,0-1.195.466-1.658,1.663-1.66,2.721-.005,5.443-.029,8.164.017.694.012.853-.162.853-.854q-.031-31.159,0-62.319c0-.693-.162-.853-.853-.852q-25.825.033-51.651,0c-.7,0-.852.165-.851.854Q-445.521,1649.8-445.539,1668.047Zm51.21,29.328c-1.808,0-3.652.008-5.5-.007-.36,0-.4.166-.4.456.013.664,0,1.329,0,1.994v3.442Z"/>
    <path id="Trazado_171908" data-name="Trazado 171908" d="M-160.923,1719.505c0-6.8-.022-13.607.013-20.41a5.022,5.022,0,0,1,3.123-4.806,5.079,5.079,0,0,1,5.611.755,4.928,4.928,0,0,1,1.868,3.5c.051.557.258.608.706.591a5.4,5.4,0,0,1,1.653.113,3.953,3.953,0,0,1,3.015,3.82c.022,3.943.012,7.886.005,11.829,0,.97-.538,1.567-1.35,1.555s-1.31-.606-1.311-1.592q-.008-5.623,0-11.246a1.736,1.736,0,0,0-2.419-1.827c-.221.059-.247.167-.246.342,0,.194,0,.389,0,.583q0,18.453.01,36.9a4.51,4.51,0,0,1-.5,2.148c-1.166,2.265-2.3,4.549-3.423,6.834-.308.625-.647,1.19-1.444,1.178-.75-.011-1.083-.537-1.381-1.141q-1.764-3.575-3.571-7.127a3.4,3.4,0,0,1-.367-1.595Q-160.913,1729.71-160.923,1719.505Zm8-9.713c0-2.441-.017-4.882.013-7.323.007-.557-.169-.7-.7-.687-1.358.035-2.718.026-4.077,0-.427-.007-.574.114-.573.559q.021,7.448,0,14.9c0,.446.148.565.574.558,1.359-.022,2.719-.031,4.077,0,.535.014.709-.132.7-.687C-152.942,1714.675-152.926,1712.233-152.926,1709.793Zm0,22.662c0-2-.011-3.994.008-5.99,0-.462-.054-.7-.617-.687-1.385.041-2.773.028-4.159.005-.428-.007-.574.115-.572.56q.023,6.115,0,12.23c0,.448.152.563.575.556,1.359-.022,2.718-.031,4.076,0,.536.014.71-.134.7-.688C-152.945,1736.448-152.926,1734.451-152.926,1732.454Zm-2.731-9.345h.75c2.135,0,2.127,0,1.975-2.15-.024-.339-.095-.5-.471-.494-1.444.016-2.888.02-4.331,0-.821-.01-.561.644-.476.936.165.566-.635,1.477.475,1.683A11.6,11.6,0,0,0-155.656,1723.11Zm0-23.983c.749,0,1.5-.018,2.248.007.428.014.519-.144.441-.541a2.744,2.744,0,0,0-2.554-2.13,2.737,2.737,0,0,0-2.676,2.079c-.1.426-.022.613.461.592C-157.047,1699.1-156.352,1699.127-155.659,1699.127Zm-1.729,42.712,1.8,3.58,1.788-3.58Z" transform="translate(-223.296 -51.079)" fill="#010101"/>
    <path id="Trazado_171909" data-name="Trazado 171909" d="M-436.293,1677.293q0-18.246-.017-36.491c0-.689.156-.855.851-.854q25.826.033,51.651,0c.691,0,.854.159.853.852q-.032,31.159,0,62.319c0,.692-.158.866-.853.854-2.721-.045-5.443-.022-8.164-.017-1.2,0-1.661.465-1.663,1.66-.005,2.777-.016,5.555.011,8.331.005.539-.13.685-.679.685q-20.661-.024-41.321,0c-.653,0-.68-.253-.679-.768Q-436.284,1695.58-436.293,1677.293Zm26.753,10.664q-11.158,0-22.316,0c-1.326,0-1.768.428-1.77,1.72q-.005,4.955,0,9.91c0,1.247.455,1.7,1.708,1.7q22.275,0,44.549,0c1.293,0,1.729-.447,1.73-1.763q0-4.872,0-9.743c0-1.413-.414-1.823-1.835-1.824Zm-.186-2.666q11.2,0,22.4,0c1.212,0,1.682-.457,1.688-1.637.008-1.61.012-3.22,0-4.83a1.353,1.353,0,0,0-1.543-1.527q-22.44-.007-44.88,0c-1.078,0-1.554.5-1.561,1.593-.009,1.526,0,3.053,0,4.58,0,1.414.412,1.823,1.836,1.823Zm-23.9-32.08c0,3.052,0,6.1,0,9.157,0,1.093.486,1.588,1.564,1.59q6.41.011,12.819,0c1.132,0,1.608-.485,1.609-1.631q.007-9.032,0-18.064c0-1.147-.475-1.629-1.608-1.631q-6.367-.009-12.735,0c-1.189,0-1.648.468-1.65,1.671Q-433.633,1648.757-433.627,1653.21Zm33.35.085q6.451,0,12.9,0c1.295,0,1.733-.447,1.736-1.756,0-1.582.012-3.163,0-4.745a1.335,1.335,0,0,0-1.492-1.493q-13.152-.011-26.3,0a1.351,1.351,0,0,0-1.524,1.544c-.012,1.554-.005,3.108,0,4.662,0,1.364.424,1.789,1.785,1.789Q-406.728,1653.3-400.277,1653.3Zm-.111,10.665q6.576,0,13.152,0c1.094,0,1.587-.486,1.6-1.561q.017-2.414,0-4.828c-.006-1.13-.487-1.605-1.633-1.606q-13.027-.005-26.054,0c-1.181,0-1.633.472-1.637,1.684q-.008,2.289,0,4.578c0,1.3.445,1.733,1.757,1.734Q-406.8,1663.963-400.388,1663.96Zm2.753,10.665q5.2,0,10.4,0c1.09,0,1.583-.488,1.59-1.565q.017-2.414,0-4.827c-.006-1.127-.489-1.6-1.636-1.6q-10.362-.006-20.724,0c-1.148,0-1.625.473-1.631,1.605-.009,1.553-.005,3.107,0,4.661,0,1.293.446,1.729,1.76,1.73Q-402.753,1674.628-397.634,1674.625Zm-25.419,0q4.536,0,9.071,0c1.208,0,1.677-.459,1.682-1.641q.011-2.372,0-4.744c-.006-1.135-.483-1.61-1.627-1.61q-9.029-.006-18.059,0c-1.183,0-1.635.471-1.639,1.681q-.008,2.289,0,4.577c0,1.3.443,1.737,1.752,1.738Q-427.464,1674.628-423.053,1674.625Z" transform="translate(-9.246 -9.246)" fill="#f6f6f6"/>
    <path id="Trazado_171910" data-name="Trazado 171910" d="M-226.851,1939.3l-5.887,5.884v-3.442c0-.665.009-1.329,0-1.994-.006-.29.035-.459.4-.456C-230.5,1939.311-228.659,1939.3-226.851,1939.3Z" transform="translate(-167.478 -241.928)" fill="#ced0d2"/>
    <path id="Trazado_171911" data-name="Trazado 171911" d="M-143.621,1737.771c0,2.441-.017,4.882.013,7.323.007.555-.167.7-.7.688-1.358-.035-2.718-.026-4.077,0-.426.007-.575-.112-.574-.558q.021-7.447,0-14.9c0-.446.146-.566.573-.559,1.359.022,2.719.031,4.077,0,.534-.014.71.13.7.687C-143.638,1732.889-143.621,1735.33-143.621,1737.771Z" transform="translate(-232.601 -79.058)" fill="#c99a28"/>
    <path id="Trazado_171912" data-name="Trazado 171912" d="M-143.622,1844.178c0,2-.02,3.994.013,5.99.009.555-.165.7-.7.688-1.358-.035-2.717-.025-4.076,0-.423.007-.577-.108-.575-.556q.023-6.115,0-12.23c0-.444.144-.567.572-.56,1.386.022,2.774.036,4.159-.005.563-.017.621.225.617.687C-143.633,1840.184-143.622,1842.181-143.622,1844.178Z" transform="translate(-232.6 -162.803)" fill="#c99a28"/>
    <path id="Trazado_171913" data-name="Trazado 171913" d="M-146.6,1816.3a11.584,11.584,0,0,1-2.078-.023c-1.11-.206-.31-1.117-.475-1.683-.085-.293-.345-.947.476-.936,1.444.019,2.888.015,4.331,0,.376,0,.447.154.471.494.152,2.151.16,2.15-1.975,2.15Z" transform="translate(-232.355 -144.268)" fill="#7e8387"/>
    <path id="Trazado_171914" data-name="Trazado 171914" d="M-146.258,1708.54c-.694,0-1.388-.023-2.081.008-.482.021-.559-.166-.461-.592a2.737,2.737,0,0,1,2.676-2.079,2.744,2.744,0,0,1,2.554,2.13c.078.4-.013.555-.441.541C-144.759,1708.522-145.508,1708.54-146.258,1708.54Z" transform="translate(-232.698 -60.492)" fill="#43a047"/>
    <path id="Trazado_171915" data-name="Trazado 171915" d="M-145.022,1909.626h3.588l-1.788,3.58Z" transform="translate(-235.662 -218.866)" fill="#7e8387"/>
    <path id="Trazado_171916" data-name="Trazado 171916" d="M-400.181,1855.519h22.066c1.422,0,1.835.411,1.835,1.823q0,4.872,0,9.743c0,1.316-.437,1.763-1.73,1.763q-22.275,0-44.549,0c-1.253,0-1.706-.452-1.708-1.7q-.006-4.955,0-9.91c0-1.292.443-1.72,1.77-1.72Q-411.339,1855.517-400.181,1855.519Zm-.166,10.665c6.885,0,13.769-.01,20.654.016.635,0,.775-.166.764-.777q-.059-3.288,0-6.579c.009-.569-.179-.669-.7-.669q-20.654.02-41.308,0c-.555,0-.684.158-.677.691.029,2.193.042,4.387-.006,6.579-.014.651.189.757.786.755C-414.005,1866.176-407.176,1866.184-400.347,1866.184Z" transform="translate(-18.605 -176.809)"/>
    <path id="Trazado_171917" data-name="Trazado 171917" d="M-400.371,1815.63h-22.065c-1.423,0-1.834-.409-1.836-1.823,0-1.527-.007-3.053,0-4.58.006-1.1.483-1.592,1.56-1.593q22.44-.006,44.88,0a1.353,1.353,0,0,1,1.543,1.527c.013,1.61.009,3.22,0,4.83-.006,1.18-.476,1.637-1.688,1.637Q-389.172,1815.633-400.371,1815.63Zm.018-2.667h19.57c1.838,0,1.8,0,1.854-1.84.021-.717-.2-.843-.87-.842q-19.945.032-39.89.016c-1.929,0-1.9,0-1.936,1.923-.013.648.186.759.785.757C-414.011,1812.956-407.182,1812.964-400.353,1812.964Z" transform="translate(-18.601 -139.585)"/>
    <path id="Trazado_171918" data-name="Trazado 171918" d="M-424.268,1662.57q0-4.454,0-8.907c0-1.2.461-1.67,1.65-1.671q6.368-.007,12.735,0c1.132,0,1.607.484,1.608,1.631q.007,9.032,0,18.064c0,1.145-.478,1.629-1.609,1.631q-6.41.009-12.819,0c-1.078,0-1.561-.5-1.564-1.59C-424.273,1668.674-424.268,1665.622-424.268,1662.57Zm2.666.035c0,2.47.014,4.94-.011,7.41-.005.5.1.657.631.653q4.7-.042,9.407,0c.5,0,.653-.1.65-.633q-.034-7.368,0-14.737c0-.5-.1-.657-.631-.653-3.135.028-6.272.033-9.407,0-.608-.007-.65.236-.646.721C-421.591,1657.775-421.6,1660.19-421.6,1662.6Z" transform="translate(-18.605 -18.605)"/>
    <path id="Trazado_171919" data-name="Trazado 171919" d="M-325.789,1671.963q-6.451,0-12.9,0c-1.361,0-1.783-.425-1.785-1.789,0-1.554-.009-3.108,0-4.662a1.351,1.351,0,0,1,1.524-1.544q13.152-.009,26.3,0a1.335,1.335,0,0,1,1.492,1.492c.016,1.582.007,3.163,0,4.745,0,1.309-.441,1.755-1.736,1.756Q-319.338,1671.966-325.789,1671.963Zm-.027-2.667h10.157c1.847,0,1.81,0,1.862-1.829.02-.7-.167-.857-.857-.854-7.076.028-14.153.017-21.229.017-1.937,0-1.907,0-1.944,1.913-.012.626.152.775.773.769C-333.309,1669.281-329.563,1669.3-325.816,1669.3Z" transform="translate(-83.734 -27.914)"/>
    <path id="Trazado_171920" data-name="Trazado 171920" d="M-325.9,1719.853q-6.409,0-12.819,0c-1.312,0-1.754-.438-1.757-1.734q-.006-2.289,0-4.578c0-1.212.455-1.684,1.637-1.684q13.027,0,26.054,0c1.146,0,1.626.476,1.633,1.606q.013,2.414,0,4.828c-.008,1.075-.5,1.559-1.6,1.561Q-319.319,1719.859-325.9,1719.853Zm.175-5.333h-10.24c-1.849,0-1.813,0-1.864,1.827-.019.693.16.86.855.857,7.076-.029,14.153-.018,21.229-.018,1.939,0,1.91,0,1.946-1.91.012-.622-.145-.777-.77-.772C-318.283,1714.536-322,1714.52-325.72,1714.52Z" transform="translate(-83.739 -65.138)"/>
    <path id="Trazado_171921" data-name="Trazado 171921" d="M-304.535,1767.739q-5.118,0-10.237,0c-1.315,0-1.757-.436-1.76-1.73,0-1.554-.007-3.107,0-4.661.006-1.133.483-1.6,1.631-1.605q10.362-.006,20.724,0c1.147,0,1.63.475,1.636,1.6q.014,2.414,0,4.827c-.008,1.077-.5,1.563-1.59,1.565Q-299.333,1767.747-304.535,1767.739Zm.073-2.666h7.325c1.943,0,1.915,0,1.949-1.906.011-.612-.129-.781-.764-.777-5.327.029-10.654.017-15.981.017-1.958,0-1.938,0-1.946,1.989,0,.532.123.7.678.691C-310.289,1765.057-307.376,1765.073-304.462,1765.073Z" transform="translate(-102.346 -102.36)"/>
    <path id="Trazado_171922" data-name="Trazado 171922" d="M-413.7,1767.739q-4.411,0-8.821,0c-1.309,0-1.749-.439-1.752-1.738q-.005-2.289,0-4.577c0-1.21.456-1.68,1.639-1.681q9.029-.006,18.059,0c1.144,0,1.621.475,1.627,1.61q.013,2.372,0,4.744c-.005,1.182-.474,1.64-1.682,1.641Q-409.162,1767.744-413.7,1767.739Zm.054-2.667h6.075c1.977,0,1.95,0,1.976-1.962.008-.6-.166-.721-.737-.718-4.439.025-8.877.014-13.316.014-2,0-1.977,0-1.975,2.045,0,.529.154.638.653.632C-418.526,1765.058-416.085,1765.072-413.643,1765.072Z" transform="translate(-18.602 -102.359)"/>
    <path id="Trazado_171923" data-name="Trazado 171923" d="M-391.1,1875.446c-6.829,0-13.658-.008-20.487.014-.6,0-.8-.1-.786-.755.048-2.192.035-4.386.006-6.579-.007-.533.122-.691.677-.691q20.654.025,41.308,0c.52,0,.708.1.7.669q-.054,3.289,0,6.579c.011.612-.129.78-.764.777C-377.332,1875.437-384.217,1875.446-391.1,1875.446Z" transform="translate(-27.851 -186.071)" fill="#ffecb3"/>
    <path id="Trazado_171924" data-name="Trazado 171924" d="M-391.1,1822.216c-6.829,0-13.658-.008-20.487.014-.6,0-.8-.108-.785-.757.04-1.922.006-1.923,1.936-1.923q19.945,0,39.89-.016c.671,0,.891.125.87.842-.055,1.839-.016,1.84-1.854,1.84Z" transform="translate(-27.849 -148.838)" fill="#ffecb3"/>
    <path id="Trazado_171925" data-name="Trazado 171925" d="M-412.331,1671.859c0-2.415.01-4.829-.009-7.244,0-.485.038-.728.646-.721,3.135.035,6.272.031,9.407,0,.533,0,.633.157.631.653q-.028,7.368,0,14.737c0,.528-.15.637-.65.633q-4.7-.035-9.407,0c-.532,0-.636-.156-.631-.653C-412.317,1676.8-412.331,1674.329-412.331,1671.859Z" transform="translate(-27.876 -27.86)" fill="#ffecb3"/>
    <path id="Trazado_171926" data-name="Trazado 171926" d="M-316.56,1678.546c-3.746,0-7.493-.016-11.239.016-.621.005-.784-.143-.773-.769.036-1.912.006-1.913,1.944-1.913,7.077,0,14.153.011,21.229-.017.691,0,.877.157.857.854-.052,1.828-.015,1.829-1.862,1.829Z" transform="translate(-92.991 -37.163)" fill="#ffecb3"/>
    <path id="Trazado_171927" data-name="Trazado 171927" d="M-316.476,1723.772c3.719,0,7.437.016,11.156-.016.625-.006.781.15.77.772-.036,1.91-.006,1.91-1.946,1.91-7.077,0-14.153-.011-21.229.018-.695,0-.874-.164-.855-.857.051-1.826.015-1.827,1.864-1.827Z" transform="translate(-92.983 -74.39)" fill="#ffecb3"/>
    <path id="Trazado_171928" data-name="Trazado 171928" d="M-295.192,1774.325c-2.913,0-5.827-.016-8.74.014-.555.006-.68-.159-.678-.691.008-1.989-.012-1.989,1.946-1.989,5.327,0,10.654.012,15.981-.016.635,0,.775.165.764.777-.034,1.9-.006,1.905-1.949,1.905Z" transform="translate(-111.616 -111.612)" fill="#ffecb3"/>
    <path id="Trazado_171929" data-name="Trazado 171929" d="M-404.384,1774.335c-2.441,0-4.883-.014-7.324.011-.5.005-.652-.1-.653-.632,0-2.045-.025-2.045,1.975-2.045,4.439,0,8.878.011,13.316-.014.571,0,.745.12.737.718-.026,1.961,0,1.962-1.976,1.962Z" transform="translate(-27.862 -111.621)" fill="#ffecb3"/>
  </g>
</svg>
