<svg xmlns="http://www.w3.org/2000/svg" xmlns:xlink="http://www.w3.org/1999/xlink" width="820" height="340.825" viewBox="0 0 820 340.825">
  <defs>
    <clipPath id="clip-path">
      <circle id="Elipse_5887" data-name="Elipse 5887" cx="128.5" cy="128.5" r="128.5" transform="translate(0.363 -0.144)" fill="none"/>
    </clipPath>
    <clipPath id="clip-path-2">
      <rect id="Rectángulo_37546" data-name="Rectángulo 37546" width="394" height="245" transform="translate(0 47.136)" fill="none"/>
    </clipPath>
  </defs>
  <g id="Grupo_111514" data-name="Grupo 111514" transform="translate(-390 -7742.999)">
    <path id="Trazado_172359" data-name="Trazado 172359" d="M11.156-3.516H4.992L3.82,0H.082L6.434-17.062H9.691L16.078,0H12.34ZM5.941-6.363h4.266L8.063-12.75ZM20.063-12.68l.105,1.418a4.456,4.456,0,0,1,3.645-1.652,3.382,3.382,0,0,1,3.363,1.934,4.354,4.354,0,0,1,3.809-1.934,3.782,3.782,0,0,1,3.07,1.2A5.521,5.521,0,0,1,35.063-8.1V0h-3.4V-8.1a2.424,2.424,0,0,0-.422-1.58,1.867,1.867,0,0,0-1.488-.5,2.114,2.114,0,0,0-2.109,1.456L27.656,0H24.27V-8.093a2.394,2.394,0,0,0-.434-1.6,1.885,1.885,0,0,0-1.477-.493,2.194,2.194,0,0,0-2.086,1.2V0H16.887V-12.68ZM37.137-6.457a7.52,7.52,0,0,1,.727-3.363,5.319,5.319,0,0,1,2.092-2.285,6.1,6.1,0,0,1,3.17-.809,5.774,5.774,0,0,1,4.189,1.57,6.3,6.3,0,0,1,1.811,4.266l.023.867A6.627,6.627,0,0,1,47.52-1.529,5.662,5.662,0,0,1,43.148.234a5.69,5.69,0,0,1-4.377-1.758A6.744,6.744,0,0,1,37.137-6.3Zm3.387.24a4.74,4.74,0,0,0,.68,2.764,2.242,2.242,0,0,0,1.945.957,2.247,2.247,0,0,0,1.922-.945,5.186,5.186,0,0,0,.691-3.022,4.692,4.692,0,0,0-.691-2.746,2.248,2.248,0,0,0-1.945-.974,2.211,2.211,0,0,0-1.922.968A5.274,5.274,0,0,0,40.523-6.217ZM54.352-12.68l.105,1.465a4.427,4.427,0,0,1,3.645-1.7,3.679,3.679,0,0,1,3,1.184,5.522,5.522,0,0,1,1.008,3.539V0H58.723V-8.128A2.206,2.206,0,0,0,58.254-9.7a2.1,2.1,0,0,0-1.559-.487,2.329,2.329,0,0,0-2.145,1.221V0H51.164V-12.68ZM70.512.234a6.225,6.225,0,0,1-4.541-1.711,6.082,6.082,0,0,1-1.752-4.559v-.328a7.66,7.66,0,0,1,.738-3.416,5.418,5.418,0,0,1,2.092-2.32,5.871,5.871,0,0,1,3.088-.814,5.262,5.262,0,0,1,4.1,1.641,6.667,6.667,0,0,1,1.494,4.652v1.383H67.652a3.146,3.146,0,0,0,.99,1.992,2.993,2.993,0,0,0,2.092.75,3.656,3.656,0,0,0,3.059-1.418l1.664,1.863A5.084,5.084,0,0,1,73.395-.369,6.767,6.767,0,0,1,70.512.234Zm-.387-10.418A2.116,2.116,0,0,0,68.49-9.5a3.535,3.535,0,0,0-.8,1.954H72.4v-.271a2.521,2.521,0,0,0-.609-1.748A2.183,2.183,0,0,0,70.125-10.184ZM84.516-3.5a1.091,1.091,0,0,0-.615-.979,6.989,6.989,0,0,0-1.975-.639Q77.4-6.07,77.4-8.965a3.484,3.484,0,0,1,1.4-2.818,5.649,5.649,0,0,1,3.662-1.131,6.08,6.08,0,0,1,3.861,1.137,3.582,3.582,0,0,1,1.447,2.953H84.387a1.639,1.639,0,0,0-.469-1.2,1.984,1.984,0,0,0-1.465-.475,2.027,2.027,0,0,0-1.324.387,1.221,1.221,0,0,0-.469.984,1.044,1.044,0,0,0,.533.908,5.485,5.485,0,0,0,1.8.6,14.693,14.693,0,0,1,2.133.568q2.684.984,2.684,3.41A3.307,3.307,0,0,1,86.32-.838,6.42,6.42,0,0,1,82.477.234a6.706,6.706,0,0,1-2.83-.568,4.748,4.748,0,0,1-1.939-1.559A3.621,3.621,0,0,1,77-4.031h3.211a1.768,1.768,0,0,0,.668,1.383,2.649,2.649,0,0,0,1.664.48,2.452,2.452,0,0,0,1.471-.369A1.149,1.149,0,0,0,84.516-3.5ZM94.043-15.8v3.117h2.168V-10.2H94.043v6.328a1.511,1.511,0,0,0,.27,1.008,1.354,1.354,0,0,0,1.031.3,5.4,5.4,0,0,0,1-.082V-.07a6.972,6.972,0,0,1-2.051.3q-3.562,0-3.633-3.6V-10.2H88.8V-12.68h1.852V-15.8ZM105.445,0a3.761,3.761,0,0,1-.34-1.137,4.1,4.1,0,0,1-3.2,1.371A4.5,4.5,0,0,1,98.818-.844a3.467,3.467,0,0,1-1.225-2.719,3.583,3.583,0,0,1,1.494-3.094,7.373,7.373,0,0,1,4.318-1.09h1.559v-.727a2.089,2.089,0,0,0-.451-1.406,1.775,1.775,0,0,0-1.424-.527,2.018,2.018,0,0,0-1.342.41,1.393,1.393,0,0,0-.486,1.125H97.875a3.4,3.4,0,0,1,.68-2.039,4.493,4.493,0,0,1,1.922-1.471,7,7,0,0,1,2.789-.533,5.534,5.534,0,0,1,3.721,1.178,4.12,4.12,0,0,1,1.377,3.311v5.5a6.062,6.062,0,0,0,.5,2.73V0Zm-2.8-2.355a2.917,2.917,0,0,0,1.383-.334,2.194,2.194,0,0,0,.938-.9v-2.18H103.7q-2.543,0-2.707,1.758l-.012.2a1.356,1.356,0,0,0,.445,1.043A1.73,1.73,0,0,0,102.645-2.355ZM116.238-2.5a2.221,2.221,0,0,0,1.523-.516,1.807,1.807,0,0,0,.609-1.371h3.176a4.344,4.344,0,0,1-.7,2.361,4.64,4.64,0,0,1-1.893,1.664A5.923,5.923,0,0,1,116.3.234a5.5,5.5,0,0,1-4.289-1.729,6.84,6.84,0,0,1-1.57-4.775v-.223A6.762,6.762,0,0,1,112-11.168a5.441,5.441,0,0,1,4.277-1.746,5.333,5.333,0,0,1,3.814,1.354,4.792,4.792,0,0,1,1.459,3.6h-3.176a2.327,2.327,0,0,0-.609-1.608,2.032,2.032,0,0,0-1.547-.619,2.04,2.04,0,0,0-1.787.863,5,5,0,0,0-.6,2.8v.352a5.063,5.063,0,0,0,.6,2.817A2.065,2.065,0,0,0,116.238-2.5ZM127.055,0h-3.4V-12.68h3.4Zm-3.6-15.961a1.668,1.668,0,0,1,.51-1.254,1.915,1.915,0,0,1,1.389-.492,1.919,1.919,0,0,1,1.383.492,1.658,1.658,0,0,1,.516,1.254,1.663,1.663,0,0,1-.521,1.266,1.924,1.924,0,0,1-1.377.492,1.924,1.924,0,0,1-1.377-.492A1.663,1.663,0,0,1,123.457-15.961Zm5.859,9.5a7.52,7.52,0,0,1,.727-3.363,5.319,5.319,0,0,1,2.092-2.285,6.1,6.1,0,0,1,3.17-.809,5.774,5.774,0,0,1,4.189,1.57A6.3,6.3,0,0,1,141.3-7.078l.023.867A6.627,6.627,0,0,1,139.7-1.529,5.662,5.662,0,0,1,135.328.234a5.69,5.69,0,0,1-4.377-1.758A6.744,6.744,0,0,1,129.316-6.3Zm3.387.24a4.74,4.74,0,0,0,.68,2.764,2.242,2.242,0,0,0,1.945.957,2.247,2.247,0,0,0,1.922-.945,5.186,5.186,0,0,0,.691-3.022,4.692,4.692,0,0,0-.691-2.746,2.248,2.248,0,0,0-1.945-.974,2.211,2.211,0,0,0-1.922.968A5.274,5.274,0,0,0,132.7-6.217Zm13.828-6.463.105,1.465a4.427,4.427,0,0,1,3.645-1.7,3.679,3.679,0,0,1,3,1.184,5.522,5.522,0,0,1,1.008,3.539V0H150.9V-8.128a2.206,2.206,0,0,0-.469-1.568,2.1,2.1,0,0,0-1.559-.487,2.329,2.329,0,0,0-2.145,1.221V0h-3.387V-12.68ZM162.691.234a6.225,6.225,0,0,1-4.541-1.711A6.082,6.082,0,0,1,156.4-6.035v-.328a7.66,7.66,0,0,1,.738-3.416,5.418,5.418,0,0,1,2.092-2.32,5.871,5.871,0,0,1,3.088-.814,5.262,5.262,0,0,1,4.1,1.641,6.667,6.667,0,0,1,1.494,4.652v1.383h-8.074a3.146,3.146,0,0,0,.99,1.992,2.993,2.993,0,0,0,2.092.75,3.656,3.656,0,0,0,3.059-1.418l1.664,1.863a5.084,5.084,0,0,1-2.062,1.682A6.767,6.767,0,0,1,162.691.234ZM162.3-10.184a2.116,2.116,0,0,0-1.635.683,3.535,3.535,0,0,0-.8,1.954h4.711v-.271a2.521,2.521,0,0,0-.609-1.748A2.183,2.183,0,0,0,162.3-10.184ZM176.7-3.5a1.091,1.091,0,0,0-.615-.979,6.989,6.989,0,0,0-1.975-.639q-4.523-.949-4.523-3.844a3.484,3.484,0,0,1,1.4-2.818,5.649,5.649,0,0,1,3.662-1.131,6.08,6.08,0,0,1,3.861,1.137,3.582,3.582,0,0,1,1.447,2.953h-3.387a1.639,1.639,0,0,0-.469-1.2,1.984,1.984,0,0,0-1.465-.475,2.027,2.027,0,0,0-1.324.387,1.221,1.221,0,0,0-.469.984,1.044,1.044,0,0,0,.533.908,5.485,5.485,0,0,0,1.8.6,14.693,14.693,0,0,1,2.133.568q2.684.984,2.684,3.41A3.307,3.307,0,0,1,178.5-.838,6.42,6.42,0,0,1,174.656.234a6.706,6.706,0,0,1-2.83-.568,4.748,4.748,0,0,1-1.939-1.559,3.621,3.621,0,0,1-.7-2.139h3.211a1.768,1.768,0,0,0,.668,1.383,2.649,2.649,0,0,0,1.664.48,2.452,2.452,0,0,0,1.471-.369A1.149,1.149,0,0,0,176.7-3.5Z" transform="translate(431 7897)" fill="#12263f"/>
    <path id="Trazado_172361" data-name="Trazado 172361" d="M10.371-4.477a1.8,1.8,0,0,0-.7-1.529A9.222,9.222,0,0,0,7.137-7.131,17.944,17.944,0,0,1,4.242-8.3q-2.906-1.57-2.906-4.23a4.12,4.12,0,0,1,.779-2.467,5.083,5.083,0,0,1,2.238-1.693A8.425,8.425,0,0,1,7.629-17.3a7.668,7.668,0,0,1,3.258.662,5.187,5.187,0,0,1,2.221,1.869,4.891,4.891,0,0,1,.791,2.742H10.383a2.3,2.3,0,0,0-.738-1.822A3.035,3.035,0,0,0,7.57-14.5a3.242,3.242,0,0,0-2,.545,1.719,1.719,0,0,0-.715,1.436,1.646,1.646,0,0,0,.838,1.395,9.466,9.466,0,0,0,2.467,1.055,10.658,10.658,0,0,1,4.371,2.238A4.458,4.458,0,0,1,13.9-4.5a4.106,4.106,0,0,1-1.676,3.475A7.336,7.336,0,0,1,7.711.234,8.712,8.712,0,0,1,4.125-.486,5.674,5.674,0,0,1,1.658-2.461a5.057,5.057,0,0,1-.85-2.906H4.336q0,2.824,3.375,2.824a3.283,3.283,0,0,0,1.957-.51A1.658,1.658,0,0,0,10.371-4.477ZM23.648-1.289A4.247,4.247,0,0,1,20.18.234,4.005,4.005,0,0,1,17.068-.937a5,5,0,0,1-1.1-3.434V-12.68h3.387v8.2q0,1.983,1.8,1.983a2.445,2.445,0,0,0,2.367-1.2V-12.68h3.4V0H23.742ZM36.352-3.5a1.091,1.091,0,0,0-.615-.979,6.989,6.989,0,0,0-1.975-.639q-4.523-.949-4.523-3.844a3.484,3.484,0,0,1,1.4-2.818A5.649,5.649,0,0,1,34.3-12.914a6.08,6.08,0,0,1,3.861,1.137,3.582,3.582,0,0,1,1.447,2.953H36.223a1.639,1.639,0,0,0-.469-1.2,1.984,1.984,0,0,0-1.465-.475,2.027,2.027,0,0,0-1.324.387,1.221,1.221,0,0,0-.469.984,1.044,1.044,0,0,0,.533.908,5.485,5.485,0,0,0,1.8.6,14.693,14.693,0,0,1,2.133.568q2.684.984,2.684,3.41A3.307,3.307,0,0,1,38.156-.838,6.42,6.42,0,0,1,34.313.234a6.706,6.706,0,0,1-2.83-.568,4.748,4.748,0,0,1-1.939-1.559,3.621,3.621,0,0,1-.7-2.139h3.211a1.768,1.768,0,0,0,.668,1.383,2.649,2.649,0,0,0,1.664.48,2.452,2.452,0,0,0,1.471-.369A1.149,1.149,0,0,0,36.352-3.5ZM53.238-6.223a7.6,7.6,0,0,1-1.33,4.693A4.264,4.264,0,0,1,48.316.234,3.95,3.95,0,0,1,45.211-1.1V4.875H41.824V-12.68h3.141l.117,1.242a3.98,3.98,0,0,1,3.211-1.477,4.294,4.294,0,0,1,3.645,1.734,7.811,7.811,0,0,1,1.3,4.781Zm-3.387-.258a5.018,5.018,0,0,0-.627-2.739,2.04,2.04,0,0,0-1.822-.964,2.217,2.217,0,0,0-2.191,1.222v5.207A2.254,2.254,0,0,0,47.426-2.5Q49.852-2.5,49.852-6.481ZM61.172.234a6.225,6.225,0,0,1-4.541-1.711,6.082,6.082,0,0,1-1.752-4.559v-.328a7.66,7.66,0,0,1,.738-3.416,5.418,5.418,0,0,1,2.092-2.32,5.871,5.871,0,0,1,3.088-.814,5.262,5.262,0,0,1,4.1,1.641,6.667,6.667,0,0,1,1.494,4.652v1.383H58.313a3.146,3.146,0,0,0,.99,1.992,2.993,2.993,0,0,0,2.092.75,3.656,3.656,0,0,0,3.059-1.418l1.664,1.863A5.084,5.084,0,0,1,64.055-.369,6.767,6.767,0,0,1,61.172.234Zm-.387-10.418A2.116,2.116,0,0,0,59.15-9.5a3.535,3.535,0,0,0-.8,1.954h4.711v-.271a2.521,2.521,0,0,0-.609-1.748A2.183,2.183,0,0,0,60.785-10.184Zm10.641-2.5.105,1.465a4.427,4.427,0,0,1,3.645-1.7,3.679,3.679,0,0,1,3,1.184,5.522,5.522,0,0,1,1.008,3.539V0H75.8V-8.128A2.206,2.206,0,0,0,75.328-9.7a2.1,2.1,0,0,0-1.559-.487,2.329,2.329,0,0,0-2.145,1.221V0H68.238V-12.68ZM88.617-3.5A1.091,1.091,0,0,0,88-4.482a6.989,6.989,0,0,0-1.975-.639Q81.5-6.07,81.5-8.965a3.484,3.484,0,0,1,1.4-2.818,5.649,5.649,0,0,1,3.662-1.131,6.08,6.08,0,0,1,3.861,1.137,3.582,3.582,0,0,1,1.447,2.953H88.488a1.639,1.639,0,0,0-.469-1.2,1.984,1.984,0,0,0-1.465-.475,2.027,2.027,0,0,0-1.324.387,1.221,1.221,0,0,0-.469.984,1.044,1.044,0,0,0,.533.908,5.485,5.485,0,0,0,1.8.6,14.693,14.693,0,0,1,2.133.568q2.684.984,2.684,3.41A3.307,3.307,0,0,1,90.422-.838,6.42,6.42,0,0,1,86.578.234a6.706,6.706,0,0,1-2.83-.568,4.748,4.748,0,0,1-1.939-1.559,3.621,3.621,0,0,1-.7-2.139h3.211a1.768,1.768,0,0,0,.668,1.383,2.649,2.649,0,0,0,1.664.48,2.452,2.452,0,0,0,1.471-.369A1.149,1.149,0,0,0,88.617-3.5ZM97.664,0h-3.4V-12.68h3.4Zm-3.6-15.961a1.668,1.668,0,0,1,.51-1.254,1.915,1.915,0,0,1,1.389-.492,1.919,1.919,0,0,1,1.383.492,1.658,1.658,0,0,1,.516,1.254,1.663,1.663,0,0,1-.521,1.266,1.924,1.924,0,0,1-1.377.492,1.924,1.924,0,0,1-1.377-.492A1.663,1.663,0,0,1,94.066-15.961Zm5.859,9.5a7.52,7.52,0,0,1,.727-3.363,5.319,5.319,0,0,1,2.092-2.285,6.1,6.1,0,0,1,3.17-.809,5.774,5.774,0,0,1,4.189,1.57,6.3,6.3,0,0,1,1.811,4.266l.023.867a6.627,6.627,0,0,1-1.629,4.682A5.662,5.662,0,0,1,105.938.234a5.69,5.69,0,0,1-4.377-1.758A6.744,6.744,0,0,1,99.926-6.3Zm3.387.24a4.74,4.74,0,0,0,.68,2.764,2.242,2.242,0,0,0,1.945.957,2.247,2.247,0,0,0,1.922-.945,5.186,5.186,0,0,0,.691-3.022,4.692,4.692,0,0,0-.691-2.746,2.248,2.248,0,0,0-1.945-.974,2.211,2.211,0,0,0-1.922.968A5.274,5.274,0,0,0,103.313-6.217Zm13.828-6.463.105,1.465a4.427,4.427,0,0,1,3.645-1.7,3.679,3.679,0,0,1,3,1.184A5.522,5.522,0,0,1,124.9-8.191V0h-3.387V-8.128a2.206,2.206,0,0,0-.469-1.568,2.1,2.1,0,0,0-1.559-.487,2.329,2.329,0,0,0-2.145,1.221V0h-3.387V-12.68ZM133.3.234a6.225,6.225,0,0,1-4.541-1.711,6.082,6.082,0,0,1-1.752-4.559v-.328a7.66,7.66,0,0,1,.738-3.416,5.418,5.418,0,0,1,2.092-2.32,5.871,5.871,0,0,1,3.088-.814,5.262,5.262,0,0,1,4.1,1.641,6.667,6.667,0,0,1,1.494,4.652v1.383h-8.074a3.146,3.146,0,0,0,.99,1.992,2.993,2.993,0,0,0,2.092.75,3.656,3.656,0,0,0,3.059-1.418l1.664,1.863a5.084,5.084,0,0,1-2.062,1.682A6.767,6.767,0,0,1,133.3.234Zm-.387-10.418a2.116,2.116,0,0,0-1.635.683,3.535,3.535,0,0,0-.8,1.954h4.711v-.271a2.521,2.521,0,0,0-.609-1.748A2.183,2.183,0,0,0,132.914-10.184ZM147.3-3.5a1.091,1.091,0,0,0-.615-.979,6.989,6.989,0,0,0-1.975-.639q-4.523-.949-4.523-3.844a3.484,3.484,0,0,1,1.4-2.818,5.649,5.649,0,0,1,3.662-1.131,6.08,6.08,0,0,1,3.861,1.137,3.582,3.582,0,0,1,1.447,2.953h-3.387a1.639,1.639,0,0,0-.469-1.2,1.984,1.984,0,0,0-1.465-.475,2.027,2.027,0,0,0-1.324.387,1.221,1.221,0,0,0-.469.984,1.044,1.044,0,0,0,.533.908,5.485,5.485,0,0,0,1.8.6,14.693,14.693,0,0,1,2.133.568q2.684.984,2.684,3.41a3.307,3.307,0,0,1-1.488,2.807A6.42,6.42,0,0,1,145.266.234a6.706,6.706,0,0,1-2.83-.568A4.748,4.748,0,0,1,140.5-1.893a3.621,3.621,0,0,1-.7-2.139H143a1.768,1.768,0,0,0,.668,1.383,2.649,2.649,0,0,0,1.664.48,2.452,2.452,0,0,0,1.471-.369A1.149,1.149,0,0,0,147.3-3.5Z" transform="translate(449 8029)" fill="#12263f"/>
    <path id="Trazado_172360" data-name="Trazado 172360" d="M6.117-17.062,10.5-4.687l4.359-12.375h4.617V0H15.949V-4.664l.352-8.051L11.7,0H9.281L4.688-12.7l.352,8.039V0H1.523V-17.062Zm23.8,15.773A4.247,4.247,0,0,1,26.449.234,4.005,4.005,0,0,1,23.338-.937a5,5,0,0,1-1.1-3.434V-12.68h3.387v8.2q0,1.983,1.8,1.983a2.445,2.445,0,0,0,2.367-1.2V-12.68h3.4V0H30.012ZM39.328,0h-3.4V-18h3.4Zm6.844-15.8v3.117H48.34V-10.2H46.172v6.328a1.511,1.511,0,0,0,.27,1.008,1.354,1.354,0,0,0,1.031.3,5.4,5.4,0,0,0,1-.082V-.07a6.972,6.972,0,0,1-2.051.3q-3.562,0-3.633-3.6V-10.2H40.934V-12.68h1.852V-15.8ZM57.574,0a3.761,3.761,0,0,1-.34-1.137,4.1,4.1,0,0,1-3.2,1.371A4.5,4.5,0,0,1,50.947-.844a3.467,3.467,0,0,1-1.225-2.719,3.583,3.583,0,0,1,1.494-3.094,7.373,7.373,0,0,1,4.318-1.09h1.559v-.727a2.089,2.089,0,0,0-.451-1.406,1.775,1.775,0,0,0-1.424-.527,2.018,2.018,0,0,0-1.342.41,1.393,1.393,0,0,0-.486,1.125H50a3.4,3.4,0,0,1,.68-2.039,4.493,4.493,0,0,1,1.922-1.471,7,7,0,0,1,2.789-.533,5.534,5.534,0,0,1,3.721,1.178,4.12,4.12,0,0,1,1.377,3.311v5.5A6.062,6.062,0,0,0,61-.2V0Zm-2.8-2.355a2.917,2.917,0,0,0,1.383-.334,2.194,2.194,0,0,0,.938-.9v-2.18H55.828q-2.543,0-2.707,1.758l-.012.2a1.356,1.356,0,0,0,.445,1.043A1.73,1.73,0,0,0,54.773-2.355ZM69.961-3.5a1.091,1.091,0,0,0-.615-.979,6.989,6.989,0,0,0-1.975-.639q-4.523-.949-4.523-3.844a3.484,3.484,0,0,1,1.4-2.818,5.649,5.649,0,0,1,3.662-1.131,6.08,6.08,0,0,1,3.861,1.137,3.582,3.582,0,0,1,1.447,2.953H69.832a1.639,1.639,0,0,0-.469-1.2A1.984,1.984,0,0,0,67.9-10.5a2.027,2.027,0,0,0-1.324.387,1.221,1.221,0,0,0-.469.984,1.044,1.044,0,0,0,.533.908,5.485,5.485,0,0,0,1.8.6,14.693,14.693,0,0,1,2.133.568q2.684.984,2.684,3.41A3.307,3.307,0,0,1,71.766-.838,6.42,6.42,0,0,1,67.922.234a6.706,6.706,0,0,1-2.83-.568,4.748,4.748,0,0,1-1.939-1.559,3.621,3.621,0,0,1-.7-2.139H65.66a1.768,1.768,0,0,0,.668,1.383,2.649,2.649,0,0,0,1.664.48,2.452,2.452,0,0,0,1.471-.369A1.149,1.149,0,0,0,69.961-3.5Z" transform="translate(1038 7897)" fill="#12263f"/>
    <path id="Trazado_172362" data-name="Trazado 172362" d="M7.84-6.246h-2.8V0H1.523V-17.062h6.34a7.167,7.167,0,0,1,4.664,1.348,4.651,4.651,0,0,1,1.641,3.809,5.249,5.249,0,0,1-.756,2.912,5.155,5.155,0,0,1-2.291,1.857L14.813-.164V0H11.039Zm-2.8-2.848H7.875a2.9,2.9,0,0,0,2.051-.674,2.408,2.408,0,0,0,.727-1.857,2.578,2.578,0,0,0-.686-1.9,2.849,2.849,0,0,0-2.1-.691H5.039ZM22.453.234a6.225,6.225,0,0,1-4.541-1.711A6.082,6.082,0,0,1,16.16-6.035v-.328A7.66,7.66,0,0,1,16.9-9.779,5.418,5.418,0,0,1,18.99-12.1a5.871,5.871,0,0,1,3.088-.814,5.262,5.262,0,0,1,4.1,1.641,6.667,6.667,0,0,1,1.494,4.652v1.383H19.594a3.146,3.146,0,0,0,.99,1.992,2.993,2.993,0,0,0,2.092.75,3.656,3.656,0,0,0,3.059-1.418L27.4-2.051A5.084,5.084,0,0,1,25.336-.369,6.767,6.767,0,0,1,22.453.234Zm-.387-10.418a2.116,2.116,0,0,0-1.635.683,3.535,3.535,0,0,0-.8,1.954H24.34v-.271a2.521,2.521,0,0,0-.609-1.748A2.183,2.183,0,0,0,22.066-10.184Zm10.7-2.5.105,1.418a4.456,4.456,0,0,1,3.645-1.652,3.382,3.382,0,0,1,3.363,1.934,4.354,4.354,0,0,1,3.809-1.934,3.782,3.782,0,0,1,3.07,1.2A5.521,5.521,0,0,1,47.766-8.1V0h-3.4V-8.1a2.424,2.424,0,0,0-.422-1.58,1.867,1.867,0,0,0-1.488-.5,2.114,2.114,0,0,0-2.109,1.456L40.359,0H36.973V-8.093a2.394,2.394,0,0,0-.434-1.6,1.885,1.885,0,0,0-1.477-.493,2.194,2.194,0,0,0-2.086,1.2V0H29.59V-12.68ZM49.84-6.457a7.52,7.52,0,0,1,.727-3.363,5.319,5.319,0,0,1,2.092-2.285,6.1,6.1,0,0,1,3.17-.809,5.774,5.774,0,0,1,4.189,1.57,6.3,6.3,0,0,1,1.811,4.266l.023.867a6.627,6.627,0,0,1-1.629,4.682A5.662,5.662,0,0,1,55.852.234a5.69,5.69,0,0,1-4.377-1.758A6.744,6.744,0,0,1,49.84-6.3Zm3.387.24a4.74,4.74,0,0,0,.68,2.764,2.242,2.242,0,0,0,1.945.957,2.247,2.247,0,0,0,1.922-.945,5.186,5.186,0,0,0,.691-3.022,4.692,4.692,0,0,0-.691-2.746,2.248,2.248,0,0,0-1.945-.974,2.211,2.211,0,0,0-1.922.968A5.274,5.274,0,0,0,53.227-6.217ZM69.211-2.5a2.221,2.221,0,0,0,1.523-.516,1.807,1.807,0,0,0,.609-1.371H74.52a4.344,4.344,0,0,1-.7,2.361A4.64,4.64,0,0,1,71.924-.357,5.923,5.923,0,0,1,69.27.234,5.5,5.5,0,0,1,64.98-1.494,6.84,6.84,0,0,1,63.41-6.27v-.223a6.762,6.762,0,0,1,1.559-4.676,5.441,5.441,0,0,1,4.277-1.746,5.333,5.333,0,0,1,3.814,1.354,4.792,4.792,0,0,1,1.459,3.6H71.344a2.327,2.327,0,0,0-.609-1.608,2.032,2.032,0,0,0-1.547-.619,2.04,2.04,0,0,0-1.787.863,5,5,0,0,0-.6,2.8v.352a5.063,5.063,0,0,0,.6,2.817A2.065,2.065,0,0,0,69.211-2.5ZM80.027,0h-3.4V-12.68h3.4Zm-3.6-15.961a1.668,1.668,0,0,1,.51-1.254,1.915,1.915,0,0,1,1.389-.492,1.919,1.919,0,0,1,1.383.492,1.658,1.658,0,0,1,.516,1.254,1.663,1.663,0,0,1-.521,1.266,1.924,1.924,0,0,1-1.377.492,1.924,1.924,0,0,1-1.377-.492A1.663,1.663,0,0,1,76.43-15.961Zm5.859,9.5a7.52,7.52,0,0,1,.727-3.363,5.319,5.319,0,0,1,2.092-2.285,6.1,6.1,0,0,1,3.17-.809,5.774,5.774,0,0,1,4.189,1.57,6.3,6.3,0,0,1,1.811,4.266l.023.867a6.627,6.627,0,0,1-1.629,4.682A5.662,5.662,0,0,1,88.3.234a5.69,5.69,0,0,1-4.377-1.758A6.744,6.744,0,0,1,82.289-6.3Zm3.387.24a4.74,4.74,0,0,0,.68,2.764A2.242,2.242,0,0,0,88.3-2.5a2.247,2.247,0,0,0,1.922-.945,5.186,5.186,0,0,0,.691-3.022,4.692,4.692,0,0,0-.691-2.746,2.248,2.248,0,0,0-1.945-.974,2.211,2.211,0,0,0-1.922.968A5.274,5.274,0,0,0,85.676-6.217ZM99.5-12.68l.105,1.465a4.427,4.427,0,0,1,3.645-1.7,3.679,3.679,0,0,1,3,1.184,5.522,5.522,0,0,1,1.008,3.539V0h-3.387V-8.128a2.206,2.206,0,0,0-.469-1.568,2.1,2.1,0,0,0-1.559-.487A2.329,2.329,0,0,0,99.7-8.962V0H96.316V-12.68ZM115.664.234a6.225,6.225,0,0,1-4.541-1.711,6.082,6.082,0,0,1-1.752-4.559v-.328a7.66,7.66,0,0,1,.738-3.416A5.418,5.418,0,0,1,112.2-12.1a5.871,5.871,0,0,1,3.088-.814,5.262,5.262,0,0,1,4.1,1.641,6.667,6.667,0,0,1,1.494,4.652v1.383H112.8a3.146,3.146,0,0,0,.99,1.992,2.993,2.993,0,0,0,2.092.75,3.656,3.656,0,0,0,3.059-1.418l1.664,1.863a5.084,5.084,0,0,1-2.062,1.682A6.767,6.767,0,0,1,115.664.234Zm-.387-10.418a2.116,2.116,0,0,0-1.635.683,3.535,3.535,0,0,0-.8,1.954h4.711v-.271a2.521,2.521,0,0,0-.609-1.748A2.183,2.183,0,0,0,115.277-10.184ZM129.668-3.5a1.091,1.091,0,0,0-.615-.979,6.989,6.989,0,0,0-1.975-.639q-4.523-.949-4.523-3.844a3.484,3.484,0,0,1,1.4-2.818,5.649,5.649,0,0,1,3.662-1.131,6.08,6.08,0,0,1,3.861,1.137,3.582,3.582,0,0,1,1.447,2.953h-3.387a1.639,1.639,0,0,0-.469-1.2,1.984,1.984,0,0,0-1.465-.475,2.027,2.027,0,0,0-1.324.387,1.221,1.221,0,0,0-.469.984,1.044,1.044,0,0,0,.533.908,5.485,5.485,0,0,0,1.8.6,14.693,14.693,0,0,1,2.133.568q2.684.984,2.684,3.41a3.307,3.307,0,0,1-1.488,2.807A6.42,6.42,0,0,1,127.629.234a6.706,6.706,0,0,1-2.83-.568,4.748,4.748,0,0,1-1.939-1.559,3.621,3.621,0,0,1-.7-2.139h3.211a1.768,1.768,0,0,0,.668,1.383,2.649,2.649,0,0,0,1.664.48,2.452,2.452,0,0,0,1.471-.369A1.149,1.149,0,0,0,129.668-3.5Z" transform="translate(1008 8029)" fill="#12263f"/>
    <g id="Grupo_111463" data-name="Grupo 111463" transform="translate(0 -7.002)">
      <g id="lines" transform="translate(66 7294.07)">
        <g id="Grupo_111446" data-name="Grupo 111446" transform="translate(745.708 531.812)">
          <g id="Grupo_111445" data-name="Grupo 111445" transform="translate(0 0)">
            <path id="Trazado_171955" data-name="Trazado 171955" d="M2217.43,543.422H1992.558a23.01,23.01,0,0,0-23.01,23.01,18.848,18.848,0,0,1-18.827,18.826h-3.928a22.83,22.83,0,0,1-17.041-7.68,132.408,132.408,0,0,0-85.293-43.885,2.092,2.092,0,1,0-.437,4.161,128.233,128.233,0,0,1,82.6,42.5,27.016,27.016,0,0,0,20.168,9.084h3.928a23.036,23.036,0,0,0,23.01-23.01,18.827,18.827,0,0,1,18.826-18.827H2217.43a18.848,18.848,0,0,1,18.827,18.827v67.984a18.848,18.848,0,0,1-18.827,18.827H1992.558a18.848,18.848,0,0,1-18.826-18.827V622.2a10.8,10.8,0,1,0-21.06,3.354,128.424,128.424,0,0,1,4.446,17.676,2.092,2.092,0,0,0,4.119-.729,132.564,132.564,0,0,0-4.591-18.253,6.614,6.614,0,1,1,12.9-2.048v12.212a23.036,23.036,0,0,0,23.01,23.01H2217.43a23.036,23.036,0,0,0,23.01-23.01V566.432A23.036,23.036,0,0,0,2217.43,543.422Z" transform="translate(-1842.148 -533.682)" fill="#f5cd6c"/>
            <path id="Trazado_171956" data-name="Trazado 171956" d="M2251.633,982.924a7.322,7.322,0,1,0,7.321,7.322A7.33,7.33,0,0,0,2251.633,982.924Zm0,10.459a3.138,3.138,0,1,1,3.138-3.138A3.141,3.141,0,0,1,2251.633,993.383Z" transform="translate(-2132.599 -858.135)" fill="#f5cd6c"/>
          </g>
        </g>
        <g id="Grupo_111448" data-name="Grupo 111448" transform="translate(324 656.602)">
          <g id="Grupo_111447" data-name="Grupo 111447">
            <path id="Trazado_171957" data-name="Trazado 171957" d="M720.7,1159.01a128.2,128.2,0,0,1-82.884-42.532,27.016,27.016,0,0,0-20.169-9.084h-3.928a23.036,23.036,0,0,0-23.01,23.01,18.827,18.827,0,0,1-18.826,18.826H347.01a18.848,18.848,0,0,1-18.827-18.826v-67.985a18.848,18.848,0,0,1,18.827-18.827H571.883a18.848,18.848,0,0,1,18.826,18.827v12.212a10.8,10.8,0,1,0,21.061-3.356,128.015,128.015,0,0,1-4.446-17.677,2.092,2.092,0,0,0-4.12.728,132.257,132.257,0,0,0,4.591,18.255,6.614,6.614,0,1,1-12.9,2.051v-12.212a23.036,23.036,0,0,0-23.01-23.01H347.01a23.036,23.036,0,0,0-23.01,23.01V1130.4a23.036,23.036,0,0,0,23.01,23.01H571.883a23.01,23.01,0,0,0,23.01-23.01,18.848,18.848,0,0,1,18.827-18.827h3.928a22.829,22.829,0,0,1,17.041,7.68,132.376,132.376,0,0,0,85.584,43.915q.109.011.216.011a2.092,2.092,0,0,0,.211-4.173Z" transform="translate(-324 -1023.719)" fill="#f5cd6c"/>
            <path id="Trazado_171958" data-name="Trazado 171958" d="M1310.3,997.567a7.322,7.322,0,1,0-7.322-7.321A7.33,7.33,0,0,0,1310.3,997.567Zm0-10.459a3.138,3.138,0,1,1-3.138,3.138A3.141,3.141,0,0,1,1310.3,987.108Z" transform="translate(-1031.037 -982.924)" fill="#f5cd6c"/>
          </g>
        </g>
        <path id="Trazado_171959" data-name="Trazado 171959" d="M737.366,533.169c0-2.076-3.33-2.076-3.367-2.076-2.819,0-5.667.089-8.463.266a132.512,132.512,0,0,0-90.848,44.351,22.83,22.83,0,0,1-17.041,7.68h-3.928a18.827,18.827,0,0,1-18.827-18.826,23.036,23.036,0,0,0-23.01-23.01H347.01A23.036,23.036,0,0,0,324,564.562v67.984a23.036,23.036,0,0,0,23.01,23.01H571.883a23.036,23.036,0,0,0,23.01-23.01V620.335a6.615,6.615,0,1,1,12.9,2.049,132.441,132.441,0,0,0-4.59,18.247c-.113.63-.229,1.319-.356,2.106-.183,1.138-.349,2.284-.5,3.429a17.8,17.8,0,1,0,4.183.284c.138-1.018.288-2.037.45-3.049.122-.762.234-1.427.344-2.036a128.275,128.275,0,0,1,4.446-17.674,10.8,10.8,0,1,0-21.061-3.356v12.212a18.848,18.848,0,0,1-18.826,18.827H347.01a18.848,18.848,0,0,1-18.827-18.827V564.562a18.848,18.848,0,0,1,18.827-18.827H571.883a18.848,18.848,0,0,1,18.826,18.827,23.01,23.01,0,0,0,23.01,23.01h3.928a27.017,27.017,0,0,0,20.168-9.084A127.763,127.763,0,0,1,725.8,535.534c2.709-.171,5.468-.257,8.2-.257.036,0,3.367.183,3.367-2.108M616.856,663.923a13.6,13.6,0,1,1-13.6-13.6A13.612,13.612,0,0,1,616.856,663.923Z" transform="translate(0)" fill="#f5cd6c"/>
        <path id="Trazado_171960" data-name="Trazado 171960" d="M1791.821,1095.883c2.863,0,5.751-.1,8.586-.283a132.531,132.531,0,0,0,91.6-45.528,18.8,18.8,0,0,1,14.213-6.484h5.707a18.828,18.828,0,0,1,18.827,18.827,23.036,23.036,0,0,0,23.01,23.01h224.873a23.036,23.036,0,0,0,23.01-23.01V994.431a23.036,23.036,0,0,0-23.01-23.01H1953.76a23.036,23.036,0,0,0-23.01,23.01v12.212a6.614,6.614,0,1,1-12.9-2.047,132.336,132.336,0,0,0,4.59-18.253c.114-.633.227-1.3.356-2.107.183-1.141.35-2.288.5-3.427a17.8,17.8,0,1,0-4.183-.284c-.137,1.014-.287,2.032-.45,3.047-.125.778-.234,1.424-.344,2.037a128.177,128.177,0,0,1-4.446,17.679,10.8,10.8,0,1,0,21.06,3.354V994.431A18.848,18.848,0,0,1,1953.76,975.6h224.873a18.848,18.848,0,0,1,18.827,18.827v67.985a18.848,18.848,0,0,1-18.827,18.826H1953.76a18.848,18.848,0,0,1-18.826-18.826,23.01,23.01,0,0,0-23.01-23.01h-5.707a22.984,22.984,0,0,0-17.373,7.925,127.651,127.651,0,0,1-88.708,44.095c-2.745.179-5.54.271-8.312.274,0,0-3.395-.286-3.395,1.949S1791.821,1095.883,1791.821,1095.883Zm116.965-132.831a13.6,13.6,0,1,1,13.6,13.6A13.612,13.612,0,0,1,1908.786,963.052Z" transform="translate(-1057.643 -299.129)" fill="#f5cd6c"/>
      </g>
      <g id="Grupo_111462" data-name="Grupo 111462" transform="translate(2793 7605.027)">
        <g id="Grupo_111454" data-name="Grupo 111454" transform="translate(-2121.363 225.117)">
          <g id="Grupo_111453" data-name="Grupo 111453" transform="translate(0 0)" clip-path="url(#clip-path)">
            <g id="Grupo_111449" data-name="Grupo 111449" transform="translate(-64.667 -97.289)">
              <path id="Trazado_171961" data-name="Trazado 171961" d="M-2004.622,234.9a1.264,1.264,0,0,0,2.507.125c.511-3.187.263-6.115-1.311-6.282C-2004.75,228.6-2004.846,231.769-2004.622,234.9Z" transform="translate(2037.208 -227.491)" fill="#fff"/>
              <path id="Trazado_171962" data-name="Trazado 171962" d="M-2130.216,325.9a1.265,1.265,0,0,0,0-2.489c-5.238-.964-10.968-.636-11.062,1.926C-2141.362,327.507-2134.97,326.755-2130.216,325.9Z" transform="translate(2141.282 -299.257)" fill="#fff"/>
              <path id="Trazado_171963" data-name="Trazado 171963" d="M-2063.958,234a1.265,1.265,0,0,0,2.288-.979c-1.166-5.2-3.718-10.337-6.113-9.417C-2069.816,224.383-2066.613,229.966-2063.958,234Z" transform="translate(2085.76 -223.495)" fill="#fff"/>
              <path id="Trazado_171964" data-name="Trazado 171964" d="M-2096.207,268.3a1.264,1.264,0,0,0,1.7-1.87c-1.481-1.426-2.944-2.2-3.753-1.452C-2098.948,265.615-2097.813,266.942-2096.207,268.3Z" transform="translate(2108.653 -254.889)" fill="#fff"/>
            </g>
            <path id="Trazado_171965" data-name="Trazado 171965" d="M-2050.25,500.142c.335-15.144-10.737-28.268-2.856-42.666,3.932-7.184,10.261-9.023,13.389-6.6s.759,15.888,2.5,14.728c2.677-1.785,1.094-6.411,3.392-5.088,8.836,5.088-4.106,11.514.819,34.021C-2030.126,507.7-2050.25,500.142-2050.25,500.142Z" transform="translate(2011.58 -493.296)" fill="#efaea6"/>
            <path id="Trazado_171966" data-name="Trazado 171966" d="M-1924.024,1561.232h83.064q2.754-1.337,5.586-2.552c.06-.024.118-.051.178-.075,28.4-12.088,58.787-22.465,63.379-24.059.24-.082.409-.142.5-.176,1.62-.585,5.117,10.2,9.848,26.862h60.819c-1.263-19.553-2.141-39.888-2.857-56.913-.889-21.271-1.518-37.372-2.316-40.339-1.5-5.557-2.9-10.615-4.006-16.165a133.958,133.958,0,0,0-3.345-13.16c-10.755-34.942-101.876,29.3-101.876,29.3C-1832.651,1495.256-1894.715,1527.415-1924.024,1561.232Z" transform="translate(1911.048 -1235.851)" fill="#1c551f"/>
            <path id="Trazado_171967" data-name="Trazado 171967" d="M-1206.537,1789.253a.516.516,0,0,0,0,.059,2.812,2.812,0,0,1-.324-.135A2.477,2.477,0,0,1-1206.537,1789.253Z" transform="translate(1364.516 -1513.955)" fill="#1f1f39" opacity="0.46"/>
            <path id="Trazado_171968" data-name="Trazado 171968" d="M-1200.363,1597.979c7.209,14.269,34.435,28.658,47.889,34.929-.889-21.271-1.519-37.372-2.316-40.338C-1165.875,1593.7-1200.363,1597.979-1200.363,1597.979Z" transform="translate(1359.562 -1364.125)" fill="#1f1f39" opacity="0.45"/>
            <path id="Trazado_171969" data-name="Trazado 171969" d="M-1433.563,657.118l-18.071,11.96s-17.68,11.364-15.943,5.649c2.331-7.636-.565-13.355-.3-17.927a34.9,34.9,0,0,0-1.62-10.44,110.781,110.781,0,0,0-4.483-12.7l-.929-1.437.164-5.3.48-15.522s15.759,1.152,20.2,9.542C-1450.006,628.591-1436.3,648-1433.563,657.118Z" transform="translate(1568.789 -616.397)" fill="#efaea6"/>
            <path id="Trazado_171970" data-name="Trazado 171970" d="M-1469.5,690.255a110.782,110.782,0,0,0-4.483-12.7l-.929-1.437.164-5.3,1.854-1.818s8.729,2.787,11.378,4.329C-1457.722,675.548-1458.959,688.77-1469.5,690.255Z" transform="translate(1568.789 -660.293)" fill="#1f1f39" opacity="0.14"/>
            <path id="Trazado_171971" data-name="Trazado 171971" d="M-1474.024,752.208c-9.057-2.076-9.2,13.209-18.177,14.377-4.739.617-3.79-1.574-6.145-3.729-1.45-1.327-2.822-2.828-4.9-.407-42.222,49.226,9.769,165.762,4.505,174.321-4.305,7,34.04,19.99,57.4,12.909,32.029-9.711,28.32-45.952,27.049-52.848s-27.8-123.853-27.8-123.853A177.35,177.35,0,0,1-1474.024,752.208Z" transform="translate(1603.077 -723.557)" fill="#fff"/>
            <path id="Trazado_171972" data-name="Trazado 171972" d="M-2059.609,603.459c.2,3.277,2.8,81.226,34.972,96.986,15.063,7.379,72.029-.612,80.937,5.851,6.779,4.919,12.566,23.361,11.7,32.21-.7,7.117-1.592,13.994-1.9,19.081-.8,13.066-8.409,68.291,7.952,84.227,10.4,10.127,18.542,8.662,24.184,2.794,9.684-10.071-2.536-53-.683-95.707,1.432-33.015-14.309-51.634-12.206-78.963,1.593-20.678.111-28.509.111-28.509-49.092,22.212-86,27.644-97.274,24.224-14.488-4.394-18.244-64.544-20.02-70.9C-2033.034,590.487-2060.087,595.614-2059.609,603.459Z" transform="translate(2014.379 -602.537)" fill="#0267a4"/>
            <path id="Trazado_171973" data-name="Trazado 171973" d="M-2059.609,603.459c.2,3.277,2.8,81.226,34.972,96.986,15.063,7.379,72.029-.612,80.937,5.851,6.779,4.919,12.566,23.361,11.7,32.21-.7,7.117-1.592,13.994-1.9,19.081-.8,13.066-8.409,68.291,7.952,84.227,10.4,10.127,18.542,8.662,24.184,2.794,9.684-10.071-2.536-53-.683-95.707,1.432-33.015-14.309-51.634-12.206-78.963,1.593-20.678.111-28.509.111-28.509-49.092,22.212-86,27.644-97.274,24.224-14.488-4.394-18.244-64.544-20.02-70.9C-2033.034,590.487-2060.087,595.614-2059.609,603.459Z" transform="translate(2014.379 -602.537)" fill="#7b5d14"/>
            <path id="Trazado_171974" data-name="Trazado 171974" d="M-1238.84,971.366c-3.561,17-45.927.91-59.05-12.049-10.878-10.748-1.111-25.8-10.017-51.656-4.5-13.063-11.4-35.589-14.315-53.135-.285-1.727-.534-3.41-.74-5.029-1.717-13.589-2.814-28.308-3.509-42.131-.318-6.284-.553-12.387-.72-18.111-.108-3.672-.187-7.194-.25-10.509-.216-12.268-.136-21.749-.016-25.921,0,0,22.546-.506,41.994,18.5a32.319,32.319,0,0,1,6.128,9.56c1.548,3.379,11.337,20.109,11.96,33.343.453,9.63,1.833,25.742.847,32.654s2.635,17.941,3.431,30.268c.877,13.589,5.374,15.289,6.776,34.825S-1236.984,962.508-1238.84,971.366Z" transform="translate(1456.509 -724.174)" fill="#a27b1c"/>
            <path id="Trazado_171975" data-name="Trazado 171975" d="M-1296.878,928.447c.348,5.39-17.009,63.49-18.865,74.218-.285-1.727-3.47-17.711-3.677-19.329-1.717-13.589-2.814-28.308-3.509-42.131Z" transform="translate(1452.967 -858.012)" fill="#1f1f39" opacity="0.18"/>
            <path id="Trazado_171976" data-name="Trazado 171976" d="M-1552.6,1874.6c29.886-12.721,61.975-23.548,63.883-24.235l-4-11.88S-1531.887,1856.751-1552.6,1874.6Z" transform="translate(1627.994 -1551.533)" fill="#1f1f39" opacity="0.45"/>
            <g id="Grupo_111450" data-name="Grupo 111450" transform="translate(14.414 1.973)">
              <path id="Trazado_171978" data-name="Trazado 171978" d="M-1749.015,674.234c.979-3.253,14.408-9.756,13.751-12.3-1.223-4.748-11.175.556-6.8-6.364,2.117-3.351,13.177-8.095,6-11.354-16.809-7.628-30.011-2.617-28.352,12.994,1.289,12.133-6.552,19.178-7.865,29.406s21.245,2.771,21.245,2.771S-1750.875,680.411-1749.015,674.234Z" transform="translate(1781.042 -640.7)" fill="#efaea6"/>
              <path id="Trazado_171979" data-name="Trazado 171979" d="M-1683.676,766.539c-45.5,26.49-110.638,153.043-87.985,4.891.545-3.561-27.775-14.135-28.864-8.707-47.044,234.47,118.478,58.726,138.5,47.059,8.484-4.944,10.276-36.522-3.034-38.7S-1683.676,766.539-1683.676,766.539Z" transform="translate(1808.903 -732.532)" fill="#0267a4"/>
            </g>
            <g id="Grupo_111451" data-name="Grupo 111451" transform="translate(70.179 -35.807)">
              <path id="Trazado_171980" data-name="Trazado 171980" d="M-1564.135,561.244c-1.641,8.15-12.382,22.8-6.813,23.475s-3.484,17.217,2.418,18.148c14.3,2.255,31.863-4.768,34.525-11.462s3.9-26.161,3.9-26.161Z" transform="translate(1573.008 -542.368)" fill="#efaea6"/>
              <path id="Trazado_171981" data-name="Trazado 171981" d="M-1551.781,510.539c-4.587-.032-4.852,1.02-7.846-.907s3-5.616-2.8-7.328-12.252-2.881-12.085-9.721c.242-9.9,8.744-7.295,13.975-5.5,3.367,1.158,5.091-6.23,11.951-5.051,5.382.925,4.382,4,9.148,5.039,2.878.626,9.12-3.459,13.255.607,7.67,7.541-.286,14.65,5.916,22.453,7.233,9.1-13.7,24-15.654,21.643-2.279-2.751,2.47-10.663.107-12.949-3.563-3.448-4.437-.181-8.072,2.5-3.882,2.859-10.365,2.256-5.479-3.591S-1547.629,510.568-1551.781,510.539Z" transform="translate(1574.519 -481.908)" fill="#1f1f39"/>
            </g>
            <g id="Grupo_111452" data-name="Grupo 111452" transform="translate(106.698 39.267)">
              <path id="Trazado_171982" data-name="Trazado 171982" d="M-1406.38,807.708c.941-.565,9.214,17.885,21.307,24.434a29.177,29.177,0,0,0,10.784,3.537,244.657,244.657,0,0,0,41.265.59c-3.007-6.386-3.23-9.445-8.037-15.347-10.382,2.725-25.6,4.433-31.431,3.5a42.477,42.477,0,0,1-12.085-3.954,70.709,70.709,0,0,1-17.275-12.6c-2.248-2.161-2.442-5.293-5.259-5.544C-1410.846,801.985-1407.59,808.429-1406.38,807.708Z" transform="translate(1411.748 -801.153)" fill="#1f1f39" opacity="0.18"/>
              <path id="Trazado_171983" data-name="Trazado 171983" d="M-1420.941,801.228a4.139,4.139,0,0,1,4.725-3.758c2.5.224,2.649,1.251,4.644,3.168,5.992,5.758,15.008,12.918,26.037,14.683s37.065-11.526,53.295-7.135,20.482,19.355,43.98,24.32,49.472-3.76,56.4-2.209,11.083,3.3,10.769,6.054-4.025,7.162-9.033,8.878-48.4,2.476-59.742.367c-18.514-3.444-33.693-21.072-45.649-22.742-5.031-.7-12.481-.117-20.47.687-11,1.106-23.013,2.624-31.145,1.76-15.656-1.664-27.514-20.593-28.584-19.953a4.27,4.27,0,0,1-4.051.655C-1421.133,805.585-1421.12,802.8-1420.941,801.228Z" transform="translate(1421.026 -797.446)" fill="#f4ad00"/>
            </g>
            <path id="Trazado_171984" data-name="Trazado 171984" d="M-1629.9,679.991c-1.457-.241-5.463-1.466-6.281.083s-3.952,6.922-9.873,3.136c-3.148-2.013-2.092-12.225,4.539-11.034,4.541.816,14.763,1.789,15.159,2.79S-1626.627,680.534-1629.9,679.991Z" transform="translate(1700.513 -662.64)" fill="#fff"/>
            <path id="Trazado_171986" data-name="Trazado 171986" d="M-1647.014,509.576c.418-.763-8-11.257-5.926-11.151s6.62,1.92,5.231.273-14.123-16.394-14.923-14.1,7.274,10.263,6.05,10.4-5.722-1.312-5.182.847S-1647.845,511.091-1647.014,509.576Z" transform="translate(1711.889 -519.579)" fill="#fff"/>
            <path id="Trazado_171987" data-name="Trazado 171987" d="M-1808.347,475.919c.312-1.817-23.786-17.049-19.562-18.264s14.59-.715,10.671-3.058-39.6-23.121-39.626-17.977,21.653,15.554,19.293,16.673-12.371,1.314-9.8,5.269S-1808.967,479.53-1808.347,475.919Z" transform="translate(1859.867 -482.581)" fill="#fff"/>
            <path id="Trazado_171988" data-name="Trazado 171988" d="M-2032.379,318.363c0,18.882-2.721,43.68.817,45.331s14.434-.264,14.906-2.859,2.672-44.4,1.021-46.147C-2017.64,312.565-2032.379,314.353-2032.379,318.363Z" transform="translate(1994.384 -389.593)" fill="#c62020"/>
            <path id="Trazado_171989" data-name="Trazado 171989" d="M-2043.781,455.658c5.511-12.124,13.323-6.306,14.513-3.569s-4.759,15.24-8.329,17.322c-2.4,1.4-2.2,8.569-3.035.357S-2044.971,458.275-2043.781,455.658Z" transform="translate(2002.498 -492.08)" fill="#efaea6"/>
          </g>
        </g>
        <g id="Grupo_111461" data-name="Grupo 111461" transform="translate(-2200 97.837)">
          <g id="Grupo_111460" data-name="Grupo 111460" transform="translate(0 0)" clip-path="url(#clip-path-2)">
            <g id="Grupo_111459" data-name="Grupo 111459" transform="translate(14.208 29.99)">
              <g id="Grupo_111455" data-name="Grupo 111455">
                <path id="Trazado_171990" data-name="Trazado 171990" d="M-2003.622,234.9a1.264,1.264,0,0,0,2.507.125c.511-3.187.263-6.115-1.311-6.282C-2003.75,228.6-2003.845,231.769-2003.622,234.9Z" transform="translate(2036.208 -227.491)" fill="#fff"/>
                <path id="Trazado_171991" data-name="Trazado 171991" d="M-2129.216,325.9a1.265,1.265,0,0,0,0-2.489c-5.238-.964-10.968-.636-11.062,1.926C-2140.362,327.507-2133.97,326.755-2129.216,325.9Z" transform="translate(2140.282 -299.257)" fill="#fff"/>
                <path id="Trazado_171992" data-name="Trazado 171992" d="M-2062.958,234a1.265,1.265,0,0,0,2.288-.979c-1.166-5.2-3.717-10.337-6.113-9.417C-2068.816,224.383-2065.613,229.966-2062.958,234Z" transform="translate(2084.76 -223.495)" fill="#fff"/>
                <path id="Trazado_171993" data-name="Trazado 171993" d="M-2095.207,268.3a1.264,1.264,0,0,0,1.7-1.87c-1.48-1.426-2.944-2.2-3.753-1.452C-2097.948,265.615-2096.812,266.942-2095.207,268.3Z" transform="translate(2107.653 -254.889)" fill="#fff"/>
              </g>
              <path id="Trazado_171994" data-name="Trazado 171994" d="M-2049.25,500.142c.335-15.144-10.737-28.268-2.856-42.666,3.932-7.184,10.26-9.023,13.388-6.6s.759,15.888,2.5,14.728c2.677-1.785,1.094-6.411,3.392-5.088,8.836,5.088-4.106,11.514.819,34.021C-2029.126,507.7-2049.25,500.142-2049.25,500.142Z" transform="translate(2075.248 -396.007)" fill="#efaea6"/>
              <path id="Trazado_171995" data-name="Trazado 171995" d="M-1923.024,1561.232h83.063q2.754-1.337,5.586-2.552c.06-.024.118-.051.178-.075,28.4-12.088,58.787-22.465,63.379-24.059.24-.082.409-.142.5-.176,1.62-.585,5.117,10.2,9.848,26.862h60.819c-1.263-19.553-2.141-39.888-2.857-56.913-.889-21.271-1.518-37.372-2.316-40.339-1.5-5.557-2.9-10.615-4.006-16.165a133.99,133.99,0,0,0-3.345-13.16c-10.755-34.942-101.876,29.3-101.876,29.3C-1831.651,1495.256-1893.715,1527.415-1923.024,1561.232Z" transform="translate(1974.715 -1138.561)" fill="#3b3b4c"/>
              <path id="Trazado_171996" data-name="Trazado 171996" d="M-1205.537,1789.253a.5.5,0,0,0,0,.059,2.824,2.824,0,0,1-.324-.135A2.48,2.48,0,0,1-1205.537,1789.253Z" transform="translate(1428.183 -1416.666)" fill="#1f1f39" opacity="0.46"/>
              <path id="Trazado_171997" data-name="Trazado 171997" d="M-1199.363,1597.979c7.209,14.269,34.435,28.658,47.889,34.929-.889-21.271-1.519-37.372-2.316-40.338C-1164.875,1593.7-1199.363,1597.979-1199.363,1597.979Z" transform="translate(1423.229 -1266.836)" fill="#1f1f39" opacity="0.45"/>
              <path id="Trazado_171998" data-name="Trazado 171998" d="M-1432.563,657.118l-18.07,11.96s-17.68,11.364-15.943,5.649c2.331-7.636-.565-13.355-.3-17.927a34.9,34.9,0,0,0-1.62-10.44,110.754,110.754,0,0,0-4.483-12.7l-.929-1.437.164-5.3.48-15.522s15.759,1.152,20.2,9.542C-1449.006,628.591-1435.3,648-1432.563,657.118Z" transform="translate(1632.456 -519.108)" fill="#efaea6"/>
              <path id="Trazado_171999" data-name="Trazado 171999" d="M-1468.5,690.255a110.756,110.756,0,0,0-4.483-12.7l-.929-1.437.164-5.3,1.854-1.818s8.729,2.787,11.377,4.329C-1456.722,675.548-1457.959,688.77-1468.5,690.255Z" transform="translate(1632.456 -563.004)" fill="#1f1f39" opacity="0.14"/>
              <path id="Trazado_172000" data-name="Trazado 172000" d="M-1473.024,752.208c-9.057-2.076-9.2,13.209-18.177,14.377-4.739.617-3.79-1.574-6.145-3.729-1.45-1.327-2.822-2.828-4.9-.407-42.222,49.226,9.769,165.762,4.505,174.321-4.305,7,34.04,19.99,57.4,12.909,32.029-9.711,28.32-45.952,27.049-52.848s-27.8-123.853-27.8-123.853A177.35,177.35,0,0,1-1473.024,752.208Z" transform="translate(1666.744 -626.268)" fill="#fff"/>
              <path id="Trazado_172001" data-name="Trazado 172001" d="M-2058.609,603.459c.2,3.277,2.8,81.226,34.972,96.986,15.064,7.379,72.029-.612,80.937,5.851,6.779,4.919,12.566,23.361,11.7,32.21-.7,7.117-1.592,13.994-1.9,19.081-.8,13.066-8.409,68.291,7.952,84.227,10.4,10.127,18.542,8.662,24.184,2.794,9.684-10.071-2.536-53-.683-95.707,1.432-33.015-14.309-51.634-12.206-78.963,1.593-20.678.111-28.509.111-28.509-49.092,22.212-86,27.644-97.274,24.224-14.488-4.394-18.244-64.544-20.02-70.9C-2032.034,590.487-2059.087,595.614-2058.609,603.459Z" transform="translate(2078.046 -505.248)" fill="#0267a4"/>
              <path id="Trazado_172002" data-name="Trazado 172002" d="M-2058.609,603.459c.2,3.277,2.8,81.226,34.972,96.986,15.064,7.379,72.029-.612,80.937,5.851,6.779,4.919,12.566,23.361,11.7,32.21-.7,7.117-1.592,13.994-1.9,19.081-.8,13.066-8.409,68.291,7.952,84.227,10.4,10.127,18.542,8.662,24.184,2.794,9.684-10.071-2.536-53-.683-95.707,1.432-33.015-14.309-51.634-12.206-78.963,1.593-20.678.111-28.509.111-28.509-49.092,22.212-86,27.644-97.274,24.224-14.488-4.394-18.244-64.544-20.02-70.9C-2032.034,590.487-2059.087,595.614-2058.609,603.459Z" transform="translate(2078.046 -505.248)" fill="#7b5d14"/>
              <path id="Trazado_172003" data-name="Trazado 172003" d="M-1237.84,971.366c-3.561,17-45.927.91-59.05-12.049-10.878-10.748-1.11-25.8-10.017-51.656-4.5-13.063-11.4-35.589-14.315-53.135-.285-1.727-.534-3.41-.74-5.029-1.717-13.589-2.814-28.308-3.509-42.131-.318-6.284-.553-12.387-.72-18.111-.108-3.672-.187-7.194-.25-10.509-.216-12.268-.137-21.749-.016-25.921,0,0,22.546-.506,41.994,18.5a32.321,32.321,0,0,1,6.128,9.56c1.548,3.379,11.337,20.109,11.96,33.343.453,9.63,1.833,25.742.847,32.654s2.635,17.941,3.431,30.268c.877,13.589,5.374,15.289,6.776,34.825S-1235.984,962.508-1237.84,971.366Z" transform="translate(1520.176 -626.884)" fill="#a27b1c"/>
              <path id="Trazado_172004" data-name="Trazado 172004" d="M-1295.878,928.447c.348,5.39-17.009,63.49-18.865,74.218-.285-1.727-3.47-17.711-3.677-19.329-1.717-13.589-2.814-28.308-3.509-42.131Z" transform="translate(1516.634 -760.723)" fill="#1f1f39" opacity="0.18"/>
              <path id="Trazado_172005" data-name="Trazado 172005" d="M-1551.6,1874.6c29.886-12.721,61.975-23.548,63.883-24.235l-4-11.88S-1530.887,1856.751-1551.6,1874.6Z" transform="translate(1691.661 -1454.244)" fill="#1f1f39" opacity="0.45"/>
              <path id="Trazado_172006" data-name="Trazado 172006" d="M-1602.5,708.956c-.529,10.731-15.669,29.647-29.584,26.689s-23.8-29.656-16.988-52.17" transform="translate(1767.622 -574.035)" fill="none" stroke="#1c551f" stroke-linecap="round" stroke-linejoin="round" stroke-width="2"/>
              <g id="Grupo_111456" data-name="Grupo 111456" transform="translate(79.081 99.263)">
                <path id="Trazado_172007" data-name="Trazado 172007" d="M-1748.015,674.234c.98-3.253,14.408-9.756,13.751-12.3-1.223-4.748-11.175.556-6.8-6.364,2.117-3.351,13.177-8.095,6-11.354-16.809-7.628-30.011-2.617-28.352,12.994,1.289,12.133-6.552,19.178-7.865,29.406s21.245,2.771,21.245,2.771S-1749.875,680.411-1748.015,674.234Z" transform="translate(1780.042 -640.7)" fill="#efaea6"/>
                <path id="Trazado_172008" data-name="Trazado 172008" d="M-1682.676,766.539c-45.5,26.49-110.638,153.043-87.985,4.891.545-3.561-27.775-14.135-28.864-8.707-47.044,234.47,118.478,58.726,138.5,47.059,8.484-4.944,10.276-36.522-3.034-38.7S-1682.676,766.539-1682.676,766.539Z" transform="translate(1807.903 -732.532)" fill="#a27b1c"/>
              </g>
              <g id="Grupo_111457" data-name="Grupo 111457" transform="translate(134.846 61.482)">
                <path id="Trazado_172009" data-name="Trazado 172009" d="M-1563.135,561.244c-1.641,8.15-12.382,22.8-6.813,23.475s-3.484,17.217,2.418,18.148c14.3,2.255,31.863-4.768,34.525-11.462s3.9-26.161,3.9-26.161Z" transform="translate(1572.008 -542.368)" fill="#efaea6"/>
                <path id="Trazado_172010" data-name="Trazado 172010" d="M-1550.781,510.539c-4.587-.032-4.852,1.02-7.845-.907s3-5.616-2.805-7.328-12.252-2.881-12.085-9.721c.242-9.9,8.744-7.295,13.975-5.5,3.367,1.158,5.091-6.23,11.951-5.051,5.382.925,4.382,4,9.148,5.039,2.878.626,9.12-3.459,13.255.607,7.67,7.541-.286,14.65,5.916,22.453,7.233,9.1-13.7,24-15.654,21.643-2.279-2.751,2.47-10.663.107-12.949-3.563-3.448-4.437-.181-8.072,2.5-3.882,2.859-10.365,2.256-5.478-3.591S-1546.629,510.568-1550.781,510.539Z" transform="translate(1573.519 -481.908)" fill="#1f1f39"/>
              </g>
              <g id="Grupo_111458" data-name="Grupo 111458" transform="translate(171.365 136.556)">
                <path id="Trazado_172011" data-name="Trazado 172011" d="M-1405.38,807.708c.941-.565,9.214,17.885,21.307,24.434a29.177,29.177,0,0,0,10.784,3.537,244.66,244.66,0,0,0,41.265.59c-3.007-6.386-3.23-9.445-8.037-15.347-10.382,2.725-25.6,4.433-31.431,3.5a42.475,42.475,0,0,1-12.086-3.954,70.705,70.705,0,0,1-17.275-12.6c-2.248-2.161-2.442-5.293-5.259-5.544C-1409.846,801.985-1406.59,808.429-1405.38,807.708Z" transform="translate(1410.748 -801.153)" fill="#1f1f39" opacity="0.18"/>
                <path id="Trazado_172012" data-name="Trazado 172012" d="M-1419.941,801.228a4.139,4.139,0,0,1,4.725-3.758c2.5.224,2.649,1.251,4.644,3.168,5.992,5.758,15.008,12.918,26.037,14.683s37.065-11.526,53.295-7.135,20.482,19.355,43.98,24.32,49.472-3.76,56.4-2.209,11.083,3.3,10.769,6.054-4.025,7.162-9.033,8.878-48.4,2.476-59.742.367c-18.515-3.444-33.693-21.072-45.649-22.742-5.031-.7-12.481-.117-20.47.687-11,1.106-23.013,2.624-31.145,1.76-15.656-1.664-27.514-20.593-28.584-19.953a4.27,4.27,0,0,1-4.051.655C-1420.133,805.585-1420.12,802.8-1419.941,801.228Z" transform="translate(1420.026 -797.446)" fill="#28c65d"/>
              </g>
              <path id="Trazado_172013" data-name="Trazado 172013" d="M-1628.9,679.991c-1.457-.241-5.463-1.466-6.281.083s-3.952,6.922-9.873,3.136c-3.148-2.013-2.092-12.225,4.539-11.034,4.541.816,14.763,1.789,15.159,2.79S-1625.627,680.534-1628.9,679.991Z" transform="translate(1764.18 -565.351)" fill="#43a047"/>
              <path id="Trazado_172014" data-name="Trazado 172014" d="M-1645.391,682.6c-10.507,28.4,54.322,83.571,75.589,16.5" transform="translate(1764.008 -573.371)" fill="none" stroke="#1c551f" stroke-linecap="round" stroke-linejoin="round" stroke-width="2"/>
              <path id="Trazado_172015" data-name="Trazado 172015" d="M-1646.014,509.576c.418-.763-8-11.257-5.926-11.151s6.62,1.92,5.231.273-14.123-16.394-14.922-14.1,7.275,10.263,6.05,10.4-5.722-1.312-5.182.847S-1646.845,511.091-1646.014,509.576Z" transform="translate(1775.556 -422.29)" fill="#fff"/>
              <path id="Trazado_172016" data-name="Trazado 172016" d="M-1807.347,475.919c.312-1.817-23.786-17.049-19.562-18.264s14.59-.715,10.671-3.058-39.6-23.121-39.626-17.977,21.652,15.554,19.293,16.673-12.371,1.314-9.8,5.269S-1807.967,479.53-1807.347,475.919Z" transform="translate(1923.534 -385.291)" fill="#fff"/>
              <path id="Trazado_172017" data-name="Trazado 172017" d="M-2031.379,318.363c0,18.882-2.721,43.68.817,45.331s14.434-.264,14.906-2.859,2.672-44.4,1.021-46.147C-2016.64,312.565-2031.379,314.353-2031.379,318.363Z" transform="translate(2058.051 -292.304)" fill="#c62020"/>
              <path id="Trazado_172018" data-name="Trazado 172018" d="M-2042.781,455.658c5.511-12.124,13.323-6.306,14.513-3.569s-4.759,15.24-8.329,17.322c-2.4,1.4-2.2,8.569-3.035.357S-2043.971,458.275-2042.781,455.658Z" transform="translate(2066.165 -394.791)" fill="#efaea6"/>
            </g>
          </g>
        </g>
      </g>
    </g>
  </g>
</svg>
