<svg xmlns="http://www.w3.org/2000/svg" width="96.542" height="120" viewBox="0 0 96.542 120">
  <g id="Grupo_111444" data-name="Grupo 111444" transform="translate(557.252 -1709.111)">
    <path id="Trazado_171930" data-name="Trazado 171930" d="M-484.78,1723.25c1.851.731,1.852.732,1.264,2.668-.88,2.9-1.755,5.809-2.652,8.707-.15.485-.2.8.447.872a6.463,6.463,0,0,1,3.233,11.282,61.908,61.908,0,0,1,5.188,4.135,50.557,50.557,0,0,1,12.6,18.069c.618,1.477-.817,1.013-1.2,1.526-1.756.537-1.75.535-2.534-1.24a45.5,45.5,0,0,0-17.3-20.376,3.619,3.619,0,0,0-2.07-.608q-14.864.03-29.729.013c-1.757,0-1.757,0-1.913-1.688.175-1.844.175-1.844,2.135-1.844h27.171c1.21,0,2.422.032,3.63-.021a2.845,2.845,0,0,0,2.723-2.583,2.875,2.875,0,0,0-2.131-3.09,5.49,5.49,0,0,0-1.386-.155c-3.357-.013-6.714-.007-10.072-.007q-16.63,0-33.26,0c-2.209,0-3.612,1.16-3.6,2.959s1.366,2.894,3.628,2.9q2.869,0,5.738,0c1.879,0,1.879,0,2.036,1.83-.142,1.7-.142,1.7-1.917,1.7q-2.87,0-5.738,0a1.839,1.839,0,0,0-1.025.149,39.112,39.112,0,0,0-4.588,3.191c.156.09.216.154.276.155q2.225.013,4.45.013c2.473,0,2.436,0,2.465,2.524.01.825-.226,1.045-1.04,1.033-3.122-.047-6.246-.022-9.369-.015-.417,0-.864-.109-1.206.274a29.133,29.133,0,0,0-2.742,3.233h7.13c2.552,0,2.519,0,2.533,2.576,0,.766-.2,1-.97.986-3.4-.038-6.793.012-10.188-.037a1.766,1.766,0,0,0-1.763.98,50.135,50.135,0,0,0-7.169,24.991,37.73,37.73,0,0,0,.877,10.222,13.46,13.46,0,0,0,.823,3.614c.219.686.131,1.017-.6,1.146a3.738,3.738,0,0,0-.748.3c-1.817.459-1.83.463-2.3-1.341-4.805-18.361.963-42.088,19.442-54.989.6-.418.623-.606.125-1.168a6.363,6.363,0,0,1,3.5-10.566c.9-.185.855-.515.63-1.222q-3.833-12.066-7.617-24.147c-.046-.146-.085-.3-.175-.613,2.28.5,4.458.965,6.632,1.454q9.056,2.038,18.108,4.092a2.452,2.452,0,0,0,1.377-.029q8.674-2.929,17.354-5.841c.063-.021.105-.105.157-.16h17.57c-1.061,3.6-2.133,7.2-3.173,10.8-.15.52-.4.569-.835.427-.367-.12-.747-.2-1.121-.3-1.588-.6-1.586-.6-1.073-2.3.5-1.671,1-3.344,1.535-5.116-3.677,0-7.26.01-10.841-.008a6.53,6.53,0,0,0-2.17.348q-8.348,2.83-16.709,5.617a2.919,2.919,0,0,1-1.688.267c-4.514-1.05-9.039-2.054-13.562-3.068-2.075-.465-4.152-.919-6.4-1.417l5.059,15.872c.433,1.411.926,2.808,1.274,4.24.192.79.587.924,1.3.917,3.429-.032,6.858-.011,10.287-.02a1.114,1.114,0,0,0,.945-.207l-2.2-4.992c.087-.471-.751-.99-.067-1.369a5.885,5.885,0,0,1,2.758-1.053c.572.025.677,1.343,1.059,2.049.071.133.157.257.235.386.635,1.577,1.28,3.15,1.9,4.734.16.41.446.467.824.464,1.631-.01,3.262-.015,4.892,0a.8.8,0,0,0,.877-.562c.623-1.543,1.295-3.067,1.948-4.6.557-1.24,1.167-2.459,1.651-3.727.285-.747.594-.785,1.271-.482,2.323,1.038,2.333,1.012,1.321,3.409-.075.177-.118.367-.176.551l-2.443,5.4c3.891,0,7.586,0,11.281.006a.577.577,0,0,0,.658-.485c.435-1.571.891-3.135,1.34-4.7.6-1.9,1.219-3.8,1.811-5.708C-486.3,1722.957-486.308,1722.953-484.78,1723.25Z" transform="translate(0 0)" fill="#040403"/>
    <path id="Trazado_171931" data-name="Trazado 171931" d="M-545.072,1880.817a37.729,37.729,0,0,1-.877-10.221,50.136,50.136,0,0,1,7.169-24.992,1.766,1.766,0,0,1,1.763-.98c3.4.049,6.792,0,10.188.037.771.009.975-.22.97-.986-.014-2.576.018-2.576-2.533-2.576h-7.13a29.137,29.137,0,0,1,2.742-3.233c.342-.383.789-.273,1.206-.274,3.123-.007,6.247-.031,9.369.015.814.012,1.05-.208,1.04-1.032-.029-2.524.008-2.523-2.465-2.525q-2.225,0-4.45-.013c-.06,0-.12-.065-.276-.155a39.114,39.114,0,0,1,4.588-3.191,1.841,1.841,0,0,1,1.025-.149q2.869-.007,5.738,0c1.775,0,1.775,0,1.917-1.7l3.391.014c.155,1.688.155,1.688,1.913,1.688q14.865,0,29.729-.013a3.618,3.618,0,0,1,2.07.608,45.5,45.5,0,0,1,17.3,20.376c.784,1.774.778,1.777,2.534,1.24l.955,3.253a1.457,1.457,0,0,1-.414.2c-.983.128-1.19.534-.878,1.535a42.484,42.484,0,0,1,1.691,8.939,25.6,25.6,0,0,1,.21,4.83,1.14,1.14,0,0,1-.323-.037q-9.711-5.6-19.423-11.192c-.467-.268-.451-.489-.207-.891.665-1.1,1.321-2.2,1.929-3.336.262-.486.512-.515,1.02-.362a4.933,4.933,0,0,0,3.541-.233,5.072,5.072,0,0,0,3.16-4.555,4.979,4.979,0,0,0-2.565-4.8c-3.214-1.9-6.463-3.749-9.7-5.622-1.617-.937-1.615-.941-2.634.541-.889-.71-2.1-.94-2.83-1.883a1.893,1.893,0,0,1,.186-.42c.539-.692.482-1.14-.4-1.54-.987-.449-1.886-1.088-2.843-1.608a5.289,5.289,0,0,0-6.935,1.239,5.239,5.239,0,0,0,.5,7.008.814.814,0,0,1,.131,1.182q-5.217,8.99-10.39,18.006a.832.832,0,0,1-1.113.455,5.223,5.223,0,0,0-6.309,3.093,5.239,5.239,0,0,0,2.417,6.613q8.984,5.226,18,10.4a5.266,5.266,0,0,0,6.941-1.226,5.234,5.234,0,0,0-.478-7.018c-.4-.422-.472-.689-.167-1.176.641-1.022,1.243-2.07,1.818-3.13.268-.494.481-.659,1.047-.329q11.455,6.667,22.936,13.29c-.424,1.57-1.637,2.675-2.393,4.049-2.3.016-4.594.063-6.891.037-1.323-.015-.843,1.006-.734,1.468.163.693-.911,1.948.734,2.06,1.124.076,2.256.041,3.385.055-1.165,1.444-2.848,2.248-4.231,3.423-.538.015-1.076.042-1.615.043-2.433,0-2.433,0-2.608,2.332-1.236.188-2.2,1.16-3.479,1.219,0-.937-.03-1.875,0-2.811.019-.69-.409-.821-.907-.706-.864.2-2.11-.656-2.541.546a3.317,3.317,0,0,0,.1,2.725c.385.6,1.386.138,2.107.229.27.034.541.055.812.082-.119.433-.536.425-.846.527a63.4,63.4,0,0,1-18.068,3.111,92.426,92.426,0,0,1-17.239-.686,40.333,40.333,0,0,1-7.247-1.6c.429-.013.857-.037,1.286-.037,7.847,0,15.693-.015,23.54.018.845,0,1.147-.156,1.12-1.073-.071-2.419-.024-4.841-.024-7.261,0-2.25,0-2.3-2.242-2.227-.987.034-1.3-.211-1.376-1.238a6.188,6.188,0,0,0-5.862-5.784c-3.472-.091-6.949-.083-10.422,0a6.384,6.384,0,0,0-5.788,4.983c-.145.661.181,1.6-.434,1.928-.548.294-1.371.077-2.072.085a1.267,1.267,0,0,1-.234,0c-.8-.141-.967.229-.962.973.023,2.887-.02,5.774-.039,8.662a39.074,39.074,0,0,1-7.52-3.423,30.852,30.852,0,0,1-10.559-10.184C-543.476,1884-544.091,1882.311-545.072,1880.817Zm14.529-11.036h-2.691c-1.565,0-1.565,0-1.565,1.621,0,1.9,0,1.9,1.9,1.9,2.168,0,2.224,0,2.148,2.18-.034.984.25,1.24,1.218,1.212,2.32-.068,2.363-.018,2.311-2.275-.019-.825.185-1.093,1.04-1.212a5.382,5.382,0,0,0,4.82-5.97,5.452,5.452,0,0,0-5.526-4.965c-1.169-.028-2.34,0-3.51-.009-1.683-.012-2.632-.723-2.657-1.978s.926-2.009,2.6-2.019c1.833-.011,3.666,0,5.5,0,1.9,0,1.9,0,1.9-1.893,0-1.629,0-1.629-1.575-1.63-2.519,0-2.552,0-2.549-2.531,0-.733-.2-.9-.912-.9-2.555,0-2.579-.028-2.616,2.565-.009.641-.183.843-.832.922a5.47,5.47,0,0,0-5.04,5.7,5.575,5.575,0,0,0,5.634,5.284c1.209.032,2.418,0,3.628.009,1.62.017,2.466.719,2.448,2.01-.018,1.271-.886,1.965-2.508,1.983C-528.437,1869.791-529.49,1869.781-530.543,1869.781Zm14.692-32.263c1.714,0,1.726,0,1.712-1.539-.018-2.176.28-1.975-1.623-1.972-2.106,0-1.887-.26-1.886,1.708C-517.648,1837.753-517.882,1837.5-515.851,1837.518Z" transform="translate(-7.745 -82.24)" fill="#28c65d"/>
    <path id="Trazado_171932" data-name="Trazado 171932" d="M-391.025,1904.762c-1.129-.014-2.261.021-3.385-.055-1.645-.112-.571-1.367-.734-2.06-.109-.462-.59-1.483.734-1.468,2.3.026,4.594-.021,6.891-.037,2.1.14,2.1.141,2.793-1.746a5.325,5.325,0,0,1,.265-.763c.453-.816.162-1.288-.665-1.539q-11.472-6.639-22.936-13.29c-.566-.33-.779-.165-1.047.329-.575,1.06-1.178,2.108-1.818,3.13-.3.487-.237.754.167,1.176a5.234,5.234,0,0,1,.478,7.018,5.266,5.266,0,0,1-6.941,1.226q-9.018-5.167-18-10.4a5.239,5.239,0,0,1-2.417-6.612,5.223,5.223,0,0,1,6.309-3.093.832.832,0,0,0,1.113-.455q5.17-9.017,10.39-18.006a.814.814,0,0,0-.13-1.182,5.239,5.239,0,0,1-.5-7.008,5.289,5.289,0,0,1,6.935-1.239c.957.52,1.856,1.159,2.843,1.608.877.4.934.848.4,1.54a1.89,1.89,0,0,0-.186.42,3.237,3.237,0,0,0-.446.667c-.342.954-.832.983-1.607.416a22.465,22.465,0,0,0-2.215-1.3q-2.183-1.241-3.062.248c-.595,1.011-.158,1.96,1.275,2.784q2.076,1.193,4.148,2.4,6.525,3.768,13.048,7.541c.887.516,1.745.734,2.56-.061.906-.884.637-2.136-.649-2.889-3.125-1.83-6.268-3.627-9.4-5.44-1.554-.9-1.553-.9-.819-2.478,1.019-1.483,1.017-1.479,2.634-.541,3.232,1.873,6.481,3.718,9.7,5.622a4.979,4.979,0,0,1,2.565,4.8,5.073,5.073,0,0,1-3.16,4.555,4.933,4.933,0,0,1-3.541.233c-.508-.153-.758-.124-1.02.362-.608,1.131-1.264,2.236-1.929,3.335-.243.4-.26.623.207.891q9.721,5.58,19.423,11.192a1.143,1.143,0,0,0,.323.037,25.6,25.6,0,0,0-.21-4.83,42.487,42.487,0,0,0-1.691-8.939c-.312-1-.106-1.408.878-1.535a1.457,1.457,0,0,0,.415-.2c1.811-.387,1.841-.394,2.257,1.234,2.4,9.391,2.845,18.812.061,28.193-3.166,10.672-10.382,17.587-20.547,21.662-1.844.739-3.755,1.277-5.641,1.89-1.044.34-1.521.132-1.588-.965a2.005,2.005,0,0,0-.134-.447c-.344-1.69-.343-1.687,1.335-2.165a40.9,40.9,0,0,0,10.184-4.3,18.339,18.339,0,0,0,3.417-2.462c-1.627,0-3.025-.064-4.413.022-.96.06-1.476-.163-1.358-1.21.175-2.33.175-2.327,2.608-2.332.539,0,1.077-.028,1.615-.043,1.589.015,3.178.026,4.767.049a.908.908,0,0,0,.827-.3,17.883,17.883,0,0,0,2.2-3.16c-.255-.026-.4-.054-.544-.053C-389.011,1904.731-390.018,1904.747-391.025,1904.762Zm-33.738-30.955c-.81,1.369-1.6,2.753-2.442,4.1-.317.5-.178.729.279.991q5.975,3.424,11.932,6.882c.448.26.72.325,1.008-.214.713-1.338,1.48-2.648,2.225-3.969,2.737-4.713,5.464-9.432,8.226-14.129.335-.571.163-.755-.326-1.03q-2.9-1.63-5.762-3.337c-.5-.3-.769-.294-1.07.276-.653,1.24-1.387,2.436-2.089,3.649-1.427,2.469-1.415,2.451-3.8.912-.5-.323-.485-.562-.215-1.009.726-1.2,1.413-2.422,2.112-3.637,1.413-2.451,1.412-2.452-1.112-3.744a.53.53,0,0,1-.1-.052c-.378-.319-.593-.154-.806.22Q-420.727,1866.767-424.762,1873.807Zm12.063,18.358a2.092,2.092,0,0,0-1.326-1.768q-6.077-3.48-12.131-7c-1.853-1.07-3.695-2.162-5.563-3.2a1.744,1.744,0,0,0-2.537.573,1.805,1.805,0,0,0,.81,2.479c.131.084.268.157.4.235l14.66,8.456c1.044.6,2.065,1.253,3.143,1.79A1.715,1.715,0,0,0-412.7,1892.165Zm30.138-2.476a1.085,1.085,0,0,0-.573-1.262c-2.148-1.187-4.269-2.422-6.385-3.666-.446-.262-.725-.328-1.011.2q-.858,1.594-1.807,3.139c-.286.466-.111.678.288.906q4.108,2.351,8.2,4.73c.483.282.688.211.762-.344C-382.922,1892.158-382.738,1890.924-382.562,1889.688Zm-21.9-13.5a3.47,3.47,0,0,0-.237.322c-.666,1.141-1.313,2.294-2,3.423-.28.462.009.611.324.792,1.315.753,2.635,1.5,3.939,2.27.351.208.6.31.845-.129q.966-1.73,1.973-3.438c.144-.246.165-.4-.112-.559-1.485-.847-2.964-1.705-4.445-2.558C-404.242,1876.276-404.316,1876.253-404.464,1876.191Z" transform="translate(-81.893 -95.344)" fill="#040403"/>
    <path id="Trazado_171933" data-name="Trazado 171933" d="M-449.679,1737.672c.058-.184.1-.374.176-.551,1.013-2.4,1-2.371-1.321-3.409-.677-.3-.986-.264-1.271.482-.483,1.268-1.094,2.487-1.651,3.727l-10.442-.039c-.079-.129-.164-.254-.235-.386-.382-.706-.486-2.024-1.059-2.049a5.886,5.886,0,0,0-2.758,1.054c-.684.38.154.9.067,1.369l-11.608.062-5.059-15.872c2.251.5,4.329.952,6.4,1.417,4.522,1.014,9.047,2.018,13.562,3.068a2.918,2.918,0,0,0,1.688-.267q8.361-2.791,16.709-5.617a6.524,6.524,0,0,1,2.17-.348c3.582.018,7.164.008,10.841.008-.532,1.772-1.031,3.445-1.535,5.116-.513,1.7-.515,1.7,1.073,2.3a9.119,9.119,0,0,1-1.112,3.2c-1.527-.3-1.515-.294-1.992,1.24-.592,1.906-1.206,3.805-1.811,5.708-3.2,0-6.4,0-9.6-.018C-448.862,1737.874-449.312,1738-449.679,1737.672Z" transform="translate(-49.74 -7.695)" fill="#43a047"/>
    <path id="Trazado_171934" data-name="Trazado 171934" d="M-472.781,2011.5c-.117,1.047.4,1.27,1.358,1.21,1.388-.086,2.785-.022,4.412-.022a18.339,18.339,0,0,1-3.417,2.462,40.905,40.905,0,0,1-10.184,4.3c-1.679.478-1.679.475-1.335,2.165l-3.372.717a8.875,8.875,0,0,1-.188-.912c-.064-.623-.317-.826-.983-.706a80.64,80.64,0,0,1-17.006,1.077c-7.156-.233-14.208-1.134-20.949-3.716-7.141-2.735-12.942-7.089-16.646-13.939-.863-1.6-.861-1.6-2.534-1.009a26.427,26.427,0,0,1-1.12-3.2,3.754,3.754,0,0,1,.747-.3c.726-.129.814-.46.6-1.146a13.462,13.462,0,0,1-.823-3.614c.981,1.493,1.6,3.179,2.544,4.7a30.852,30.852,0,0,0,10.559,10.184,39.047,39.047,0,0,0,7.52,3.423c-.042.7.22,1.012.987.952.835-.065,1.681.008,2.522.021a40.376,40.376,0,0,0,7.247,1.6,92.447,92.447,0,0,0,17.239.686,63.393,63.393,0,0,0,18.068-3.111c.31-.1.726-.093.846-.527l.434-.066C-474.979,2012.655-474.017,2011.683-472.781,2011.5Z" transform="translate(-8.591 -196.279)" fill="#318335"/>
    <path id="Trazado_171935" data-name="Trazado 171935" d="M-544.109,2020.463c1.673-.588,1.672-.587,2.534,1.009,3.7,6.85,9.5,11.2,16.646,13.939,6.741,2.582,13.794,3.483,20.949,3.716a80.648,80.648,0,0,0,17.006-1.077c.667-.12.919.083.983.706a8.881,8.881,0,0,0,.188.912c.281,1.76.286,1.8-1.357,2.029-11.651,1.606-23.243,1.539-34.66-1.6-8.77-2.412-16.273-6.8-21.425-14.571-.686-1.035-1.227-2.166-1.886-3.22-.488-.781-.495-1.312.525-1.557A2.022,2.022,0,0,0-544.109,2020.463Z" transform="translate(-8.107 -213.621)" fill="#040403"/>
    <path id="Trazado_171936" data-name="Trazado 171936" d="M-468.945,1811.983l-3.391-.014c-.157-1.83-.157-1.83-2.036-1.83q-2.869,0-5.738,0c-2.262,0-3.618-1.088-3.628-2.9s1.394-2.958,3.6-2.959q16.63,0,33.26,0c3.357,0,6.714-.006,10.072.007a5.5,5.5,0,0,1,1.386.155,2.875,2.875,0,0,1,2.131,3.09,2.845,2.845,0,0,1-2.723,2.583c-1.208.054-2.42.021-3.63.022h-27.171C-468.77,1810.139-468.77,1810.139-468.945,1811.983Z" transform="translate(-50.497 -65.372)" fill="#c99a28"/>
    <path id="Trazado_171937" data-name="Trazado 171937" d="M-468.682,1776.449l11.608-.062,2.2,4.992a1.115,1.115,0,0,1-.945.207c-3.429.009-6.858-.012-10.287.02-.717.007-1.112-.127-1.3-.917C-467.756,1779.257-468.249,1777.861-468.682,1776.449Z" transform="translate(-60.839 -46.212)" fill="#43a047"/>
    <path id="Trazado_171938" data-name="Trazado 171938" d="M-377.9,1775.753c.367.33.817.2,1.234.2,3.2.014,6.4.014,9.6.018-.448,1.567-.9,3.132-1.34,4.7a.577.577,0,0,1-.658.485c-3.695-.01-7.389-.006-11.281-.006Z" transform="translate(-121.518 -45.777)" fill="#43a047"/>
    <path id="Trazado_171939" data-name="Trazado 171939" d="M-418.88,1776.424l10.442.039c-.653,1.531-1.325,3.055-1.948,4.6a.8.8,0,0,1-.877.562c-1.631-.017-3.261-.013-4.892,0-.378,0-.663-.054-.824-.464C-417.6,1779.574-418.245,1778-418.88,1776.424Z" transform="translate(-95.048 -46.237)" fill="#43a047"/>
    <path id="Trazado_171940" data-name="Trazado 171940" d="M-473.719,2017.675c-.841-.013-1.687-.086-2.522-.021-.766.06-1.028-.25-.987-.952.018-2.887.061-5.775.039-8.662-.006-.745.166-1.114.962-.974a1.267,1.267,0,0,0,.234,0c.7-.008,1.524.209,2.072-.085.616-.33.289-1.267.434-1.928a6.384,6.384,0,0,1,5.788-4.983c3.472-.083,6.95-.09,10.421,0a6.188,6.188,0,0,1,5.862,5.784c.08,1.027.389,1.272,1.376,1.238,2.24-.078,2.242-.023,2.242,2.227,0,2.421-.047,4.843.024,7.261.027.917-.275,1.076-1.12,1.073-7.847-.033-15.693-.02-23.54-.018C-472.861,2017.638-473.29,2017.662-473.719,2017.675Zm11.363-7.079h-8.894c-2.421,0-2.376,0-2.422,2.443-.017.889.238,1.1,1.108,1.093,6.242-.039,12.484-.021,18.725-.021,2.564,0,2.531,0,2.537-2.567,0-.78-.23-.974-.989-.965C-455.646,2010.619-459,2010.6-462.356,2010.6Zm-.1-3.526c2.026,0,4.052.013,6.077-.01.483-.006,1.168.262,1.408-.191a1.958,1.958,0,0,0-.3-1.88,2.71,2.71,0,0,0-2.4-1.419c-3.195-.014-6.389-.031-9.583,0a2.823,2.823,0,0,0-2.811,2.473c-.137.719-.045,1.064.83,1.042C-466.976,2007.032-464.716,2007.07-462.456,2007.07Z" transform="translate(-54.966 -199.817)" fill="#040403"/>
    <path id="Trazado_171941" data-name="Trazado 171941" d="M-509.959,1919.087c1.053,0,2.107.009,3.159,0,1.622-.018,2.49-.712,2.508-1.983.018-1.291-.828-1.993-2.448-2.01-1.209-.013-2.419.023-3.628-.009A5.576,5.576,0,0,1-516,1909.8a5.47,5.47,0,0,1,5.04-5.7c.649-.079.822-.281.832-.922.037-2.593.061-2.563,2.616-2.565.711,0,.913.165.912.9,0,2.531.03,2.531,2.549,2.531,1.575,0,1.575,0,1.575,1.63,0,1.893,0,1.893-1.9,1.893-1.833,0-3.667-.009-5.5,0-1.67.01-2.621.76-2.6,2.019s.974,1.966,2.657,1.978c1.17.008,2.341-.02,3.51.009a5.452,5.452,0,0,1,5.526,4.965,5.382,5.382,0,0,1-4.819,5.97c-.856.118-1.06.387-1.04,1.212.052,2.256.01,2.207-2.311,2.275-.968.029-1.252-.227-1.218-1.212.076-2.177.02-2.18-2.147-2.18-1.9,0-1.9,0-1.9-1.9,0-1.621,0-1.621,1.565-1.621Z" transform="translate(-28.329 -131.546)" fill="#040403"/>
    <path id="Trazado_171942" data-name="Trazado 171942" d="M-363.829,1861.937c-.734,1.578-.735,1.58.819,2.478,3.135,1.813,6.278,3.611,9.4,5.441,1.286.753,1.555,2,.649,2.889-.815.795-1.673.577-2.56.061q-6.515-3.786-13.048-7.541-2.074-1.2-4.148-2.4c-1.433-.824-1.87-1.773-1.275-2.784q.875-1.485,3.061-.248a22.368,22.368,0,0,1,2.215,1.3c.775.567,1.265.538,1.607-.416a3.239,3.239,0,0,1,.446-.667C-365.925,1861-364.717,1861.227-363.829,1861.937Z" transform="translate(-125.707 -103.148)" fill="#a27b1c"/>
    <path id="Trazado_171943" data-name="Trazado 171943" d="M-297.181,2029.391c1.007-.014,2.014-.03,3.021-.041.144,0,.289.027.544.053a17.883,17.883,0,0,1-2.2,3.16.908.908,0,0,1-.827.3c-1.589-.022-3.178-.034-4.767-.049C-300.029,2031.639-298.346,2030.835-297.181,2029.391Z" transform="translate(-175.737 -219.973)" fill="#318335"/>
    <path id="Trazado_171944" data-name="Trazado 171944" d="M-453.718,1848.838c-2.031-.022-1.8.235-1.8-1.8,0-1.969-.219-1.705,1.886-1.708,1.9,0,1.6-.2,1.623,1.972C-451.993,1848.838-452,1848.838-453.718,1848.838Z" transform="translate(-69.877 -93.56)" fill="#fefefe"/>
    <path id="Trazado_171945" data-name="Trazado 171945" d="M-334.118,2043.933l-.434.066c-.271-.027-.542-.048-.812-.082-.721-.091-1.722.366-2.107-.229a3.317,3.317,0,0,1-.1-2.725c.431-1.2,1.677-.347,2.541-.546.5-.115.926.016.907.707C-334.148,2042.059-334.122,2043-334.118,2043.933Z" transform="translate(-150.733 -227.498)" fill="#fefefe"/>
    <path id="Trazado_171946" data-name="Trazado 171946" d="M-274.31,2004.985c.827.251,1.117.723.665,1.539a5.318,5.318,0,0,0-.265.763c-.693,1.887-.694,1.887-2.793,1.747C-275.947,2007.659-274.734,2006.555-274.31,2004.985Z" transform="translate(-192.709 -203.236)" fill="#318335"/>
    <path id="Trazado_171947" data-name="Trazado 171947" d="M-395.654,1898.849q4.03-7.043,8.054-14.089c.213-.374.428-.54.806-.22a.538.538,0,0,0,.1.052c2.524,1.292,2.525,1.292,1.112,3.744-.7,1.214-1.387,2.437-2.112,3.637-.27.447-.286.686.215,1.009,2.387,1.539,2.375,1.557,3.8-.912.7-1.214,1.436-2.41,2.089-3.649.3-.57.567-.575,1.07-.276q2.861,1.7,5.762,3.337c.489.275.662.459.326,1.03-2.762,4.7-5.489,9.416-8.226,14.129-2.908-1.689-5.838-3.342-8.716-5.081A21.784,21.784,0,0,1-395.654,1898.849Zm6.907,1.43c.669-.241.852-.879,1.145-1.392.861-1.507.844-1.517-.663-2.324-1.6-.86-1.621-.869-2.49.734-.248.457-.864,1.049-.538,1.426A6.628,6.628,0,0,0-388.747,1900.279Z" transform="translate(-111.002 -120.386)" fill="#deb247"/>
    <path id="Trazado_171948" data-name="Trazado 171948" d="M-404.923,1962.309a1.715,1.715,0,0,1-2.542,1.562c-1.077-.537-2.1-1.187-3.143-1.79l-14.66-8.456c-.135-.077-.272-.151-.4-.235a1.8,1.8,0,0,1-.81-2.479,1.744,1.744,0,0,1,2.537-.573c1.868,1.043,3.71,2.134,5.563,3.2,4.042,2.336,8.08,4.68,12.131,7A2.092,2.092,0,0,1-404.923,1962.309Z" transform="translate(-89.67 -165.488)" fill="#a27b1c"/>
    <path id="Trazado_171949" data-name="Trazado 171949" d="M-401.388,1930.614a21.778,21.778,0,0,0,4.285,2.709c2.878,1.739,5.808,3.392,8.716,5.081-.745,1.321-1.512,2.631-2.225,3.969-.288.54-.56.475-1.008.214q-5.955-3.461-11.932-6.882c-.457-.262-.6-.486-.279-.991C-402.985,1933.367-402.2,1931.984-401.388,1930.614Z" transform="translate(-105.268 -152.151)" fill="#a27b1c"/>
    <path id="Trazado_171950" data-name="Trazado 171950" d="M-282.63,1970.091c-.176,1.236-.36,2.47-.525,3.707-.074.554-.279.625-.762.344q-4.087-2.387-8.2-4.73c-.4-.228-.574-.44-.288-.906q.946-1.544,1.807-3.139c.286-.531.565-.465,1.011-.2,2.116,1.244,4.237,2.479,6.385,3.666A1.085,1.085,0,0,1-282.63,1970.091Z" transform="translate(-181.826 -175.746)" fill="#7b5d14"/>
    <path id="Trazado_171951" data-name="Trazado 171951" d="M-335.975,1938.228c.147.062.222.085.288.123,1.482.853,2.96,1.711,4.445,2.558.277.158.256.313.112.559q-1,1.71-1.973,3.438c-.245.439-.494.336-.845.129-1.3-.772-2.624-1.517-3.939-2.27-.315-.181-.6-.33-.324-.792.685-1.129,1.333-2.282,2-3.423A3.481,3.481,0,0,1-335.975,1938.228Z" transform="translate(-150.382 -157.381)" fill="#7b5d14"/>
    <path id="Trazado_171952" data-name="Trazado 171952" d="M-454.548,2033.789c3.355,0,6.71.023,10.065-.017.759-.009.99.185.989.965-.006,2.567.027,2.567-2.537,2.567-6.242,0-12.484-.018-18.725.021-.87.005-1.124-.2-1.108-1.093.045-2.442,0-2.443,2.422-2.443Z" transform="translate(-62.773 -223.01)" fill="#a27b1c"/>
    <path id="Trazado_171953" data-name="Trazado 171953" d="M-446.845,2014.851c-2.26,0-4.52-.038-6.778.02-.875.022-.967-.323-.83-1.042a2.823,2.823,0,0,1,2.811-2.473c3.194-.036,6.389-.018,9.583,0a2.71,2.71,0,0,1,2.4,1.42,1.958,1.958,0,0,1,.3,1.88c-.24.454-.926.186-1.408.191C-442.794,2014.865-444.82,2014.851-446.845,2014.851Z" transform="translate(-70.577 -207.598)" fill="#ffecb3"/>
    <path id="Trazado_171954" data-name="Trazado 171954" d="M-379.383,1925.761a6.625,6.625,0,0,1-2.546-1.557c-.327-.377.29-.969.538-1.426.869-1.6.885-1.594,2.49-.734,1.507.807,1.524.817.663,2.324C-378.531,1924.883-378.714,1925.521-379.383,1925.761Z" transform="translate(-120.365 -145.868)" fill="#fefefe"/>
  </g>
</svg>
